<?xml version="1.0" encoding="UTF-8"?>
<svg preserveAspectRatio="none" viewBox="0 0 1e3 100" xmlns="http://www.w3.org/2000/svg">
<path class="elementor-shape-fill" d="m-15.8-2.6c2.1 0.2 4.3 0 6.4 0.3-0.4 0.3-1.1 0.1-1.5 0.6 3 0.3 6.2 0.1 9.2 0.7-1.4 0.6-2.6 1-4.2 0.9-1.2-0.1-2.3 0.3-3.4 0.4-0.3 0-0.5 0.1-0.6 0.3 0 0.2 0.2 0.3 0.5 0.3 1.3 0.3 1.5 0.8 1.1 1.5s0.1 1 1.4 1h1.4c-0.5 0.3-1.1 0.2-1.6 0.4-0.4 0.1-0.9 0.1-0.9 0.4s0.5 0.3 0.9 0.4c2 0.3 4.1 0.6 6.1 0.9 0.5 0.1 0.9 0.1 1.5 0.3-2.6 0.5-5.3 0.2-8.1 0.8 1.9 0.5 3.5 0.2 5.1 0.2 1.9-0.1 3.8-0.2 5.7-0.2 1 0 2.3-0.2 3.1 0.4 0.2 0.1 0.8 0.1 1.1 0.1 1 0 1.9 0.1 2.6 0.6-0.6 0.6-0.8 2.3-0.8 2.9 0.5 2.5 3.2 0.7 3.4-0.5 0.8 2.1 2.8 3 5 3 1-0.2 1.4-2.5 3.2-2.1 1.6 0.7 2.4-0.8 3.9-0.3 0.8 0.5-0.4 2 0.8 2.3 1.4-0.6 3.1-1.6 4.7-1.6 0.2 1 0.9 1.4 1.5 1.4 0-1.4 0.6-1.9 1.4-2.1l3.6 0.3c0.6 0 1 0.1 1.5 0.2-0.6 0.7-0.9 1.4-1.1 2.2 1.4 0.2-0.6 3.6 3.7 4.3 1-1.3 2.7-0.5 4.5-2 0.2-1.4 1.9-2 0.7-3.4 0.1-0.1 0.1-0.2 0.2-0.3 0.9 0.1 1.9 0.2 2.9 0.3 1.7 0.2 3.4 0.4 5.2 0.6 0.6 0.6 1.3 0.6 1.9 0.2 0.9 0.1 1.8 0.1 2.8 0.2 0 1.8 1.1 3.3 4.1 2.7 0.6 2.1 2.4 2.5 3.8 2.7 1-0.4 3.9-0.4 3.8-3.5-1-0.6-0.6-1-0.4-1.4 0.8 0 1.6 0 2.4 0.1v0.7c2.7-0.5 0.1 1.3 0.2 1.7 0.2 0.7 0.9 1.4 1 2 0.1 3.2 3.2 0.9 4 2 0.2 1.3 0.8 2.8 2.1 3.1 1 0.2 1.5-0.9 2.3-0.5 3-2.1 0.2-3.8-0.2-4.4 0.3-1.3 0.3-2.5 1.7-3.5 0-0.4-0.4-0.7-0.8-1.1 1.1 0 2.4-0.1 3.5-0.2 2.1-0.1 4.2 0.1 6.3 0.1 5-0.2 10-0.8 15.1-0.6 2 0.1 4 0.5 6.1 0.3 3.3-0.3 6.6-0.2 9.9-0.1h5.1c0.1 0.5 0 0.9-0.5 0.9 1.1 2.8 2.8 3.6 4.2 3.9 1-0.1 1.7-0.7 2.9-0.6-0.2-1.5 1.5-1.1 2.4-2.7 0.2-0.5-0.3-1-0.3-1.4 0.8 0 1.4 0 2.2 0.1 2.8 0.1 5.7 0.1 8.5 0-0.5 0.9-0.3 2.2 1 3.9 3.1 0.8 5-1.6 4.4-4h2.6c0.1 0.1 0.2 0.1 0.2 0.3-0.7 1.4-1.7 1.1-2.7 1.5-0.1 0.3 1.1 0.2 0.8 0.9-0.9-0.1-1.1 0.7-0.9 1 0.3-0.6 1.2-0.3 1.9-0.4 1.1 0.5 0.3 2 0.5 3.1-0.4 0.1-1.6 0.8-1 1.3 0.8-0.1 0.9-1.2 1.6-1.3-0.5 1.8 0.2 0.5 1.1 0.9-0.5 1.2 1.1 1.1 1.1 2 0 1.1 1.2-0.7 2 0.1 0.3 1.5 1.1 4.2 4.2 3.7 1.6-0.3 2.5-2 2.8-4.1-0.1-1.1-1.4-1.1-0.9-2.2-0.9-0.7-2 0.1-2.1-1 0.4-0.9 3 0.7 3.4-0.1-1.4-0.3-1.5-1.5-1.6-2.7 2.9 1.5 5.9-0.1 7.1-2.8 0-0.1-0.1-0.1-0.1-0.2 1 0 2.2-0.1 3.2-0.1 0 0.3 0.1 0.6 0.2 0.9 1.2 4.6 3.8 3.2 3.4 5.1 4.7 1.3 6.7-2.6 7.3-4.7 0.1-0.4 0.2-0.8 0.2-1.3 5.9 0 11.7 0 17.6 0.1 4.1 0.1 8.3-0.1 12.3 0.2 1.9 0.1 3.9 0.1 5.8-0.2 0.5-0.1 1-0.1 1.5-0.1 1.1 0 2.4-0.2 2.9 0.6 0.4 0.5 1 0.5 1.8 0.5 2.5-0.1 4.9-0.1 7.4 0.3 0.4 0.1 1.4-0.2 0.9 0.5-0.1 0.2 0.7 0.2 1.1 0.2 2 0 4 0.2 6 0.4 0.8 0.1 1.6 0.1 1.8 0.8 0.1 0.5 1 0.6 1.8 0.6 1.5 0 3-0.1 4.6-0.1 0.9 0 1.8 0.1 2.5 0.5 0.2 0.1 0.4 0.2 0.6 0.2-0.1 2 0.6 3.8 1.7 5.5 0.7 0.4 1.5 0.4 2.2 1.1 2.8 3.4 2.3 0.4 4.4 0 0.7-0.1 3.2 1.9 4.6-1.6 0.5-1.3 2.8-1.6 2.8-2.6-0.1-0.4 0.1-0.7 0.4-1.1 3.1 0.2 6.3 0.4 9.4 0.5 2.6 0.1 5.1 0.4 7.7 0.5 2.3 0.1 4.6 0.1 6.7 0.2 1 0 1.9-0.4 2.9-0.5 3.5-0.2 6.9-0.3 10.4-0.3 1 0 2.1 0 3-0.5 0.4-0.2 1.1-0.2 1.8-0.2s1.4 0 2.1 0c7.5 0 15-0.2 22.4-0.1 4.9 0 9.8 0 14.7-0.4 1.2-0.1 2.3 0.2 3.4 0.3 3.5 0.3 7 0 10.5 0 0.4 0.6 0.9 1 0.9 1 0.9 0.1 0.9 1.2 2 1.6 0.8 0 2.1 0.7 3.7-1.1 1.2 0.1 1.6 2.3 2 3.3 0.3 0.5 1.7 0.1 1.3 1.1 1.1-0.2 1.6-0.3 2.9-0.8 0.3 0.2 1 0.8 1.2 1.2 0.6-0.3-0.5-1.5 0.2-1.4 1.7 0.3 1.1-0.8 1.8-1.6 0.4-0.3 0.9-0.1 1.3-0.6-0.1-0.2-1.2-0.3-0.8-0.8 1.5-0.2 0.4-1.2 1.5-1.6-0.4-0.4-0.9-0.4-1.2-1h0.8c-0.1 0-0.1 0.1-0.2 0.1 1.4 0.8 3.5 1.2 4.1 2.9-0.6 0.6-0.6-0.5-1.2-0.5 0.6 1.4-0.3 0.6-0.6 1.1 0.4 0.2 0.7 0.5 0.7 1-0.7 0.1-1.1 0.4-1.7 0.7 1.8 0.5-0.4 1.6-0.1 2.8 1.2-0.4 1.9 1.5 2.9 2.3 0 0.4-1 1.2-0.4 1.3 0.8-1.3 1.3-0.6 2-0.3 0.4-0.8 0.9-0.6 1.7-0.3 0.1-0.6 0-1.2 0.4-1.4 0.9-0.5 1.4 1.3 1.6 0.5-1.8-1.9 1-2.7 1.4-4.2-0.8 0.1-1.4-0.1-1.3-0.8 0.6 0 1.1-0.2 1.3-0.6-1 0-1.6-0.5-2.3-0.9-0.1-0.7-0.6-1.2 0-1.8-0.9 0-0.9 1-2 0.9-0.4-0.9 1.3-1.8 0-1.8-0.6 0.2-0.1 1.7-1.1 1.4-0.7-0.3-0.2-1.4-0.9-1.4 0 0.3 0.1 0.9-0.3 0.9-0.9 0.1-2.3-1.6-3.4-1.9 0.6 0 1.1 0 1.6-0.1h2 8.1c-0.1 1.3 2.5 2.1 2.6 3.2 1.2 0.3 2 1 3.1 0.9 1.5-0.1 2.5-1.7 3.7-2.1-0.2-0.7 0.5-1.4 0.9-2h12.8c-0.3 0.3-0.5 0.6-0.6 0.8-2 3.4 0.7 4.6 1.6 5.7 4 0.8 6.2-1 6.1-4.5 0-1.1-0.5-1.6-0.7-2h11.3c0.8 0 1.4-0.1 2.2-0.1-0.2 1.7 0.9 2.2 1 2.7 0.4 2.2 4.7 1.6 5.8-0.1 0.5-0.8 0-1.7 0.4-2.7h0.3c1.7 0 3.4 0.1 5.1 0.2 0.4 0.8 0.9 1.6 1 2.4-0.3 0.7-2.7 0.6-3.6 2.3-0.9 3.1 0.1 4.8 2.8 5.6 0.9 0.2 1.3-0.9 2.5-0.3 1.5 0.7 1.3 1.7 2.3 2.9 0.6 0.4 2.3 1.6 4 0.8 0.9-0.5 0.6-2.3 1.8-1 0.9-1.2 1.8-4.3 0.5-6.2-1.6-0.6-3.2-2.3-4.7-1.4-0.5-0.6-1.5-1-1.4-1.9 0.8-0.9 1.9-1.5 2.3-3.1h2.9c-0.3 0.8-0.3 1.7 0.7 2.6 2.5 1.9 4.1-0.4 4.3-2.4 0-0.1-0.1-0.1-0.1-0.2h15.4c0.5 0.9 1.1 1.7 1.7 2.3 1.1 1.1 0.8 2.6 1.1 3.4 1 0.9 2.8 1.3 4.6 1.7 0.4-2.3 5.6-0.8 7.2-2.9-1-1.3 1.1-1.7 1.4-2.7 0.3-0.7 0.3-1.4 0.3-2.2 1.5 0 3-0.1 4.6 0 3.6 0.2 7.1 0 10.6 0 5.1 0 10.3-0.3 15.3-1 0.9-0.1 1.7-0.1 2.6 0 1.9 0.2 3.8 0 5.7-0.1h4.7c-0.1 0.6-0.2 1.2-0.4 1.6-0.9 0.5-2.5-0.5-3.9-1.3-2.7-0.3-2 3.2-3.3 3.7-2.8-4.3-3.6 0.1-3.5 1.4 0.5 2.5 3.2 0.7 3.4-0.5 0.8 2.1 2.8 3 5 3 1-0.2 1.4-2.5 3.2-2.1 1.6 0.7 2.4-0.8 3.9-0.3 0.8 0.5-0.4 2 0.8 2.3 1.4-0.6 3.1-1.6 4.7-1.6 0.2 1 0.9 1.4 1.5 1.4 0-2.7 2.1-2.1 3.6-2.4 0.8-1.8 1.3-2.4 1.1-4.3 0.3-0.5 1.4 0.1 1.7-0.4 0-0.1-0.1-0.2-0.1-0.3h0.7c8.3 0 16.5 0 24.8-0.2h3.8c0.1 0.7-0.6 1.6 1.1 2.2 2.4 0.2 1.2-1.3 2-1.8-0.1-0.1-0.2-0.2-0.4-0.3 4.1 0 8.1 0.1 12.1-0.1 1.2-0.1 2.5-0.1 3.7-0.1-0.3 4 2.2 8.7 7 4.2 0.9-0.1 2.1 1.3 3.1 0.7 3.5-2.2-0.6-3.1-0.9-4.1-0.1-0.2-0.1-0.5-0.2-0.8 2.4 0 4.8 0 7.2-0.1 3.8-0.1 7.6-0.4 11.4-0.4h0.3c0.1 0.3 0 0.6 0 0.8-0.9 1.2-1.6-0.2-2.6 0.7 0.4 1.7 2.8-0.2 3 1.3-0.1 1.1-1 2.3 0.3 3.3 0.7-0.8 1.4 0.2 2-1.2 0.8 0.1 1.4 1.2 2.2 1.5 0.4-1.2 0.9-2 2.1-2 0.2-0.7-1.5-0.9-1.2-1.3 0.4-1 2.5 0.7 2.8-0.5-1.1-0.9-0.7-1.6-0.9-2.3 1.5 0.1 3.1 0.2 4.7 0.3 0.3 0 0.7 0 0.9 0.1 0.3 2.6 4.6 2.3 5.8 0.6v-0.7h3.9c-0.5 0.2-1 0.8-1.5 2.1 0.9 3.6 3.2 0.1 3.9 0.3 5.2 5.5 5.4 0 6.4-1.1 1.9 1.5 3.6 1 4.7-0.4h16c2.8 0 5.6 0.1 8.4 0.1 4.8 0 9.7-0.1 14.4-0.2 2.5-0.1 4.9 0 7.4 0.1 4.2 0.1 8.4 0 12.5 0.1 4 0.1 8 0.1 11.9 0.1 0.1 1.8 1.1 3.2 2.5 4.2 0.8-1.2 1.8 0.6 3.4-0.2 1.8-0.9 2-2.5 1.7-3.9 6.7 0.1 13.5 0.1 20.2 0.1 4.2 0 8.4 0.3 12.4 0.4h2.2c-0.9-0.5-1.9-0.4-2.8-0.5-3-0.1-6-0.1-9-0.1-7.8-0.2-15.6-0.4-23.4-0.5v-0.2c0.5 0 1 0.1 1.5 0 4-0.4 8-0.1 12 0.1 8.2 0.3 16.3 0.1 24.4 0.9-0.2 0.1-0.6 0-0.6 0.2s0.3 0.2 0.5 0.2c0.9 0.1 1.7 0.1 2.6 0.2h5l-0.3 0.3c0.3 1.7 2.1 1.8 2.7 3.3 0.7 0.1 1-0.5 1.5 0 0.7-1.2 1.6-0.5 2.2-0.9 0.7-0.4 0.6-1.8 1.1-2.6-0.1-0.2-0.1-0.3-0.2-0.4 0.2 0 0.4 0 0.6 0.1 2.7 0.4 5.4 0.4 8.2 0.3 1.4-0.1 2.8-0.1 4.3-0.1 0.1 0.7 0.2 1.5-0.9 2.3 0 2.9 4.1 5 5.8 1.2 0.2-1.1-0.2-2.5-0.6-3.4h0.4 1c4-0.1 8 0.1 12 0.2-0.4 0.5-0.7 1.1-1.3 1.4 0 1.5 1.7 1.9 2.2 3.4 1.5-0.4 3.7 1 4.4-3 0.1-0.6-0.1-1.2-0.5-1.6 3.4 0.1 6.7 0.3 10.2 0 1.3-0.1 2.7 0.3 4 0.3 2.6 0 5.2-0.2 7.8-0.4 0.1 0.2 0.2 0.5 0.2 0.7 1.3-0.7 0.7 1 1.8 1.4 1 0.2 5.1 0.8 7.5-3h2.5 0.4c-0.1 1.1-0.4 2-0.5 3.1-1.4 0.4-1.7 2.7-0.5 3.5 1.2 0.3 2.1-0.6 3.3-0.3 1.6 3.3 5.6 1.5 6.9-0.4-0.8-1.6 0-4.7-1.2-6.4 0.2 0 0.4 0 0.5-0.1 2.2-0.4 4.5-0.6 6.6-0.6 6.2-0.1 12.4-0.4 18.6-0.4 4.6 0.1 9.2-0.1 13.8-0.3-0.6 0.3-1 1.1-1.3 1-0.4 0-0.2-1.2-0.9-0.9-0.7 0.5-1.1 1.6 0.7 1.6-0.4 0.7-0.6 1.7-0.7 2.8 1 1.5 2.8 2.5 5.1 1.9 0.9-1 2.6-3.6 0.9-5.4 0.4-0.2 0.4-0.7 0.5-1.3 1 0 2.2-0.1 3.2-0.1l6-0.3c0.4 0.3 0.9 0.5 1.6 0.5 0.3 1.7 0.8 2.3 1 4 1.5 2.6 3.1 0.9 4.2 1.1 0.6 0.1 0.5 1.2 0.5 1.2 1.8 0.3 2.3-1 1.8-2.6 0.9 0 1.6 1.2 1.7 1.1 0.9-0.7-0.1-1.5 0.3-2.2 0.1-0.2 2.5-0.5 1.5-2.6-0.3-0.7 0.5-1 0.6-1.6l7.5-0.9c4-0.6 8-0.6 12.1-0.6 1.1 0 2.2 0 2.4-0.9 0.1-0.4 0.7-0.3 1.1-0.4 4.9-0.5 10-0.8 15-1.2 2.6-0.2 4.9-0.9 7.6-1 1.3-0.1 2.8-0.1 4.3-0.4-0.9-0.5-1.7-0.3-2.8-0.4 1.3-0.2 2.3-0.3 3.3-0.5 2.8-0.4 5.4-0.7 8.1-1.2 0.7-0.1 1.3-0.3 1.2-0.8s0.6-0.5 1.1-0.6c0.9-0.1 1.8-0.1 2.8-0.2 1.4-0.1 2.8-0.1 3.7-1 0.9-0.7 2.3-1.1 3.9-0.9 0.5 0 1.1 0.1 1.3-0.3s-0.5-0.5-1-0.7c-1-0.3-2-0.6-2.9-0.9-0.8-0.2-1.2-0.7-1.4-1.2-0.3-0.5-0.1-0.8 0.9-0.9 0.4 0 0.7-0.1 1-0.1 0.4-0.1 1 0 0.9-0.4 0-0.3-0.7-0.3-1-0.4-0.8-0.1-1.5 0-2 0.3-0.9 0.6-1.8 0.2-2.8 0.2-0.1 0-0.3-0.1-0.3-0.1 0.2-1-1.2-0.7-2-0.8-1.1-0.2-2.7-0.3-3.1-0.8-0.8-0.8-2.3-0.4-3.1-1.1-0.6-0.5-2.2-0.5-3.4-0.5-0.9 0-1.8 0-2.7-0.2 0-0.4 0.9-0.3 0.8-0.7-0.3-0.3-0.9-0.3-1.5-0.3-3.1-0.1-6.3 0.2-9.4 0.3-4.4 0.2-8.7 0-13 0.1 0.7-0.1 1.4 0 2-0.3-0.1-0.2-0.5-0.2-0.7-0.2-4.5 0.1-8.9-0.2-13.5-0.2-1.9 0-3.8-0.1-5.7-0.4-2.3-0.4-4.7-0.1-7-0.3-1.2-0.1-2.4-0.4-3.5-0.5-2.7-0.2-5.3-0.3-7.9-0.7-4.7-0.7-9.6-0.3-14.4-0.4-2.1 0-4.2-0.3-6.4-0.2-3.4 0.1-6.7 0.1-10.2 0.1 0.4-0.3 0.7-0.6 0.9-0.9-0.9-1.9 0.8-6.2-3.3-6.5 0.1-1.1-0.7-1.5-1.7-1.6-1.3 0.5-1.6 2.6-3.6 1.9-0.1 1.4-0.4 2.4-0.6 3.8-1.3 0.4-1.6 2.3-0.4 3 1.1 0.2 2-0.5 3.1-0.2 0.1 0.2 0.3 0.4 0.4 0.6-3.1 0.1-6.2 0.2-9.2-0.3 0.2-0.1 0.8 0 0.9-0.3-1.5-0.5-10.2-0.5-16 0.1h3.5c-1.1 0-2.3 0.1-3.4 0.1-0.3-0.2-0.5-0.4-0.8-0.7-0.8 0.5-1.5 0.5-2.2-0.5-0.3 0.5-0.8 0.8-1.3 1.1h-1.4c-0.9-0.1-2-0.1-3 0-3.4 0-6.7 0-10.2-0.3-1.4-0.1-2.8 0.1-4.2 0.1-3.9 0-7.8 0.1-11.6-0.4-0.1-0.2-0.2-0.4-0.3-0.5-0.7-0.6-1.3-0.2-1.8 0.5-10.4-0.1-20.7-0.4-31-0.3h-1c3.4-0.6 6.9-0.4 10.4-0.5 2.5-0.1 4.9-0.2 7.4-0.5 0.9-0.1 1.9-0.2 1.1-1v-0.2-0.1c0.5 0.3 0.9 0.6 1.1 1.2 0.7 0.1 1-0.5 1.4 0 0.6-1.1 1.5-0.5 2.1-0.8 0.6-0.4 0.6-1.6 1-2.2-0.2-0.5-0.8-0.8-0.9-1.4 0-0.4 0.6-0.3 0.4-0.8-1 0-1.2-0.9-2.4-0.2-0.1-0.7-0.7-1.2-1-1.6-0.3 0.5-0.7 1.4-1.2 1.2-0.9-0.3-1.1 1.2-1.9 0.8 0.2 1.1 0.5 1.5-0.2 2.2 0 0.2 0.1 0.3 0.2 0.5h-0.9c-3.6 0-7.3-0.1-10.9 0.1h-2.3c0.9-0.7-0.1-0.7-0.8-0.7-1.5-0.1-3-0.2-4.7-0.2 0.1-2.7-1.3-4.2-3.1-5.2-1.6 1.3-5-1.3-7.3 3.8 0 0.5 0.1 0.9 0.2 1.3-3.9 0-7.8 0.1-11.6 0.3-8.9 0.3-17.9 0.4-26.7 0.1-6.4-0.2-12.7-0.2-19-0.2-1.7 0-3.5 0.1-5.2 0.2 0-0.1 0-0.1-0.1-0.2-0.9-0.6-1.3-0.7-1-1.8-1.3-0.3-2.2-0.9-3.5-0.2-0.1-0.4-0.5-1.2-0.5-1.7-1.4-0.1-2.5-0.1-3.4-1.7-2.1 0.5-4.9-0.9-5.4 0.4-0.3 0.9-0.2 2.2-0.8 2.9-1.6-1.5-2.5 0.1-3.7 0-0.4 0.8-0.4 1.4-0.2 2.2h-7.2c1.1-0.5 2-1.7 2.3-3.1 0.5-2.5-2.8-1.7-3.4-3.6-1.8-0.2-1.9 2.5-3.1 3.1-1.7-1-3.2-2.1-4.7-0.9-1.7 1.6-0.1 2.5-0.9 3-0.7-0.4-2-1-2.9 1.5h-4.4c0.9-0.2 1.7-0.5 2.1-1.1 0.5-4.8-3-2-4.7-2.9-1.5 2.5-0.5 3.7 1 4h-3.5-2.9c-1.2-1.1 0.5-2-1.8-2.8 0.6-0.3 0.1-0.9 0.6-1.3-0.5-0.4-1.3 0.3-1.8 0-0.1-0.5-0.3-1.2-0.9-1.7-0.8 1.1-1.4 0.9-1.9 0.1-0.9 0.1-0.2 1.1-0.9 1.2-0.7 0.2-1.5-1.2-2.2-0.7 0.2 0.5 0.1 1.3-0.4 1.8 1.4 0.9 1.1 1.5 1 1.9-0.9 1.1-1.5-0.2-2.5 0.6 0.3 1.2 1.9 0.3 2.6 0.7h-0.3c-3.2 0-6.5 0.1-9.8 0.4-4.1 0.4-8.3 0-12.3-0.1-5.8-0.2-11.7-0.4-17.5 0-0.6 0-1.1 0.1-1.6 0.1 0.3-0.4 0-1 0.5-1.2-1.2-1.2-2.6-1.6-3.1-0.7 0.5 0.6-0.3 1.3 0.5 1.9-1.2 0-2.5-0.1-3.7-0.2-3.1-0.2-6.2-0.1-9.2 0h-0.8c-0.6-2-2.1-5.7-7.3-2.7-0.7 0.7-0.9 1.7-1 2.8-2.2 0-4.3 0-6.5-0.1h-5.9c-0.1-0.3-0.2-0.5-0.2-0.7-1.5-0.2-4.2-3.1-6.6 0.2-0.1 0.2-0.1 0.4-0.1 0.6h-7.2v-0.6c0.3-0.4 1.4 0.1 1.6-0.3-0.3-1.2-1-2.1-0.9-3.5-1.2 0-1.8-1-2.7-1.6 1-0.5 0.6-1.3 0.5-1.7-1.5 0.3-1.9-0.9-3-1.4-0.5 0.2-1.4 0.4-0.8 1.7-1.2-0.5-2.6 0.6-3.7 0.4-0.5-0.6 0.4-2.5-1.5-2.3-1.8 1.3 1.6 3.6-1.4 4-0.2-0.6-0.7-1.6-1.7-1.5-1.4 1.4 1.7 1.9 0.6 2.9-2.8-0.1-2.1 2.3-2.8 3.8h-1.9c-0.6-0.2-1.2-0.6-1.9-0.9-1-0.1-1.5 0.3-1.8 0.9h-3.9c-0.9-1.3-3.1-1.8-4.2-3.1-1.9-0.8-3.8 0.3-5.1-0.3-0.7 0.6-2.1 1.3-1.8 2.5-0.7 0.3-2.3 0.7-2.8 1.3-4.8-0.3-9.8-0.5-14.7-0.3-3.8 0.1-7.6 0.6-11.4 0.7h-2.2c0-0.2 0.1-0.3 0.1-0.5-0.7-0.6-0.8-1.5-1.6-1.8-1-0.3-1.8 0.5-2.7 0.8-0.2 0.5-0.5 1-0.5 1.5h-2.9c0.3-0.4 0.5-0.9 0.5-1.6-0.7-2.5-3.3-3.4-4.8-3.1-0.7 0.4-1.1 1.2-1.8 1.6 0.5 0.9-0.6 1-0.6 1.7 0.1 0.5 0.4 0.9 0.7 1.3h-0.5c-1.7 0-3.4-0.1-5.2-0.1 0-0.3 0.1-0.7 0.4-1.1-1.1-2.8-5.9-3.2-6.8-0.3-0.2 0.6-0.2 1-0.1 1.4h-0.9c0.1-0.4 0.1-0.8 0.1-1.2-0.5-0.8-1.4-1.1-1.2-2.4-0.3 0-0.9 0.1-0.9-0.1 0-1.1-0.6-1.4-0.8-2.3 0.1-0.5 0.8-0.4 0.7-1.1-0.9-0.2-0.8 0.5-1.2 0.7-0.6-0.8-1.3-1.6-1.9-1.6-0.5 0.3 0.2 0.8-0.2 1.3-0.8-0.2-0.7 0.5-1 0.7-0.3-0.5-0.5-0.3-1-0.2 0.1 1.5 1 0 1.2 0.9-0.5 0.5-0.6 1.3-0.9 2-0.4 0.3-1 0.3-0.9 1.1 1 0 1.9 0.1 1.7 1.3 0.6 0 1.2-0.1 1.2 0.4v0.6h-0.8-5.5c-0.3-0.6-0.8-0.9-0.6-1.5 1.1-0.2 1.4-0.6 2.4-1.3-0.6-0.5-1 0.5-2.8 1.3-2.4-2.4-5.3 0.7-5.9 1.5h-4.3-7.6c-1.1-1-2.8-1.4-4.2-1.3-1.6 0.2-2 0.7-2.1 1.2h-13c-0.7-0.4-1.3-0.7-1.8-0.4 0.3 0.1 0.6 0.3 0.9 0.4h-43-8.7c-0.2-0.1-0.4-0.2-0.6-0.5-0.5-0.9 0.9-1.2 0.7-1.6-0.5 0-1 0.2-1.4-0.2-0.1-0.5 0.2-2.4-1.9-2.1-0.9 0.3-2.1 0.9-2.7-0.1-1.9 0.9-2.7 2.2-4 2.9-0.3-3.1-2.8-0.9-3.3-2.3-0.7 0.4-1.6 0.5-1.6-0.3-0.3-0.6-2.2 0.9-2.1 2.3 0.1 0.6 1.1 0.8 0.1 1.1-0.1 0.3 0 0.6 0.2 0.9h-0.5c-2.8 0.2-5.5 0.1-8.3 0.1-0.1-0.4-0.1-0.9 0-1.4-2.3 0.5-0.7-1-0.8-1.4-0.9-3.4-4.5-1.6-5.7-4.1-0.7 0.6-2.2 0-1.2 1.3-3.5-0.1-8.5 3-8.9 5.5-2.5-0.1-4.9-0.2-7.4-0.1-3.2 0.1-6.6-0.3-9.8 0.2-1 0.1-2.2-0.1-3.2-0.1-4.8 0.2-9.7-0.3-14.6-0.2-4.3 0.1-8.5 0.2-12.9-0.1-1.1-0.1-2.3 0-3.3 0.2-0.4-1.3-1.9-0.6-2.7-1.7-1.7 0.6-2.7-1.3-3.7 1 0.1 0.4 0.1 0.7 0.1 1.1h-1.5-1.5c0.2-0.4 0.4-0.8 0.5-1.2 0.5-1.5 0.5-4.6-2.7-4.7-0.7 0-0.9-0.6-0.9-0.6-3.5-1.1-7.7 1.4-6.6 5.1 0.2 0.5 0.3 0.9 0.5 1.3-1.1 0-2.4 0-3.5 0.1-2.7 0.1-5.4 0.2-8.1-0.1-2.5-0.2-4.8 0.2-7.2 0.3-3.5 0.1-7 0.5-10.6 0.4-3.5-0.1-6.9 0.3-10.4 0.5-1.5 0.1-2.9 0.1-4.4 0.1v-0.1c-0.9-0.6-1.9 0.1-1.9-0.8 0.4-0.8 2.8 0.6 3.2-0.1-1.3-0.2-1.4-1.3-1.5-2.3 2.8 1.3 5.6-0.1 6.7-2.4-0.6-0.9 0.3-2 0.1-2.9-0.2-0.6-2.3-0.2-0.8-1.5-1.7-0.6-2.6-1.6-4.3-1.4-0.3 0-0.1 0.8-0.5 1-0.6 0.2-1.5-0.3-1.7-0.2-0.9 0.6-1.2 1.9-1.9 2.8-0.8-0.1 0.2-1.2-0.8-1.1-0.9-0.1 0.4 1-0.5 0.9-1-0.3-1.6-0.9-2.7-0.6 0.2-0.7-0.5-0.9-0.4-1.6-0.5-0.3 0.1-1.2-0.7-1.4-0.1 1.2 0.7 2 0.8 3-0.3 0.7-1 0.7-1.7 0.8 0.9 0.5-0.2 0.8 0 1.2-0.9-0.5-1.3 0.2-1.6 0.2-0.4 0.1-1.3-0.3-1.4 0.4 0.4 0.2 1.6 0 1.5 0.5-0.7 1.2-1.6 0.9-2.5 1.3-0.1 0.3 1 0.2 0.8 0.8-0.9-0.1-1.1 0.6-0.9 0.9 0.3-0.5 1.1-0.3 1.8-0.3 1 0.4 0.2 1.7 0.4 2.7-0.2 0.1-0.6 0.2-0.9 0.5h-3.4c-7.7-0.1-15.5 0-23.2-0.2h6.9c-0.8-0.4-1.4-0.4-2-0.4h-23c-0.8 0-1.5 0.1-2.1 0.4-0.3 0.1-0.6 0.2-0.9 0.2-2.6 0-5 0.1-7.5-0.3-1-0.1-2.1-0.2-3.2-0.2-3.1-0.1-6.3-0.1-9.4-0.1-0.4-0.4-0.9-0.8-0.9-1 0.3-1.1 0.3-2.2 1.6-3 0-0.6-1-1-1-1.7 0.8-0.8 1.1-1.6 1-2.3-1.2-1.3-2.7 2.2-3.4-0.2-1.4 0.9-2.6 0.1-4 0.2-0.8 1.2-3.2 0.7-3.1 3.7 2.6-0.4 0.1 1.1 0.2 1.5 0.2 0.6 0.9 1.2 0.9 1.7s0.1 0.9 0.3 1.1h-4.8c-0.9 0-1.9 0-2.8 0.1-0.3 0-0.7 0-0.8 0.1-0.9 0.9-2.3 0.5-3.4 0.5-4.6-0.3-9-0.3-13.6 0-0.2-0.4-0.5-0.8-1.1-1.2-0.8 0.2-1 0.7-0.9 1.2-1.5 0-2.9-0.1-4.5-0.1-5.2-0.1-10.4-0.1-15.7 0.3-1.7 0.1-3.5-0.1-5.2-0.1h-19.9c-1.1 0-2.2 0.1-3.3 0.3-0.8 0.1-1.8 0.5-2.5-0.2-0.1-0.1-0.6-0.1-0.9-0.1-3.6 0.1-7.2 0.1-10.8 0.2-2.9 0.1-5.9 0.1-8.8 0.1-3.2 0-6.4 0.2-9.5 0.4 0.5-0.6 0.9-1.1 0.1-1.9 0.3-0.4 0.9-0.9 0.9-1.3-0.4-0.9-1.5-0.2-2.3-0.6 0.2-1.3-1-1-2-1.5-1.8 0.6-4.2 2-4.8 4.4 0.6 0.1 0.6 0.7 0.7 1.4-1.1 0-2.2 0.1-3.3 0.1-4.2 0.2-8.5 0.2-12.7 0.7-3.5 0.4-7.1 0.5-10.5 1.1-1.3 0.3-2.8 0.4-4 1-0.3 0.2-1 0.2-1.6 0.3 0.9 0.4 1.8 0.1 2.6 0.3-1.3 0.7-3.2 0.2-4.5 0.9 1.3 0.5 2.8 0 4 0.6-1.8 0.1-3.5 0.2-5.2 0.2-2 0-4 0-6 0.3-1.2 0.1-2.2 0.4-2.5 1.3 0 0.1-0.2 0.3-0.3 0.4-0.8-0.2-0.8-0.2 0.7-0.1zm736.8-11.5c0.3 0.1 0.5 0.2 0.7 0.4h-1.3c0.2-0.2 0.4-0.3 0.6-0.4zm-13.6 0.3h-1.5c0.1-0.3 0.2-0.5 0.4-0.6 0.3 0.2 0.7 0.4 1.1 0.6zm-24.6 29.6c1.6-0.3 3.5-0.1 5.3 0 1.9 0.1 3.8 0 5.6-0.1 3.4-0.2 6.8 0.1 10.3 0.1 1.1 0 2.4 0.1 3.5 0.1 2.9 0 5.9-0.1 8.8 0.3 1.3 0.2 2.8 0.1 4.2-0.1 2.4-0.3 4.7-0.1 7 0 4.9 0.2 9.9 0.2 14.7 0.1h2.4c0 0.2 0 0.3-0.1 0.5-0.6 0-1-0.1-1.6-0.1-4.3-0.4-8.5-0.1-12.9-0.1-2.4 0-4.7-0.1-7-0.1-5.2 0-10.4 0.1-15.7 0.4-2.5 0.1-4.9 0.1-7.4-0.1-4.3-0.4-8.5-0.2-12.7-0.1h-2.8c-3.4-0.2-6.8-0.2-10.3-0.1 0.1-0.1 0.2-0.3 0.2-0.4h1c2.8 0.1 5.1 0.1 7.5-0.3zm-20.3 0.4c0 0.1-0.1 0.2-0.3 0.3-0.2-0.1-0.4-0.2-0.7-0.3h1zm-441-28.5c-0.1 0.2-0.1 0.3-0.1 0.4h-0.6c0.2-0.2 0.4-0.4 0.7-0.4zm-207.9 20.6c-0.2 0.5-0.4 0.9-0.8 1.1-0.3-0.5-0.6-0.8-0.9-1.1h0.6 1.1z"/>
<path class="elementor-shape-fill" d="m492.9-22.3c-0.9 0.6-0.9 2.7 0 3.3 2.6 0.5 2.2-3.7 0-3.3z"/>
<path class="elementor-shape-fill" d="m385.2 27.4c0.2 0 1.1-0.2 1.2-0.4-0.5 0-1.4-0.2-1.2 0.4z"/>
<path class="elementor-shape-fill" d="m388.8 30.8c0 0.4-0.9 1.1-0.8 1.6 0.4-0.3 1.5-1.4 0.8-1.6z"/>
<path class="elementor-shape-fill" d="m42.2 28.4c-1.2 1.4-0.5 2.7 1 2.8 1.1-0.7 1.9-2.8-1-2.8z"/>
<path class="elementor-shape-fill" d="m276.4 24.2c2 1.3 4.6 0.4 3.7-3.1-1.2-0.7-4.7-1.1-3.7 3.1z"/>
<path class="elementor-shape-fill" d="m395.4 29.4c0.4 0.4 0.1 1.5 0.9 1.5 0.3-0.5-0.5-1.6-0.9-1.5z"/>
<path class="elementor-shape-fill" d="m392.6 40.2c0.6-1.6-0.4-1.8-1.1-3.3 0 1.4-0.1 2.9 1.1 3.3z"/>
<path class="elementor-shape-fill" d="m503.4-22.8c-0.7-1.2-1.8-1.8-3.8-1.6-1.1 1-1.9 2.7-1 4.2 1.7 2 5.4 1 4.8-2.6z"/>
<path class="elementor-shape-fill" d="m637.9 24.9c1.5 0.6 0.8-1.2 0.9-2-1.3-0.3-1.4 1.3-0.9 2z"/>
<path class="elementor-shape-fill" d="m812.3 24.1c1.2 2.4 3.4 0.1 2.2-1.3-0.9-0.8-1.8 0.2-2.2 1.3z"/>
<path class="elementor-shape-fill" d="m524.9 21.3c0.4 1-0.7 4.2 2.7 4.3 2.9-0.8 3.1-3.4 2.1-4.7-2.1-2.3-3.3 0.8-4.8 0.4z"/>
<path class="elementor-shape-fill" d="m46.3 19.1c-1.2 0.4-1.3 1.9-0.1 2.5 0.3 0.2 0.6-0.5 0.9-0.1-0.7 1.8 0.9 0.9 1.1 0.2-0.8-0.8-0.7-1.8-1.9-2.6z"/>
<path class="elementor-shape-fill" d="m42.7 23.4c-1.2 1.3-2.2 3.8 1.7 4.8 0.4-1.4 3-1.9 1.1-3.9-0.9-0.7-2-1.4-2.8-0.9z"/>
<path class="elementor-shape-fill" d="m492.8 33.9c-1.6 1-0.7 3.1 1.2 2.4 0.7-0.9-0.2-2.7-1.2-2.4z"/>
<path class="elementor-shape-fill" d="m909.1 20.5c1.5 0.9 3.4-0.3 2.5-2.1-2.5-1.5-3 0.7-2.5 2.1z"/>
<path class="elementor-shape-fill" d="m891.8 18c-1.9 0.9-2.5 5.7 0.5 4.7 1.4-0.5 1.8-0.7 2.8-0.9 1.8-0.4 1.8-1.9 1.8-2.8-0.9-1.4-3.8-0.5-5.1-1z"/>
<path class="elementor-shape-fill" d="m335.8 31.6c-1.8-1.2-2.1 1.7-3.7 0.4-1.2 2.2 0 4 1.3 4.5 3.1 0.3 4.4-3.2 2.4-4.9z"/>
<path class="elementor-shape-fill" d="m325.7 25.8c0.3 0.9 3.1 3.2 4-1.3-1.3-1.9-4.5-0.8-4 1.3z"/>
<path class="elementor-shape-fill" d="m339.1 21.5c0.4 1.2 2.5 1.5 3.3 0.5-0.5-4.8-3.3-2.1-3.3-0.5z"/>
<path class="elementor-shape-fill" d="m233.4 19c-0.3-2-2-1-2.9-2.3-1.8 0.7-2.8-1.5-3.9 1.1 0.4 1.9-0.6 3.4 1.2 5.5 0.6 0.4 2.2 0.5 4.2-0.2 2.5-0.7-0.3-3.6 1.4-4.1z"/>
<path class="elementor-shape-fill" d="m475.5 24.8c-0.9-0.5-1.9 0.2-1.3 1.5 0.7 1.3 2.5 1 2.4-0.8-0.3-0.1-1.4 0.2-1.1-0.7z"/>
<path class="elementor-shape-fill" d="m401.7 32.7c0.2-0.1 0.7 0.2 0.7-0.3-0.3-0.1-0.7 0-0.7 0.3z"/>
<path class="elementor-shape-fill" d="m407.5 22.3c0 0.3 0.7 0.3 0.8 0-0.4 0-0.7-0.5-0.8 0z"/>
<path class="elementor-shape-fill" d="m409.1 23.4c0.6 0.3 1 0 0.9-0.2-0.1-0.1-0.6-0.1-0.9 0.2z"/>
<path class="elementor-shape-fill" d="m854.5 27.2c-0.9-0.4-1.4-1.2-1-2.1-0.9-0.2-1.9-0.4-2.8-1.6-0.9 0.6-1.5 0.5-2.3-0.5-0.9 1.6-3.7 2.5-5.1 2.3 0.1 1.1 1.6 0.1 2.1 1 0.1 1.1 0.3 2.1-1.2 2.5 1.3 1.3-0.3 1.8 0.2 2.4 0.7-0.4 3.1-1.2 3 1.8 0.7-0.2 1.3-0.6 1.9 0.5 0.6-0.9 0.9-1.8 2.2-0.9 0.8 0.6-0.6 1.1 0.3 1.6 1-0.5 0.6-1.4 0.6-1.9 0.3-1.2 1.3-2.3 2.3-2.8-1-0.8-1.1-1.8-0.2-2.3z"/>
<path class="elementor-shape-fill" d="m408 23.4c-0.9 0.2-2.9-0.4-2.8 0.3 0.8-0.2 0.8 0.4 1.4 0.3-0.2-0.7 2.4 0.1 1.4-0.6z"/>
<path class="elementor-shape-fill" d="m410.7 23.1c0.5 0.2 0.9 0.3 0.9-0.1 0.2-0.2-0.6-0.2-0.9 0.1z"/>
<path class="elementor-shape-fill" d="m127.4-19.4c-0.1-0.8-1.3-0.7-1.6-1.2-0.9 0.1-1.2 1-1.3 1.7 0.7 1.6 2.8 1.1 2.9-0.5z"/>
<path class="elementor-shape-fill" d="m686.8-17.5c1.7-1.4-0.2-1.6-0.8-1.8-0.8 0.9-0.3 1.7 0.8 1.8z"/>
<path class="elementor-shape-fill" d="m674.3-20.5c0.8-0.8-0.4-1.7-1-1.7-0.8 0.7 0.2 1.5 1 1.7z"/>
<path class="elementor-shape-fill" d="m851.2-10.8c0.3-1.3-0.6-3.3-1-3.6-1.2-0.8-2.9-0.6-3.7 0.3 0.1 0.7 0.4 1.5-0.8 2.2 0 2.5 3.8 4.3 5.5 1.1z"/>
<path class="elementor-shape-fill" d="m195-17.2c1 2.4 2.7 3.1 4 3.4 0.9-0.1 1.6-0.6 2.8-0.5-0.2-1.3 1.4-0.9 2.3-2.3 0.2-0.7-0.8-1.3 0-1.6 1-2.3-3.1-3.1-5.3-2.9-0.4 1-2.2 0.3-3.1 1.4-0.8 1 0.4 2.5-0.7 2.5z"/>
<path class="elementor-shape-fill" d="m943.7-14.3c-0.4 0.6-0.6 1.5-0.7 2.4 0.9 1.3 2.7 2.1 4.8 1.6 0.9-0.8 2.4-3.1 0.9-4.6 0.6-0.3 0.4-1.3 0.7-1.8-0.5-1.6-4.1-1.9-3.3 0.8-0.9-0.3-1.6 1-2.1 1-0.4 0-0.2-1-0.9-0.8-0.7 0.5-1.1 1.4 0.6 1.4z"/>
<path class="elementor-shape-fill" d="m932.9-11.8c1.4 0.7 3.2-0.3 2.3-1.8-2.3-1.4-2.6 0.5-2.3 1.8z"/>
<path class="elementor-shape-fill" d="m920.8-21.1c-0.8-0.8-2.1-0.2-2.1 0.2 1 1.4 2.2 1.2 2.1-0.2z"/>
<path class="elementor-shape-fill" d="m933.4-21.7c0.1-1.1-0.9-1-0.9-1.6-1.4-0.2-2.1 0.8-1.7 1.8 0.5 0.6 2.3 0.5 2.6-0.2z"/>
<path class="elementor-shape-fill" d="m917.1-10c1.3-0.4 1.7-0.6 2.8-0.8 1.7-0.3 1.7-1.7 1.7-2.4-0.9-1.1-3.6-0.3-4.8-0.8-1.9 0.7-2.5 4.8 0.3 4z"/>
<path class="elementor-shape-fill" d="m931-16.9c0.5-0.7 1.2-0.9 1.1-2.1-0.6 0-0.3-0.5-0.3-0.8-2.7-2.1-4.8 0.1-4 1.8 0.7 1 1.8 1.2 3.2 1.1z"/>
<path class="elementor-shape-fill" d="m218.3-18.9c-2.4-0.8-7 0.5-3.6 4.4 3.5 0.9 5.3-2.1 3.6-4.4z"/>
<path class="elementor-shape-fill" d="m343.1-17.3c1.2-0.4 3.2-2.1 2.2-2.8-1.1-0.2-1.2-1.4-1.9-1.8-2.4-0.7-4.2 1.2-3.1 3.6 0.5 1.2 1.4 0.3 2.8 1z"/>
<path class="elementor-shape-fill" d="m864.1-9.4c1.4-0.3 3.5 0.8 4.2-2.6 0.4-2-3.2-2.8-4.5-2-0.5 0.3-0.9 1.3-1.7 1.7 0 1.3 1.5 1.6 2 2.9z"/>
<path class="elementor-shape-fill" d="m862.1-15.7c-1.4-1.6-2.6-1.2-3.7 0.3 0.5 0.9 1.8 3.1 3.7-0.3z"/>
<path class="elementor-shape-fill" d="m133.1-15.7c0.6 1.8 2.3 2.2 3.6 2.4 0.9-0.4 3.7-0.4 3.6-3.1-1.2-0.6-0.3-1-0.3-1.4-1.1-1.5-1.6-1.9-3.4-2.5-1.6-0.3-1.3 0.8-2.2 0.5-0.9-0.7-1.2-1.4-2.2-1.7-3.6 0.6-4.5 7 0.9 5.8z"/>
</svg>
