<?xml version="1.0" encoding="UTF-8"?>
<svg preserveAspectRatio="none" viewBox="0 0 1e3 100" xmlns="http://www.w3.org/2000/svg">
<path class="elementor-shape-fill" d="m920.5-93.9c4.6 0.4 5.2-5.5-0.4-4.1-3.7 1-2.2 3.9 0.4 4.1z"/>
<path class="elementor-shape-fill" d="m829.4-92.6c4.6 0.4 5.2-5.5-0.5-4.1-3.6 0.9-2.1 3.8 0.5 4.1z"/>
<path class="elementor-shape-fill" d="m739.2-91.1c3.5-0.3 3.9-5.7-1.4-4.4-4 1.1-1.7 4.7 1.4 4.4z"/>
<path class="elementor-shape-fill" d="m648.1-89.8c3.5-0.3 3.8-5.7-1.4-4.4-3.9 1-1.9 4.6 1.4 4.4z"/>
<path class="elementor-shape-fill" d="m985.2-87c6-0.1 6.2-9.1-2.3-6.6-6.1 1.8-0.8 6.7 2.3 6.6z"/>
<path class="elementor-shape-fill" d="m557-88.5c3.5-0.3 3.8-5.7-1.4-4.4-3.8 1-1.9 4.6 1.4 4.4z"/>
<path class="elementor-shape-fill" d="m894.1-85.7c6.1-0.1 6.2-9.1-2.3-6.6-6.1 1.8-0.8 6.6 2.3 6.6z"/>
<path class="elementor-shape-fill" d="m465.9-87.3c3.6-0.2 4.2-5.3-0.9-4.4-5.2 0.9-1.5 4.6 0.9 4.4z"/>
<path class="elementor-shape-fill" d="m803-84.5c6.1-0.1 6.2-9.1-2.3-6.6-6.1 1.9-0.8 6.7 2.3 6.6z"/>
<path class="elementor-shape-fill" d="m377.1-86.7c2.2-1.8-0.1-4.3-3.2-3.8-6.5 1.2 0.4 6.2 3.2 3.8z"/>
<path class="elementor-shape-fill" d="m711.9-83.2c6.1-0.1 6.2-9.1-2.3-6.6-6.1 1.8-0.8 6.6 2.3 6.6z"/>
<path class="elementor-shape-fill" d="m285.6-85.1c3-1.6 0.5-4.6-2.7-4.1-6.2 1.1-0.4 5.7 2.7 4.1z"/>
<path class="elementor-shape-fill" d="m620.8-82c6.1-0.1 6.2-9-2.3-6.6-6.1 1.9-0.8 6.7 2.3 6.6z"/>
<path class="elementor-shape-fill" d="m194.4-83.9c2.7-1.4 0.5-4.6-2.7-4.1-5.8 1-0.3 5.8 2.7 4.1z"/>
<path class="elementor-shape-fill" d="m956.5-79.5c9.9 0.9 9.4-10.3-0.5-8.5-6.3 1.3-6 7.9 0.5 8.5z"/>
<path class="elementor-shape-fill" d="m529.7-80.7c6.1-0.1 6.2-9.1-2.3-6.6-6.1 1.8-0.8 6.6 2.3 6.6z"/>
<path class="elementor-shape-fill" d="m103.3-82.6c2.6-1.4 0.4-4.8-2.7-4.1-5.5 1.3-0.2 5.7 2.7 4.1z"/>
<path class="elementor-shape-fill" d="m873.2-82.3c0.1-3.2-3.6-5.3-8.2-4.4-3.8 0.7-4.5 2.5-4.6 4.1-0.2 5.9 12.6 5.8 12.8 0.3z"/>
<path class="elementor-shape-fill" d="m438.6-79.5c6.1-0.1 6.2-9.1-2.3-6.6-6.2 1.9-0.8 6.7 2.3 6.6z"/>
<path class="elementor-shape-fill" d="m12.2-81.4c2.6-1.4 0.5-4.8-2.7-4.1-5.4 1.3-0.2 5.8 2.7 4.1z"/>
<path class="elementor-shape-fill" d="m782.1-81.4c-0.1-3-3.5-4.8-7.7-4.1-4.1 0.7-4.9 2.4-5 4.1-0.4 6 12.9 6 12.7 0z"/>
<path class="elementor-shape-fill" d="m347.5-78.2c6.1-0.1 6.2-9.1-2.3-6.6-6.2 1.8-0.8 6.6 2.3 6.6z"/>
<path class="elementor-shape-fill" d="m691-80.4c-0.4-2.8-3.5-4.4-7.7-3.8-3.8 0.6-4.8 2.3-5 3.8-0.8 6 13.5 6.7 12.7 0z"/>
<path class="elementor-shape-fill" d="m260.9-79.5c0.9-3.1-2.4-5.1-6.4-4.1-9.3 2.3 4.4 11 6.4 4.1z"/>
<path class="elementor-shape-fill" d="m599.9-79.5c-0.5-2.3-2.6-4-7.3-3.4-3.6 0.5-5.2 1.9-5.5 3.8-0.9 6.9 14 5.9 12.8-0.4z"/>
<path class="elementor-shape-fill" d="m165.3-75.7c6.2-0.1 5.8-8.5-1.8-6.6-4.9 1.2-3.6 6.7 1.8 6.6z"/>
<path class="elementor-shape-fill" d="m933.3-72c8-1.4 6.2-11.4-4.1-10-10.8 1.5-5.6 11.7 4.1 10z"/>
<path class="elementor-shape-fill" d="m508.8-76.7c0.6-3.6-2.9-5.2-6.4-5-4.9 0.2-6.1 2-6.4 3.8-0.8 5.7 11.8 6.5 12.8 1.2z"/>
<path class="elementor-shape-fill" d="m75.1-74.5c5.1-0.6 5.2-7.6-1.8-6.6-6.9 1.1-3.7 7.2 1.8 6.6z"/>
<path class="elementor-shape-fill" d="m842.2-70.7c3.1-0.5 5.6-3.6 5-6.3-0.6-2.9-4.1-4.4-9.1-3.8-10.9 1.5-5.6 11.8 4.1 10.1z"/>
<path class="elementor-shape-fill" d="m417.6-75.4c0.6-3.8-2.9-5.7-8.2-4.7-14.3 2.7 6.6 14.1 8.2 4.7z"/>
<path class="elementor-shape-fill" d="m751.1-69.5c3.2-0.6 5.8-3.7 5-6.6-0.7-2.6-4.4-4.1-9.1-3.4-10.8 1.4-5.6 11.7 4.1 10z"/>
<path class="elementor-shape-fill" d="m326.5-74.2c0.7-3.9-3.5-5.6-8.2-4.7-3.3 0.6-4.4 2-4.6 3.4-0.8 6.7 12 6 12.8 1.3z"/>
<path class="elementor-shape-fill" d="m660-68.2c3.2-0.6 5.8-3.7 5-6.6-0.7-2.6-4.4-4-9.1-3.4-10.6 1.3-5.8 11.7 4.1 10z"/>
<path class="elementor-shape-fill" d="m235.4-72.9c0.6-3.6-2.1-5.8-8.2-4.7-3.4 0.7-4.5 1.9-4.6 3.8-0.2 6.2 12 5.5 12.8 0.9z"/>
<path class="elementor-shape-fill" d="m993-65.7c3.3 0.3 6.3-0.2 8.7-2.2v-7.8c-11.1-8.1-24.2 8.5-8.7 10z"/>
<path class="elementor-shape-fill" d="m568.9-66.9c3.1-0.5 5.8-3.5 5-6.6-0.7-2.6-4.3-4-9.1-3.4-10.4 1.2-5.7 11.7 4.1 10z"/>
<path class="elementor-shape-fill" d="m144.3-71.7c0.6-3.6-2.1-5.8-8.2-4.7-3.4 0.7-4.5 1.9-4.6 3.8-0.2 6.2 12 5.6 12.8 0.9z"/>
<path class="elementor-shape-fill" d="m894.6-69.5c1.1 7.1 18.6 6.8 17.8-1.6-0.4-3.6-4.1-6.6-11.8-5-4 0.9-6.6 2.9-6 6.6z"/>
<path class="elementor-shape-fill" d="m477.8-65.7c8.2-1.5 5.8-11.4-4.1-10-10.1 1.4-5.9 11.8 4.1 10z"/>
<path class="elementor-shape-fill" d="m53.2-70.4c0.7-3.8-3.4-5.6-8.2-4.7-3.3 0.6-4.5 1.7-4.6 3.8-0.2 5.7 12 5.9 12.8 0.9z"/>
<path class="elementor-shape-fill" d="m803.5-68.2c0.8 5.2 12.4 6.9 16.4 2.8 4.8-4.8-1.3-11-10-9.4-5 0.9-6.9 3.5-6.4 6.6z"/>
<path class="elementor-shape-fill" d="m387.1-64.5c7.2-1.5 5.6-11.4-4.6-10s-5.7 12.2 4.6 10z"/>
<path class="elementor-shape-fill" d="m712.4-66.9c1.4 8.9 25.6 4.6 16.4-4.7-1.4-1.4-5.3-2.7-10-1.9-5.2 0.9-7 3.2-6.4 6.6z"/>
<path class="elementor-shape-fill" d="m296-63.2c7.2-1.5 5.6-11.4-4.5-10s-5.9 12.2 4.5 10z"/>
<path class="elementor-shape-fill" d="m621.3-65.7c1.2 7.4 17.8 5.7 18.2-0.3 0.3-3.9-4.7-7.6-11.8-6.3-5.2 0.9-7 3.2-6.4 6.6z"/>
<path class="elementor-shape-fill" d="m205.8-62.3c7.6-2.5 2.9-10.9-5.5-9.7-10.7 1.6-4.9 13.2 5.5 9.7z"/>
<path class="elementor-shape-fill" d="m959.3-60.7c1.4 1.1 8.1 3.2 10 3.1 4.3-0.2 9.2-4.5 8.2-8.8-0.8-3.5-5.1-5.7-10.9-5.3-8.1 0.6-12.6 7-7.3 11z"/>
<path class="elementor-shape-fill" d="m530.2-64.5c1.1 7 18.5 6.7 18.2-0.9-0.1-4-5.3-6.8-11.8-5.6-5.1 0.9-6.9 3.4-6.4 6.5z"/>
<path class="elementor-shape-fill" d="m103.3-66.3c-1.2 8.8 17.3 6.8 15-0.9-0.7-2.3-4.5-4.1-9.1-3.4-4 0.5-5.6 2.2-5.9 4.3z"/>
<path class="elementor-shape-fill" d="m867.2-60.4c1.3 1.6 8.4 4.2 10.9 4.1 4.4-0.2 9.1-4.5 8.2-8.8-0.8-3.6-5-5.7-10.9-5.3-7.5 0.5-11.7 5.6-8.2 10z"/>
<path class="elementor-shape-fill" d="m445-58.2c15.2 2.7 15.7-14.3 0.5-11.6-8.1 1.5-8 10.3-0.5 11.6z"/>
<path class="elementor-shape-fill" d="m24.5-60.1c6.9-3.2 1-10.2-5.9-9.4-12.2 1.4-4.3 14.1 5.9 9.4z"/>
<path class="elementor-shape-fill" d="m775.2-61.3c0.6 3.1 8.1 6.6 12.3 6.3 4.1-0.3 8.6-4.7 7.7-8.8-0.8-3.6-5.1-5.7-10.9-5.3-6.8 0.4-9.9 3.7-9.1 7.8z"/>
<path class="elementor-shape-fill" d="m348-61.9c1.2 7.2 18.9 6.7 18.2-1.3-0.3-3.5-4.4-6.7-11.8-5.3-4.3 0.7-7.1 2.8-6.4 6.6z"/>
<path class="elementor-shape-fill" d="m684.1-60.1c0.6 3.1 7.8 6.4 11.8 6.3 6.6-0.2 10.8-8.6 5.9-12.2-1.7-1.3-5.1-2.1-8.7-1.9-6.6 0.4-9.7 3.7-9 7.8z"/>
<path class="elementor-shape-fill" d="m264.1-55.4c13.7 1.3 14.1-14.6-0.9-11.9-9 1.7-7.4 11.1 0.9 11.9z"/>
<path class="elementor-shape-fill" d="m593-60.1c-0.1 4.1 7.1 7.7 11.8 7.5 4-0.1 7.9-3.9 8.2-6.9 0.5-5.1-4.2-7.7-10.9-7.2-6.3 0.5-9 3.4-9.1 6.6z"/>
<path class="elementor-shape-fill" d="m173.9-54.1c12.8 0.5 12.9-14.6-1.8-11.9-9.4 1.7-7.3 11.5 1.8 11.9z"/>
<path class="elementor-shape-fill" d="m501.9-59.1c-0.3 4.3 6.8 8 11.8 7.8 3.8-0.1 7.8-3.7 8.2-6.6 0.7-5.1-4.1-8-10.9-7.5-6.1 0.5-8.9 3.3-9.1 6.3z"/>
<path class="elementor-shape-fill" d="m84.2-52.9c11.1-0.4 11.3-14.5-3.2-11.9-9.7 1.8-7.2 12.3 3.2 11.9z"/>
<path class="elementor-shape-fill" d="m410.8-58.2c-0.5 4.3 6.5 8.3 11.9 8.1 3.8-0.1 7.8-3.6 8.2-6.6 0.7-5-4.1-8-10.9-7.5-5.8 0.5-8.9 3.2-9.2 6z"/>
<path class="elementor-shape-fill" d="m319.7-56.9c-0.4 4.2 6.4 8.3 11.8 8.1 4.6-0.1 9.1-4.5 8.2-8.8-0.7-3.5-5-5.8-10.9-5.3-5.6 0.5-8.8 3.2-9.1 6z"/>
<path class="elementor-shape-fill" d="m230.9-50.7c6.5 5.2 19.5 2.8 17.8-5.6-0.7-3.5-5-5.8-10.9-5.3-8.4 0.7-11.9 6.9-6.9 10.9z"/>
<path class="elementor-shape-fill" d="m139.3-49.7c1.5 1.5 7.9 3.6 10.5 3.4 4.5-0.3 8.6-4.6 7.7-8.8-0.7-3.6-5.1-5.9-10.9-5.3-7.8 0.7-11.6 6.5-7.3 10.7z"/>
<path class="elementor-shape-fill" d="m48.2-48.5c1.3 1.3 8.2 3.8 10 3.8 4.4 0 9.1-4.8 8.2-9.1-0.7-3.5-4.8-5.7-10.5-5.3-7.9 0.5-12.2 6.2-7.7 10.6z"/>
<path class="elementor-shape-fill" d="m1001.6 58.3v-12.2c-15.8-4.5-16.8 15.8 0 12.2z"/>
<path class="elementor-shape-fill" d="m916 56.1c2.8-5-2.8-10.2-10.9-9.1-6 0.9-9.3 4.6-6.8 9.1 2.6 4.9 15 4.6 17.7 0z"/>
<path class="elementor-shape-fill" d="m813.9 48.3c-13.8 2-5.5 16.4 6.8 12.2 8.7-3 4.7-13.9-6.8-12.2z"/>
<path class="elementor-shape-fill" d="m734.2 58c2-5.6-4.1-9.5-11.4-8.5-6.8 1-9 5.1-6.8 9.1 3.3 5.9 16.7 3.7 18.2-0.6z"/>
<path class="elementor-shape-fill" d="m643.6 58.3c0.9-4.8-4.6-8.3-11.4-7.5-7.2 0.8-9.6 4.9-7.3 9.1 3.5 6.2 17.7 3.5 18.7-1.6z"/>
<path class="elementor-shape-fill" d="m541.1 52c-9 0.9-10.7 10.6-1.8 12.5 15.4 3.5 17.5-14.1 1.8-12.5z"/>
<path class="elementor-shape-fill" d="m450 53.3c-9.9 1-9.9 10.7-1.8 12.5 15.4 3.4 17.5-14.2 1.8-12.5z"/>
<path class="elementor-shape-fill" d="m969.3 53.3c-11.5 1.6-6.2 12.7 4.6 11 9.2-1.6 6.6-12.6-4.6-11z"/>
<path class="elementor-shape-fill" d="m370.3 61.7c0.7-5.1-5-7.9-11.4-7.2-9 0.9-10.9 10.4-2.3 12.5 5.7 1.5 13-0.7 13.7-5.3z"/>
<path class="elementor-shape-fill" d="m888.2 58c-1.2-2.3-4.1-4.3-10-3.4-3.5 0.5-5.8 2.1-6.4 3.4-4.7 10.5 21 9 16.4 0z"/>
<path class="elementor-shape-fill" d="m267.8 55.8c-10.1 1.1-10.3 10.5-1.4 12.5 14.6 3.3 17.1-14.2 1.4-12.5z"/>
<path class="elementor-shape-fill" d="m787.1 55.8c-9 1.3-7.1 9.8-1.4 11 13.6 2.7 16.2-13.1 1.4-11z"/>
<path class="elementor-shape-fill" d="m176.7 57c-10.6 1.1-9.1 11.6-0.9 12.8 14.7 2.2 16.3-14.4 0.9-12.8z"/>
<path class="elementor-shape-fill" d="m696 57c-7.4 1-9 9.1-1.4 11 13.1 3.1 16.2-13.1 1.4-11z"/>
<path class="elementor-shape-fill" d="m85.6 58.3c-10.6 1.1-9.1 11.6-0.9 12.8 14.7 2.1 16.3-14.4 0.9-12.8z"/>
<path class="elementor-shape-fill" d="m604.9 58.3c-8.2 1.1-8.4 10.3 0 11.3 12.5 1.4 13.9-13.3 0-11.3z"/>
<path class="elementor-shape-fill" d="m513.8 59.5c-9.3 1.3-7.4 10.8 0.9 11.3 11.7 0.7 12.6-13.2-0.9-11.3z"/>
<path class="elementor-shape-fill" d="m422.7 60.8c-10.6 1.6-5.8 10.9 0.9 11.3 11.3 0.6 13.2-13.4-0.9-11.3z"/>
<path class="elementor-shape-fill" d="m942.4 60.8c-12 1.8-1.5 13.4 6.4 8.4 5.3-3.3 0.8-9.5-6.4-8.4z"/>
<path class="elementor-shape-fill" d="m331.6 62c-11.3 1.8-5.4 12.3 3.6 11.3 9.5-1 8.8-13.3-3.6-11.3z"/>
<path class="elementor-shape-fill" d="m851.3 62c-8.4 1.3-6.4 9.9 1.8 9.7 8.6-0.2 9-11.3-1.8-9.7z"/>
<path class="elementor-shape-fill" d="m240.4 63.3c-11.2 1.8-5.4 12.3 3.6 11.3 9.6-1.1 8.9-13.4-3.6-11.3z"/>
<path class="elementor-shape-fill" d="m760.2 63.3c-8.1 1.2-6.3 9.9 1.8 9.7 8.3-0.2 9.4-11.4-1.8-9.7z"/>
<path class="elementor-shape-fill" d="m159.8 69.9c0-3.5-3.9-6.4-10.5-5.3-3.8 0.6-6.1 2.8-6.4 4.4-1.8 9.5 17 8.3 16.9 0.9z"/>
<path class="elementor-shape-fill" d="m669.1 64.5c-8.1 1.2-6.3 9.9 1.8 9.7 8.4-0.1 9.4-11.4-1.8-9.7z"/>
<path class="elementor-shape-fill" d="m58.7 65.8c-11.8 1.6-6.2 12.6 3.6 11.3 9.3-1.3 7.8-12.8-3.6-11.3z"/>
<path class="elementor-shape-fill" d="m578 65.8c-8.9 1.4-5.7 9.8 1.8 9.7 9-0.1 8.9-11.3-1.8-9.7z"/>
<path class="elementor-shape-fill" d="m486.9 67c-8.9 1.3-5.7 9.8 1.8 9.7 9-0.1 8.9-11.3-1.8-9.7z"/>
<path class="elementor-shape-fill" d="m395.8 68.3c-8.1 1.2-6.3 9.8 1.8 9.7 8.5-0.1 9.3-11.4-1.8-9.7z"/>
<path class="elementor-shape-fill" d="m915.5 68.3c-7.9 1.2-4.6 8.5 2.3 7.8 6.7-0.6 5.8-9-2.3-7.8z"/>
<path class="elementor-shape-fill" d="m304.7 69.5c-8.2 1.2-6.3 9.8 1.8 9.7 9.5-0.1 8.7-11.3-1.8-9.7z"/>
<path class="elementor-shape-fill" d="m824.4 69.5c-7.6 1.2-4.8 8.5 2.3 7.8 6.6-0.5 5.9-9-2.3-7.8z"/>
<path class="elementor-shape-fill" d="m213.6 70.8c-8.6 1.3-5.6 9.8 1.8 9.7 9.4-0.1 9-11.4-1.8-9.7z"/>
<path class="elementor-shape-fill" d="m733.3 70.8c-7.9 1.3-4.5 8.8 2.7 7.8 6.3-0.8 5.3-9.1-2.7-7.8z"/>
<path class="elementor-shape-fill" d="m122.5 72c-8.6 1.4-6 10.1 2.3 9.7 8.8-0.4 8.1-11.4-2.3-9.7z"/>
<path class="elementor-shape-fill" d="m642.2 72c-7.7 1.3-4.6 8.7 2.7 7.8 6.3-0.7 5.3-9.1-2.7-7.8z"/>
<path class="elementor-shape-fill" d="m31.4 73.3c-8 1.4-6.2 10.1 2.3 9.7s8.5-11.6-2.3-9.7z"/>
<path class="elementor-shape-fill" d="m551.6 73.3c-8.6 1.1-4.9 8.6 2.3 7.8 6.3-0.7 5.2-8.8-2.3-7.8z"/>
<path class="elementor-shape-fill" d="m460.5 74.6c-8.4 1.1-4.7 8.6 2.3 7.8 6.4-0.7 5.3-8.8-2.3-7.8z"/>
<path class="elementor-shape-fill" d="m979.8 74.9c-6.6 1.2-1.5 5.7 1.4 5.6 4.9-0.1 5.6-6.9-1.4-5.6z"/>
<path class="elementor-shape-fill" d="m369.4 75.8c-8.5 1.1-4.9 8.6 2.3 7.8 6.3-0.6 5.2-8.8-2.3-7.8z"/>
<path class="elementor-shape-fill" d="m888.6 76.1c-5.8 1.1-2.3 5.7 1.4 5.6 5.1-0.1 5.6-6.8-1.4-5.6z"/>
<path class="elementor-shape-fill" d="m278.7 77.1c-9.3 0.8-5.2 8.6 1.8 7.8 6.5-0.7 5.1-8.5-1.8-7.8z"/>
<path class="elementor-shape-fill" d="m798.5 77.4c-7.3 0.5-3 5.5 0 5.6 4.9 0.2 6.4-6.1 0-5.6z"/>
<path class="elementor-shape-fill" d="m186.2 78.6c-7.5 1.6-3.5 8.2 3.2 7.5 6.4-0.6 5.8-9.3-3.2-7.5z"/>
<path class="elementor-shape-fill" d="m705.5 78.9c-3.9 1.2-1.7 5.2 1.8 5.3 6.3 0.3 5.6-7.5-1.8-5.3z"/>
<path class="elementor-shape-fill" d="m95.6 79.9c-8.1 1.3-4.2 8.2 2.7 7.5 6.7-0.7 5.5-8.9-2.7-7.5z"/>
<path class="elementor-shape-fill" d="m614.4 80.2c-3.6 1.4-2.1 5.1 1.8 5.3 6.9 0.3 4.9-7.9-1.8-5.3z"/>
<path class="elementor-shape-fill" d="m4.5 81.1c-8.1 1.3-3.8 8.2 2.7 7.5 6.2-0.6 5.8-8.9-2.7-7.5z"/>
<path class="elementor-shape-fill" d="m523.3 81.4c-3.6 1.4-2.1 5.1 1.8 5.3 6.9 0.4 4.9-7.8-1.8-5.3z"/>
<path class="elementor-shape-fill" d="m432.2 82.7c-3.6 1.4-2.1 5.1 1.8 5.3 6.9 0.3 4.9-7.9-1.8-5.3z"/>
<path class="elementor-shape-fill" d="m952 83.3c-4 2.6 7.1 3.3 3.6 0-0.6-0.5-2.7-0.6-3.6 0z"/>
<path class="elementor-shape-fill" d="m341.1 83.9c-4.7 1.8-0.5 5.2 1.8 5.3 6.8 0.4 5.1-7.9-1.8-5.3z"/>
<path class="elementor-shape-fill" d="m860.9 84.6c-3.9 2.7 7.1 3.3 3.6 0-0.6-0.6-2.7-0.7-3.6 0z"/>
<path class="elementor-shape-fill" d="m250.5 85.2c-3.9 1.2-2.4 5.1 1.4 5.3 6.2 0.3 5.2-7.3-1.4-5.3z"/>
<path class="elementor-shape-fill" d="m769.8 85.8c-4 2.6 7.2 3.4 3.6 0-0.6-0.5-2.7-0.6-3.6 0z"/>
<path class="elementor-shape-fill" d="m159.4 86.4c-4.9 1.5-1.4 5.9 2.7 5.3 4.4-0.6 3.7-7.2-2.7-5.3z"/>
<path class="elementor-shape-fill" d="m678.7 87.1c-4 2.6 7.2 3.4 3.6 0-0.6-0.6-2.7-0.7-3.6 0z"/>
<path class="elementor-shape-fill" d="m68.3 87.7c-4.9 1.5-1.4 5.9 2.7 5.3 4.4-0.6 3.6-7.2-2.7-5.3z"/>
<path class="elementor-shape-fill" d="m587.6 88.3c-3.2 2.2 5.3 3.8 4.1 0.6-0.3-0.5-2.5-1.7-4.1-0.6z"/>
<path class="elementor-shape-fill" d="m496.4 89.6c-0.9 0.6-0.9 1.5 0 2.2 4.6 3.1 5.2-5.6 0-2.2z"/>
<path class="elementor-shape-fill" d="m405.3 90.8c-3.5 2.3 6.5 3.8 4.1 0.3-0.4-0.6-2.8-1.1-4.1-0.3z"/>
<path class="elementor-shape-fill" d="m314.2 92.1c-3.5 2.4 6.5 3.8 4.1 0.3-0.4-0.6-2.8-1.2-4.1-0.3z"/>
<path class="elementor-shape-fill" d="m223.1 93.3c-1 0.7-0.5 2.2 0.5 2.5 5.5 1.9 3.7-5.3-0.5-2.5z"/>
<path class="elementor-shape-fill" d="m132 94.6c-1 0.7-0.5 2.2 0.5 2.5 5.5 1.8 3.7-5.3-0.5-2.5z"/>
<path class="elementor-shape-fill" d="m44.6 95.5c-0.4-0.2-2.9-0.2-3.6 0.3-5 3.5 9.2 2.5 3.6-0.3z"/>
<path class="elementor-shape-fill" d="m991.1-52.6c-7.3 2.7-13.3-4.7-18.7-3.1-2.4 0.7-3.5 7.1-8.7 8.8-6.5 2.1-15.8-0.7-16.4-5-0.4-3.3 4-4.1 4.1-7.2 0.2-6.6-13.6-8.7-19.1-4.7-2.5 1.8-4.9 6.7-4.1 8.1 1.5 2.9 10.3 1.7 12.8 5.3 6.9 10.1-19.3 14.3-19.6 3.8-0.1-3.1 5-5.8 4.6-8.1-0.4-2.2-9.8-5.7-15-5.3-8.3 0.6-5.9 7-10.9 8.8-4.5 1.6-7-0.3-10.9-1.6 0.2 0.1-5.6-2.2-7.7-1.6-2.3 0.7-4.1 7.3-8.7 8.8-6.7 2.1-15.9-0.8-16.4-5-0.4-3 4-4.8 4.1-7.2 0.1-6.1-12.1-8.6-18.2-5.3-3 1.6-5.9 7.1-5 8.8 0.4 0.7 2.4 1.4 2.7 1.6 3.9 1.4 8.5 1.5 10 3.4 5.4 6.9-6.9 10.6-10.9 10.3-3.9-0.2-8.4-2.5-8.7-5.9-0.4-4.7 5.2-5.4 4.6-8.5-0.4-1.8-8.9-5.3-13.7-5.3-9.6 0-6.8 6.8-12.8 8.8-6.6 2.2-12.6-4.3-17.8-3.1-2.8 0.6-3.6 6.1-7.7 8.1-5.4 2.7-17.2 0.3-17.8-4.4-0.4-3.4 4-3.8 4.1-7.2 0.1-6.3-12-8.3-17.8-5.3-3.4 1.8-6.4 7-5.5 8.8 1 1.9 11.6 3.5 12.8 5 7.6 9.8-19.8 15.5-19.6 3.7 0.1-4.2 5.3-4.3 4.6-7.8-0.5-2.4-10.5-5.5-14.6-5.3-8 0.4-6.5 7-11.4 8.8-6.5 2.4-13.8-4.5-18.7-3.1-2.5 0.7-2.6 5.5-6.4 7.8-6.1 3.8-18.1 0.5-18.7-4.1-0.3-2.7 4.1-5.4 4.1-7.2 0.1-4.6-6.9-6.8-10.9-6.9-7.4-0.1-13.9 7.1-12.3 10.3 0 0 12.6 4.9 12.8 5 3.4 4.2-1.4 9.7-7.7 10.3-5.5 0.5-11.7-1.6-11.8-6.3-0.1-3.5 5.3-4.8 4.6-8.1-0.6-2.9-13.2-6.9-18.7-4.4-3.7 1.7-4.3 6.7-7.3 7.8-6.5 2.4-13.8-4.5-18.7-3.1-2.4 0.7-3.6 6-6.8 7.8-2 1.1-4.6 1.9-8.7 1.6-2.5-0.2-9.2-2.1-9.6-5.6-0.4-3.6 4.1-3.5 4.1-7.2 0-6.7-13.6-8.8-19.1-4.7-2.2 1.6-4.7 6.9-4.1 8.1 0.4 0.8 11.9 4.3 12.3 4.7 4 3.8-1 9.9-6.8 10.6-6.9 0.8-12.2-2-12.3-6.3-0.1-3.1 5.5-5.7 5-8.1-0.3-1.3-8.6-5.2-13.2-5.3-10.8-0.4-8 8.9-15.9 9.4-7.5 0.5-10.4-5.3-15.9-3.7-3.2 0.9-2.4 5.4-6.4 7.8-6.4 3.9-18.5 0.2-18.7-4.4-0.1-2.8 4.1-4.8 4.1-6.9 0-6.6-12.5-8.4-18.2-5-2.1 1.3-6.1 6.2-5 8.5 0.7 1.3 11.6 4 12.3 4.7 4.1 3.8-0.5 9.9-6.8 10.6-5.8 0.7-12.2-1.5-12.3-6.3 0-2.9 5.5-5.9 5-8.1-0.2-1.2-8.4-5.1-12.8-5.3-11-0.6-8.1 7.5-14.6 9.1-7.3 1.8-11.7-4.7-17.3-3.4-3.3 0.7-2.8 5.4-6.8 7.8-5.6 3.3-18.2 1-18.7-4.1-0.3-3.3 4-5.3 4.1-6.9 0.3-6.8-13-9.1-18.7-5.3-2.7 1.8-5.2 7.1-4.6 8.5 0.9 1.8 10.9 3.4 12.3 4.7 9.9 8.8-19.1 16.2-19.1 4.4 0-2.5 5.4-6.3 5-8.1-0.3-1.5-8.5-5-12.3-5.3-11.1-0.8-8.5 7.5-15 9.1-6.9 1.7-11.9-4.6-17.3-3.4-3.2 0.7-3 5.6-6.8 7.8-5.9 3.5-18.5 0.8-18.7-4.4-0.1-3 4.3-4.7 4.1-7.2-0.4-5.6-11.9-8.5-18.2-4.7-2.4 1.5-5.9 6.8-5 8.5 0.9 1.8 10.7 3.3 12.3 4.7 4.3 3.7-1.2 9.9-6.4 10.6-7.8 1.1-12.7-2.1-12.8-6.3 0-2.6 5.2-6 5-7.8-0.3-2.8-13.2-7.1-19.1-4.7-3.7 1.5-4.3 7.2-8.2 8.1-6.8 1.6-12.6-4.9-17.8-3.4-2.4 0.7-2.8 5.4-5.9 7.5-1.2 0.8-5.8 2.2-8.2 2.2-3.4 0-10.6-2.5-10.9-5.9s4-4.2 4.1-6.9c0.3-6.4-12.1-9-18.2-5.3-2.7 1.6-5.8 6.8-5 8.4 1 2 10.8 3.3 12.3 4.4 3.7 2.9 0.8 9.2-4.6 10.6-7.7 2.1-14.5-1.7-14.6-5.9 0-2.6 5.2-5.9 5-7.8-0.4-3.5-13.6-6.5-18.7-4.7-3.9 1.4-3.5 6.3-7.3 7.8-7 2.9-13.8-4.7-19.1-3.1-2.7 0.8-2.3 4.7-5.5 7.2-1.1 0.8-4.9 2.4-7.7 2.5-3.9 0.1-11.5-2.3-11.8-5.9-0.3-3.1 4-4 4.1-6.9 0.2-4.1-5.5-7.1-10.5-7.2-6.9-0.1-14.5 6.9-12.8 10.3 0.9 1.7 11 3.5 12.3 4.7 3.1 2.6 1 9.6-5.9 10.6-6.4 0.9-13.1-1.4-13.2-6.3 0-1.5 1.4-2.8 2.3-4.1 0.5-0.7 3-3 2.7-4.1-0.5-2.6-13.4-6.7-19.1-4.4-3.2 1.3-2.9 5.8-6.4 7.5-6.7 3.4-14.6-4.3-19.6-2.8-2.8 0.8-3.9 9.5-13.2 9.7-3.7 0.1-11.5-2.1-11.8-5.9-0.3-3.7 4.4-3.6 4.6-6.9 0.1-4-7.4-7.1-10.9-7.2-6.1-0.1-14.6 6.5-12.8 10.3 0.2 0.5 12.9 5.2 12.8 5 3.2 3.5-0.7 9.5-6.4 10.3-5.9 0.9-13.1-1.1-13.2-6.3 0-2.9 5.6-5.6 5-8.1-0.8-3.1-11.9-5.7-17.6-4.9v13.5c0.3 0.1 0.7 0.2 1 0.4h0.1c0.3 0.1 0.6 0.3 0.8 0.4h0.1c0.6 0.3 1 0.7 1.4 1.2 0.2 0.2 0.3 0.4 0.5 0.6 0 0.1 0.1 0.1 0.1 0.2 0.1 0.2 0.2 0.3 0.3 0.5 0 0.1 0.1 0.1 0.1 0.2 0.1 0.2 0.1 0.3 0.2 0.5 0 0.1 0 0.1 0.1 0.2 0.1 0.2 0.1 0.5 0.1 0.8v1c0 0.1 0 0.2-0.1 0.3 0 0.2-0.1 0.5-0.1 0.7 0 0.1-0.1 0.2-0.1 0.3l-0.3 0.6c0 0.1-0.1 0.2-0.1 0.2-0.1 0.2-0.3 0.4-0.4 0.6 0 0.1-0.1 0.1-0.1 0.2-0.8 0.9-2 1.6-3.4 2v12.1c0.2-0.4 0.5-0.8 1-1.1 0.1 0 0.1-0.1 0.2-0.1s0.2-0.1 0.3-0.1 0.2-0.1 0.3-0.1c0-0.1 0.1-0.1 0.2-0.2s0.3-0.1 0.5-0.1c0.1 0 0.2-0.1 0.3-0.1 0.3-0.1 0.6-0.1 0.9-0.2 4.9-0.9 7.3 1.2 6.4 4.4-0.2 0.3-0.4 0.5-0.5 0.8 0 0.1-0.1 0.1-0.1 0.2-0.1 0.1-0.2 0.3-0.3 0.4 0 0.1-0.1 0.1-0.1 0.2-0.2 0.1-0.4 0.3-0.5 0.4 0 0-0.1 0-0.1 0.1-0.2 0.1-0.4 0.2-0.5 0.3h-0.2c-0.2 0.1-0.4 0.1-0.5 0.2h-0.2c-0.2 0-0.4 0.1-0.7 0.1h-0.2-0.6-0.2c-0.1 0-0.4-0.1-0.6-0.1h-0.1c-0.2-0.1-0.5-0.2-0.7-0.2-0.1 0-0.1 0-0.2-0.1-0.2-0.1-0.4-0.1-0.6-0.2 0 0-0.1 0-0.1-0.1-0.5-0.2-1-0.5-1.4-0.8h-0.1c-0.1-0.1-0.3-0.3-0.5-0.4-0.4-0.3-0.7-0.7-0.9-1s-0.3-0.5-0.4-0.7v39.7c2.4 0.4 3.9 1.5 4.7 2.8 0.3 0.5 0.5 1.1 0.6 1.7 0 0.3 0.1 0.6 0 0.9 0 0.6-0.2 1.2-0.4 1.8-0.7 1.7-2.4 3.3-4.9 3.8v7c1.3-1.2 3.2-2.1 6.5-2.1 4.5 0 12.3 3.2 12.8 5.3 0.7 2.9-4.3 4.7-4.6 7.5-0.4 5.5 8.8 8.3 15.5 6.3 4.5-1.4 8.1-6.7 5.5-10-1.6-2-11.4-3.2-12.3-4.7-1.9-3.4 2.3-8.6 6.4-9.7 7-1.9 14.4 1.3 15 5.6 0.3 2.3-4.2 4.4-4.1 7.5 0.2 4.4 11.8 8.2 18.7 4.7 3.5-1.8 4-6.9 7.3-7.8 6.2-1.7 11.2 5.2 18.2 3.1 4.1-1.2 3.2-8.9 12.3-9.1 3.6-0.1 12.7 3.1 13.2 5.3 0.6 2.4-4.5 5-4.6 7.8-0.1 5.9 10.4 7.5 15.5 5.9 3.5-1.1 8.4-6.3 5.5-10-0.6-0.7-3.6-1.5-5.9-2.2-6.5-2-5.5-0.8-6.4-2.2-1.4-2.1 1.3-6.9 2.3-7.8 5.7-5.3 18.6-2.1 19.1 3.8 0.2 2.3-4.6 5.2-4.6 7.2 0.1 1.6 3.7 3.4 5 4.1 2.4 1.1 5.2 2 8.6 1.9 9.4-0.4 8.3-7.9 12.8-9.1 6.2-1.6 11.7 5.1 18.2 3.1 3.5-1 3.2-5.9 6.8-7.8 5.1-2.8 17.9 0.6 18.7 4.1 0.4 1.8-4.4 5.6-4.6 7.5-0.4 5.1 7.3 7.1 11.9 6.9 3-0.2 13.4-4.2 9.1-10.3-0.8-1.2-7.3-2.9-9.6-3.8-6.7-2.5-0.6-10.3 5-11.3 6.6-1.1 13 1.2 13.7 5.9 0.4 3-4.7 5.3-4.6 7.5 0.1 1.7 3.5 3.4 5 4.1 2.5 1.2 5.8 1.9 8.2 1.9 9.8-0.2 8.5-8.4 13.2-9.4 6.3-1.3 9.3 4.4 16.4 3.8 4.6-0.4 5.8-6.5 9.1-8.1 0.9-0.4 3.3-1.2 5-1.3 3.8-0.1 12.6 2.6 13.2 5.3 0.5 2.3-4.3 4.1-4.6 7.5-0.4 5.6 7.7 7.6 13.7 6.6 3.9-0.7 11.5-6.2 6.8-10.6-1.6-1.5-11.3-3.3-11.8-4.1-2.6-3.9 2.5-9 6.8-10 6.2-1.5 14.3 1 14.6 5.6 0.2 2.4-4.7 5.5-4.6 7.5 0.1 1.1 2.9 3.2 4.6 4.1 4.5 2.2 11.3 2.5 15 0.3 2.1-1.2 4.6-7.4 6.8-7.8 6-1.2 9.7 4.3 16.4 3.8 7.2-0.6 4.3-9.2 14.1-9.4 4.9-0.1 12.7 3 13.2 5.3 0.3 1.3-1.9 3.1-2.3 3.8-0.8 1.3-2.3 2.5-2.3 4.1 0 4.5 6.5 6.9 11.8 6.6 6.6-0.4 12.4-6.6 9.1-10.6-0.9-1.1-12.2-4.3-12.3-4.4-2.4-3.1 1.7-8.8 6.4-10 6.7-1.8 14.7 1 15 5.6 0.3 4-4.7 4.7-4.6 7.5 0.3 4.9 14.4 7.5 19.6 4.4 3.4-2 3.5-7.1 6.8-7.8 6-1.2 10.8 4.5 16.9 3.8 4-0.5 4.8-6.7 8.7-8.5 5.1-2.3 17.6 1.1 18.2 4.4 0.5 2.4-4.6 5.3-4.6 7.8 0 3.9 5.1 6.8 11.4 6.6 5.2-0.2 14.1-6.2 9.1-11-1.5-1.4-10.3-2.2-11.8-4.1-2.6-3.2 1.9-9.3 7.7-10.3 5.6-1 13.3 1.1 13.7 6 0.2 2.8-4.7 4.7-4.6 7.5 0.2 4.5 13.5 7.6 19.1 4.7 3.6-1.9 4.6-7.1 6.8-7.8 5.9-1.8 9.8 4.1 16.9 3.4 5.3-0.5 3.8-5.6 8.2-8.1 5.3-3 18.5 0.8 19.1 4.1 0.4 2.2-4.6 4.9-4.6 7.8 0 3.7 5.1 6.6 10.9 6.6 5.6-0.1 14.1-5.5 10-10.6-0.8-1-11.8-4-12.3-4.7-1.5-2 0.4-5.9 2.3-7.5 5.7-4.9 18.7-2.7 19.1 3.4 0.2 3-4.7 5.2-4.5 7.5 0.2 3.8 8.8 5.9 12.7 5.9 1.9 0 4.6-0.3 5.9-0.9 4-1.8 4.9-7.4 7.3-8.1 5.7-1.8 10.2 4 16.8 3.4 5.5-0.5 4.2-5.8 8.7-8.1 5.2-2.7 18.1 0.6 18.7 4.1 0.4 2.3-4.5 5-4.6 7.5-0.1 4.7 6.6 6.8 10.5 6.9 6.9 0.1 14.4-5.8 10.5-10.6-0.4-0.5-3.5-1.6-6.4-2.5-5.3-1.7-5.6-1-6.4-2.5-1.8-3.5 3-8.3 7.3-9.4 5.5-1.4 14.2 0.3 14.6 5.6 0.1 2-4.6 6.1-4.6 7.5 0.2 3.4 9.4 6.1 13.7 6 8.6-0.4 8.5-8.5 12.8-9.4 5.8-1.2 10 4 15.9 3.8 6.2-0.3 5.2-6.2 8.7-8.1 4.7-2.7 18.4 0.3 19.1 4.1 0.5 2.7-4.4 4.6-4.6 7.2-0.3 4.4 5.9 7.3 10.9 7.2 6.2-0.1 14-5.6 10-10.7-0.7-0.9-11.5-2.6-12.8-5-2.8-5.2 6.4-11.3 14.6-9.7 3.4 0.7 7.1 3.2 7.3 6 0.3 3.5-4.7 4.8-4.6 7.5 0.2 3.4 8.5 6.2 13.7 5.9 8.4-0.5 8.5-7.9 12.3-9.1 6.2-1.9 9.8 3.8 16.4 3.4 6.7-0.4 4-9.3 14.6-9.4 4.2 0 12.8 2.7 13.2 5.3 0.4 2.5-4.5 4.7-4.6 7.5-0.1 3.9 5.3 6.8 10.5 6.9 7.1 0.1 14.4-5.8 10.5-10.6-0.1-0.1-12.7-4.9-12.8-5-1.9-3.5 3.4-8.8 7.7-9.7 7.3-1.5 13.8 2.2 14.1 5.9 0.3 4.2-4.7 4.4-4.5 7.5 0.2 3.7 9.2 6.2 13.7 5.9 8.4-0.4 9-7.9 12.3-9.1 4.9-1.8 11.2 3.5 15.5 3.5 7.4-0.1 5-5.7 9.6-8.1 6.5-3.5 18.7 1.1 19.1 4.1 0.5 3.3-4.5 3.1-4.6 7.5-0.1 4.9 6.4 6.9 10.9 6.9 7.3-0.1 13.2-6.8 10-10.6-0.5-0.6-12.8-4.7-12.8-4.7-2-3.1 2.8-9 7.7-10 5.9-1.3 13.8 1.5 14.1 5.9 0.2 3.5-4.7 4.9-4.6 7.5 0.2 3.9 9.1 6.1 13.2 6 9.9-0.3 8.9-8.2 12.8-9.4 5.8-1.7 11.5 5.6 18.7 3.1 4.7-1.7 3.4-7.2 7.3-7.8h0.5v-6.6c-15 5.1-17.4-14.5 0-10.3v-37.6c-2.2-0.8-2.3-3.9-0.5-5h0.5v-11.6c-13.2 7-21.6-9.5-8.2-10.9 4-0.5 5.3 0.7 8.2 1.6v-14.7c-6.1-0.3-4.7 6.7-9.7 8.4zm-978.4 64.9c-2.3-0.2-3.8-2-0.9-3.1 4.6-1.8 5.2 3.5 0.9 3.1zm10.5 22.2c-8.1 0.3-10.8-8.1-2.7-9.7 11.8-2.3 11.2 9.3 2.7 9.7zm9.5-46c-9 1.7-13.1-8.2-2.7-8.8 7.2-0.4 9.7 7.4 2.7 8.8zm43.8-21c1.2-1.6 4-2.9 9.1-2.8 3.9 0.1 7.8 1.8 8.2 5.3 1.3 11.3-24.3 6.9-17.3-2.5zm-19.6 4.7c4.8-0.3 9.2 1.6 8.7 5.9-0.8 6.5-15.7 6-15.9-0.6-0.2-2.7 1.4-4.9 7.2-5.3zm-7.8 46.6c8.2-0.6 7.6 7.9 0.9 8.1-6.7 0.3-9.2-7.4-0.9-8.1zm11 29.5c-11.1-0.1-14.7-11-3.2-12.8 15.1-2.5 14.8 12.8 3.2 12.8zm14.1-29.8c-2.3-1.1-2-4.5 1.4-5.3 9-2.1 5.2 8.5-1.4 5.3zm13.7 22.2c-10.7 0.9-13.8-11.1-1.4-11.6 10.3-0.3 10.4 10.9 1.4 11.6zm11.3-50.4c-1.7 7.9-17.4-2-6.4-4.1 5-0.9 7.1 1.2 6.4 4.1zm15.1 42.9c-8.2 0.3-10.9-8.1-2.7-9.7 11.8-2.3 11.1 9.4 2.7 9.7zm9.5-46c-9.1 1.7-13-8.2-2.7-8.8 7.2-0.3 9.7 7.5 2.7 8.8zm52-23.8c12-0.4 11.2 13.2-1.4 12.2-9.8-0.8-11.1-11.8 1.4-12.2zm-27.8 7.5c4.9-0.3 9.8 2 8.7 6.6-1.5 5.8-15.7 5.2-15.9-1.2-0.2-2.8 1.4-5 7.2-5.4zm-7.8 46.7c8.3-0.6 7.5 7.9 0.9 8.1-6.7 0.3-9.2-7.5-0.9-8.1zm11 29.4c-10.9 0-14.6-10.8-3.6-12.8 15.3-2.9 15.5 12.9 3.6 12.8zm3.2-51.3c-0.2-0.6-0.2-2 2.3-2.8 2.3-0.7 4.1-0.2 5 0.6 3.9 4-6.5 5.6-7.3 2.2zm10.9 21.6c-3.1-1.3-1.9-4.7 1.4-5.3 8.3-1.7 5.7 8.4-1.4 5.3zm13.7 22.2c-9.6 0.9-14.1-10.5-2.3-11.6 10.4-1 12.5 10.7 2.3 11.6zm5.4-47.6c-5.1-0.4-5.9-5.9-0.5-6.9 8.4-1.5 8 7.5 0.5 6.9zm10.5 17.9c-2.3-0.2-3.8-2-0.9-3.1 4.6-1.9 5.2 3.5 0.9 3.1zm10.5 22.2c-8.1 0.3-10.8-8-3.2-9.7 12-2.8 11.9 9.3 3.2 9.7zm9.5-46c-9.1 1.7-13.2-8.2-2.7-8.8 7-0.4 9.9 7.4 2.7 8.8zm42.9-19.8c0.6-1.8 3.8-3.8 8.6-4.1 6-0.4 9.2 1.9 9.6 5.3 1.1 9.3-22 9.6-18.2-1.2zm-18.7 3.5c5.3-0.3 10.6 3 8.2 7.5-2.6 4.9-15.3 3.8-15.5-2.2-0.1-2.7 1.5-5 7.3-5.3zm-7.8 46.6c8.3-0.6 7.4 7.9 0.9 8.1-6.6 0.3-9.2-7.4-0.9-8.1zm11 29.4c-10.5 0-14.6-10.8-3.6-12.8 15.6-2.9 15.3 12.9 3.6 12.8zm3.2-51.3c-0.2-0.7-0.3-2 2.3-2.8s4.8-0.2 5.5 1.2c1.6 3.9-7 4.8-7.8 1.6zm12.3 16.3c4.2-0.8 5.9 0.7 5.5 3.1-1.2 6.8-15.1-1.2-5.5-3.1zm12.3 27.5c-9.8 0.9-13.8-10.3-2.7-11.6 11.8-1.3 11.8 10.8 2.7 11.6zm5.9-47.5c-4.5-0.2-6.8-5.8-0.9-6.9 8.9-1.7 7.5 7.1 0.9 6.9zm20.5 40c-8 0.4-11-8-3.2-9.7 12.1-2.6 11.8 9.3 3.2 9.7zm9.1-46c-8.8 1.3-12.4-8.2-2.3-8.8 7.3-0.4 10 7.6 2.3 8.8zm43.3-19.7c0.5-1.5 3.5-3.6 7.7-4.1 6.5-0.7 10.1 1.8 10.5 5.3 1.1 9.2-22 9.6-18.2-1.2zm-18.7 3.4c14.6-0.9 7.6 15.2-4.1 9.7-5.3-2.4-3.7-9.2 4.1-9.7zm-7.8 46.7c8.3-0.6 7.4 8.4 0 8.1-7-0.2-6.8-7.6 0-8.1zm11 29.4c-10.8-0.1-14.8-10.8-3.7-12.8 15-2.8 16 12.9 3.7 12.8zm3.2-51.7c-0.1-0.7-0.4-1.7 2.3-2.5 2.3-0.7 4.1-0.3 5 0.6 3.8 4-6.8 5.8-7.3 1.9zm9.1 18.8c0.1-0.8 0.5-1.7 3.2-2.2 3.8-0.7 5.1 0.7 5.5 1.6 2 4.8-9.7 6.2-8.7 0.6zm14.5 25.4c-9.5 0.3-12.3-10.4-1.8-11.6 12.5-1.5 11.5 11.3 1.8 11.6zm12.3-49.8c-2.9 6.5-16.8-2.3-6.8-4.7 4.2-1 8.4 1.2 6.8 4.7zm15.1 42.3c-7.7 0.5-11.2-8-3.2-9.7 12.2-2.6 11.7 9.2 3.2 9.7zm9.1-46c-8.8 1.3-12.4-8.2-2.3-8.8 7.3-0.4 10 7.6 2.3 8.8zm43.3-19.1c0.5-1.8 2.7-4 6.8-4.7 7-1.2 11 1.9 11.4 5.3 1.1 9.2-21 9.1-18.2-0.6zm-24.2 4c1.1-0.8 2.6-1.1 5.5-1.3 5-0.3 10.2 2.1 8.2 7.2-3.1 8-22.4 0.5-13.7-5.9zm-2.7 53.2c-6.3-0.5-6.5-7 0-7.8 8.7-1 8.5 8.5 0 7.8zm11.4 21.6c-9.8 0-15-10.8-3.6-12.8 16.2-2.9 15 12.9 3.6 12.8zm5.4-54.1c2.9-0.9 5.2 0 5.5 1.9 0.7 6.2-13.4 0.5-5.5-1.9zm6.9 21.3c0.1-0.7 0.2-1.6 3.2-2.2 2.9-0.6 4.9 0.2 5.5 1.6 2.2 5.4-9.7 5.2-8.7 0.6zm14.6 25.3c-8.7 0.3-13.1-10.3-1.8-11.6 3.3-0.4 5.8 0.3 7.3 1.3 3.6 2.5 2.6 10.1-5.5 10.3zm12.3-49.7c-3 6.4-16.8-2.3-6.8-4.7 4.1-1 8.4 1.2 6.8 4.7zm14.5 42.2c-7.7 0.2-10.4-8.1-2.7-9.7 12.4-2.5 11.6 9.5 2.7 9.7zm9.6-46c-8.8 1.3-12.4-8.2-2.3-8.8 7.3-0.4 10 7.6 2.3 8.8zm8.6 15.7c-1.3 0.6-3.9-1-1.8-1.9 2.7-1.2 3.1 1.3 1.8 1.9zm34.7-35.4c0.5-1.2 3.2-3.5 6.8-4.1 6.9-1.1 11 1.8 11.4 5.3 1.1 9.7-22.5 8.8-18.2-1.2zm-18.7 3.4c3.2-0.3 4.2 0 5.5 0.6 4.6 2.3 3.9 9.9-4.5 10-8.5 0.2-12.2-9.7-1-10.6zm-8.2 54.5c-6.3-0.5-6.5-7 0-7.8 8.7-1.1 8.5 8.4 0 7.8zm11.4 21.6c-11.4-0.1-15.2-13.2 0-13.2 11.3 0.1 11.7 13.2 0 13.2zm5.5-54.2c2.9-0.9 5.5 0.1 5.5 2.2-0.2 5.9-13.1 0.1-5.5-2.2zm21.4 46.7c-8.7 0.3-13.1-10.3-1.8-11.6 3.2-0.4 5.8 0.3 7.3 1.3 3.6 2.4 2.6 10-5.5 10.3zm12.3-49.8c-3 6.5-16.3-2.5-6.8-4.7 4.1-1 8.4 1.2 6.8 4.7zm14.5 42.3c-7.7 0.2-10.5-8.1-2.7-9.7 12.3-2.5 11.6 9.4 2.7 9.7zm9.6-46.1c-8.8 1.3-12.4-8.2-2.3-8.8 7.3-0.3 10 7.7 2.3 8.8zm8.7 15.7c-1.3 0.6-3.9-1-1.8-1.9 2.6-1.1 3 1.4 1.8 1.9zm34.6-35.4c0.5-1.2 3.2-3.5 6.8-4.1 6.9-1.2 11 1.8 11.4 5.3 1 9.7-22.6 8.8-18.2-1.2zm-18.7 3.5c2.3-0.2 4.2-0.1 5.9 0.9 3.3 2 3.4 8-1.8 9.4-10.3 2.9-16.9-9.2-4.1-10.3zm-8.2 46.6c4.5-0.5 9 3 5.9 6.3-5.7 6-17.6-4.9-5.9-6.3zm11.4 29.4c-11.1-0.1-15.4-12.9-0.5-13.2 11.3-0.1 12.3 13.3 0.5 13.2zm5.5-54.1c2.7-0.8 5.2 0 5.5 1.9 0.7 6.2-13.6 0.5-5.5-1.9zm21.4 46.6c-10.3 0.3-12.3-10.4-1.8-11.6 11.8-1.3 12 11.3 1.8 11.6zm10.4-48.2c-6.1 2.9-12.4-4.6-5-6.3 6.7-1.4 8.9 4.4 5 6.3zm16.4 40.7c-7.5 0.2-10.6-8.1-2.7-9.7 12.2-2.5 11.7 9.4 2.7 9.7zm9.6-46c-8.8 1.3-12.3-8.3-2.3-8.8 7.3-0.3 10 7.6 2.3 8.8zm8.7 15.7c-1.3 0.6-3.9-1-1.8-1.9 2.6-1.2 3 1.3 1.8 1.9zm41.4-39.5c6-1 11 1.7 11.4 5.3 0.9 9-18.3 8.7-18.7 0.9-0.1-2.7 2.2-5.4 7.3-6.2zm-26 7.5c10-0.9 11.4 8.5 4.1 10.3-9.9 2.5-16.2-9.2-4.1-10.3zm-7.7 46.7c5.1-0.5 8.9 3.2 5.9 6.3-5.7 6-17.7-5.1-5.9-6.3zm11.8 29.4c-11 0.3-15.9-12.3-1.8-13.1 12.5-0.8 13.2 12.8 1.8 13.1zm10.5-51.7c-0.8 5.4-13-0.3-5.5-2.5 3.8-1.1 5.8 0.7 5.5 2.5zm16 44.2c-8.9 0.3-13.3-10-2.3-11.6 3.9-0.5 6.2 0.2 7.7 1.3 4.5 2.9 1.7 10.1-5.4 10.3zm2.7-53.6c0.4-0.4 1.5-0.7 2.7-0.9 3.9-0.8 6.6 0.4 6.8 2.8 0.9 7.2-14.3 3.3-9.5-1.9zm24.1 46.1c-8 0.3-10.4-8.2-2.7-9.7 12.2-2.5 11.6 9.4 2.7 9.7zm14.2-49.5c-1.2 4.7-11.9 4.5-13.2 0.3-1.1-3.6 1.8-5.3 5.9-5.6 4.8-0.5 8.1 1.8 7.3 5.3zm4.1 19.1c-1.3 0.6-3.9-1-1.8-1.9 2.6-1.1 3 1.4 1.8 1.9zm41-39.5c13.2-2.4 15 10.8 5 12.2-11.3 1.7-16.4-10.1-5-12.2zm-25.5 7.6c11.5-1.1 10.8 10.1 1.8 10.6-8.8 0.5-12.8-9.6-1.8-10.6zm-7.8 46.6c5.3-0.6 9.6 4.8 4.6 7.2-6.8 3.2-15.2-6.1-4.6-7.2zm11.8 29.4c-10.9 0.3-15.7-11.7-2.7-13.1 13.7-1.5 14 12.8 2.7 13.1zm10.1-50.7c-2.3 3.7-11.6-1.5-5-3.4 2.9-0.9 6.7 0.8 5 3.4zm16.4 43.2c-9 0.3-13-10.1-2.3-11.6 3.5-0.5 6.2 0.2 7.7 1.3 4.4 2.9 1.8 10.1-5.4 10.3zm12.3-50.7c-1.3 7.8-17.9-1.5-6.8-3.8 4.1-0.8 7.3 0.7 6.8 3.8zm14.1 43.2c-7.6 0-10.1-8.1-2.3-9.7 11.7-2.4 11.9 9.7 2.3 9.7zm10-46c-8 1.2-13.3-7.8-2.7-8.8 7.7-0.7 9.8 7.7 2.7 8.8zm8.7 15.6c-1.4 0.6-3.9-0.8-2.3-1.9 2.4-1.6 3.7 1.3 2.3 1.9zm41-39.4c13.5-2.3 14.9 11 4.6 12.2-11.2 1.3-15.8-10.3-4.6-12.2zm-25.5 7.5c10.5-1 11.6 10.1 1.8 10.6-8.8 0.6-12.9-9.5-1.8-10.6zm-7.8 46.7c7.8-0.8 8.5 7.2 1.8 7.8-6.8 0.6-10.4-7-1.8-7.8zm11.4 29.4c-11.3 0-14.8-11.5-2.7-13.2 14.3-1.9 13.6 13.2 2.7 13.2zm3.6-50.4c-1.2-1.1-0.7-3 1.8-3.8 9.4-2.7 3.3 8.6-1.8 3.8zm23.3 42.9c-9.3 0.3-12.7-10.2-2.3-11.6 13.3-1.8 12 11.2 2.3 11.6zm12.3-50.7c-1.4 7.9-17.9-1.5-6.8-3.8 4.9-1 7.3 0.7 6.8 3.8zm4.5 20.9c-2.5-0.2-3.4-2.6-0.5-3.4 4.1-1.2 3.8 3.7 0.5 3.4zm16.9 18.8c-2.5 5.6-16.1 3.4-14.1-2.8 0.3-1.1 1.2-2.8 4.6-3.4 6.3-1.3 11.2 2.4 9.5 6.2zm2.7-42.6c-8 1.2-13.4-7.8-2.7-8.8 7.6-0.6 9.8 7.8 2.7 8.8zm8.7 15.7c-1.4 0.6-3.9-0.8-2.3-1.9 2.4-1.7 3.8 1.3 2.3 1.9zm14.6-31.9c9.5-1.5 14.1 8.3 4.6 10.3-10.3 2.2-15-8.7-4.6-10.3zm-6.9 46.6c7.8-0.7 8.4 7.2 1.8 7.8-6.8 0.7-10.5-7-1.8-7.8zm11.9 29.4c-11.1 0.4-15.2-11.3-3.6-13.1 14.8-2.4 14 12.7 3.6 13.1zm9.5-50.4c-3.1 3-10.7-2-4.6-3.8 4.2-1.1 6.8 1.8 4.6 3.8z"/>
<path class="elementor-shape-fill" d="m-2.2-62.9v10c4.4-2.4 4.6-7.8 0-10z"/>
<path class="elementor-shape-fill" d="m-2.2 59.4v13c9.2-1.2 11.1-12.3 0-13z"/>
</svg>
