<?xml version="1.0" encoding="UTF-8"?>
<svg preserveAspectRatio="none" viewBox="0 0 1e3 100" xmlns="http://www.w3.org/2000/svg">
<path class="elementor-shape-fill" d="m971.4 53.8c1-0.5 1.6-1.5 1.6-2.6v-13.5c0-1.1-0.6-2.2-1.6-2.6-2.2-1-4.4 0.6-4.4 2.7v13.4c0 2 2.2 3.6 4.4 2.6z" opacity=".6"/>
<path class="elementor-shape-fill" d="m959 48.7c1.4 0 2.6-0.9 2.9-2.2 0-0.2 0.1-0.4 0.1-0.6v-17.5c0-1.5-1.2-2.8-2.8-2.8h-0.5c-1.5 0-2.8 1.2-2.8 2.8v17.6c0 0.2 0 0.4 0.1 0.6 0.4 1.2 1.6 2.1 3 2.1z" opacity=".6"/>
<path class="elementor-shape-fill" d="m947.5 44.2h0.5 0.5c1.4 0.2 2.5 1.5 2.5 3v-14.1c0-0.6-0.2-1.1-0.4-1.5-0.5-0.9-1.5-1.5-2.6-1.5s-2.1 0.6-2.6 1.5c-0.3 0.5-0.4 1-0.4 1.5v14.1c0-1.5 1.1-2.8 2.5-3z" opacity=".6"/>
<path class="elementor-shape-fill" d="m960.4 80.3c1-0.5 1.6-1.5 1.6-2.6v-22.2c0-1.1-0.6-2.2-1.6-2.6-2.2-1-4.4 0.6-4.4 2.7v22.2c0 1.9 2.2 3.5 4.4 2.5z" opacity=".6"/>
<path class="elementor-shape-fill" d="m959.3 86.8c1.5 0 2.8-1.2 2.8-2.8 0-1.5-1.2-2.8-2.8-2.8-1.5 0-2.8 1.2-2.8 2.8 0 1.5 1.3 2.8 2.8 2.8z" opacity=".6"/>
<path class="elementor-shape-fill" d="m994.4 30.1c1-0.5 1.6-1.5 1.6-2.6v-10c0-1.1-0.6-2.2-1.6-2.6-2.2-1-4.4 0.6-4.4 2.7v10c0 2 2.2 3.6 4.4 2.5z" opacity=".6"/>
<path class="elementor-shape-fill" d="m942.6 88.7c-1.5 0-2.8 1.2-2.8 2.8 0 1.5 1.2 2.8 2.8 2.8s2.8-1.2 2.8-2.8c0-1.5-1.3-2.8-2.8-2.8z" opacity=".6"/>
<ellipse class="elementor-shape-fill" transform="matrix(.9571 -.2898 .2898 .9571 12.597 259.16)" cx="881.4" cy="87" rx="2.8" ry="2.8" opacity=".6"/>
<path class="elementor-shape-fill" d="m764.7 88.7c-1.5 0-2.8 1.2-2.8 2.8 0 1.5 1.2 2.8 2.8 2.8 1.5 0 2.8-1.2 2.8-2.8-0.1-1.5-1.3-2.8-2.8-2.8z" opacity=".6"/>
<path class="elementor-shape-fill" d="m968.8 32c0.5 0.3 1 0.5 1.6 0.5s1.2-0.2 1.6-0.5c0.7-0.5 1.1-1.3 1.1-2.2 0-1.5-1.2-2.8-2.8-2.8-1.5 0-2.8 1.2-2.8 2.8 0.1 0.9 0.6 1.7 1.3 2.2z" opacity=".6"/>
<path class="elementor-shape-fill" d="m982 63.8c1.6 0 2.9-1.1 3-2.6v-0.1-1.6c0-1.5 1.2-2.8 2.8-2.8h-0.5c1.5 0 2.8 1.2 2.8 2.8v5.5 0.3c0.2-1.3 1.4-2.3 3-2.3 1.5 0 2.8 1 3 2.3v-0.3-24c0-1.3-0.8-2.5-2-2.8-2.1-0.6-4 0.8-4 2.5v9.3c0 1.5-1.2 2.8-2.8 2.8h0.5c-1.5 0-2.8-1.2-2.8-2.8v-18.2c0-1.5-1.2-2.8-2.8-2.8h-0.4c-1.5 0-2.8 1.2-2.8 2.8v29.5 0.1c0.1 1.3 1.4 2.4 3 2.4z" opacity=".6"/>
<path class="elementor-shape-fill" d="m937.1 36.1c1 0 1.9-0.6 2.4-1.4 0.2-0.4 0.4-0.9 0.4-1.4s-0.1-0.9-0.3-1.3c-0.5-0.9-1.4-1.5-2.5-1.5s-2 0.6-2.5 1.5c-0.2 0.4-0.3 0.8-0.3 1.3s0.1 1 0.4 1.4c0.4 0.8 1.3 1.4 2.4 1.4z" opacity=".6"/>
<path class="elementor-shape-fill" d="m981.8 95.7h0.5c1.5 0 2.8-1.2 2.8-2.8v-22.4c0-1.5-1.2-2.8-2.8-2.8h-0.5c-1.5 0-2.8 1.2-2.8 2.8v22.5c0 1.5 1.2 2.7 2.8 2.7z" opacity=".6"/>
<path class="elementor-shape-fill" d="m780.8 52.3h0.4c1.5 0 2.8-1.2 2.8-2.8v-7.9-0.5c-0.2-1.4-1.5-2.5-3-2.5s-2.7 1.1-3 2.5v0.5 7.9c0 1.6 1.2 2.8 2.8 2.8z" opacity=".6"/>
<path class="elementor-shape-fill" d="m804 63.8c1.6 0 2.9-1.1 3-2.6v-0.1-1.6c0-1.5 1.2-2.8 2.8-2.8h-0.5c1.5 0 2.8 1.2 2.8 2.8v13.3 0.1c0.1-1.4 1.4-2.6 3-2.6s2.9 1.1 3 2.6v-0.1-33.7c0-1.3-0.8-2.5-2-2.8-2.1-0.6-4 0.8-4 2.5v11.2c0 1.5-1.2 2.8-2.8 2.8h0.5c-1.5 0-2.8-1.2-2.8-2.8v-18.1c0-1.3-0.8-2.5-2-2.8-2.1-0.6-4 0.8-4 2.5v29.7 0.1c0.1 1.3 1.4 2.4 3 2.4z" opacity=".6"/>
<path class="elementor-shape-fill" d="m803.8 95.7h0.5c1.5 0 2.8-1.2 2.8-2.8v-22.4c0-1.5-1.2-2.8-2.8-2.8h-0.5c-1.5 0-2.8 1.2-2.8 2.8v22.5c0 1.5 1.2 2.7 2.8 2.7z" opacity=".6"/>
<path class="elementor-shape-fill" d="m792.5 24.7c1.2 0 2.2-0.8 2.6-1.8 0.1-0.3 0.2-0.6 0.2-1 0-1.5-1.2-2.8-2.8-2.8-1.5 0-2.8 1.2-2.8 2.8 0 0.3 0.1 0.7 0.2 1 0.3 1 1.4 1.8 2.6 1.8z" opacity=".6"/>
<path class="elementor-shape-fill" d="m752.6 78.7c2.2 1 4.4-0.6 4.4-2.7v-3.2c-0.6-1.5 0.6-2.6 2.1-2.6s2.9 2.8 2.9 2.8v10.2c0 1.1 0.6 2.2 1.6 2.6 2.2 1 4.4-0.6 4.4-2.7v-20.6c-0.6-1.5 0.7-2.8 2.2-2.8s2.8 1.2 2.8 2.8v-47.2c0-1.5-1.2-2.8-2.8-2.8-1.5 0-2.2 2.8-2.2 2.8v39.8c0 1.1-0.6 2.2-1.6 2.6-2.2 1-4.4-0.6-4.4-2.7v-16.8c-0.1-1.5-1.4-2.8-2.9-2.8s-2.1 2.8-2.1 2.8v22c-0.1 1.6-1.4 2.8-3 2.8-1.7 0-3-1.3-3-3v16c0 1.2 0.6 2.2 1.6 2.7z" opacity=".6"/>
<path class="elementor-shape-fill" d="m906 66.8v-2.3c0-1.5-1.2-2.8-2.8-2.8h0.5c-1.5 0-2.8 1.2-2.8 2.8v7.6c0 1.3-0.8 2.4-2 2.8-2.1 0.6-4-0.8-4-2.6v9.3c0 1.3 0.8 2.4 2 2.8 2.1 0.6 4-0.8 4-2.6v-6.2c0-1.1 0.6-2.2 1.6-2.6 2.2-1 4.4 0.6 4.4 2.7v12.6c-0.5 1.5 0.7 2.8 2.2 2.8s2.8-2.8 2.8-2.8v-11.4c0-1.5 1.3-2.8 2.8-2.8s2.2 2.8 2.2 2.8v5.7c0 1.1 0.6 2.2 1.6 2.6 2.2 1 4.4-0.6 4.4-2.7v-4.6s1.4-2.8 2.9-2.8 2.1 2.8 2.1 2.8v13.6c0 1.5 1.2 2.8 2.8 2.8h0.4c1.5 0 2.8-1.2 2.8-2.8v-18.1c0-1.5 1.2-2.8 2.8-2.8h0.5c1.5 0 2.8 1.2 2.8 2.8v9.8c0 1.3 0.8 2.4 2 2.8 2.1 0.6 4-0.8 4-2.6v-29.1c0 1.8-1.9 3.3-4 2.6-1.2-0.4-2-1.5-2-2.8v-14.2c0-1.5-1.2-2.8-2.8-2.8h-0.4c-1.5 0-2.8 1.2-2.8 2.8v-0.1 30.5c0 1.5-1.2 2.8-2.8 2.8h-0.4c-1.5 0-2.8-1.2-2.8-2.8v-23.5c0.7-1.5-0.5-2.8-2.1-2.8-1.5 0-2.9 2.8-2.9 2.8v-0.3 12.2c0 1.1-0.6 2.2-1.6 2.6-2.2 1-4.4-0.6-4.4-2.7v-24.4c0.6-0.9 0.2-1.7-0.5-2.2-0.5-0.4-1.1-0.6-1.7-0.6-0.7 0-1.2 0.2-1.7 0.6-0.6 0.5-1.1 2.2-1.1 2.2v35.1c0 1.3-0.8 2.4-2 2.8-2.1 0.6-4-0.8-4-2.6v-2.7zm14.4-4.2c1.5 0 2.8 1.2 2.8 2.8 0 1.5-1.2 2.8-2.8 2.8-1.5 0-2.8-1.2-2.8-2.8 0-1.5 1.2-2.8 2.8-2.8z" opacity=".6"/>
<path class="elementor-shape-fill" d="m780.8 87.9h0.3c1.4 0 2.6-1 3-2.3v-14.8s0.1-0.5 0.1-0.7c0.3-1.2 1.4-2.1 2.7-2.1 1.5 0 2.8 1.2 2.8 2.8l-0.6 2.9v5c0 1.5 1.2 2.8 2.8 2.8h0.4c1.5 0 2.8-1.2 2.8-2.8v-48c0-1.5-1.2-2.8-2.8-2.8h-0.4c-1.5 0-2.8 1.2-2.8 2.8v30.8c0.7 1.5-0.6 2.8-2.1 2.8s-2.9-2.8-2.9-2.8v-2.7-0.4c0-1.5-1.2-2.6-2.7-2.6h-0.4c-1.5 0-2.8 1.2-2.9 2.8v0.2 26.2c-0.1 1.7 1.1 2.9 2.7 2.9z" opacity=".6"/>
<path class="elementor-shape-fill" d="m881.4 38.2c1.5 0 2.8-1.3 2.8-2.8s-1.3-2.8-2.8-2.8-2.8 1.3-2.8 2.8c0 1.6 1.3 2.8 2.8 2.8z" opacity=".6"/>
<path class="elementor-shape-fill" d="m893 51.1c1.7 0 3 1.2 3 2.8v-1.6s0.6-2.8 2.1-2.8 2.9 2.9 2.9 2.9v3.5 0.4c0.2 1.5 1.3 2.4 3 2.4 1.7 0.1 2.8-1 3-2.4v-0.4-17.4c0-1.5-1.2-2.8-2.8-2.8h-0.5s-2.8 0.9-2.7 2.5v5.5c-0.1 1.5-1.3 2.8-2.9 2.8-1.5 0-2.1-2.8-2.1-2.8v-5.2c0-1.5-1.2-2.8-2.8-2.8h-0.5c-1.5 0-2.8 1.2-2.8 2.8v15.4c0.1-1.5 1.4-2.8 3.1-2.8z" opacity=".6"/>
<path class="elementor-shape-fill" d="m868.6 87.6c2.2 1 4.4-0.6 4.4-2.7v-7.6c0.1 0.1 0.1 0.3 0.1 0.4 0.2-1.3 1.4-2.4 2.8-2.4s2.6 1 2.8 2.4c0-0.1-0.6-0.4-0.6-0.4v2.9c0 1.3 0.8 2.4 2 2.8 2.1 0.6 4-0.8 4-2.6v-35.3c0-1.3-0.8-2.4-2-2.8-2.1-0.6-4 0.8-4 2.6v24.8c0.7 1.5-0.6 2.8-2.1 2.8s-2.9-2.8-2.9-2.8v-2.1-0.5c-0.2-1.4-1.5-2.5-3-2.5s-2.7 1.1-3 2.5v0.5 17.4c-0.1 1.1 0.5 2.1 1.5 2.6z" opacity=".6"/>
<path class="elementor-shape-fill" d="m870 63.8c1.5 0 3-0.9 3-3v-30.6c0-1.1-0.6-2.2-1.6-2.6-2.2-1-4.4 0.6-4.4 2.7v30.5c0 1.9 1.5 3 3 3z" opacity=".6"/>
<path class="elementor-shape-fill" d="m825.8 91.1c1.5 0 2.2-2.8 2.2-2.8v-4.7c0-1.1 0.6-2.2 1.6-2.6 2.2-1 4.4 0.6 4.4 2.7v11.7c0 1.1 0.6 2.2 1.6 2.6 2.2 1 4.4-0.6 4.4-2.7v-18.8c0-1.1 0.6-2.2 1.6-2.6 2.2-1 4.4 0.6 4.4 2.7v7.3s0.5 2.8 2.1 2.8c1.5 0 2.9-2.8 2.9-2.8v-19.6 0.2c0.1-1.6 1.4-2.8 3-2.8s2.9 1.3 3 2.8v-0.2 4.5c-0.6 1.5 0.7 2.8 2.2 2.8s2.8-1.2 2.8-2.8v-30.6c0-1.5-1.3-2.8-2.8-2.8s-2.2 2.8-2.2 2.8v12.1c0 1.5-1.2 2.8-2.8 2.8h-0.4c-1.5 0-2.8-1.2-2.8-2.8v-17.6c-0.1-0.2-0.2-0.4-0.2-0.6-0.3-1.3-1.4-2.2-2.7-2.2s-2.4 0.9-2.7 2.2c0 0.2 0.6 0.6 0.6 0.6v17.4c0 2.1-2.2 3.7-4.4 2.7-1-0.5-1.6-1.5-1.6-2.6v-12.6c0-1.1-0.6-2.2-1.6-2.6-2.2-1-4.4 0.6-4.4 2.7v38.1c0 1.1-0.6 2.2-1.6 2.6-2.2 1-4.4-0.6-4.4-2.7v-37.5c0.6-1.5-0.6-2.8-2.2-2.8-1.5 0-2.8 1.2-2.8 2.8v50.1c0.1 1.5 1.3 2.8 2.8 2.8zm28-37.4h0.4c1.5 0 2.8 1.2 2.8 2.8v0.4c0 1.5-1.2 2.8-2.8 2.8h-0.4c-1.5 0-2.8-1.2-2.8-2.8v-0.4c0-1.5 1.2-2.8 2.8-2.8zm-13.8 16.4v-12.3c0-1 0.5-2 1.3-2.5 2.3-1.5 4.7 0.4 4.7 2.6v12.3c0 2.1-2.2 3.7-4.4 2.7-1-0.5-1.6-1.5-1.6-2.6v-0.2z" opacity=".6"/>
<path class="elementor-shape-fill" d="m722.4 53.8c1-0.5 1.6-1.5 1.6-2.6v-13.5c0-1.1-0.6-2.2-1.6-2.6-2.2-1-4.4 0.6-4.4 2.7v13.4c0 2 2.2 3.6 4.4 2.6z" opacity=".6"/>
<path class="elementor-shape-fill" d="m709 48.7c1.4 0 2.6-0.9 2.9-2.2 0-0.2 0.1-0.4 0.1-0.6v-17.5c0-1.5-1.2-2.8-2.8-2.8h-0.5c-1.5 0-2.8 1.2-2.8 2.8v17.6c0 0.2 0 0.4 0.1 0.6 0.4 1.2 1.6 2.1 3 2.1z" opacity=".6"/>
<path class="elementor-shape-fill" d="m697.5 44.2h0.5 0.5c1.4 0.2 2.5 1.5 2.5 3v-14.1c0-0.6-0.2-1.1-0.4-1.5-0.5-0.9-1.5-1.5-2.6-1.5s-2.1 0.6-2.6 1.5c-0.3 0.5-0.4 1-0.4 1.5v14.1c0-1.5 1.1-2.8 2.5-3z" opacity=".6"/>
<path class="elementor-shape-fill" d="m710.4 80.3c1-0.5 1.6-1.5 1.6-2.6v-22.2c0-1.1-0.6-2.2-1.6-2.6-2.2-1-4.4 0.6-4.4 2.7v22.2c0 1.9 2.2 3.5 4.4 2.5z" opacity=".6"/>
<path class="elementor-shape-fill" d="m709.4 86.8c1.5 0 2.8-1.2 2.8-2.8 0-1.5-1.2-2.8-2.8-2.8-1.5 0-2.8 1.2-2.8 2.8 0 1.5 1.3 2.8 2.8 2.8z" opacity=".6"/>
<path class="elementor-shape-fill" d="m744.4 30.1c1-0.5 1.6-1.5 1.6-2.6v-10c0-1.1-0.6-2.2-1.6-2.6-2.2-1-4.4 0.6-4.4 2.7v10c0 2 2.2 3.6 4.4 2.5z" opacity=".6"/>
<path class="elementor-shape-fill" d="m692.7 88.7c-1.5 0-2.8 1.2-2.8 2.8 0 1.5 1.2 2.8 2.8 2.8 1.5 0 2.8-1.2 2.8-2.8 0-1.5-1.2-2.8-2.8-2.8z" opacity=".6"/>
<ellipse class="elementor-shape-fill" transform="matrix(.9571 -.2898 .2898 .9571 1.874 186.75)" cx="631.5" cy="87" rx="2.8" ry="2.8" opacity=".6"/>
<path class="elementor-shape-fill" d="m514.8 88.7c-1.5 0-2.8 1.2-2.8 2.8 0 1.5 1.2 2.8 2.8 2.8 1.5 0 2.8-1.2 2.8-2.8 0-1.5-1.3-2.8-2.8-2.8z" opacity=".6"/>
<path class="elementor-shape-fill" d="m718.9 32c0.5 0.3 1 0.5 1.6 0.5s1.2-0.2 1.6-0.5c0.7-0.5 1.1-1.3 1.1-2.2 0-1.5-1.2-2.8-2.8-2.8-1.5 0-2.8 1.2-2.8 2.8 0.1 0.9 0.6 1.7 1.3 2.2z" opacity=".6"/>
<path class="elementor-shape-fill" d="m732 63.8c1.6 0 2.9-1.1 3-2.6v-0.1-1.6c0-1.5 1.2-2.8 2.8-2.8h-0.5c1.5 0 2.8 1.2 2.8 2.8v5.5 0.3c0.2-1.3 1.4-2.3 3-2.3 1.5 0 2.8 1 3 2.3v-0.3-24c0-1.3-0.8-2.5-2-2.8-2.1-0.6-4 0.8-4 2.5v9.3c0 1.5-1.2 2.8-2.8 2.8h0.5c-1.5 0-2.8-1.2-2.8-2.8v-18.2c0-1.5-1.2-2.8-2.8-2.8h-0.4c-1.5 0-2.8 1.2-2.8 2.8v29.5 0.1c0.1 1.3 1.4 2.4 3 2.4z" opacity=".6"/>
<path class="elementor-shape-fill" d="m687.2 36.1c1 0 1.9-0.6 2.4-1.4 0.2-0.4 0.4-0.9 0.4-1.4s-0.1-0.9-0.3-1.3c-0.5-0.9-1.4-1.5-2.5-1.5s-2 0.6-2.5 1.5c-0.2 0.4-0.3 0.8-0.3 1.3s0.1 1 0.4 1.4c0.4 0.8 1.3 1.4 2.4 1.4z" opacity=".6"/>
<path class="elementor-shape-fill" d="m731.8 95.7h0.5c1.5 0 2.8-1.2 2.8-2.8v-22.4c0-1.5-1.2-2.8-2.8-2.8h-0.5c-1.5 0-2.8 1.2-2.8 2.8v22.5c0 1.5 1.2 2.7 2.8 2.7z" opacity=".6"/>
<path class="elementor-shape-fill" d="m530.8 52.3h0.4c1.5 0 2.8-1.2 2.8-2.8v-7.9-0.5c-0.2-1.4-1.5-2.5-3-2.5s-2.7 1.1-3 2.5v0.5 7.9c0 1.6 1.2 2.8 2.8 2.8z" opacity=".6"/>
<path class="elementor-shape-fill" d="m554 63.8c1.6 0 2.9-1.1 3-2.6v-0.1-1.6c0-1.5 1.2-2.8 2.8-2.8h-0.5c1.5 0 2.8 1.2 2.8 2.8v13.3 0.1c0.1-1.4 1.4-2.6 3-2.6s2.9 1.1 3 2.6v-0.1-33.7c0-1.3-0.8-2.4-2-2.8-2.1-0.6-4 0.8-4 2.5v11.2c0 1.5-1.2 2.8-2.8 2.8h0.5c-1.5 0-2.8-1.2-2.8-2.8v-18.1c0-1.3-0.8-2.5-2-2.8-2.1-0.6-4 0.8-4 2.5v29.7 0.1c0.1 1.3 1.4 2.4 3 2.4z" opacity=".6"/>
<path class="elementor-shape-fill" d="m553.8 95.7h0.5c1.5 0 2.8-1.2 2.8-2.8v-22.4c0-1.5-1.2-2.8-2.8-2.8h-0.5c-1.5 0-2.8 1.2-2.8 2.8v22.5c0 1.5 1.2 2.7 2.8 2.7z" opacity=".6"/>
<path class="elementor-shape-fill" d="m542.6 24.7c1.2 0 2.2-0.8 2.6-1.8 0.1-0.3 0.2-0.6 0.2-1 0-1.5-1.2-2.8-2.8-2.8-1.5 0-2.8 1.2-2.8 2.8 0 0.3 0.1 0.7 0.2 1 0.4 1 1.4 1.8 2.6 1.8z" opacity=".6"/>
<path class="elementor-shape-fill" d="m502.6 78.7c2.2 1 4.4-0.6 4.4-2.7v-3.2c-0.5-1.5 0.7-2.6 2.2-2.6s2.8 2.8 2.8 2.8v10c0 1.5 1.2 2.8 2.8 2.8 1.5 0 2.2-2.8 2.2-2.8v-20.4c0-1.3 0.8-2.4 2-2.8 2.1-0.6 4 0.8 4 2.6v-46.9c0-1.3-0.8-2.4-2-2.8-2.1-0.6-4 0.8-4 2.6v38.7c0.6 1.5-0.7 2.8-2.2 2.8s-2.8-2.8-2.8-2.8v-15.8c0-1.5-1.3-2.8-2.8-2.8s-2.2 2.8-2.2 2.8v22c-0.1 1.6-1.4 2.8-3 2.8-1.7 0-3-1.3-3-3v16c0 1.2 0.6 2.2 1.6 2.7z" opacity=".6"/>
<path class="elementor-shape-fill" d="m656 66.8v-2.3c0-1.5-1.2-2.8-2.8-2.8h0.5c-1.5 0-2.8 1.2-2.8 2.8v7.6c0 1.3-0.8 2.4-2 2.8-2.1 0.6-4-0.8-4-2.6v9.3c0 1.3 0.8 2.4 2 2.8 2.1 0.6 4-0.8 4-2.6v-6.3s1.3-2.8 2.8-2.8 2.2 2.8 2.2 2.8v12.9c0 1.1 0.6 2.2 1.6 2.6 2.2 1 4.4-0.6 4.4-2.7v-11.5c0.1-1.5 1.4-2.8 2.9-2.8s2.1 2.8 2.1 2.8v5.7c0 1.1 0.6 2.2 1.6 2.6 2.2 1 4.4-0.6 4.4-2.7v-4.5c0-1.1 0.6-2.2 1.6-2.6 2.2-1 4.4 0.6 4.4 2.7v13.5c0 1.5 1.2 2.8 2.8 2.8h0.4c1.5 0 2.8-1.2 2.8-2.8v-18.1c0-1.5 1.2-2.8 2.8-2.8h-0.5c1.5 0 2.8 1.2 2.8 2.8v9.8c0 1.3 0.8 2.4 2 2.8 2.1 0.6 4-0.8 4-2.6v-29.1c0 1.8-1.9 3.3-4 2.6-1.2-0.4-2-1.5-2-2.8v-13.9c-0.1-1.5-1.3-2.8-2.8-2.8s-2.2 2.8-2.2 2.8v-0.4 30.5c0 1.5-1.2 2.8-2.8 2.8h-0.4c-1.5 0-2.8-1.2-2.8-2.8v-23.5c0-1.1-0.6-2.2-1.6-2.6-2.2-1-4.4 0.6-4.4 2.7v-0.2 12.2c0 1.1-0.6 2.2-1.6 2.6-2.2 1-4.4-0.6-4.4-2.7v-24.6c0.7-0.9 0.3-1.7-0.4-2.2-0.5-0.4-1.1-0.6-1.7-0.6-0.7 0-1.2 0.2-1.7 0.6-0.6 0.5-1.2 2.2-1.2 2.2v35.1c0 1.3-0.8 2.4-2 2.8-2.1 0.6-4-0.8-4-2.6v-2.7zm14.5-4.2c1.5 0 2.8 1.2 2.8 2.8 0 1.5-1.2 2.8-2.8 2.8-1.5 0-2.8-1.2-2.8-2.8 0-1.5 1.2-2.8 2.8-2.8z" opacity=".6"/>
<path class="elementor-shape-fill" d="m530.8 87.9h0.3c1.4 0 2.6-1 3-2.3v-14.8c0-0.2 0-0.5 0.1-0.7 0.3-1.3 1.5-2.2 2.9-2.2 1.6 0 3 1.3 3 3 0 0 0.1 3.3 0.1 3.1v4.8c0 1.5 1.3 2.8 3 2.8s3-1.2 3-2.8v-48.1c0-1.5-1.3-2.8-3-2.8s-3 1.2-3 2.8v32c0 1.1-0.6 2.2-1.6 2.6-2.2 1-4.4-0.6-4.4-2.7v-3.7-0.3c0-1.5-1.2-2.7-2.7-2.7h-0.4c-1.5 0-2.8 1.2-2.8 2.8v0.2 26.2c-0.3 1.6 0.9 2.8 2.5 2.8z" opacity=".6"/>
<path class="elementor-shape-fill" d="m631.5 38.2c1.5 0 2.8-1.3 2.8-2.8s-1.3-2.8-2.8-2.8-2.8 1.3-2.8 2.8c0 1.6 1.3 2.8 2.8 2.8z" opacity=".6"/>
<path class="elementor-shape-fill" d="m643 51.1c1.7 0 3 1.2 3 2.8v-1.6s0.7-2.8 2.2-2.8 2.8 2.9 2.8 2.9v3.5 0.4c0.2 1.5 1.3 2.4 3 2.4 1.7 0.1 2.8-1 3-2.4v-0.4-17.4c0-1.5-1.2-2.8-2.8-2.8h-0.4s-2.8 0.9-2.8 2.5v5.5c0 1.5-1.2 2.8-2.8 2.8-1.5 0-2.2-2.8-2.2-2.8v-5.2c0-1.5-1.2-2.8-2.8-2.8h-0.5c-1.5 0-2.8 1.2-2.8 2.8v15.4c0.1-1.5 1.4-2.8 3.1-2.8z" opacity=".6"/>
<path class="elementor-shape-fill" d="m618.6 87.6c2.2 1 4.4-0.6 4.4-2.7v-7.6 0.4c0.2-1.5 1.5-2.6 3-2.6s2.8 1.1 3 2.6v-0.4 2.9c0 1.3 0.8 2.4 2 2.8 2.1 0.6 4-0.8 4-2.6v-35.3c0-1.3-0.8-2.4-2-2.8-2.1-0.6-4 0.8-4 2.6v25.7c0 1.1-0.6 2.2-1.6 2.6-2.2 1-4.4-0.6-4.4-2.7v-3-0.5c-0.2-1.4-1.5-2.5-3-2.5s-2.7 1.1-3 2.5v0.5 17.5c0 1.1 0.6 2.1 1.6 2.6z" opacity=".6"/>
<path class="elementor-shape-fill" d="m620 63.8c1.5 0 3-0.9 3-3v-30.6c0-1.1-0.6-2.2-1.6-2.6-2.2-1-4.4 0.6-4.4 2.7v30.5c0 1.9 1.5 3 3 3z" opacity=".6"/>
<path class="elementor-shape-fill" d="m575 90.9c2.1 0.6 4-0.8 4-2.6v-4.7c0-1.1 0.6-2.2 1.6-2.6 2.2-1 4.4 0.6 4.4 2.7v11.5c-0.7 1.5 0.5 2.8 2.1 2.8 1.5 0 2.9-2.8 2.9-2.8v-18.7c0-1.1 0.6-2.2 1.6-2.6 2.2-1 4.4 0.6 4.4 2.7v7.3s0.6 2.8 2.2 2.8c1.5 0 2.8-2.8 2.8-2.8v-19.8 0.2c0.1-1.5 1.3-2.6 2.8-2.6s2.7 1.2 2.8 2.6c0-0.1-0.5-0.2-0.5-0.2v6.1c0 1.5 1.2 2.8 2.8 2.8h0.4c1.5 0 2.8-1.2 2.8-2.8v-33.4c0-1.5-1.2-2.8-2.8-2.8h-0.4c-1.5 0-2.8 1.2-2.8 2.8v13c0.5 1.5-0.7 2.8-2.3 2.8-1.5 0-2.7-2.8-2.7-2.8v-17.2c0-0.2-0.1-0.4-0.1-0.6-0.3-1.3-1.4-2.2-2.7-2.2s-2.4 0.9-2.7 2.2c0 0.2 0.5 0.6 0.5 0.6v17.4c0 2.1-2.2 3.7-4.4 2.7-1-0.5-1.6-1.5-1.6-2.6v-12.4c-0.2-1.5-1.4-2.8-2.9-2.8s-2.1 2.8-2.1 2.8v38.1c0 1.1-0.6 2.2-1.6 2.6-2.2 1-4.4-0.6-4.4-2.7v-37.4c0-1.3-0.8-2.4-2-2.8-2.1-0.6-4 0.8-4 2.6v50c-0.1 1.3 0.7 2.5 1.9 2.8zm28.8-37.2h0.4c1.5 0 2.8 1.2 2.8 2.8v0.4c0 1.5-1.2 2.8-2.8 2.8h-0.4c-1.5 0-2.8-1.2-2.8-2.8v-0.4c0-1.5 1.2-2.8 2.8-2.8zm-13.8 16.4v-12.3c0-1 0.5-2 1.3-2.5 2.3-1.5 4.7 0.4 4.7 2.6v12.3c0 2.1-2.2 3.7-4.4 2.7-1-0.5-1.6-1.5-1.6-2.6v-0.2z" opacity=".6"/>
<path class="elementor-shape-fill" d="m472.4 53.8c1-0.5 1.6-1.5 1.6-2.6v-13.5c0-1.1-0.6-2.2-1.6-2.6-2.2-1-4.4 0.6-4.4 2.7v13.4c0 2 2.2 3.6 4.4 2.6z" opacity=".6"/>
<path class="elementor-shape-fill" d="m460 48.7c1.4 0 2.6-0.9 2.9-2.2 0-0.2 0.1-0.4 0.1-0.6v-17.5c0-1.5-1.2-2.8-2.8-2.8h-0.5c-1.5 0-2.8 1.2-2.8 2.8v17.6c0 0.2 0 0.4 0.1 0.6 0.4 1.2 1.6 2.1 3 2.1z" opacity=".6"/>
<path class="elementor-shape-fill" d="m447.5 44.2h0.5 0.5c1.4 0.2 2.5 1.5 2.5 3v-14.1c0-0.6-0.2-1.1-0.4-1.5-0.5-0.9-1.5-1.5-2.6-1.5s-2.1 0.6-2.6 1.5c-0.3 0.5-0.4 1-0.4 1.5v14.1c0-1.5 1.1-2.8 2.5-3z" opacity=".6"/>
<path class="elementor-shape-fill" d="m461.4 80.3c1-0.5 1.6-1.5 1.6-2.6v-22.2c0-1.1-0.6-2.2-1.6-2.6-2.2-1-4.4 0.6-4.4 2.7v22.2c0 1.9 2.2 3.5 4.4 2.5z" opacity=".6"/>
<path class="elementor-shape-fill" d="m459.5 86.8c1.5 0 2.8-1.2 2.8-2.8 0-1.5-1.2-2.8-2.8-2.8s-2.8 1.2-2.8 2.8c0 1.5 1.3 2.8 2.8 2.8z" opacity=".6"/>
<path class="elementor-shape-fill" d="m494.4 30.1c1-0.5 1.6-1.5 1.6-2.6v-10c0-1.1-0.6-2.2-1.6-2.6-2.2-1-4.4 0.6-4.4 2.7v10c0 2 2.2 3.6 4.4 2.5z" opacity=".6"/>
<path class="elementor-shape-fill" d="m442.8 88.7c-1.5 0-2.8 1.2-2.8 2.8 0 1.5 1.2 2.8 2.8 2.8 1.5 0 2.8-1.2 2.8-2.8 0-1.5-1.2-2.8-2.8-2.8z" opacity=".6"/>
<path class="elementor-shape-fill" d="m381.7 84.3c-1.5 0-2.8 1.2-2.8 2.8 0 1.5 1.2 2.8 2.8 2.8 1.5 0 2.8-1.2 2.8-2.8-0.1-1.6-1.3-2.8-2.8-2.8z" opacity=".6"/>
<path class="elementor-shape-fill" d="m264.9 88.7c-1.5 0-2.8 1.2-2.8 2.8 0 1.5 1.2 2.8 2.8 2.8 1.5 0 2.8-1.2 2.8-2.8 0-1.5-1.3-2.8-2.8-2.8z" opacity=".6"/>
<path class="elementor-shape-fill" d="m469 32c0.5 0.3 1 0.5 1.6 0.5s1.2-0.2 1.6-0.5c0.7-0.5 1.1-1.3 1.1-2.2 0-1.5-1.2-2.8-2.8-2.8-1.5 0-2.8 1.2-2.8 2.8 0.1 0.9 0.6 1.7 1.3 2.2z" opacity=".6"/>
<path class="elementor-shape-fill" d="m482 63.8c1.6 0 2.9-1.1 3-2.6v-0.1-1.6c0-1.5 1.2-2.8 2.8-2.8h-0.5c1.5 0 2.8 1.2 2.8 2.8v5.5 0.3c0.2-1.3 1.4-2.3 3-2.3 1.5 0 2.8 1 3 2.3v-0.3-24c0-1.3-0.8-2.5-2-2.8-2.1-0.6-4 0.8-4 2.5v9.3c0 1.5-1.2 2.8-2.8 2.8h0.5c-1.5 0-2.8-1.2-2.8-2.8v-18.2c0-1.5-1.2-2.8-2.8-2.8h-0.4c-1.5 0-2.8 1.2-2.8 2.8v29.5 0.1c0.1 1.3 1.4 2.4 3 2.4z" opacity=".6"/>
<path class="elementor-shape-fill" d="m437.3 36.1c1 0 1.9-0.6 2.4-1.4 0.2-0.4 0.4-0.9 0.4-1.4s-0.1-0.9-0.3-1.3c-0.5-0.9-1.4-1.5-2.5-1.5s-2 0.6-2.5 1.5c-0.2 0.4-0.3 0.8-0.3 1.3s0.1 1 0.4 1.4c0.4 0.8 1.3 1.4 2.4 1.4z" opacity=".6"/>
<path class="elementor-shape-fill" d="m481.8 95.7h0.5c1.5 0 2.8-1.2 2.8-2.8v-22.4c0-1.5-1.2-2.8-2.8-2.8h-0.5c-1.5 0-2.8 1.2-2.8 2.8v22.5c0 1.5 1.2 2.7 2.8 2.7z" opacity=".6"/>
<path class="elementor-shape-fill" d="m281.8 52.3h0.4c1.5 0 2.8-1.2 2.8-2.8v-7.9-0.5c-0.2-1.4-1.5-2.5-3-2.5s-2.7 1.1-3 2.5v0.5 7.9c0 1.6 1.2 2.8 2.8 2.8z" opacity=".6"/>
<path class="elementor-shape-fill" d="m304 63.8c1.6 0 2.9-1.1 3-2.6v-0.1-1.6c0-1.5 1.2-2.8 2.8-2.8h-0.5c1.5 0 2.8 1.2 2.8 2.8v13.3 0.1c0.1-1.4 1.4-2.6 3-2.6s2.9 1.1 3 2.6v-0.1-33.7c0-1.3-0.8-2.4-2-2.8-2.1-0.6-4 0.8-4 2.5v11.2c0 1.5-1.2 2.8-2.8 2.8h0.5c-1.5 0-2.8-1.2-2.8-2.8v-18.1c0-1.3-0.8-2.5-2-2.8-2.1-0.6-4 0.8-4 2.5v29.7 0.1c0.1 1.3 1.4 2.4 3 2.4z" opacity=".6"/>
<path class="elementor-shape-fill" d="m303.8 95.7h0.5c1.5 0 2.8-1.2 2.8-2.8v-22.4c0-1.5-1.2-2.8-2.8-2.8h-0.5c-1.5 0-2.8 1.2-2.8 2.8v22.5c0 1.5 1.2 2.7 2.8 2.7z" opacity=".6"/>
<path class="elementor-shape-fill" d="m292.7 24.7c1.2 0 2.2-0.8 2.6-1.8 0.1-0.3 0.2-0.6 0.2-1 0-1.5-1.2-2.8-2.8-2.8-1.5 0-2.8 1.2-2.8 2.8 0 0.3 0.1 0.7 0.2 1 0.4 1 1.4 1.8 2.6 1.8z" opacity=".6"/>
<path class="elementor-shape-fill" d="m253.8 78.9c1.5 0 2.2-2.8 2.2-2.8v-3.1c0.1-1.6 1.4-2.8 3-2.8h0.2c1.5 0 2.8 1.2 2.8 2.8v10.2c0.1 1.5 1.3 2.8 2.9 2.8 1.5 0 2.1-2.8 2.1-2.8v-20.6c0-1.3 0.8-2.4 2-2.8 2.1-0.6 4 0.8 4 2.6v-46.9c0-1.3-0.8-2.4-2-2.8-2.1-0.6-4 0.8-4 2.6v38.7c0.7 1.5-0.6 2.8-2.1 2.8s-2.9-2.8-2.9-2.8v0.7-17.2c0-1.1-0.6-2-1.5-2.5-2.3-1.1-4.5 0.5-4.5 2.6v22c0.5 1.5-0.8 2.6-2.2 2.6-1.5 0-2.8-2.8-2.8-2.8v16.7s1.2 2.8 2.8 2.8z" opacity=".6"/>
<path class="elementor-shape-fill" d="m406 66.8v-2.3c0-1.5-1.2-2.8-2.8-2.8h0.5c-1.5 0-2.8 1.2-2.8 2.8v7.6c0 1.3-0.8 2.4-2 2.8-2.1 0.6-4-0.8-4-2.6v9.3c0 1.3 0.8 2.4 2 2.8 2.1 0.6 4-0.8 4-2.6v-6.3s1.4-2.8 2.9-2.8 2.1 2.8 2.1 2.8v12.9c0 1.1 0.6 2.2 1.6 2.6 2.2 1 4.4-0.6 4.4-2.7v-11.6c0-1.7 1.3-3 3-3s3 1.3 3 3v5.8c0 1.1 0.6 2.2 1.6 2.6 2.2 1 4.4-0.6 4.4-2.7v-4.6s0.6-2.8 2.1-2.8 2.9 2.8 2.9 2.8v13.6c0 1.5 1.2 2.8 2.8 2.8h0.4c1.5 0 2.8-1.2 2.8-2.8v-18c0-1.5 1.2-2.8 2.8-2.8h-0.5c1.5 0 2.8 1.2 2.8 2.8v9.8c0 1.3 0.8 2.4 2 2.8 2.1 0.6 4-0.8 4-2.6v-29.1c0 1.8-1.9 3.3-4 2.6-1.2-0.4-2-1.5-2-2.8v-13.9c0-1.5-1.2-2.8-2.7-2.8s-2.3 2.8-2.3 2.8v-0.4 30.5c0 1.5-1.2 2.8-2.8 2.8h-0.4c-1.5 0-2.8-1.2-2.8-2.8v-23.5c-0.1-1.5-1.3-2.8-2.9-2.8s-2.1 2.8-2.1 2.8v-0.3 12.2c0 1.1-0.6 2.2-1.6 2.6-2.2 1-4.4-0.6-4.4-2.7v-24.9c0-1-0.4-1.8-1.1-2.4-0.5-0.4-1.2-0.6-1.9-0.6s-1.3 0.2-1.9 0.6c-0.7 0.5-1.1 1.4-1.1 2.4v35.6c0 1.3-0.8 2.4-2 2.8-2.1 0.6-4-0.8-4-2.6v-2.7zm14.6-4.2c1.5 0 2.8 1.2 2.8 2.8 0 1.5-1.2 2.8-2.8 2.8s-2.8-1.2-2.8-2.8c0-1.5 1.2-2.8 2.8-2.8z" opacity=".6"/>
<path class="elementor-shape-fill" d="m281.5 86.3c1.2 0 2.2-0.8 2.5-1.9v-13.6c0-0.2 0-0.5 0.1-0.7 0.3-1.3 1.5-2.2 2.9-2.2 1.6 0 3 1.3 3 3 0 0 0.1 3.3 0.1 3.1v4.8c0 1.5 1.3 2.8 3 2.8s3-1.2 3-2.8v-48.1c0-1.5-1.3-2.8-3-2.8s-3 1.2-3 2.8v30.8c-0.1 1.5-1.3 2.8-2.9 2.8-1.5 0-2.1-2.8-2.1-2.8v-2.7-0.3c0-1.5-1.2-2.7-2.7-2.7h-0.4c-1.5 0-2.8 1.2-2.8 2.8v0.2 24.8c-0.2 1.5 0.9 2.7 2.3 2.7z" opacity=".6"/>
<path class="elementor-shape-fill" d="m381.6 38.2c1.5 0 2.8-1.3 2.8-2.8s-1.3-2.8-2.8-2.8-2.8 1.3-2.8 2.8c0 1.6 1.3 2.8 2.8 2.8z" opacity=".6"/>
<path class="elementor-shape-fill" d="m392.8 50.8c1.5 0 2.2 2.8 2.2 2.8v-1.2c0-1 0.5-2 1.3-2.5 2.3-1.4 4.7 0.4 4.7 2.6v3.4 0.4c0.2 1.5 1.3 2.4 3 2.4 1.7 0.1 2.8-1 3-2.4v-0.4-17.4c0-1.5-1.2-2.8-2.8-2.8h-0.5c-1.5 0-2.8 1.2-2.8 2.8v5.3c0 1.3-0.8 2.4-2 2.8-2.1 0.6-4-0.8-4-2.6v-5.8c0.6-1.5-0.7-2.8-2.2-2.5-1.5-0.3-2.8 0.9-2.8 2.5v15.4c0.1-1.5 1.3-2.8 2.9-2.8z" opacity=".6"/>
<path class="elementor-shape-fill" d="m369.6 87.6c2.2 1 4.4-0.6 4.4-2.7v-7.6c-0.7 0.1-0.7 0.3-0.7 0.4 0.2-1.3 1.4-2.4 2.8-2.4s2.6 1 2.8 2.4c0-0.1 0.2-0.4 0.2-0.4v2.9c0 1.3 0.8 2.4 2 2.8 2.1 0.6 4-0.8 4-2.6v-35.3c0-1.3-0.8-2.4-2-2.8-2.1-0.6-4 0.8-4 2.6v24.8c-0.1 1.5-1.4 2.8-2.9 2.8s-2.1-2.8-2.1-2.8v-2.1-0.5c-0.2-1.4-1.5-2.5-3-2.5s-2.7 1.1-3 2.5v0.5 17.4c-0.1 1.1 0.5 2.1 1.5 2.6z" opacity=".6"/>
<path class="elementor-shape-fill" d="m371 63.8c1.5 0 3-0.9 3-3v-30.6c0-1.1-0.6-2.2-1.6-2.6-2.2-1-4.4 0.6-4.4 2.7v30.5c0 1.9 1.5 3 3 3z" opacity=".6"/>
<path class="elementor-shape-fill" d="m325 90.9c2.1 0.6 4-0.8 4-2.6v-4.7c0-1.1 0.6-2.2 1.6-2.6 2.2-1 4.4 0.6 4.4 2.7v11.5c-0.6 1.5 0.6 2.8 2.2 2.8 1.5 0 2.8-2.8 2.8-2.8v-18.2c-0.1-1.5 1.2-2.8 2.7-2.8s2.8 1.2 2.8 2.8h-0.5v6.8c0 1.1 0.6 2.2 1.6 2.6 2.2 1 4.4-0.6 4.4-2.7v-19.6c0.1 0.1 0.1 0.1 0.1 0.2 0.1-1.5 1.3-2.6 2.8-2.6s2.7 1.2 2.8 2.6c0-0.1-0.6-0.2-0.6-0.2v6.1c0 1.5 1.2 2.8 2.8 2.8h0.4c1.5 0 2.8-1.2 2.8-2.8v-33.4c0-1.5-1.2-2.8-2.8-2.8h-0.4c-1.5 0-2.8 1.2-2.8 2.8v13c0.6 1.5-0.6 2.8-2.2 2.8-1.5 0-2.8-2.8-2.8-2.8v-17.6c0-0.2 0-0.4-0.1-0.6-0.3-1.3-1.5-2.4-2.9-2.4s-2.6 1-2.9 2.4c0 0.2-0.1 0.4-0.1 0.6v17.6h0.5c0 1.5-1.2 2.8-2.8 2.8-1.5 0-2.7-2.8-2.7-2.8v-12.1c-0.1-1.5-1.3-2.8-2.8-2.8s-2.2 2.8-2.2 2.8v38.1c0 1.1-0.6 2.2-1.6 2.6-2.2 1-4.4-0.6-4.4-2.7v-37.4c0-1.3-0.8-2.4-2-2.8-2.1-0.6-4 0.8-4 2.6v50c-0.1 1.3 0.7 2.5 1.9 2.8zm28.8-37.2h0.4c1.5 0 2.8 1.2 2.8 2.8v0.4c0 1.5-1.2 2.8-2.8 2.8h-0.4c-1.5 0-2.8-1.2-2.8-2.8v-0.4c0-1.5 1.2-2.8 2.8-2.8zm-13.8 16.4v-12.3c0-1 0.5-2 1.3-2.5 2.3-1.5 4.7 0.4 4.7 2.6v12.3c0 2.1-2.2 3.7-4.4 2.7-1-0.5-1.6-1.5-1.6-2.6v-0.2z" opacity=".6"/>
<path class="elementor-shape-fill" d="m222.4 53.8c1-0.5 1.6-1.5 1.6-2.6v-13.5c0-1.1-0.6-2.2-1.6-2.6-2.2-1-4.4 0.6-4.4 2.7v13.4c0 2 2.2 3.6 4.4 2.6z" opacity=".6"/>
<path class="elementor-shape-fill" d="m210 48.7c1.4 0 2.6-0.9 2.9-2.2 0-0.2 0.1-0.4 0.1-0.6v-17.5c0-1.5-1.2-2.8-2.8-2.8h-0.5c-1.5 0-2.8 1.2-2.8 2.8v17.6c0 0.2 0 0.4 0.1 0.6 0.4 1.2 1.6 2.1 3 2.1z" opacity=".6"/>
<path class="elementor-shape-fill" d="m197.5 44.2h0.5 0.5c1.4 0.2 2.5 1.5 2.5 3v-14.1c0-0.6-0.2-1.1-0.4-1.5-0.5-0.9-1.5-1.5-2.6-1.5s-2.1 0.6-2.6 1.5c-0.3 0.5-0.4 1-0.4 1.5v14.1c0-1.5 1.1-2.8 2.5-3z" opacity=".6"/>
<path class="elementor-shape-fill" d="m211.4 80.3c1-0.5 1.6-1.5 1.6-2.6v-22.2c0-1.1-0.6-2.2-1.6-2.6-2.2-1-4.4 0.6-4.4 2.7v22.2c0 1.9 2.2 3.5 4.4 2.5z" opacity=".6"/>
<path class="elementor-shape-fill" d="m209.6 86.8c1.5 0 2.8-1.2 2.8-2.8 0-1.5-1.2-2.8-2.8-2.8-1.5 0-2.8 1.2-2.8 2.8 0 1.5 1.3 2.8 2.8 2.8z" opacity=".6"/>
<path class="elementor-shape-fill" d="m244.4 30.1c1-0.5 1.6-1.5 1.6-2.6v-10c0-1.1-0.6-2.2-1.6-2.6-2.2-1-4.4 0.6-4.4 2.7v10c0 2 2.2 3.6 4.4 2.5z" opacity=".6"/>
<path class="elementor-shape-fill" d="m192.9 88.7c-1.5 0-2.8 1.2-2.8 2.8 0 1.5 1.2 2.8 2.8 2.8 1.5 0 2.8-1.2 2.8-2.8 0-1.5-1.2-2.8-2.8-2.8z" opacity=".6"/>
<circle class="elementor-shape-fill" cx="131.8" cy="87" r="2.8" opacity=".6"/>
<path class="elementor-shape-fill" d="m15 88.7c-1.5 0-2.8 1.2-2.8 2.8 0 1.5 1.2 2.8 2.8 2.8 1.5 0 2.8-1.2 2.8-2.8 0-1.5-1.3-2.8-2.8-2.8z" opacity=".6"/>
<path class="elementor-shape-fill" d="m219.1 32c0.5 0.3 1 0.5 1.6 0.5s1.2-0.2 1.6-0.5c0.7-0.5 1.1-1.3 1.1-2.2 0-1.5-1.2-2.8-2.8-2.8-1.5 0-2.8 1.2-2.8 2.8 0.1 0.9 0.6 1.7 1.3 2.2z" opacity=".6"/>
<path class="elementor-shape-fill" d="m232 63.8c1.6 0 2.9-1.1 3-2.6v-0.1-1.6c0-1.5 1.2-2.8 2.8-2.8h-0.5c1.5 0 2.8 1.2 2.8 2.8v5.5 0.3c0.2-1.3 1.4-2.3 3-2.3 1.5 0 2.8 1 3 2.3v-0.3-24c0-1.3-0.8-2.5-2-2.8-2.1-0.6-4 0.8-4 2.5v9.3c0 1.5-1.2 2.8-2.8 2.8h0.5c-1.5 0-2.8-1.2-2.8-2.8v-18.2c0-1.5-1.2-2.8-2.8-2.8h-0.4c-1.5 0-2.8 1.2-2.8 2.8v29.5 0.1c0.1 1.3 1.4 2.4 3 2.4z" opacity=".6"/>
<path class="elementor-shape-fill" d="m187.4 36.1c1 0 1.9-0.6 2.4-1.4 0.2-0.4 0.4-0.9 0.4-1.4s-0.1-0.9-0.3-1.3c-0.5-0.9-1.4-1.5-2.5-1.5s-2 0.6-2.5 1.5c-0.2 0.4-0.3 0.8-0.3 1.3s0.1 1 0.4 1.4c0.4 0.8 1.3 1.4 2.4 1.4z" opacity=".6"/>
<path class="elementor-shape-fill" d="m231.8 95.7h0.5c1.5 0 2.8-1.2 2.8-2.8v-22.4c0-1.5-1.2-2.8-2.8-2.8h-0.5c-1.5 0-2.8 1.2-2.8 2.8v22.5c0 1.5 1.2 2.7 2.8 2.7z" opacity=".6"/>
<path class="elementor-shape-fill" d="m31.8 52.3h0.4c1.5 0 2.8-1.2 2.8-2.8v-7.9-0.5c-0.2-1.4-1.5-2.5-3-2.5s-2.7 1.1-3 2.5v0.5 7.9c0 1.6 1.2 2.8 2.8 2.8z" opacity=".6"/>
<path class="elementor-shape-fill" d="m54 63.8c1.6 0 2.9-1.1 3-2.6v-0.1-1.6c0-1.5 1.2-2.8 2.8-2.8h-0.5c1.5 0 2.8 1.2 2.8 2.8v13.3 0.1c0.1-1.4 1.4-2.6 3-2.6s2.9 1.1 3 2.6v-0.1-33.7c0-1.3-0.8-2.4-2-2.8-2.1-0.6-4 0.8-4 2.5v11.2c0 1.5-1.2 2.8-2.8 2.8h0.5c-1.5 0-2.8-1.2-2.8-2.8v-17-1.1c0-1.3-0.8-2.5-2-2.8-2.1-0.6-4 0.8-4 2.5v29.7 0.1c0.1 1.3 1.4 2.4 3 2.4z" opacity=".6"/>
<path class="elementor-shape-fill" d="m53.8 95.7h0.5c1.5 0 2.8-1.2 2.8-2.8v-22.4c0-1.5-1.2-2.8-2.8-2.8h-0.5c-1.5 0-2.8 1.2-2.8 2.8v22.5c0 1.5 1.2 2.7 2.8 2.7z" opacity=".6"/>
<path class="elementor-shape-fill" d="m42.8 24.7c1.2 0 2.2-0.8 2.6-1.8 0.1-0.3 0.2-0.6 0.2-1 0-1.5-1.2-2.8-2.8-2.8-1.5 0-2.8 1.2-2.8 2.8 0 0.3 0.1 0.7 0.2 1 0.4 1 1.4 1.8 2.6 1.8z" opacity=".6"/>
<path class="elementor-shape-fill" d="m3.9 78.9c1.5 0 2.1-2.8 2.1-2.8v-3.1c0.1-1.6 1.4-2.8 3-2.8 1.7 0 3 1.3 3 3v4.7 5.4c0 1.1 0.6 2.2 1.6 2.6 2.2 1 4.4-0.6 4.4-2.7v-17.4-3.2c0-1.3 0.8-2.4 2-2.8 2.1-0.6 4 0.8 4 2.6v-38.6-8.3c0-1.3-0.8-2.4-2-2.8-2.1-0.6-4 0.8-4 2.6v31.7 8.1c0 1.1-0.6 2.2-1.6 2.6-2.2 1-4.4-0.6-4.4-2.7v-17.4-0.1c0-1.1-0.6-2-1.5-2.5-2.3-1.1-4.5 0.6-4.5 2.7v21.9c0.6 1.5-0.7 2.6-2.1 2.6-1.5 0-2.9-2.8-2.9-2.8v16.7s1.3 2.8 2.9 2.8z" opacity=".6"/>
<path class="elementor-shape-fill" d="m157 66.8v-2.3c0-1.5-1.2-2.8-2.8-2.8h-0.5c-1.5 0-2.8 1.2-2.8 2.8v7.6c0 1.3-0.8 2.4-2 2.8-2.1 0.6-4-0.8-4-2.6v9.3c0 1.3 0.8 2.4 2 2.8 2.1 0.6 4-0.8 4-2.6v-6.2c0-1.1 0.6-2.2 1.6-2.6 2.2-1 4.4 0.6 4.4 2.7v12.8c0 1.1 0.6 2.2 1.6 2.6 2.2 1 4.4-0.6 4.4-2.7v-11.5c-0.7-1.5 0.6-2.8 2.1-2.8s2.9 2.8 2.9 2.8v5.7c0 1.1 0.6 2.2 1.6 2.6 2.2 1 4.4-0.6 4.4-2.7v-4.6s0.7-2.8 2.2-2.8 2.8 2.8 2.8 2.8v13.6c0 1.5 1.2 2.8 2.8 2.8h0.4c1.5 0 2.8-1.2 2.8-2.8v-18.1c0-1.5 1.2-2.8 2.8-2.8h-0.5c1.5 0 2.8 1.2 2.8 2.8v9.8c0 1.3 0.8 2.4 2 2.8 2.1 0.6 4-0.8 4-2.6v-29.1c0 1.8-1.9 3.3-4 2.6-1.2-0.4-2-1.5-2-2.8v-14c0-1.7-1.3-3-3-3s-3 1.3-3 3v28.9c0.6 1.5-0.7 2.8-2.2 2.8s-2.8-2.8-2.8-2.8v-22.2c0-1.5-1.2-2.8-2.8-2.8-1.5 0-2.2 2.8-2.2 2.8v-0.3 12.2c0 1.1-0.6 2.2-1.6 2.6-2.2 1-4.4-0.6-4.4-2.7v-24.4c-0.1-0.9-0.5-1.7-1.2-2.2-0.5-0.4-1.1-0.6-1.7-0.6-0.7 0-1.2 0.2-1.7 0.6-0.6 0.5-0.4 2.2-0.4 2.2v35.1c0 1.3-0.8 2.4-2 2.8-2.1 0.6-4-0.8-4-2.6v-2.7zm13.7-4.2c1.5 0 2.8 1.2 2.8 2.8 0 1.5-1.2 2.8-2.8 2.8-1.5 0-2.8-1.2-2.8-2.8 0-1.5 1.2-2.8 2.8-2.8z" opacity=".6"/>
<path class="elementor-shape-fill" d="m31.5 85.8c1.2 0 2.2-0.8 2.5-1.9v-13.1c0-0.2 0-0.5 0.1-0.7 0.3-1.3 1.5-2.2 2.9-2.2 1.6 0 3 1.3 3 3 0 0 0.1 3.3 0.1 3.1v4.8c0 1.5 1.3 2.8 3 2.8s3-1.2 3-2.8v-48.1c0-1.5-1.3-2.8-3-2.8s-3 1.2-3 2.8v30.8c0 1.5-1.2 2.8-2.8 2.8s-2.3-2.7-2.3-2.7v-2.9c0-1.5-1.2-2.8-2.8-2.8h-0.4c-1.5 0-2.8 1.2-2.8 2.8v1.3 23.3c0 1.4 1.1 2.5 2.5 2.5z" opacity=".6"/>
<path class="elementor-shape-fill" d="m131.7 38.2c1.5 0 2.8-1.3 2.8-2.8s-1.3-2.8-2.8-2.8-2.8 1.3-2.8 2.8c0 1.6 1.3 2.8 2.8 2.8z" opacity=".6"/>
<path class="elementor-shape-fill" d="m142.9 50.8c1.5 0 2.1 2.8 2.1 2.8v-1.2c0-1 0.5-2 1.3-2.5 2.3-1.4 4.7 0.4 4.7 2.6v3.4 0.4c0.2 1.5 1.3 2.4 3 2.4 1.7 0.1 2.8-1 3-2.4v-0.4-17.4c0-1.5-1.2-2.8-2.8-2.8h-0.5c-1.5 0-2.8 1.2-2.8 2.8v5.3c0 1.3-0.8 2.4-2 2.8-2.1 0.6-4-0.8-4-2.6v-5.8c0.7-1.5-0.6-2.8-2.1-2.5-1.5-0.3-2.8 0.9-2.9 2.5v15.4c0.2-1.5 1.4-2.8 3-2.8z" opacity=".6"/>
<path class="elementor-shape-fill" d="m119.6 87.6c2.2 1 4.4-0.6 4.4-2.7v-7.6c-0.6 0.1-0.6 0.3-0.6 0.4 0.2-1.3 1.4-2.4 2.8-2.4s2.6 1 2.8 2.4c0-0.1 0.1-0.4 0.1-0.4v2.9c0 1.3 0.8 2.4 2 2.8 2.1 0.6 4-0.8 4-2.6v-35.3c0-1.3-0.8-2.4-2-2.8-2.1-0.6-4 0.8-4 2.6v24.8c0 1.5-1.3 2.8-2.8 2.8s-2.2-2.8-2.2-2.8v-2.1-0.5c-0.2-1.4-1.5-2.5-3-2.5s-2.7 1.1-3 2.5v0.5 6.7 10.6c-0.1 1.2 0.5 2.2 1.5 2.7z" opacity=".6"/>
<path class="elementor-shape-fill" d="m121 63.8c1.5 0 3-0.9 3-3v-30.6c0-1.1-0.6-2.2-1.6-2.6-2.2-1-4.4 0.6-4.4 2.7v30.5c0 1.9 1.5 3 3 3z" opacity=".6"/>
<path class="elementor-shape-fill" d="m75 90.9c2.1 0.6 4-0.8 4-2.6v-4.7c0-1.1 0.6-2.2 1.6-2.6 2.2-1 4.4 0.6 4.4 2.7v11.5c-0.5 1.5 0.7 2.8 2.3 2.8 1.5 0 2.7-2.8 2.7-2.8v-18.2c0-1.5 1.3-2.8 2.8-2.8s2.8 1.2 2.8 2.8h-0.6v6.8c0 1.1 0.6 2.2 1.6 2.6 2.2 1 4.4-0.6 4.4-2.7v-19.4 0.2c0.1-1.6 1.4-2.8 3-2.8s2.9 1.3 3 2.8v-0.2 6c0 1.5 1.2 2.8 2.8 2.8h0.4c1.5 0 2.8-1.2 2.8-2.8v-33.5c0-1.5-1.2-2.8-2.8-2.8h-0.4c-1.5 0-2.8 1.2-2.8 2.8v13.3c0 1.7-1.3 3-3 3s-3-1.3-3-3v-17.9c0-0.2 0-0.4-0.1-0.6-0.3-1.3-1.5-2.4-2.9-2.4s-2.6 1-2.9 2.4c0 0.2-0.1 0.4-0.1 0.6v17.6h0.6c0 1.5-1.2 2.8-2.8 2.8s-2.8-2.8-2.8-2.8v-12.1c0-1.5-1.2-2.8-2.7-2.8s-2.3 2.8-2.3 2.8v30.4 7.7c0 1.1-0.6 2.2-1.6 2.6-2.2 1-4.4-0.6-4.4-2.7v-37.4c0-1.3-0.8-2.4-2-2.8-2.1-0.6-4 0.8-4 2.6v37.3 12.7c0 1.3 0.8 2.5 2 2.8zm28.8-37.2h0.4c1.5 0 2.8 1.2 2.8 2.8v0.4c0 1.5-1.2 2.8-2.8 2.8h-0.4c-1.5 0-2.8-1.2-2.8-2.8v-0.4c0-1.5 1.2-2.8 2.8-2.8zm-13.8 16.4v-12.3c0-1 0.5-2 1.3-2.5 2.3-1.5 4.7 0.4 4.7 2.6v12.3c0 2.1-2.2 3.7-4.4 2.7-1-0.5-1.6-1.5-1.6-2.6v-0.2z" opacity=".6"/>
<path class="elementor-shape-fill" d="m853.6 60.9c-2.1 0-3.8-1.7-3.8-3.8s1.7-3.8 3.8-3.8 3.8 1.7 3.8 3.8-1.7 3.8-3.8 3.8z"/>
<path class="elementor-shape-fill" d="m920.4 69.2c-2.1 0-3.8-1.7-3.8-3.8s1.7-3.8 3.8-3.8 3.8 1.7 3.8 3.8-1.7 3.8-3.8 3.8z"/>
<path class="elementor-shape-fill" d="m839 70.2v-12.3c0-1.5 0.8-2.9 2.2-3.5 2.9-1.3 5.8 0.8 5.8 3.6v12.2c0 2.8-2.9 4.9-5.8 3.6-1.4-0.7-2.2-2.1-2.2-3.6z"/>
<path class="elementor-shape-fill" d="m603.7 60.9c-2.1 0-3.8-1.7-3.8-3.8s1.7-3.8 3.8-3.8 3.8 1.7 3.8 3.8-1.7 3.8-3.8 3.8z"/>
<path class="elementor-shape-fill" d="m670.5 69.2c-2.1 0-3.8-1.7-3.8-3.8s1.7-3.8 3.8-3.8 3.8 1.7 3.8 3.8-1.7 3.8-3.8 3.8z"/>
<path class="elementor-shape-fill" d="m589 70.2v-12.3c0-1.5 0.8-2.9 2.2-3.5 2.9-1.3 5.8 0.8 5.8 3.6v12.2c0 2.8-2.9 4.9-5.8 3.6-1.4-0.6-2.2-2.1-2.2-3.6z"/>
<path class="elementor-shape-fill" d="m353.9 60.9c-2.1 0-3.8-1.7-3.8-3.8s1.7-3.8 3.8-3.8 3.8 1.7 3.8 3.8c-0.1 2.1-1.8 3.8-3.8 3.8z"/>
<path class="elementor-shape-fill" d="m420.6 69.2c-2.1 0-3.8-1.7-3.8-3.8s1.7-3.8 3.8-3.8 3.8 1.7 3.8 3.8-1.7 3.8-3.8 3.8z"/>
<path class="elementor-shape-fill" d="m339 70.2v-12.3c0-1.5 0.8-2.9 2.2-3.5 2.9-1.3 5.8 0.8 5.8 3.6v12.2c0 2.8-2.9 4.9-5.8 3.6-1.4-0.6-2.2-2.1-2.2-3.6z"/>
<path class="elementor-shape-fill" d="m987.5 84.7c-1.9 0-3.5-1.6-3.5-3.5v-10.8s-1.5-1.8-2.5-1.8-1.5 1.8-1.5 1.8v3c0 1.5-0.9 3-2.3 3.6-2.9 1.2-5.7-0.9-5.7-3.6v-35.2s-0.6-1.8-1.6-1.8h-0.2c-0.9 0.1-2.2 1.8-2.2 1.8v22.1c0 1.7-1.2 3.3-2.9 3.6-2.2 0.4-4.1-1.3-4.1-3.4v-4.2s-0.7-1.8-1.7-1.8h-0.2c-0.9 0.1-2.1 1.8-2.1 1.8v12.4c0 1.3-0.5 2.5-1.6 3.2-0.7 0.5-1.5 0.7-2.3 0.6-1.8-0.2-3.1-1.7-3.1-3.5v-35.5s-0.1-0.6-0.3-0.9c-0.3-0.5-0.9-0.9-1.5-0.9s-1.2 0.3-1.5 0.9c-0.2 0.3 0.4 0.9 0.4 0.9v20.3c0 1.1-0.4 2.1-1.1 2.9-1 1-2.1 1.4-3.3 1.2-2-0.2-3.5-2-3.5-4.1v-13.6s-1-1.8-1.9-1.8-2.1 1.8-2.1 1.8v28.8c0 1.5-0.8 2.9-2.2 3.5-2.9 1.3-5.8-0.8-5.8-3.6v-22s-0.1-1.8-1.1-1.8h-0.2c-0.9 0.1-1.7 1.8-1.7 1.8v11.4c0 2.2-1.8 4-4 4h-0.5c-2-0.2-3.5-2-3.5-4.1v-24s0.3-1.1-0.1-1.4c-0.3-0.3-0.7-0.4-1.1-0.4s-0.8 0.1-1.1 0.4c-0.4 0.3-0.7 1.4-0.7 1.4v34.6c0 1.3-0.5 2.5-1.6 3.2-0.7 0.5-1.5 0.7-2.3 0.6-1.8-0.2-3.1-1.7-3.1-3.5v-5.1s-1.3-1.8-2.3-1.8-1.7 1.8-1.7 1.8v8.1c0 1.1-0.4 2.2-1.2 3-1 1-2.1 1.4-3.3 1.2-2-0.2-3.5-2-3.5-4.1v-20.5c0-1.6 1-3.2 2.6-3.7 0.6-0.2 1.3-0.3 1.9-0.2 2.1 0.2 3.5 1.9 3.5 4.1v3.6s0.8 1.8 1.7 1.8 1.8-0.5 2.3-1.8v-17.3c-0.5-1-1.3-1.8-2.3-1.8s-1.7 1.8-1.7 1.8v5.3c0 1.3-0.5 2.5-1.6 3.3-0.7 0.5-1.5 0.7-2.3 0.6-1.8-0.2-3.1-1.7-3.1-3.5v-5.6s-1.5-1.8-2.4-1.8c-1 0-1.6 1.8-1.6 1.8v20.1c0 2.2-1.8 4-4 4h-0.5c-2-0.2-3.5-2-3.5-4.1v-13.3s-0.6-1.8-1.6-1.8h-0.2c-0.9 0.1-2.2 1.8-2.2 1.8v24.7s-1 3.8-3.1 3.8h-0.4c-1.9-0.2-3.4-1.9-3.4-3.8v-1.3c0-1.3-0.9-1.9-1.8-1.9s-1.3 1.8-1.3 1.8v6.1c0 2.2-1.8 4-4 4h-0.5c-2-0.2-3.5-2-3.5-4.1v-36.1s-0.8-1.8-1.8-1.8-1.2 1.8-1.2 1.8v11.6c0 1.5-0.8 2.9-2.2 3.5-2.9 1.3-5.8-0.8-5.8-3.6v-17.1s-0.2-0.3-0.2-0.4c-0.2-0.8-0.9-1.4-1.7-1.4s-1.6 0.6-1.7 1.4c0 0.1 0.7 0.4 0.7 0.4v17.3c0 2-1.5 3.6-3.4 3.8h-1c-2-0.2-3.5-2-3.5-4.1v-11.9s-1.1-1.8-2-1.8h-0.2c-0.9 0.1-1.8 1.8-1.8 1.8v36.6c0 2.2-1.8 4-4 4h-0.5c-2-0.2-3.5-2-3.5-4.1v-36s-0.2-1.8-1.2-1.8h-0.2c-0.9 0.1-1.6 1.8-1.6 1.8v37.3c0 1.9-1.6 3.5-3.5 3.5h-0.4c-1.8-0.2-3.1-1.7-3.1-3.5v-37.3s-1.3-1.8-2.3-1.8h-0.2c-0.9 0.1-1.5 1.8-1.5 1.8v11.5c0 1.9-1.4 3.6-3.3 3.7-2 0.1-3.7-1.5-3.7-3.5v-19.3s-1.4-1.8-2.4-1.8h-0.2c-0.9 0.1-1.6 0.9-1.4 1.8v30.8c-0.2 1 0.6 1.7 1.6 1.7s2.4-1.7 2.4-1.7v-0.9c0-1.9 1.4-3.6 3.3-3.7 2-0.1 3.7 1.5 3.7 3.5v19.4c0 1.9-1.4 3.6-3.3 3.7-2 0.1-3.7-1.5-3.7-3.5v-9.6s-1.4-1.8-2.4-1.8-1.6 1.8-1.6 1.8v3c0 1.5-0.9 3-2.3 3.6-2.9 1.2-5.7-0.9-5.7-3.6v-42.6s-0.5-1.8-1.5-1.8-2.5 1.8-2.5 1.8v30.6c0 1.3-0.5 2.5-1.6 3.3-0.7 0.5-1.5 0.7-2.3 0.6-1.8-0.2-3.1-1.7-3.1-3.5v-2.8s-0.7-1.8-1.7-1.8-2.3 1.8-2.3 1.8v10.1c0 1.7-1.2 3.3-2.9 3.6-2.2 0.4-4.1-1.3-4.1-3.4v-53.9s-0.8-1.8-1.8-1.8h-0.2c-0.9 0.1-1 1.8-1 1.8v38.4c0 2.1-1.5 3.8-3.5 4.1h-0.5c-2.2 0-4-1.8-4-4v-15.6s-0.9-1.8-1.9-1.8h-0.2c-0.9 0.1-1.9 1.8-1.9 1.8v20.8c0 1.3-0.5 2.6-1.6 3.4-0.7 0.5-1.5 0.7-2.4 0.6-0.3 0-0.7-0.1-1-0.3v12.5c0 2.2-1.8 4-4 4h-0.5c-2-0.2-3.5-2-3.5-4.1v-35s-0.3-1.8-1.2-1.8h-0.2c-0.9 0.1-1.6 1.8-1.6 1.8v9.6c0 1.9-1.4 3.6-3.3 3.7-2 0.1-3.7-1.5-3.7-3.5v-19.3s-1.4-1.8-2.4-1.8-1.8 0.8-1.6 1.8v30.8c-0.1 1 0.7 1.7 1.6 1.7 1 0 2.4-1.7 2.4-1.7v-0.9c0-1.9 1.4-3.6 3.3-3.7 2-0.1 3.7 1.5 3.7 3.5v19.4c0 1.9-1.4 3.6-3.3 3.7-2 0.1-3.7-1.5-3.7-3.5v-9.6s-1.4-1.8-2.4-1.8-1.6 1.8-1.6 1.8v3c0 1.9-1.4 3.6-3.3 3.7-2 0.1-3.7-1.5-3.7-3.5v-35.3s-1.5-1.8-2.5-1.8h-0.2c-0.9 0.1-1.3 1.8-1.3 1.8v22.1c0 1.5-0.8 2.9-2.2 3.5-2.9 1.3-5.8-0.8-5.8-3.6v-4s-0.6-1.8-1.6-1.8h-0.2c-0.9 0.1-2.2 1.8-2.2 1.8v12.4c0 1.3-0.5 2.5-1.6 3.2-0.7 0.5-1.5 0.7-2.3 0.6-1.8-0.2-3.1-1.7-3.1-3.5v-35.4s0-0.6-0.2-0.9c-0.3-0.5-0.9-0.9-1.5-0.9s-1.2 0.3-1.5 0.9c-0.2 0.3 0.3 0.9 0.3 0.9v20.3c0 1.1-0.4 2.1-1.1 2.9-1 1-2.1 1.4-3.3 1.2-2-0.2-3.5-2-3.5-4.1v-13.6s-0.9-1.8-1.8-1.8-1.2 1.8-1.2 1.8v28.8c0 1.5-0.8 2.9-2.2 3.5-2.9 1.3-5.8-0.8-5.8-3.6v-22s-1-1.8-2-1.8h-0.2c-0.9 0.1-1.8 1.8-1.8 1.8v11.4c0 2.2-1.8 4-4 4h-0.5c-2-0.2-3.5-2-3.5-4.1v-24s0.4-1.1 0-1.4c-0.3-0.3-0.7-0.4-1.1-0.4s-0.8 0.1-1.1 0.4c-0.4 0.3-0.8 1.4-0.8 1.4v34.6c0 1.1-0.4 2.1-1.1 2.9-1 1-2.1 1.4-3.3 1.2-2-0.2-3.5-2-3.5-4.1v-4.8s-0.2-1.8-1.2-1.8-1.8 1.8-1.8 1.8v8.1c0 1.1-0.4 2.2-1.2 3-1 1-2.1 1.4-3.3 1.2-2-0.2-3.5-2-3.5-4.1v-20.5c0-1.6 1-3.2 2.6-3.7 0.6-0.2 1.3-0.3 1.9-0.2 2.1 0.2 3.6 1.9 3.6 4.1v3.6s0.9 1.8 1.8 1.8 1.8-0.5 2.2-1.8v-17.3c-0.4-1-1.2-1.8-2.2-1.8s-1.8 1.8-1.8 1.8v5.3c0 1.3-0.5 2.5-1.6 3.3-0.7 0.5-1.5 0.7-2.3 0.6-1.8-0.2-3.1-1.7-3.1-3.5v-5.6s-1.3-1.8-2.3-1.8-1.7 1.8-1.7 1.8v20.4c0 1.9-1.6 3.5-3.5 3.5h-0.4c-1.8-0.2-3.1-1.7-3.1-3.5v-13.7s-1.5-1.8-2.5-1.8h-0.2c-0.9 0.1-1.3 1.8-1.3 1.8v24.8c0 2.1-1.7 3.7-3.7 3.7h-0.4c-1.9-0.2-3.3-1.8-3.3-3.8v-1.3c0-1.3-0.9-1.9-1.8-1.9s-1.8 0.7-1.8 1.8v6.1c0 2.2-1.8 4-4 4h-0.5c-2-0.2-3.5-2-3.5-4.1v-36.1s-0.7-1.8-1.7-1.8-2.3 1.8-2.3 1.8v11.6c0 1.7-1.2 3.3-2.9 3.6-2.2 0.4-4.1-1.3-4.1-3.4v-17.4s0-0.3-0.1-0.4c-0.2-0.8-0.9-1.4-1.7-1.4s-1.6 0.6-1.7 1.4c0 0.1 0.6 0.4 0.6 0.4v17.3c0 2-1.5 3.6-3.4 3.8h-1c-2-0.2-3.5-2-3.5-4.1v-11.9s-1-1.8-1.9-1.8h-0.2c-0.9 0.1-1.9 1.8-1.9 1.8v36.6c0 2.2-1.8 4-4 4h-0.5c-2-0.2-3.5-2-3.5-4.1v-36s-0.1-1.8-1.1-1.8h-0.2c-0.9 0.1-1.7 1.8-1.7 1.8v37c0 2.2-1.8 4-4 4h-0.5c-2-0.2-3.5-2-3.5-4.1v-37s-0.2-1.8-1.2-1.8h-0.2c-0.9 0.1-1.6 1.8-1.6 1.8v11.5c0 1.9-1.4 3.6-3.3 3.7-2 0.1-3.7-1.5-3.7-3.5v-19.2s-1.3-1.8-2.3-1.8h-0.2c-0.9 0.1-1.6 0.9-1.5 1.8v30.8c0 1 0.7 1.7 1.7 1.7s2.3-1.7 2.3-1.7v-0.9c0-1.9 1.4-3.6 3.3-3.7 2-0.1 3.7 1.5 3.7 3.5v19.4c0 1.9-1.4 3.6-3.3 3.7-2 0.1-3.7-1.5-3.7-3.5v-9.6s-1.3-1.8-2.3-1.8-1.7 1.8-1.7 1.8v3c0 1.9-1.4 3.6-3.3 3.7-2 0.1-3.7-1.5-3.7-3.5v-42.8s-1.4-1.8-2.4-1.8-1.6 1.8-1.6 1.8v30.5c0 1.1-0.4 2.2-1.2 3-1 1-2.1 1.4-3.3 1.2-2-0.2-3.5-2-3.5-4.1v-2.6s-0.6-1.8-1.5-1.8c-1 0-2.5 1.8-2.5 1.8v10.3c0 1.7-1.2 3.3-2.9 3.6-2.2 0.4-4.1-1.3-4.1-3.4v-53.9s-0.7-1.8-1.7-1.8h-0.2c-0.9 0.1-2.1 1.8-2.1 1.8v38.7c0 1.8-1.3 3.4-3.1 3.5h-0.9c-1.8-0.3-3-1.9-3-3.7v-15.7s-0.8-1.8-1.8-1.8h-0.2c-0.9 0.1-2 1.8-2 1.8v20.8c0 1.3-0.5 2.6-1.6 3.4-0.7 0.5-1.5 0.7-2.4 0.6-0.3 0-0.7-0.1-1-0.3v12.5c0 2.2-1.8 4-4 4h-0.5c-2-0.2-3.5-2-3.5-4.1v-34.9s-0.2-1.8-1.1-1.8h-0.2c-0.9 0.1-1.7 1.8-1.7 1.8v9.6c0 1.5-0.9 3-2.3 3.6-2.9 1.2-5.7-0.9-5.7-3.6v-19.1s-0.3-1.8-1.3-1.8-1.7 1.8-1.7 1.8v30.8s0.8 1.7 1.7 1.7c1 0 1.3-1.7 1.3-1.7v-1.8c0-1.5 0.9-3 2.3-3.6 2.9-1.2 5.7 0.9 5.7 3.6v21c0 1.5-0.9 3-2.3 3.6-2.9 1.2-5.7-0.9-5.7-3.6v-10.2s-0.3-1.8-1.2-1.8c-1 0-1.8 1.8-1.8 1.8v3c0 1.9-1.4 3.6-3.3 3.7-2 0.1-3.7-1.5-3.7-3.5v-35.4s-1.4-1.8-2.4-1.8h-0.2c-0.9 0.1-1.4 1.8-1.4 1.8v22.1c0 1.7-1.2 3.3-2.9 3.6-2.2 0.4-4.1-1.3-4.1-3.4v-4.2s-1.5-1.8-2.5-1.8h-0.2c-0.9 0.1-1.3 1.8-1.3 1.8v12.6c0 2.2-1.8 4-4 4h-0.5c-2-0.2-3.5-2-3.5-4.1v-35.3s0.1-0.6-0.1-0.9c-0.3-0.5-0.9-0.9-1.5-0.9s-1.2 0.3-1.5 0.9c-0.2 0.3-0.9 0.9-0.9 0.9v20.7c0 1.9-1.6 3.5-3.5 3.5h-0.4c-1.8-0.2-3.1-1.7-3.1-3.5v-14s-0.8-1.8-1.7-1.8-1.3 1.8-1.3 1.8v28.8c0 1.5-0.8 2.9-2.2 3.5-2.9 1.3-5.8-0.8-5.8-3.6v-22s-0.9-1.8-1.9-1.8h-0.2c-1.9 0.1-1.9 1.9-1.9 1.9v11.4c0 2.2-1.8 4-4 4h-0.5c-2-0.2-3.5-2-3.5-4.1v-24s-0.4-1.1-0.9-1.4c-0.3-0.3-0.7-0.4-1.1-0.4s-0.8 0.1-1.1 0.4c-0.4 0.3-0.9 1.4-0.9 1.4v34.7c0 2.2-1.8 4-4 4h-0.5c-2-0.2-3.5-2-3.5-4.1v-4.9s-0.1-1.8-1.1-1.8-1.9 1.8-1.9 1.8v8.3c0 2.2-1.8 4-4 4h-0.5c-2-0.2-3.5-2-3.5-4.1v-20.3c0-1.3 0.6-2.6 1.7-3.4 0.8-0.6 1.8-0.8 2.7-0.7 2.1 0.2 3.5 1.9 3.5 4.1v3.6s1 1.8 1.9 1.8 1.8-0.5 2.1-1.8v-17.3c-0.3-1-1.1-1.8-2.1-1.8s-1.9 1.8-1.9 1.8v5.3c0 1.3-0.6 2.6-1.7 3.4-0.8 0.6-1.8 0.8-2.7 0.7-2-0.2-3.5-2-3.5-4.1v-5.4s-0.2-1.8-1.2-1.8-1.8 1.8-1.8 1.8v20.4c0 1.9-1.6 3.5-3.5 3.5h-0.4c-1.8-0.2-3.1-1.7-3.1-3.5v-13.5s-1.4-1.8-2.3-1.8h-0.2c-0.9 0.1-1.4 1.8-1.4 1.8v24.8c0 2.1-1.7 3.7-3.7 3.7h-0.4c-1.9-0.2-3.3-1.8-3.3-3.8v-1.3c0-1.3-0.9-1.9-1.8-1.9s-1.8 0.7-1.8 1.8v6.1c0 2.2-1.8 4-4 4h-0.5c-2-0.2-3.5-2-3.5-4.1v-36.1s-0.6-1.8-1.6-1.8-2.4 1.8-2.4 1.8v11.6c0 1.7-1.2 3.3-2.9 3.6-2.2 0.4-4.1-1.3-4.1-3.4v-17.4s0.1-0.3 0-0.4c-0.2-0.8-0.9-1.4-1.7-1.4s-1.6 0.6-1.7 1.4c0 0.1-0.5 0.4-0.5 0.4v17.2c0 2.1-1.8 3.9-3.8 3.7-1.8-0.2-3.1-1.7-3.1-3.5v-12.3s-0.9-1.8-1.8-1.8h-0.2c-0.9 0.1-1 1.8-1 1.8v36.6c0 2.2-1.8 4-4 4h-0.5c-2-0.2-3.5-2-3.5-4.1v-36s-1-1.8-2-1.8h-0.2c-0.9 0.1-1.8 1.8-1.8 1.8v37c0 2.2-1.8 4-4 4h-0.5c-2-0.2-3.5-2-3.5-4.1v-37s-0.1-1.8-1.1-1.8h-0.2c-0.9 0.1-1.7 1.8-1.7 1.8v11.5c0 1.5-0.9 3-2.3 3.6-2.9 1.2-5.7-0.9-5.7-3.6v-19s-0.2-1.8-1.2-1.8h-0.2c-0.9 0.1-1.6 1.8-1.6 1.8v30.8s0.8 1.7 1.8 1.7 1.2-1.7 1.2-1.7v-1.8c0-1.5 0.9-3 2.3-3.6 2.9-1.2 5.7 0.9 5.7 3.6v21c0 1.5-0.9 3-2.3 3.6-2.9 1.2-5.7-0.9-5.7-3.6v-10.2s-0.2-1.8-1.2-1.8-1.8 1.8-1.8 1.8v3c0 1.9-1.4 3.6-3.3 3.7-2 0.1-3.7-1.5-3.7-3.5v-42.9s-1.3-1.8-2.3-1.8-1.7 1.8-1.7 1.8v31c0 1.9-1.6 3.5-3.5 3.5h-0.4c-1.8-0.2-3.1-1.7-3.1-3.5v-2.8s-1.5-1.8-2.4-1.8c-1 0-1.6 1.8-1.6 1.8v10.2c0 1.5-0.8 2.9-2.2 3.5-2.9 1.3-5.8-0.8-5.8-3.6v-53.7s-0.6-1.8-1.6-1.8h-0.2c-0.9 0.1-2.2 1.8-2.2 1.8v38.7c0 1.8-1.3 3.4-3.1 3.5h-0.4c-1.9 0-3.5-1.6-3.5-3.5v-15.8s-0.7-1.8-1.7-1.8h-0.2c-0.9 0.1-2.1 1.8-2.1 1.8v21.3c0 2-1.6 3.6-3.6 3.6h-0.4c-0.3 0-0.7-0.1-1-0.3v12.7c0 1.9-1.6 3.5-3.5 3.5h-0.4c-1.8-0.2-3.1-1.7-3.1-3.5v-35.4s-1-1.8-2-1.8h-0.2c-0.9 0.1-1.8 1.8-1.8 1.8v9.6c0 1.5-0.9 3-2.3 3.6-2.9 1.2-5.7-0.9-5.7-3.6v-19.1s-0.2-1.8-1.1-1.8c-1 0-1.9 1.8-1.9 1.8v30.8s0.9 1.7 1.9 1.7 1.1-1.7 1.1-1.7v-1.8c0-1.5 0.9-3 2.3-3.6 2.9-1.2 5.7 0.9 5.7 3.6v21c0 1.5-0.9 3-2.3 3.6-2.9 1.2-5.7-0.9-5.7-3.6v-10.2s-0.2-1.8-1.1-1.8c-1 0-1.9 1.8-1.9 1.8v3c0 1.5-0.9 3-2.3 3.6-2.9 1.2-5.7-0.9-5.7-3.6v-35.2s-0.3-1.8-1.3-1.8h-0.2c-0.9 0.1-1.5 1.8-1.5 1.8v22.1c0 1.7-1.2 3.3-2.9 3.6-2.2 0.4-4.1-1.3-4.1-3.4v-4.2s-1.4-1.8-2.4-1.8h-0.2c-0.9 0.1-1.4 1.8-1.4 1.8v12.6c0 2.2-1.8 4-4 4h-0.5c-2-0.2-3.5-2-3.5-4.1v-35.3s0.2-0.6 0-0.9c-0.3-0.5-0.9-0.9-1.5-0.9s-1.2 0.3-1.5 0.9c-0.2 0.3-1 0.9-1 0.9v20.7c0 1.9-1.6 3.5-3.5 3.5h-0.4c-1.8-0.2-3.1-1.7-3.1-3.5v-14s-0.7-1.8-1.6-1.8-2.4 1.8-2.4 1.8v28.8c0 1.7-1.2 3.3-2.9 3.6-2.2 0.4-4.1-1.3-4.1-3.4v-22.3s-0.8-1.8-1.8-1.8h-0.2c-0.9 0.1-1 1.8-1 1.8v11.4c0 2.2-1.8 4-4 4h-0.5c-2-0.2-3.5-2-3.5-4.1v-24s-0.3-1.1-0.8-1.4c-0.3-0.3-0.7-0.4-1.1-0.4s-0.8 0.1-1.1 0.4c-0.4 0.3 0 1.4 0 1.4v34.7c0 2.2-1.8 4-4 4h-0.5c-2-0.2-3.5-2-3.5-4.1v-4.8s-1-1.8-2-1.8-2 1.8-2 1.8v8.3c0 2.2-1.8 4-4 4h-0.4c-2-0.2-3.5-2-3.5-4.1v-20.3c0-1.3 0.6-2.6 1.7-3.4 0.8-0.6 1.8-0.8 2.7-0.7 2.1 0.2 3.5 1.9 3.5 4.1v3.6s1.1 1.8 2 1.8 1.8-0.5 2-1.8v-17.3c-0.2-1-1-1.8-2-1.8s-2 1.8-2 1.8v5.3c0 1.3-0.6 2.6-1.7 3.4-0.8 0.6-1.8 0.8-2.7 0.7-2-0.2-3.5-2-3.5-4.1v-5.4s-0.1-1.8-1.1-1.8-1.9 1.8-1.9 1.8v20.1c0 2.2-1.8 4-4 4h-0.5c-2-0.2-3.5-2-3.5-4.1v-13.1s-0.3-1.8-1.2-1.8h-0.2c-0.9 0.1-1.6 1.8-1.6 1.8v24.8c0 2.1-1.7 3.7-3.7 3.7h-0.4c-1.9-0.2-3.3-1.8-3.3-3.8v-1.3c0-1.3-0.9-1.9-1.8-1.9s-1.8 0.7-1.8 1.8v6.3c0 1.9-1.6 3.5-3.5 3.5h-0.4c-1.8-0.2-3.1-1.7-3.1-3.5v-36.4s-1.5-1.8-2.5-1.8-1.5 1.8-1.5 1.8v11.6c0 1.5-0.8 2.9-2.2 3.5-2.9 1.3-5.8-0.8-5.8-3.6v-17.1s0.2-0.3 0.1-0.4c-0.2-0.8-0.9-1.4-1.7-1.4s-1.6 0.6-1.7 1.4c0 0.1-0.7 0.4-0.7 0.4l-0.4 17.4c0 1.9-1.6 3.5-3.5 3.5h-0.4c-1.8-0.2-3.1-1.7-3.1-3.5v-12.3s-0.7-1.8-1.7-1.8h-0.2c-0.9 0.1-1.1 1.9-1.1 1.9v36.6c0 2.2-1.8 4-4 4h-0.5c-2-0.2-3.5-2-3.5-4.1v-36.1s-0.9-1.8-1.9-1.8h-0.2c-0.9 0.1-0.9 1.8-0.9 1.8v37c0 2.2-1.8 4-4 4h-0.5c-2-0.2-3.5-2-3.5-4.1v-37s-1-1.8-2-1.8h-0.2c-0.9 0.1-1.8 1.8-1.8 1.8v11.5c0 1.5-0.9 3-2.3 3.6-2.9 1.2-5.7-0.9-5.7-3.6v-19s-0.1-1.8-1.1-1.8h-0.2c-0.9 0.2-1.7 1.9-1.7 1.9v30.8s0.9 1.7 1.9 1.7 1.1-1.7 1.1-1.7v-1.8c0-1.5 0.9-3 2.3-3.6 2.9-1.2 5.7 0.9 5.7 3.6v21c0 1.5-0.9 3-2.3 3.6-2.9 1.2-5.7-0.9-5.7-3.6v-10.3s-0.1-1.8-1.1-1.8-1.9 1.8-1.9 1.8v3c0 1.5-0.9 3-2.3 3.6-2.9 1.2-5.7-0.9-5.7-3.6v-42.7s-0.2-1.8-1.2-1.8-1.8 1.8-1.8 1.8v31c0 1.9-1.6 3.5-3.5 3.5h-0.4c-1.8-0.2-3.1-1.7-3.1-3.6v-2.8s-1.4-1.8-2.3-1.8-1.7 1.8-1.7 1.8v10.2c0 1.7-1.2 3.3-2.9 3.6-2.2 0.4-4.1-1.3-4.1-3.4v-53.9s-1.5-1.8-2.5-1.8h-0.2c-0.9 0.1-1.3 1.8-1.3 1.8v38.4c0 2.1-1.5 3.8-3.5 4.1h-0.5c-2.2 0-4-1.8-4-4v-15.6s-0.6-1.8-1.6-1.8h-0.2c-0.9 0.1-2.2 1.9-2.2 1.9v20.9c0 0.5-0.1 1.1-0.3 1.5-0.6 1.4-1.8 2.3-3.2 2.3h-0.4c-1.7-0.3-3.1-2-3.1-4v-59.3h1002v75.4c0 2.1-1.6 3.8-3.5 3.8h-0.4c-1.8-0.2-3.1-1.9-3.1-3.8v-35s-1.4-1.8-2.3-1.8h-0.2c-0.9 0.1-1.5 1.8-1.5 1.8v9.6c0 1.9-1.4 3.6-3.3 3.7-2 0.1-3.7-1.5-3.7-3.5v-19.3s-1.5-1.8-2.5-1.8-1.8 0.8-1.5 1.8v30.8c-0.2 1 0.6 1.7 1.5 1.7 1 0 2.5-1.7 2.5-1.7v-1.9c0-1.5 0.9-3 2.4-3.5 2.4-0.8 4.6 1.1 4.6 3.6v21.5c0 2.1-1.6 3.6-3.5 3.6zm-117.2-55.1h-0.2c-0.9 0.1-1.6 0.9-2.1 1.8v28.3c0.5 1.1 1.4 1.8 2.3 1.8 0.4 0 1.8-0.1 1.7-1.8v-28.3c0.1-1-0.7-1.8-1.7-1.8zm-249.9 0h-0.2c-0.9 0.1-1.6 0.9-2.2 1.8v28.3c0.6 1.1 1.6 1.8 2.4 1.8 0.4 0 1.8-0.1 1.6-1.8v-28.3c0.2-1-0.6-1.8-1.6-1.8zm-249.9 0h-0.2c-0.9 0.1-1.6 0.9-1.3 1.8v28.3c-0.2 1.1 0.7 1.8 1.5 1.8 0.4 0 1.8-0.1 2.5-1.8v-28.3c-0.7-1-1.5-1.8-2.5-1.8zm-249.9 0h-0.2c-0.9 0.1-1.6 0.9-1.4 1.8v28.3c-0.1 1.1 0.8 1.8 1.6 1.8 0.4 0 1.8-0.1 2.4-1.8v-28.3c-0.6-1-1.4-1.8-2.4-1.8zm660.7 10.6c-0.8 0-1.8 0.5-2.3 1.8v7.1c0.6 1 1.4 1.8 2.3 1.8s1.8-0.8 1.7-1.8v-7.1c0.1-1.7-1.4-1.8-1.7-1.8zm-249.8 0c-0.8 0-1.8 0.5-2.5 1.8v7.1c0.7 1 1.5 1.8 2.5 1.8s1.8-0.8 1.5-1.8v-7.1c0.2-1.7-1.2-1.8-1.5-1.8zm-249.9 0c-0.8 0-1.8 0.5-1.6 1.8v7.1c-0.2 1 0.6 1.8 1.6 1.8s1.8-0.8 2.4-1.8v-7.1c-0.7-1.7-2.1-1.8-2.4-1.8zm-249.9 0c-0.8 0-1.8 0.5-1.7 1.8v7.1c-0.1 1 0.7 1.8 1.7 1.8s1.8-0.8 2.3-1.8v-7.1c-0.6-1.7-2-1.8-2.3-1.8zm927.6-13.2c-1 0-1.8 0.8-2.3 1.8v14.4c0.5 1 1.3 1.8 2.4 1.8 0.9 0 1.7-0.8 1.6-1.7v-14.6c0.1-0.9-0.7-1.7-1.7-1.7zm-249.9 0c-1 0-1.8 0.8-2.4 1.8v14.4c0.6 1 1.4 1.8 2.5 1.8 0.9 0 1.7-0.8 1.5-1.7v-14.6c0.2-0.9-0.6-1.7-1.6-1.7zm-249.9 0c-1 0-1.8 0.8-1.5 1.8v14.4c-0.3 1 0.6 1.8 1.6 1.8 0.9 0 1.7-0.8 2.4-1.7v-14.6c-0.7-0.9-1.5-1.7-2.5-1.7zm-249.9 0c-1 0-1.8 0.8-1.6 1.8v14.4c-0.2 1 0.7 1.8 1.7 1.8 0.9 0 1.7-0.8 2.3-1.7v-14.6c-0.6-0.9-1.4-1.7-2.4-1.7zm671.8 6.6h-0.2c-0.9 0.1-1.6 0.9-1.6 1.8 0 0.7 0.4 1.3 0.9 1.5 0.3 0.1 0.6 0.2 0.9 0.2 1 0 1.8-0.8 1.8-1.8 0-0.9-0.8-1.7-1.8-1.7zm-249.9 0h-0.2c-0.9 0.1-1.6 0.9-1.6 1.8 0 0.7 0.4 1.3 0.9 1.5 0.3 0.1 0.6 0.2 0.9 0.2 1 0 1.8-0.8 1.8-1.8 0-0.9-0.8-1.7-1.8-1.7zm-249.8 0h-0.2c-0.9 0.1-1.6 0.9-1.6 1.8 0 0.7 0.4 1.3 0.9 1.5 0.3 0.1 0.6 0.2 0.9 0.2 1 0 1.8-0.8 1.8-1.8-0.1-0.9-0.9-1.7-1.8-1.7zm-249.9 0h-0.2c-0.9 0.1-1.6 0.9-1.6 1.8 0 0.7 0.4 1.3 0.9 1.5 0.3 0.1 0.6 0.2 0.9 0.2 1 0 1.8-0.8 1.8-1.8-0.1-0.9-0.9-1.7-1.8-1.7zm805.3-2.1c-0.7 0-1.3 0.4-1.6 1-0.1 0.3-0.2 0.5-0.2 0.8s0.1 0.6 0.2 0.9c0.3 0.6 0.9 0.9 1.5 0.9s1.2-0.3 1.5-0.9c0.2-0.3 0.2-0.6 0.2-0.9s-0.1-0.6-0.2-0.8c-0.2-0.6-0.8-1-1.4-1zm-249.9 0c-0.7 0-1.3 0.4-1.6 1-0.1 0.3-0.2 0.5-0.2 0.8s0.1 0.6 0.2 0.9c0.3 0.6 0.9 0.9 1.5 0.9s1.2-0.3 1.5-0.9c0.2-0.3 0.2-0.6 0.2-0.9s-0.1-0.6-0.2-0.8c-0.2-0.6-0.8-1-1.4-1zm-249.9 0c-0.7 0-1.3 0.4-1.6 1-0.1 0.3-0.2 0.5-0.2 0.8s0.1 0.6 0.2 0.9c0.3 0.5 0.9 0.9 1.5 0.9s1.2-0.3 1.5-0.9c0.2-0.3 0.2-0.6 0.2-0.9s-0.1-0.6-0.2-0.8c-0.2-0.6-0.8-1-1.4-1zm-249.9 0c-0.7 0-1.3 0.4-1.6 1-0.1 0.3-0.2 0.5-0.2 0.8s0.1 0.6 0.2 0.9c0.3 0.5 0.9 0.9 1.5 0.9s1.2-0.3 1.5-0.9c0.2-0.3 0.2-0.6 0.2-0.9s-0.1-0.6-0.2-0.8c-0.2-0.6-0.8-1-1.4-1zm783-3.5c-1 0-1.8 0.8-1.8 1.8 0 0.6 0.3 1.1 0.7 1.4 0.3 0.2 0.7 0.3 1.1 0.3s0.7-0.1 1.1-0.3c0.5-0.4 0.8-1 0.7-1.7-0.1-0.8-0.8-1.4-1.6-1.5h-0.2zm-249.9 0c-1 0-1.8 0.8-1.8 1.8 0 0.6 0.3 1.1 0.7 1.4 0.3 0.2 0.7 0.3 1.1 0.3s0.7-0.1 1.1-0.3c0.5-0.4 0.8-1 0.7-1.7-0.1-0.8-0.8-1.4-1.6-1.5h-0.2zm-249.9 0c-1 0-1.8 0.8-1.8 1.8 0 0.6 0.3 1.1 0.7 1.4 0.3 0.2 0.7 0.3 1.1 0.3s0.7-0.1 1.1-0.3c0.5-0.4 0.8-1 0.7-1.7-0.1-0.8-0.8-1.4-1.6-1.5h-0.2zm-249.9 0c-1 0-1.8 0.8-1.8 1.8 0 0.6 0.3 1.1 0.7 1.4 0.3 0.2 0.7 0.3 1.1 0.3s0.7-0.1 1.1-0.3c0.5-0.4 0.8-1 0.7-1.7-0.1-0.8-0.8-1.4-1.6-1.5h-0.2zm772-11.9h-0.2c-0.9 0.1-1.6 0.9-1.5 1.8v9.1c-0.1 1 0.7 1.8 1.7 1.8h0.2c0.9-0.1 1.6-0.9 2.1-1.8v-9.1c-0.6-1-1.4-1.8-2.3-1.8zm-249.9 0h-0.2c-0.9 0.1-1.6 0.9-1.6 1.8v9.1c0 1 0.8 1.8 1.8 1.8h0.2c0.9-0.1 1.6-0.9 2-1.8v-9.1c-0.5-1-1.3-1.8-2.2-1.8zm-249.9 0h-0.2c-0.9 0.1-1.6 0.9-1.7 1.8v9.1c0.1 1 0.9 1.8 1.9 1.8h0.2c0.9-0.1 1.6-0.9 1.9-1.8v-9.1c-0.4-1-1.2-1.8-2.1-1.8zm-249.9 0h-0.2c-0.9 0.1-1.6 0.9-1.8 1.8v9.1c0.2 1 1 1.8 2 1.8h0.2c0.9-0.1 1.6-0.9 1.8-1.8v-9.1c-0.2-1-1-1.8-2-1.8zm549.6 4c-1 0-1.8 0.7-1.9 1.6 0 0.3 0 0.5 0.1 0.8 0.3 0.7 0.9 1.2 1.7 1.2s1.4-0.5 1.7-1.2c0.2-0.5 0.1-1-0.1-1.5-0.3-0.5-0.9-0.9-1.5-0.9zm-249.9 0c-1 0-1.8 0.7-1.9 1.6 0 0.3 0 0.5 0.1 0.8 0.3 0.7 0.9 1.2 1.7 1.2s1.4-0.5 1.7-1.2c0.2-0.5 0.1-1-0.1-1.5-0.3-0.5-0.9-0.9-1.5-0.9zm-249.9 0c-0.9 0-1.8 0.7-1.9 1.6 0 0.3 0 0.5 0.1 0.8 0.3 0.7 0.9 1.2 1.7 1.2s1.4-0.5 1.7-1.2c0.2-0.5 0.1-1-0.1-1.5-0.3-0.5-0.9-0.9-1.5-0.9zm-249.9 0c-1 0-1.8 0.7-1.9 1.6 0 0.3 0 0.5 0.1 0.8 0.3 0.7 0.9 1.2 1.7 1.2s1.4-0.5 1.7-1.2c0.2-0.5 0.1-1-0.1-1.5-0.3-0.5-0.9-0.9-1.5-0.9z"/>
<path class="elementor-shape-fill" d="m104 60.9c-2.1 0-3.8-1.7-3.8-3.8s1.7-3.8 3.8-3.8 3.8 1.7 3.8 3.8c-0.1 2.1-1.8 3.8-3.8 3.8z"/>
<path class="elementor-shape-fill" d="m170.7 69.2c-2.1 0-3.8-1.7-3.8-3.8s1.7-3.8 3.8-3.8 3.8 1.7 3.8 3.8-1.7 3.8-3.8 3.8z"/>
<path class="elementor-shape-fill" d="M89,70.2V57.9c0-1.5,0.8-2.9,2.2-3.5C94.1,53,97,55.2,97,58v12.2c0,2.8-2.9,4.9-5.8,3.6C89.8,73.2,89,71.7,89,70.2z"/>
</svg>
