<?xml version="1.0" encoding="UTF-8"?>
<svg preserveAspectRatio="none" viewBox="0 0 1e3 100" xmlns="http://www.w3.org/2000/svg">
<path class="elementor-shape-fill" d="M32.4,24H32c-0.4,0-0.8-0.3-0.8-0.8V0h2v23.3C33.2,23.7,32.9,24,32.4,24z"/>
<path class="elementor-shape-fill" d="M1.2,24H0.8C0.3,24,0,23.7,0,23.3V0h2v23.3C2,23.7,1.7,24,1.2,24z"/>
<path class="elementor-shape-fill" d="m16.8 17.3h-0.5c-0.4 0-0.8-0.3-0.8-0.8v-16.5h2v16.5c0.1 0.5-0.2 0.8-0.7 0.8z"/>
<path class="elementor-shape-fill" d="M9,12.2H8.6c-0.4,0-0.8-0.3-0.8-0.8V0h2v11.4C9.8,11.9,9.5,12.2,9,12.2z"/>
<path class="elementor-shape-fill" d="m24.6 12.2h-0.5c-0.4 0-0.8-0.3-0.8-0.8v-11.4h2v11.4c0.1 0.5-0.2 0.8-0.7 0.8z"/>
<path class="elementor-shape-fill" d="M63.6,24h-0.5c-0.4,0-0.8-0.3-0.8-0.8V0h2v23.3C64.4,23.7,64,24,63.6,24z"/>
<path class="elementor-shape-fill" d="M48,17.3h-0.5c-0.4,0-0.8-0.3-0.8-0.8V0h2v16.5C48.8,17,48.4,17.3,48,17.3z"/>
<path class="elementor-shape-fill" d="m40.2 12.2h-0.5c-0.4 0-0.8-0.3-0.8-0.8v-11.4h2v11.4c0.1 0.5-0.3 0.8-0.7 0.8z"/>
<path class="elementor-shape-fill" d="m55.8 12.2h-0.5c-0.4 0-0.8-0.3-0.8-0.8v-11.4h2v11.4c0.1 0.5-0.3 0.8-0.7 0.8z"/>
<path class="elementor-shape-fill" d="M94.8,24h-0.5c-0.4,0-0.8-0.3-0.8-0.8V0h2v23.3C95.6,23.7,95.2,24,94.8,24z"/>
<path class="elementor-shape-fill" d="M79.2,17.3h-0.5c-0.4,0-0.8-0.3-0.8-0.8V0h2v16.5C80,17,79.6,17.3,79.2,17.3z"/>
<path class="elementor-shape-fill" d="m71.4 12.2h-0.5c-0.4 0-0.8-0.3-0.8-0.8v-11.4h2v11.4c0.1 0.5-0.3 0.8-0.7 0.8z"/>
<path class="elementor-shape-fill" d="m87 12.2h-0.5c-0.4 0-0.8-0.3-0.8-0.8v-11.4h2v11.4c0.1 0.5-0.3 0.8-0.7 0.8z"/>
<path class="elementor-shape-fill" d="M126,24h-0.5c-0.4,0-0.8-0.3-0.8-0.8V0h2v23.3C126.8,23.7,126.4,24,126,24z"/>
<path class="elementor-shape-fill" d="m110.4 17.3h-0.5c-0.4 0-0.8-0.3-0.8-0.8v-16.5h2v16.5c0.1 0.5-0.3 0.8-0.7 0.8z"/>
<path class="elementor-shape-fill" d="m102.6 12.2h-0.5c-0.4 0-0.8-0.3-0.8-0.8v-11.4h2v11.4c0.1 0.5-0.3 0.8-0.7 0.8z"/>
<path class="elementor-shape-fill" d="m118.2 12.2h-0.5c-0.4 0-0.8-0.3-0.8-0.8v-11.4h2v11.4c0.1 0.5-0.3 0.8-0.7 0.8z"/>
<path class="elementor-shape-fill" d="m157.2 24h-0.5c-0.4 0-0.8-0.3-0.8-0.8v-23.2h2v23.3c0 0.4-0.3 0.7-0.7 0.7z"/>
<path class="elementor-shape-fill" d="m141.6 17.3h-0.5c-0.4 0-0.8-0.3-0.8-0.8v-16.5h2v16.5c0.1 0.5-0.3 0.8-0.7 0.8z"/>
<path class="elementor-shape-fill" d="m133.8 12.2h-0.5c-0.4 0-0.8-0.3-0.8-0.8v-11.4h2v11.4c0.1 0.5-0.3 0.8-0.7 0.8z"/>
<path class="elementor-shape-fill" d="m149.4 12.2h-0.5c-0.4 0-0.8-0.3-0.8-0.8v-11.4h2v11.4c0.1 0.5-0.3 0.8-0.7 0.8z"/>
<path class="elementor-shape-fill" d="m188.4 24h-0.5c-0.4 0-0.8-0.3-0.8-0.8v-23.2h2v23.3c0 0.4-0.3 0.7-0.7 0.7z"/>
<path class="elementor-shape-fill" d="m172.8 17.3h-0.5c-0.4 0-0.8-0.3-0.8-0.8v-16.5h2v16.5c0 0.5-0.3 0.8-0.7 0.8z"/>
<path class="elementor-shape-fill" d="m165 12.2h-0.5c-0.4 0-0.8-0.3-0.8-0.8v-11.4h2v11.4c0 0.5-0.3 0.8-0.7 0.8z"/>
<path class="elementor-shape-fill" d="m180.6 12.2h-0.5c-0.4 0-0.8-0.3-0.8-0.8v-11.4h2v11.4c0 0.5-0.3 0.8-0.7 0.8z"/>
<path class="elementor-shape-fill" d="M219.5,24h-0.5c-0.4,0-0.8-0.3-0.8-0.8V0h2v23.3C220.3,23.7,220,24,219.5,24z"/>
<path class="elementor-shape-fill" d="m204 17.3h-0.5c-0.4 0-0.8-0.3-0.8-0.8v-16.5h2v16.5c0 0.5-0.3 0.8-0.7 0.8z"/>
<path class="elementor-shape-fill" d="m196.2 12.2h-0.5c-0.4 0-0.8-0.3-0.8-0.8v-11.4h2v11.4c0 0.5-0.3 0.8-0.7 0.8z"/>
<path class="elementor-shape-fill" d="m211.8 12.2h-0.5c-0.4 0-0.8-0.3-0.8-0.8v-11.4h2v11.4c0 0.5-0.3 0.8-0.7 0.8z"/>
<path class="elementor-shape-fill" d="m250.7 24h-0.5c-0.4 0-0.8-0.3-0.8-0.8v-23.2h2v23.3c0.1 0.4-0.2 0.7-0.7 0.7z"/>
<path class="elementor-shape-fill" d="m235.1 17.3h-0.5c-0.4 0-0.8-0.3-0.8-0.8v-16.5h2v16.5c0.1 0.5-0.2 0.8-0.7 0.8z"/>
<path class="elementor-shape-fill" d="m227.3 12.2h-0.5c-0.4 0-0.8-0.3-0.8-0.8v-11.4h2v11.4c0.1 0.5-0.2 0.8-0.7 0.8z"/>
<path class="elementor-shape-fill" d="m242.9 12.2h-0.5c-0.4 0-0.8-0.3-0.8-0.8v-11.4h2v11.4c0.1 0.5-0.2 0.8-0.7 0.8z"/>
<path class="elementor-shape-fill" d="m281.9 24h-0.5c-0.4 0-0.8-0.3-0.8-0.8v-23.2h2v23.3c0.1 0.4-0.3 0.7-0.7 0.7z"/>
<path class="elementor-shape-fill" d="m266.3 17.3h-0.5c-0.4 0-0.8-0.3-0.8-0.8v-16.5h2v16.5c0.1 0.5-0.2 0.8-0.7 0.8z"/>
<path class="elementor-shape-fill" d="m258.5 12.2h-0.5c-0.4 0-0.8-0.3-0.8-0.8v-11.4h2v11.4c0.1 0.5-0.2 0.8-0.7 0.8z"/>
<path class="elementor-shape-fill" d="m274.1 12.2h-0.5c-0.4 0-0.8-0.3-0.8-0.8v-11.4h2v11.4c0.1 0.5-0.2 0.8-0.7 0.8z"/>
<path class="elementor-shape-fill" d="m313.1 24h-0.5c-0.4 0-0.8-0.3-0.8-0.8v-23.2h2v23.3c0.1 0.4-0.3 0.7-0.7 0.7z"/>
<path class="elementor-shape-fill" d="m297.5 17.3h-0.5c-0.4 0-0.8-0.3-0.8-0.8v-16.5h2v16.5c0.1 0.5-0.3 0.8-0.7 0.8z"/>
<path class="elementor-shape-fill" d="m289.7 12.2h-0.5c-0.4 0-0.8-0.3-0.8-0.8v-11.4h2v11.4c0.1 0.5-0.3 0.8-0.7 0.8z"/>
<path class="elementor-shape-fill" d="m305.3 12.2h-0.5c-0.4 0-0.8-0.3-0.8-0.8v-11.4h2v11.4c0.1 0.5-0.3 0.8-0.7 0.8z"/>
<path class="elementor-shape-fill" d="m344.3 24h-0.5c-0.4 0-0.8-0.3-0.8-0.8v-23.2h2v23.3c0.1 0.4-0.3 0.7-0.7 0.7z"/>
<path class="elementor-shape-fill" d="m328.7 17.3h-0.5c-0.4 0-0.8-0.3-0.8-0.8v-16.5h2v16.5c0.1 0.5-0.3 0.8-0.7 0.8z"/>
<path class="elementor-shape-fill" d="m320.9 12.2h-0.5c-0.4 0-0.8-0.3-0.8-0.8v-11.4h2v11.4c0.1 0.5-0.3 0.8-0.7 0.8z"/>
<path class="elementor-shape-fill" d="m336.5 12.2h-0.5c-0.4 0-0.8-0.3-0.8-0.8v-11.4h2v11.4c0.1 0.5-0.3 0.8-0.7 0.8z"/>
<path class="elementor-shape-fill" d="m375.5 24h-0.5c-0.4 0-0.8-0.3-0.8-0.8v-23.2h2v23.3c0.1 0.4-0.3 0.7-0.7 0.7z"/>
<path class="elementor-shape-fill" d="m359.9 17.3h-0.5c-0.4 0-0.8-0.3-0.8-0.8v-16.5h2v16.5c0.1 0.5-0.3 0.8-0.7 0.8z"/>
<path class="elementor-shape-fill" d="m352.1 12.2h-0.5c-0.4 0-0.8-0.3-0.8-0.8v-11.4h2v11.4c0.1 0.5-0.3 0.8-0.7 0.8z"/>
<path class="elementor-shape-fill" d="m367.7 12.2h-0.5c-0.4 0-0.8-0.3-0.8-0.8v-11.4h2v11.4c0.1 0.5-0.3 0.8-0.7 0.8z"/>
<path class="elementor-shape-fill" d="m406.7 24h-0.5c-0.4 0-0.8-0.3-0.8-0.8v-23.2h2v23.3c0 0.4-0.3 0.7-0.7 0.7z"/>
<path class="elementor-shape-fill" d="m391.1 17.3h-0.5c-0.4 0-0.8-0.3-0.8-0.8v-16.5h2v16.5c0.1 0.5-0.3 0.8-0.7 0.8z"/>
<path class="elementor-shape-fill" d="m383.3 12.2h-0.5c-0.4 0-0.8-0.3-0.8-0.8v-11.4h2v11.4c0.1 0.5-0.3 0.8-0.7 0.8z"/>
<path class="elementor-shape-fill" d="m398.9 12.2h-0.5c-0.4 0-0.8-0.3-0.8-0.8v-11.4h2v11.4c0 0.5-0.3 0.8-0.7 0.8z"/>
<path class="elementor-shape-fill" d="m437.9 24h-0.5c-0.4 0-0.8-0.3-0.8-0.8v-23.2h2v23.3c0 0.4-0.3 0.7-0.7 0.7z"/>
<path class="elementor-shape-fill" d="m422.3 17.3h-0.5c-0.4 0-0.8-0.3-0.8-0.8v-16.5h2v16.5c0 0.5-0.3 0.8-0.7 0.8z"/>
<path class="elementor-shape-fill" d="m414.5 12.2h-0.5c-0.4 0-0.8-0.3-0.8-0.8v-11.4h2v11.4c0 0.5-0.3 0.8-0.7 0.8z"/>
<path class="elementor-shape-fill" d="m430.1 12.2h-0.5c-0.4 0-0.8-0.3-0.8-0.8v-11.4h2v11.4c0 0.5-0.3 0.8-0.7 0.8z"/>
<path class="elementor-shape-fill" d="M469,24h-0.5c-0.4,0-0.8-0.3-0.8-0.8V0h2v23.3C469.8,23.7,469.5,24,469,24z"/>
<path class="elementor-shape-fill" d="m453.4 17.3h-0.4c-0.4 0-0.8-0.3-0.8-0.8v-16.5h2v16.5c0 0.5-0.3 0.8-0.8 0.8z"/>
<path class="elementor-shape-fill" d="m445.7 12.2h-0.5c-0.4 0-0.8-0.3-0.8-0.8v-11.4h2v11.4c0 0.5-0.3 0.8-0.7 0.8z"/>
<path class="elementor-shape-fill" d="m461.2 12.2h-0.5c-0.4 0-0.8-0.3-0.8-0.8v-11.4h2v11.4c0.1 0.5-0.2 0.8-0.7 0.8z"/>
<path class="elementor-shape-fill" d="M500.2,24h-0.5c-0.4,0-0.8-0.3-0.8-0.8V0h2v23.3C501,23.7,500.7,24,500.2,24z"/>
<path class="elementor-shape-fill" d="m484.6 17.3h-0.5c-0.4 0-0.8-0.3-0.8-0.8v-16.5h2v16.5c0.1 0.5-0.2 0.8-0.7 0.8z"/>
<path class="elementor-shape-fill" d="m476.8 12.2h-0.5c-0.4 0-0.8-0.3-0.8-0.8v-11.4h2v11.4c0.1 0.5-0.2 0.8-0.7 0.8z"/>
<path class="elementor-shape-fill" d="m492.4 12.2h-0.4c-0.4 0-0.8-0.3-0.8-0.8v-11.4h2v11.4c0 0.5-0.3 0.8-0.8 0.8z"/>
<path class="elementor-shape-fill" d="m531.4 24h-0.4c-0.4 0-0.8-0.3-0.8-0.8v-23.2h2v23.3c0 0.4-0.4 0.7-0.8 0.7z"/>
<path class="elementor-shape-fill" d="m515.8 17.3h-0.5c-0.4 0-0.8-0.3-0.8-0.8v-16.5h2v16.5c0.1 0.5-0.2 0.8-0.7 0.8z"/>
<path class="elementor-shape-fill" d="m508 12.2h-0.5c-0.4 0-0.8-0.3-0.8-0.8v-11.4h2v11.4c0.1 0.5-0.2 0.8-0.7 0.8z"/>
<path class="elementor-shape-fill" d="m523.6 12.2h-0.5c-0.4 0-0.8-0.3-0.8-0.8v-11.4h2v11.4c0.1 0.5-0.3 0.8-0.7 0.8z"/>
<path class="elementor-shape-fill" d="M562.6,24h-0.5c-0.4,0-0.8-0.3-0.8-0.8V0h2v23.3C563.4,23.7,563,24,562.6,24z"/>
<path class="elementor-shape-fill" d="m547 17.3h-0.5c-0.4 0-0.8-0.3-0.8-0.8v-16.5h2v16.5c0.1 0.5-0.3 0.8-0.7 0.8z"/>
<path class="elementor-shape-fill" d="m539.2 12.2h-0.5c-0.4 0-0.8-0.3-0.8-0.8v-11.4h2v11.4c0.1 0.5-0.3 0.8-0.7 0.8z"/>
<path class="elementor-shape-fill" d="m554.8 12.2h-0.5c-0.4 0-0.8-0.3-0.8-0.8v-11.4h2v11.4c0.1 0.5-0.3 0.8-0.7 0.8z"/>
<path class="elementor-shape-fill" d="m593.8 24h-0.5c-0.4 0-0.8-0.3-0.8-0.8v-23.2h2v23.3c0.1 0.4-0.3 0.7-0.7 0.7z"/>
<path class="elementor-shape-fill" d="m578.2 17.3h-0.5c-0.4 0-0.8-0.3-0.8-0.8v-16.5h2v16.5c0.1 0.5-0.3 0.8-0.7 0.8z"/>
<path class="elementor-shape-fill" d="m570.4 12.2h-0.5c-0.4 0-0.8-0.3-0.8-0.8v-11.4h2v11.4c0.1 0.5-0.3 0.8-0.7 0.8z"/>
<path class="elementor-shape-fill" d="m586 12.2h-0.5c-0.4 0-0.8-0.3-0.8-0.8v-11.4h2v11.4c0.1 0.5-0.3 0.8-0.7 0.8z"/>
<path class="elementor-shape-fill" d="M625,24h-0.5c-0.4,0-0.8-0.3-0.8-0.8V0h2v23.3C625.8,23.7,625.4,24,625,24z"/>
<path class="elementor-shape-fill" d="m609.4 17.3h-0.5c-0.4 0-0.8-0.3-0.8-0.8v-16.5h2v16.5c0.1 0.5-0.3 0.8-0.7 0.8z"/>
<path class="elementor-shape-fill" d="m601.6 12.2h-0.5c-0.4 0-0.8-0.3-0.8-0.8v-11.4h2v11.4c0.1 0.5-0.3 0.8-0.7 0.8z"/>
<path class="elementor-shape-fill" d="m617.2 12.2h-0.5c-0.4 0-0.8-0.3-0.8-0.8v-11.4h2v11.4c0.1 0.5-0.3 0.8-0.7 0.8z"/>
<path class="elementor-shape-fill" d="m656.2 24h-0.5c-0.4 0-0.8-0.3-0.8-0.8v-23.2h2v23.3c0 0.4-0.3 0.7-0.7 0.7z"/>
<path class="elementor-shape-fill" d="m640.6 17.3h-0.5c-0.4 0-0.8-0.3-0.8-0.8v-16.5h2v16.5c0 0.5-0.3 0.8-0.7 0.8z"/>
<path class="elementor-shape-fill" d="m632.8 12.2h-0.5c-0.4 0-0.8-0.3-0.8-0.8v-11.4h2v11.4c0.1 0.5-0.3 0.8-0.7 0.8z"/>
<path class="elementor-shape-fill" d="m648.4 12.2h-0.5c-0.4 0-0.8-0.3-0.8-0.8v-11.4h2v11.4c0 0.5-0.3 0.8-0.7 0.8z"/>
<path class="elementor-shape-fill" d="m687.4 24h-0.5c-0.4 0-0.8-0.3-0.8-0.8v-23.2h2v23.3c0 0.4-0.3 0.7-0.7 0.7z"/>
<path class="elementor-shape-fill" d="m671.8 17.3h-0.5c-0.4 0-0.8-0.3-0.8-0.8v-16.5h2v16.5c0 0.5-0.3 0.8-0.7 0.8z"/>
<path class="elementor-shape-fill" d="m664 12.2h-0.5c-0.4 0-0.8-0.3-0.8-0.8v-11.4h2v11.4c0 0.5-0.3 0.8-0.7 0.8z"/>
<path class="elementor-shape-fill" d="m679.6 12.2h-0.5c-0.4 0-0.8-0.3-0.8-0.8v-11.4h2v11.4c0 0.5-0.3 0.8-0.7 0.8z"/>
<path class="elementor-shape-fill" d="M718.5,24h-0.5c-0.4,0-0.8-0.3-0.8-0.8V0h2v23.3C719.3,23.7,719,24,718.5,24z"/>
<path class="elementor-shape-fill" d="m702.9 17.3h-0.5c-0.4 0-0.8-0.3-0.8-0.8v-16.5h2v16.5c0.1 0.5-0.2 0.8-0.7 0.8z"/>
<path class="elementor-shape-fill" d="m695.1 12.2h-0.5c-0.4 0-0.8-0.3-0.8-0.8v-11.4h2v11.4c0.1 0.5-0.2 0.8-0.7 0.8z"/>
<path class="elementor-shape-fill" d="m710.7 12.2h-0.5c-0.4 0-0.8-0.3-0.8-0.8v-11.4h2v11.4c0.1 0.5-0.2 0.8-0.7 0.8z"/>
<path class="elementor-shape-fill" d="m749.7 24h-0.5c-0.4 0-0.8-0.3-0.8-0.8v-23.2h2v23.3c0.1 0.4-0.2 0.7-0.7 0.7z"/>
<path class="elementor-shape-fill" d="m734.1 17.3h-0.5c-0.4 0-0.8-0.3-0.8-0.8v-16.5h2v16.5c0.1 0.5-0.2 0.8-0.7 0.8z"/>
<path class="elementor-shape-fill" d="m726.3 12.2h-0.5c-0.4 0-0.8-0.3-0.8-0.8v-11.4h2v11.4c0.1 0.5-0.2 0.8-0.7 0.8z"/>
<path class="elementor-shape-fill" d="m741.9 12.2h-0.5c-0.4 0-0.8-0.3-0.8-0.8v-11.4h2v11.4c0.1 0.5-0.2 0.8-0.7 0.8z"/>
<path class="elementor-shape-fill" d="m780.9 24h-0.5c-0.4 0-0.8-0.3-0.8-0.8v-23.2h2v23.3c0.1 0.4-0.3 0.7-0.7 0.7z"/>
<path class="elementor-shape-fill" d="m765.3 17.3h-0.5c-0.4 0-0.8-0.3-0.8-0.8v-16.5h2v16.5c0.1 0.5-0.3 0.8-0.7 0.8z"/>
<path class="elementor-shape-fill" d="m757.5 12.2h-0.5c-0.4 0-0.8-0.3-0.8-0.8v-11.4h2v11.4c0.1 0.5-0.2 0.8-0.7 0.8z"/>
<path class="elementor-shape-fill" d="m773.1 12.2h-0.5c-0.4 0-0.8-0.3-0.8-0.8v-11.4h2v11.4c0.1 0.5-0.3 0.8-0.7 0.8z"/>
<path class="elementor-shape-fill" d="m812.1 24h-0.5c-0.4 0-0.8-0.3-0.8-0.8v-23.2h2v23.3c0.1 0.4-0.3 0.7-0.7 0.7z"/>
<path class="elementor-shape-fill" d="m796.5 17.3h-0.5c-0.4 0-0.8-0.3-0.8-0.8v-16.5h2v16.5c0.1 0.5-0.3 0.8-0.7 0.8z"/>
<path class="elementor-shape-fill" d="m788.7 12.2h-0.5c-0.4 0-0.8-0.3-0.8-0.8v-11.4h2v11.4c0.1 0.5-0.3 0.8-0.7 0.8z"/>
<path class="elementor-shape-fill" d="m804.3 12.2h-0.5c-0.4 0-0.8-0.3-0.8-0.8v-11.4h2v11.4c0.1 0.5-0.3 0.8-0.7 0.8z"/>
<path class="elementor-shape-fill" d="m843.3 24h-0.5c-0.4 0-0.8-0.3-0.8-0.8v-23.2h2v23.3c0.1 0.4-0.3 0.7-0.7 0.7z"/>
<path class="elementor-shape-fill" d="m827.7 17.3h-0.5c-0.4 0-0.8-0.3-0.8-0.8v-16.5h2v16.5c0.1 0.5-0.3 0.8-0.7 0.8z"/>
<path class="elementor-shape-fill" d="m819.9 12.2h-0.5c-0.4 0-0.8-0.3-0.8-0.8v-11.4h2v11.4c0.1 0.5-0.3 0.8-0.7 0.8z"/>
<path class="elementor-shape-fill" d="m835.5 12.2h-0.5c-0.4 0-0.8-0.3-0.8-0.8v-11.4h2v11.4c0.1 0.5-0.3 0.8-0.7 0.8z"/>
<path class="elementor-shape-fill" d="m874.5 24h-0.5c-0.4 0-0.8-0.3-0.8-0.8v-23.2h2v23.3c0.1 0.4-0.3 0.7-0.7 0.7z"/>
<path class="elementor-shape-fill" d="m858.9 17.3h-0.5c-0.4 0-0.8-0.3-0.8-0.8v-16.5h2v16.5c0.1 0.5-0.3 0.8-0.7 0.8z"/>
<path class="elementor-shape-fill" d="m851.1 12.2h-0.5c-0.4 0-0.8-0.3-0.8-0.8v-11.4h2v11.4c0.1 0.5-0.3 0.8-0.7 0.8z"/>
<path class="elementor-shape-fill" d="m866.7 12.2h-0.5c-0.4 0-0.8-0.3-0.8-0.8v-11.4h2v11.4c0.1 0.5-0.3 0.8-0.7 0.8z"/>
<path class="elementor-shape-fill" d="m905.7 24h-0.5c-0.4 0-0.8-0.3-0.8-0.8v-23.2h2v23.3c0 0.4-0.3 0.7-0.7 0.7z"/>
<path class="elementor-shape-fill" d="m890.1 17.3h-0.5c-0.4 0-0.8-0.3-0.8-0.8v-16.5h2v16.5c0 0.5-0.3 0.8-0.7 0.8z"/>
<path class="elementor-shape-fill" d="m882.3 12.2h-0.5c-0.4 0-0.8-0.3-0.8-0.8v-11.4h2v11.4c0 0.5-0.3 0.8-0.7 0.8z"/>
<path class="elementor-shape-fill" d="m897.9 12.2h-0.5c-0.4 0-0.8-0.3-0.8-0.8v-11.4h2v11.4c0 0.5-0.3 0.8-0.7 0.8z"/>
<path class="elementor-shape-fill" d="m936.8 24h-0.5c-0.4 0-0.8-0.3-0.8-0.8v-23.2h2v23.3c0.1 0.4-0.2 0.7-0.7 0.7z"/>
<path class="elementor-shape-fill" d="m921.3 17.3h-0.5c-0.4 0-0.8-0.3-0.8-0.8v-16.5h2v16.5c0 0.5-0.3 0.8-0.7 0.8z"/>
<path class="elementor-shape-fill" d="m913.5 12.2h-0.5c-0.4 0-0.8-0.3-0.8-0.8v-11.4h2v11.4c0 0.5-0.3 0.8-0.7 0.8z"/>
<path class="elementor-shape-fill" d="m929.1 12.2h-0.5c-0.4 0-0.8-0.3-0.8-0.8v-11.4h2v11.4c0 0.5-0.3 0.8-0.7 0.8z"/>
<path class="elementor-shape-fill" d="M968,24h-0.5c-0.4,0-0.8-0.3-0.8-0.8V0h2v23.3C968.8,23.7,968.5,24,968,24z"/>
<path class="elementor-shape-fill" d="m952.4 17.3h-0.4c-0.4 0-0.8-0.3-0.8-0.8v-16.5h2v16.5c0 0.5-0.3 0.8-0.8 0.8z"/>
<path class="elementor-shape-fill" d="m944.6 12.2h-0.5c-0.4 0-0.8-0.3-0.8-0.8v-11.4h2v11.4c0.1 0.5-0.2 0.8-0.7 0.8z"/>
<path class="elementor-shape-fill" d="m960.2 12.2h-0.5c-0.4 0-0.8-0.3-0.8-0.8v-11.4h2v11.4c0.1 0.5-0.2 0.8-0.7 0.8z"/>
<path class="elementor-shape-fill" d="m999.2 24h-0.5c-0.4 0-0.8-0.3-0.8-0.8v-23.2h2v23.3c0.1 0.4-0.2 0.7-0.7 0.7z"/>
<path class="elementor-shape-fill" d="m983.6 17.3h-0.5c-0.4 0-0.8-0.3-0.8-0.8v-16.5h2v16.5c0.1 0.5-0.2 0.8-0.7 0.8z"/>
<path class="elementor-shape-fill" d="m975.8 12.2h-0.5c-0.4 0-0.8-0.3-0.8-0.8v-11.4h2v11.4c0.1 0.5-0.2 0.8-0.7 0.8z"/>
<path class="elementor-shape-fill" d="m991.4 12.2h-0.4c-0.4 0-0.8-0.3-0.8-0.8v-11.4h2v11.4c0 0.5-0.3 0.8-0.8 0.8z"/>
</svg>
