<?xml version="1.0" encoding="UTF-8"?>
<svg preserveAspectRatio="none" viewBox="0 0 1e3 100" xmlns="http://www.w3.org/2000/svg">
<path class="elementor-shape-fill" d="m1005-5h-1010v10s5.2 0.2 15.2 0.5l0.3 3.4c0 1.1 0.2 2.1 0.5 3 0.3-0.2-0.8 0.5-0.4 0.4-3.6 2.3-5.7 6.4-5.6 13.5 0.2 9 5.9 17.9 10.2 18.1 4 0.2 10.1-9 9.9-18-0.1-6.5-2.9-11.6-6.2-13.9 0.3-1 0.5-2.1 0.5-3.3l0.3-2.8v-0.1c4.7 0.1 10 0.3 16 0.5-0.1 0.3-0.1 0.7-0.1 1.1l0.2 1.8c0 0.8 0.1 1.5 0.3 2.1-2.2 1.5-3.9 4.8-4 9-0.1 5.8 3.8 11.8 6.4 11.7 2.8-0.1 6.5-5.9 6.6-11.7 0.1-4.6-1.3-7.2-3.6-8.8 0.2 0.1-0.5-0.3-0.3-0.2 0.2-0.6 0.3-1.2 0.3-1.9l0.2-2.2v-0.7c4.6 0.1 9.5 0.3 14.7 0.4l0.3 2.8c0 1.1 0.2 2.1 0.5 3 0.3-0.2-0.8 0.5-0.4 0.4-3.6 2.4-5.7 6.4-5.6 13.5 0.2 9 5.9 17.9 10.2 18.1 4 0.2 10.1-9 9.9-18-0.1-6.5-2.9-11.6-6.2-13.9 0.3-1 0.5-2.1 0.5-3.3l0.2-2.4c5.1 0.1 10.4 0.3 15.9 0.4v0.4l0.2 1.8c0 0.8 0.1 1.5 0.3 2.1-2.2 1.5-3.9 4.8-4 9-0.1 5.8 3.8 11.8 6.4 11.7 2.8-0.1 6.5-5.9 6.6-11.7 0.1-4.6-1.3-7.2-3.6-8.8 0.2 0.1-0.5-0.3-0.3-0.2 0.2-0.6 0.3-1.2 0.3-1.9l0.2-2.2c4.7 0.1 9.7 0.2 14.7 0.3l0.2 2.4c0 1.1 0.2 2.1 0.5 3 0.3-0.2-0.8 0.5-0.4 0.4-3.6 2.4-5.7 6.4-5.6 13.5 0.2 9 5.9 17.9 10.2 18.1 4 0.2 10.1-9 9.9-18-0.1-6.5-2.9-11.6-6.2-13.9 0.3-1 0.5-2.1 0.5-3.3l0.2-2c5.1 0.1 10.5 0.2 15.9 0.3l0.2 1.7c0 0.8 0.1 1.5 0.3 2.1-2.2 1.5-3.9 4.8-4 9-0.1 5.8 3.8 11.8 6.4 11.7 2.8-0.1 6.5-5.9 6.6-11.7 0.1-4.6-1.3-7.2-3.6-8.8 0.2 0.1-0.5-0.3-0.3-0.2 0.2-0.6 0.3-1.2 0.3-1.9l0.2-1.7c4.8 0.1 9.8 0.2 14.8 0.3l0.2 2.2c0 1.1 0.2 2.1 0.5 3 0.3-0.2-0.8 0.5-0.4 0.4-3.6 2.4-5.7 6.4-5.6 13.5 0.2 9 5.9 17.9 10.2 18.1 4 0.2 10.1-9 9.9-18-0.1-6.5-2.9-11.6-6.2-13.9 0.3-1 0.5-2.1 0.5-3.3l0.2-1.8c5.2 0.1 10.5 0.2 16 0.3l0.1 1.4c0 0.8 0.1 1.5 0.3 2.1-2.2 1.5-3.9 4.8-4 9-0.1 5.8 3.8 11.8 6.4 11.7 2.8-0.1 6.5-5.9 6.6-11.7 0.1-4.6-1.3-7.2-3.6-8.8 0.2 0.1-0.5-0.3-0.3-0.2 0.2-0.6 0.3-1.2 0.3-1.9l0.1-1.4c5.2-0.1 10.2 0 15.2 0.1l0.2 2.1c0 1.1 0.2 2.1 0.5 3 0.3-0.2-0.8 0.5-0.4 0.4-3.6 2.4-5.7 6.4-5.6 13.5 0.2 9 5.9 17.9 10.2 18.1 4 0.2 10.1-9 9.9-18-0.1-6.5-2.9-11.6-6.2-13.9 0.3-1 0.5-2.1 0.5-3.3l0.2-1.8c5.2 0.1 10.6 0.2 16 0.2l0.1 1.1c0 0.8 0.1 1.5 0.3 2.1-2.2 1.5-3.9 4.8-4 9-0.1 5.8 3.8 11.8 6.4 11.7 2.8-0.1 6.5-5.9 6.6-11.7 0.1-4.6-1.3-7.2-3.6-8.8 0.2 0.1-0.5-0.3-0.3-0.2 0.2-0.6 0.3-1.2 0.3-1.9l0.1-1.2c4.9 0.1 9.8 0.1 14.9 0.2l0.2 2.2c0 1.1 0.2 2.1 0.5 3 0.3-0.2-0.8 0.5-0.4 0.4-3.6 2.4-5.7 6.4-5.6 13.5 0.2 9 5.9 17.9 10.2 18.1 4 0.2 10.1-9 9.9-18-0.1-6.5-2.9-11.6-6.2-13.9 0.3-1 0.5-2.1 0.5-3.3l0.2-1.9c5.3 0.1 10.6 0.1 16 0.2l0.1 1c0 0.8 0.1 1.5 0.3 2.1-2.2 1.5-3.9 4.8-4 9-0.1 5.8 3.8 11.8 6.4 11.7 2.8-0.1 6.5-5.9 6.6-11.7 0.1-4.6-1.3-7.2-3.6-8.8 0.2 0.1-0.5-0.3-0.3-0.2 0.2-0.6 0.3-1.2 0.3-1.9l0.1-1.1c4.9 0.1 9.9 0.1 14.9 0.2l0.2 2.4c0 1.1 0.2 2.1 0.5 3 0.3-0.2-0.8 0.5-0.4 0.4-3.6 2.4-5.7 6.4-5.6 13.5 0.2 9 5.9 17.9 10.2 18.1 4 0.2 10.1-9 9.9-18-0.1-6.5-2.9-11.6-6.2-13.9 0.3-1 0.5-2.1 0.5-3.3l0.2-2.1c5.3 0.1 10.6 0.1 16 0.2l0.1 1.1c0 0.8 0.1 1.5 0.3 2.1-2.2 1.5-3.9 4.8-4 9-0.1 5.8 3.8 11.8 6.4 11.7 2.8-0.1 6.5-5.9 6.6-11.7 0.1-4.6-1.3-7.2-3.6-8.8 0.2 0.1-0.5-0.3-0.3-0.2 0.2-0.6 0.3-1.2 0.3-1.9l0.1-1.1c4.9 0 9.9 0.1 14.9 0.1l0.2 2.7c0 1.1 0.2 2.1 0.5 3 0.3-0.2-0.8 0.5-0.4 0.4-3.6 2.4-5.7 6.4-5.6 13.5 0.2 9 5.9 17.9 10.2 18.1 4 0.2 10.1-9 9.9-18-0.1-6.5-2.9-11.6-6.2-13.9 0.3-1 0.5-2.1 0.5-3.3l0.2-2.4c5.2 0 10.6 0.1 15.9 0.1l0.1 1.2c0 0.8 0.1 1.5 0.3 2.1-2.2 1.5-3.9 4.8-4 9-0.1 5.8 3.8 11.8 6.4 11.7 2.8-0.1 6.5-5.9 6.6-11.7 0.1-4.6-1.3-7.2-3.6-8.8 0.2 0.1-0.5-0.3-0.3-0.2 0.2-0.6 0.3-1.2 0.3-1.9l0.1-1.3c4.9 0 9.8 0.1 14.8 0.1l0.3 3.1c0 1.1 0.2 2.1 0.5 3 0.3-0.2-0.8 0.5-0.4 0.4-3.6 2.4-5.7 6.4-5.6 13.5 0.2 9 5.9 17.9 10.2 18.1 4 0.2 10.1-9 9.9-18-0.1-6.5-2.9-11.6-6.2-13.9 0.3-1 0.5-2.1 0.5-3.3l0.3-2.8c5.2 0 10.5 0.1 15.8 0.1l0.1 1.4c0 0.8 0.1 1.5 0.3 2.1-2.2 1.5-3.9 4.8-4 9-0.1 5.8 3.8 11.8 6.4 11.7 2.8-0.1 6.5-5.9 6.6-11.7 0.1-4.6-1.3-7.2-3.6-8.8 0.2 0.1-0.5-0.3-0.3-0.2 0.2-0.6 0.3-1.2 0.3-1.9l0.1-1.5c4.9 0 9.8 0 14.8 0.1v0.2l0.3 3.4c0 1.1 0.2 2.1 0.5 3 0.3-0.2-0.8 0.5-0.4 0.4-3.6 2.4-5.7 6.4-5.6 13.5 0.2 9 5.9 17.9 10.2 18.1 4 0.2 10.1-9 9.9-18-0.1-6.5-2.9-11.6-6.2-13.9 0.3-1 0.5-2.1 0.5-3.3l0.3-2.8c0-0.2 0-0.4-0.1-0.6h15.8l0.2 1.8c0 0.8 0.1 1.5 0.3 2.1-2.2 1.5-3.9 4.8-4 9-0.1 5.8 3.8 11.8 6.4 11.7 2.8-0.1 6.5-5.9 6.6-11.7 0.1-4.6-1.3-7.2-3.6-8.8 0.2 0.1-0.5-0.3-0.3-0.2 0.2-0.6 0.3-1.2 0.3-1.9l0.2-1.9h14.8v0.9l0.3 3.4c0 1.1 0.2 2.1 0.5 3 0.3-0.2-0.8 0.5-0.4 0.4-3.6 2.4-5.7 6.4-5.6 13.5 0.2 9 5.9 17.9 10.2 18.1 4 0.2 10.1-9 9.9-18-0.1-6.5-2.9-11.6-6.2-13.9 0.3-1 0.5-2.1 0.5-3.3l0.3-2.8c0-0.4-0.1-0.8-0.1-1.2h15.9v0.4l0.2 1.8c0 0.8 0.1 1.5 0.3 2.1-2.2 1.5-3.9 4.8-4 9-0.1 5.8 3.8 11.8 6.4 11.7 2.8-0.1 6.5-5.9 6.6-11.7 0.1-4.6-1.3-7.2-3.6-8.8 0.2 0.1-0.5-0.3-0.3-0.2 0.2-0.6 0.3-1.2 0.3-1.9l0.2-2.2v-0.2h14.8v0.9l0.3 3.4c0 1.1 0.2 2.1 0.5 3 0.3-0.2-0.8 0.5-0.4 0.4-3.6 2.4-5.7 6.4-5.6 13.5 0.2 9 5.9 17.9 10.2 18.1 4 0.2 10.1-9 9.9-18-0.1-6.5-2.9-11.6-6.2-13.9 0.3-1 0.5-2.1 0.5-3.3l0.3-2.8c0-0.4-0.1-0.8-0.1-1.2h15.9l0.2 1.8c0 0.8 0.1 1.5 0.3 2.1-2.2 1.5-3.9 4.8-4 9-0.1 5.8 3.8 11.8 6.4 11.7 2.8-0.1 6.5-5.9 6.6-11.7 0.1-4.6-1.3-7.2-3.6-8.8 0.2 0.1-0.5-0.3-0.3-0.2 0.2-0.6 0.3-1.2 0.3-1.9l0.2-1.9h14.8v0.2l0.3 3.4c0 1.1 0.2 2.1 0.5 3 0.3-0.2-0.8 0.5-0.4 0.4-3.6 2.4-5.7 6.4-5.6 13.5 0.2 9 5.9 17.9 10.2 18.1 4 0.2 10.1-9 9.9-18-0.1-6.5-2.9-11.6-6.2-13.9 0.3-1 0.5-2.1 0.5-3.3l0.3-2.8c0-0.2 0-0.4-0.1-0.6 5.3 0 10.6 0 15.9-0.1l0.1 1.4c0 0.8 0.1 1.5 0.3 2.1-2.2 1.5-3.9 4.8-4 9-0.1 5.8 3.8 11.8 6.4 11.7 2.8-0.1 6.5-5.9 6.6-11.7 0.1-4.6-1.3-7.2-3.6-8.8 0.2 0.1-0.5-0.3-0.3-0.2 0.2-0.6 0.3-1.2 0.3-1.9l0.1-1.6c5 0 9.9-0.1 14.8-0.1l0.3 3.1c0 1.1 0.2 2.1 0.5 3 0.3-0.2-0.8 0.5-0.4 0.4-3.6 2.4-5.7 6.4-5.6 13.5 0.2 9 5.9 17.9 10.2 18.1 4 0.2 10.1-9 9.9-18-0.1-6.5-2.9-11.6-6.2-13.9 0.3-1 0.5-2.1 0.5-3.3l0.3-2.8v-0.1c5.3 0 10.6-0.1 15.8-0.1l0.1 1.2c0 0.8 0.1 1.5 0.3 2.1-2.2 1.5-3.9 4.8-4 9-0.1 5.8 3.8 11.8 6.4 11.7 2.8-0.1 6.5-5.9 6.6-11.7 0.1-4.6-1.3-7.2-3.6-8.8 0.2 0.1-0.5-0.3-0.3-0.2 0.2-0.6 0.3-1.2 0.3-1.9l0.1-1.3c5 0 10-0.1 14.9-0.1l0.2 2.6c0 1.1 0.2 2.1 0.5 3 0.3-0.2-0.8 0.5-0.4 0.4-3.6 2.4-5.7 6.4-5.6 13.5 0.2 9 5.9 17.9 10.2 18.1 4 0.2 10.1-9 9.9-18-0.1-6.5-2.9-11.6-6.2-13.9 0.3-1 0.5-2.1 0.5-3.3l0.3-2.5c5.3 0 10.6-0.1 15.9-0.1l0.1 1c0 0.8 0.1 1.5 0.3 2.1-2.2 1.5-3.9 4.8-4 9-0.1 5.8 3.8 11.8 6.4 11.7 2.8-0.1 6.5-5.9 6.6-11.7 0.1-4.6-1.3-7.2-3.6-8.8 0.2 0.1-0.5-0.3-0.3-0.2 0.2-0.6 0.3-1.2 0.3-1.9l0.1-1.2c5 0 10-0.1 14.9-0.2l0.2 2.3c0 1.1 0.2 2.1 0.5 3 0.3-0.2-0.8 0.5-0.4 0.4-3.6 2.4-5.7 6.4-5.6 13.5 0.2 9 5.9 17.9 10.2 18.1 4 0.2 10.1-9 9.9-18-0.1-6.5-2.9-11.6-6.2-13.9 0.3-1 0.5-2.1 0.5-3.3l0.2-2.2c5.4-0.1 10.6-0.1 15.9-0.2l0.1 1c0 0.8 0.1 1.5 0.3 2.1-2.2 1.5-3.9 4.8-4 9-0.1 5.8 3.8 11.8 6.4 11.7 2.8-0.1 6.5-5.9 6.6-11.7 0.1-4.6-1.3-7.2-3.6-8.8 0.2 0.1-0.5-0.3-0.3-0.2 0.2-0.6 0.3-1.2 0.3-1.9l0.1-1.2c5-0.1 10-0.1 15-0.2l0.2 2.1c0 1.1 0.2 2.1 0.5 3 0.3-0.2-0.8 0.5-0.4 0.4-3.6 2.4-5.7 6.4-5.6 13.5 0.2 9 5.9 17.9 10.2 18.1 4 0.2 10.1-9 9.9-18-0.1-6.5-2.9-11.6-6.2-13.9 0.3-1 0.5-2.1 0.5-3.3l0.2-2.1c5.4-0.1 10.7-0.1 15.9-0.2l0.1 1.1c0 0.8 0.1 1.5 0.3 2.1-2.2 1.5-3.9 4.8-4 9-0.1 5.8 3.8 11.8 6.4 11.7 2.8-0.1 6.5-5.9 6.6-11.7 0.1-4.6-1.3-7.2-3.6-8.8 0.2 0.1-0.5-0.3-0.3-0.2 0.2-0.6 0.3-1.2 0.3-1.9l0.1-1.3c5.1-0.1 10.1-0.2 15-0.2l0.2 2.1c0 1.1 0.2 2.1 0.5 3 0.3-0.2-0.8 0.5-0.4 0.4-3.6 2.4-5.7 6.4-5.6 13.5 0.2 9 5.9 17.9 10.2 18.1 4 0.2 10.1-9 9.9-18-0.1-6.5-2.9-11.6-6.2-13.9 0.3-1 0.5-2.1 0.5-3.3l0.2-2c5.4-0.1 10.7-0.2 15.8-0.3l0.1 1.4c0 0.8 0.1 1.5 0.3 2.1-2.2 1.5-3.9 4.8-4 9-0.1 5.8 3.8 11.8 6.4 11.7 2.8-0.1 6.5-5.9 6.6-11.7 0.1-4.6-1.3-7.2-3.6-8.8 0.2 0.1-0.5-0.3-0.3-0.2 0.2-0.6 0.3-1.2 0.3-1.9l0.1-1.6c5.1-0.1 10.1-0.2 14.9-0.3l0.2 2.1c0 1.1 0.2 2.1 0.5 3 0.3-0.2-0.8 0.5-0.4 0.4-3.6 2.4-5.7 6.4-5.6 13.5 0.2 9 5.9 17.9 10.2 18.1 4 0.2 10.1-9 9.9-18-0.1-6.5-2.9-11.6-6.2-13.9 0.3-1 0.5-2.1 0.5-3.3l0.2-2.1c5.4-0.1 10.7-0.2 15.8-0.3l0.2 1.7c0 0.8 0.1 1.5 0.3 2.1-2.2 1.5-3.9 4.8-4 9-0.1 5.8 3.8 11.8 6.4 11.7 2.8-0.1 6.5-5.9 6.6-11.7 0.1-4.6-1.3-7.2-3.6-8.8 0.2 0.1-0.5-0.3-0.3-0.2 0.2-0.6 0.3-1.2 0.3-1.9l0.2-2c5.1-0.1 10.1-0.2 14.9-0.3l0.2 2.3c0 1.1 0.2 2.1 0.5 3 0.3-0.2-0.8 0.5-0.4 0.4-3.6 2.4-5.7 6.4-5.6 13.5 0.2 9 5.9 17.9 10.2 18.1 4 0.2 10.1-9 9.9-18-0.1-6.5-2.9-11.6-6.2-13.9 0.3-1 0.5-2.1 0.5-3.3l0.2-2.3c5.5-0.1 10.7-0.2 15.8-0.4v0.4l0.2 1.8c0 0.8 0.1 1.5 0.3 2.1-2.2 1.5-3.9 4.8-4 9-0.1 5.8 3.8 11.8 6.4 11.7 2.8-0.1 6.5-5.9 6.6-11.7 0.1-4.6-1.3-7.2-3.6-8.8 0.2 0.1-0.5-0.3-0.3-0.2 0.2-0.6 0.3-1.2 0.3-1.9l0.2-2.2v-0.3c5.2-0.1 10.1-0.2 14.9-0.4l0.2 2.6c0 1.1 0.2 2.1 0.5 3 0.3-0.2-0.8 0.5-0.4 0.4-3.6 2.4-5.7 6.4-5.6 13.5 0.2 9 5.9 17.9 10.2 18.1 4 0.2 10.1-9 9.9-18-0.1-6.5-2.9-11.6-6.2-13.9 0.3-1 0.5-2.1 0.5-3.3l0.3-2.7c5.6-0.1 10.9-0.3 15.8-0.4-0.1 0.3-0.1 0.7-0.1 1l0.2 1.8c0 0.8 0.1 1.5 0.3 2.1-2.2 1.5-3.9 4.8-4 9-0.1 5.8 3.8 11.8 6.4 11.7 2.8-0.1 6.5-5.9 6.6-11.7 0.1-4.6-1.3-7.2-3.6-8.8 0.2 0.1-0.5-0.3-0.3-0.2 0.2-0.6 0.3-1.2 0.3-1.9l0.2-2.2c0-0.3 0-0.7-0.1-0.9 5.5-0.2 10.5-0.3 14.9-0.4l0.3 3.1c0 1.1 0.2 2.1 0.5 3 0.3-0.2-0.8 0.5-0.4 0.4-3.6 2.4-5.7 6.4-5.6 13.5 0.2 9 5.9 17.9 10.2 18.1 4 0.2 10.1-9 9.9-18-0.1-6.5-2.9-11.6-6.2-13.9 0.3-1 0.5-2.1 0.5-3.3l0.3-2.8v-0.4c11.9-1.6 17.3-1.8 17.3-1.8v-10z"/>
</svg>
