<?xml version="1.0" encoding="UTF-8"?>
<svg preserveAspectRatio="none" viewBox="0 0 1e3 100" xmlns="http://www.w3.org/2000/svg">
<path class="elementor-shape-fill" d="m740.5 10.8c-0.2 1.7-1.1 2.9-2.5 3.9-1 0.7-1.9 1.3-3 2 1.6 1.3 2.8 2.9 3.2 5 0.4 1.7 0.5 3.5 0.7 5.2 0.1 1.6 0.6 2.1 2.1 2.1h8.9s0 0 0 0h8.9c1.5 0 2-0.6 2.1-2.1 0.1-1.8 0.3-3.5 0.7-5.2 0.4-2 1.7-3.7 3.2-5-1-0.7-2-1.3-3-2-1.3-1-2.2-2.2-2.5-3.9-0.3-2.4-2.7-3.7-5.3-3.2-1.7 0.3-3 1.3-4.1 2.6-1.1-1.3-2.4-2.3-4.1-2.6-2.7-0.5-5 0.8-5.3 3.2zm14.3 3.7h0.2v6.8h-0.2v-6.8zm-9.9 0h0.2v6.7h-0.2v-6.7z"/>
<path class="elementor-shape-fill" d="m516.2 36.5c-0.6-2.2-1.9-3.1-3.4-3.4s-3.3-0.1-4.8-0.1c1 0 2-1 3-1h-7c1 1 3 3 1 5-2 1-5 0-7 0l3-3h-7c1 0 2 1 3 1-2-1-4-1-5.7-0.8-1.8 0.8-3.3 2.3-4.3 3.8 1 0 3 0 4 1l-2-2c3 0 5 1 7 3 0 1-1 2-1 3 4-4 9-4 13 0-1-1-2-3-2-4 0.5-1.5 1.5-2 2.7-2.1s2.7 0.3 4.2 0.6c1.3-0.4 2.3-0.7 3.3-1zm-25.5 0c-2.9-0.2-4.3-0.3-4.2-0.5s1.8-0.4 5.2-0.9c-1.6-0.1-0.9 0.8-1 1.4zm23.1-1.7c-1.7-0.9-1.3-4-3.5-4.9 3.3-0.1 1.9 3 4 3.6 0.1 0.4-0.3 0.9-0.5 1.3z"/>
<path class="elementor-shape-fill" d="m500.4 59.2c-1.4 1.8-2.4 2.8-3.4 3.8 2-2 5 3 5.6-1.2-0.8-0.9-1.5-1.8-2.2-2.6z"/>
<path class="elementor-shape-fill" d="m502.8 52.6c-1.3-1.1-3.4-1-4.4 0 0.9 2.1 3 2 4.3 0.3 0.1-0.1 0.1-0.2 0.1-0.3z"/>
<path class="elementor-shape-fill" d="m501.4 39.6c-0.3 0.2-0.5 0.4 0 0z"/>
<path class="elementor-shape-fill" d="m645.9 49.9c0.3 0 0.6 0 0.9-0.1 0-1.8 0.1-3.6 0-5.3-0.2-2.2-1.5-4-2.9-5.6-2.7-3.1-5.8-5-10.2-4.9-5.6 0.2-11.3 0.1-16.9 0.1h-4.2c-5.4-5-4.4 6-8.4 3-1 4 0 9 4.6 9.3 1.1 0.3 2.2 0.5 3.3 0.5h3.4c4.2-0.1 8.4 0.1 12.7 0 2.6 0 4.8 0.9 6.7 2.5 0.3 0.3 0.8 0.5 1.3 0.5h9.7zm-33.4-6h-0.3v-3.4c-0.2-0.5-0.2-2.5-0.2-3.5 0 1 0 3 0.5 3.6v3.3zm10.5 0h-0.2v-6.6h0.2v6.6zm11.1 2.1h-0.2v-6.9h0.2v6.9z"/>
<path class="elementor-shape-fill" d="m643 13.5c-0.2-0.2-0.5-0.3-0.7-0.3h-11.2c0 1.2 0.1 2.3 0 3.3-0.2 2.6 0.6 4.8 2.2 6.7 1.1 1.3 2.3 2.6 3.6 3.7 1.8 1.5 3.9 2.2 6.3 2.2 8.4-0.1 16.8 0 25.2 0 2.2 0 2.2 0 2.8-2.1 0.3-1 0.6-1.5 1.7-1.1 0.3 0.1 0.8 0.1 1.2 0.1 0.5-1.5 0.5-2.9 0-4.3-1-3.4-4.1-5.5-8.2-5.5-5.3 0-10.7-0.1-16 0-2.6 0.1-4.9-0.9-6.9-2.7zm-5.1 4.8c-0.5-0.2-1-0.3-1.5-0.5 0-0.1 0.1-0.3 0.1-0.4 0.5 0 0.8-1.1 1.4-0.2 0.1 0.3 0 0.7 0 1.1zm2.4-0.8c-0.6-0.1-1.2-0.3-1.8-0.4 0-0.2 0.1-0.4 0.1-0.6 0.6 0.2 1.2 0.3 1.8 0.5-0.1 0.1-0.1 0.3-0.1 0.5zm2.4 3.5c-0.1 1.2 0 2.4 0 3.6h-0.3v-6.9c0.4 1 0.3 2.2 0.3 3.3zm23.3-1.7h0.2v6.7h-0.2v-6.7zm-11.7 0h0.2v6.8h-0.2v-6.8z"/>
<path class="elementor-shape-fill" d="m544.6 25.7c4.4 0.3 2.4-1.7 2.7-3.3-0.3-1.8-1.3-3.3-2.6-4.4s-3-1.7-4.8-1.7c-10.9 0.7-25.9-8.3-31.9-0.3-2 2.5 0 5.2 3.5 7.4 1.2 0.7 2.5 1.3 3.9 1.9 2.6 1.7 5.6 2.7 8.6 1.7-1 0-2-1-3-1 3 1 8 4 11 0v3c4 1 8 0 11.6 0.3 0.3-1.2 0.7-2.4 1-3.6zm-25.2-2.6c0.3-1.6 0-2.8-0.6-4s-1.3-2.1-1.8-3.1c1 1 1 3 1.9 4 0.2 1 0.3 2.1 0.5 3.1zm9.5 2.6c-0.9-1.7-0.9-4.7-0.9-6.7 0 1 1 2 0.8 3.4 0 1.1 0.1 2.2 0.1 3.3zm10 0.6c0.1-2.3 0.1-5.3 0.1-7.3 0 1 0 2 0.3 3.4 0 1.6-0.1 3.2-0.4 3.9z"/>
<path class="elementor-shape-fill" d="m696.9 46.9c2-0.1 3.7 0.2 4.8 2 0.2 0.3 0.5 0.7 0.8 0.8 0.7 0.3 1.5 0.7 2.3 0.7 0.5 0 1.3-0.5 1.4-0.8 0.1-1.4 0.3-2.9-0.1-4.2-1.3-3.8-3.4-7.1-6.6-9.7-1.9-1.5-3.8-2.5-6.4-2.4-2.8 0.2-5.7 0-8.5 0h-10.5c-0.7 0-1.1 0.3-1.1 0.9 0 1.7-0.8 2.6-2.4 2.8h-0.1c-0.8 0-0.8 0.5-0.8 1.1 0 3 1.5 5.2 3.7 7 0.5 0.4 1.4 0.6 2.1 0.7 3.1 0.1 6.1 0 9.2 0 2.4 0 4.8-0.1 7.2 0.7 1.4 0.7 3.3 0.5 5 0.4zm-0.3-9.9h0.2v6.9h-0.2v-6.9zm-12.7 6.2h-0.2v-6.7h0.2v6.7z"/>
<path class="elementor-shape-fill" d="m733.7 25.2c0.4-3.1-1-5.5-3.1-7.5-0.8-0.8-1.9-1.2-3-1.1-3.4 0.1-6.9 0.1-10.3 0.1-1.1 0-2.4 0.2-3.4-0.2-2.2-0.9-4.5-1-6.8-0.8-2.4 0.2-4.4-0.2-5.8-2.5 0-0.1-0.1-0.1-0.1-0.1-0.8-0.9-1.8-1.1-3-0.9-0.4 0.1-1.1 0.5-1.1 0.7-0.1 1.4-0.3 2.9 0.1 4.2 1.6 4.5 4.2 8.4 8.4 11 1 0.6 2 0.9 3.2 0.9h18.2 3c0.1-0.3 0.3-0.6 0.3-0.9 0-1.5 0.7-2.4 2.3-2.6 0.4-0.1 0.8-0.2 1.1-0.3zm-27 0.2h-0.2v-6.8h0.2v6.8zm12.8 0.6h-0.2v-6.6h0.2v6.6z"/>
<path class="elementor-shape-fill" d="m597.1 52.2c6.9-5.2 3.9-12.2-0.1-16.2-4-3-12-1-19-1 1 8 11 9 10 18-1 2 3 3 5 2.9 2.6-0.2 3.6-1.1 4.1-3.7zm-4.3-2.7c0.2-2.5 0.2-4.5 0.2-6.5 0 1 0 2-0.1 3.2-0.1 1.1-0.1 2.2-0.1 3.3z"/>
<path class="elementor-shape-fill" d="m725.5 49.8c1.2-1.1 2.6-2.1 3.9-3.1-1.5-1.3-2.8-3-3.3-5.1-0.4-1.7-0.5-3.5-0.7-5.2-0.1-1.4-0.6-1.8-1.9-1.8h-12.2-6.6c0 0.6 0.1 1.1 0 1.5-0.3 1.6 0.3 2.5 1.9 3.2 2.2 1 4.2 2.4 5.5 4.7 1.2 2.1 1.7 4.3 1.8 6.6 0 2.5 2.1 4.7 4.5 5.2 3.1 0.7 5.2-0.6 5.8-3.7 0.1-0.9 0.6-1.8 1.3-2.3zm-5.8-0.5h-0.2v-6.7h0.2v6.7z"/>
<path class="elementor-shape-fill" d="m664.8 52.8c0.1-0.9 0.5-2 1.1-2.6 1.2-1.3 2.7-2.4 4.1-3.5-0.8-1.1-1.8-2.2-2.5-3.5-1.1-2.1-1.3-4.3-1.3-6.6 0-1.6-0.5-2.1-2.1-2.1h-11.8-6.7c-0.1 0.2-0.1 0.3-0.1 0.4v2.4c-0.1 0.8 0.2 1.2 0.9 1.5 5.1 2.3 8 6.1 8.2 11.9 0.1 4.3 4.6 6.5 8.5 4.7 1-0.6 1.5-1.4 1.7-2.6zm-4.3-3.5h-0.2v-6.9h0.2v6.9z"/>
<path class="elementor-shape-fill" d="m679.3 10.5c-0.1 0.5-0.2 1.1-0.5 1.5-1.2 1.9-2.9 3-4.7 3.8 1 1.6 2.2 3 2.8 4.6 0.6 1.9 0.7 4 0.9 6 0.1 1.4 0.5 1.9 1.9 1.9 4.5 0.1 8.9 0.1 13.4 0.2h5.3c0-0.6-0.1-1.1 0-1.5 0.3-1.7-0.2-2.8-1.9-3.3-0.5-0.2-1-0.5-1.4-0.8-3.2-1.9-5-4.7-5.5-8.4-0.1-1-0.1-2.1-0.3-3.1-0.6-2.9-3.3-5-7.2-4.3-1.8 0.5-2.5 1.4-2.8 3.4zm3.5 2.5h0.2v6.9h-0.2v-6.9z"/>
<path class="elementor-shape-fill" d="m613 10.7c0 0.7-0.3 1.4-0.6 1.9-0.8 1.6-2.3 2.5-3.8 3.3-0.9 0.5-1 0.9-0.3 1.6 1.3 1.1 2 2.5 2.4 4.1 0.1 0.3 0.5 0.6 0.8 0.7 1 0.2 2 0.3 3.1 0.5 0.8 0.1 1.8-0.4 1.6-1.2-0.1-0.4-0.8-0.6-1.2-0.9-0.1-0.1-0.4 0-0.6 0 0.9-1.2 1.8-0.7 2.9 0.3v-6.6h0.3c0 1.8 0.1 3.5 0 5.3 0 0.9 0.3 1.3 1.1 1.4 1.4 0.3 2.3-0.4 3.2-1.2 0.7 0.2 1.4 0.3 2 0.5v1.5c-0.1-1.1-0.2-1.2-1.2-0.9-0.4 0.1-0.9 0.1-1.3 0.1-0.4 0.4-0.9 0.7-1.4 0.7-0.7 0.1-1 0.4-0.8 1.1 0.1 0.4 0.4 0.8 0.6 1.3 0.2 0.3 0.3 0.6 0.5 0.9-0.9-0.3-1.7-0.6-2.4-0.8 0.2-0.3 0.4-0.6 0.7-0.8-0.9-0.2-1.6-0.3-2.6-0.5-0.8 0.3-1.8 0.8-2.8 1.2-0.1-0.4-0.3-0.8-0.4-1.3-0.4 0.6-0.6 0.9-0.9 1.3 0.1 0.1 0.3 0.3 0.6 0.5-0.5 1.3-1.5 3.3 0.9 4.3h4.5 13.4c0.3 0 0.7 0 1.1-0.1v-2.7c0-0.6-0.2-1-0.8-1.3-2-1-4-2.2-5.6-3.9-0.1-0.2-0.4-0.2-0.7-0.3 0.1 0 0.2 0 0.2-0.1-0.4-0.7-0.8-1.4-1.2-2.2h-0.2c0-0.3 0.1-0.6 0-0.9-0.3-1.6-0.7-3.1-0.8-4.7-0.3-3.8-4.2-6.3-8.2-4.8-1.3 0.4-2 1.3-2.1 2.7zm0.3 10.2c-0.8 0.1-1.7 0.3-1.9-0.6h2.5c-0.3 0.3-0.4 0.6-0.6 0.6z"/>
<path class="elementor-shape-fill" d="m552.3 10.3c-0.2 0.9-0.6 1.9-1.2 2.6-1.2 1.2-2.7 2.3-4.1 3.4 0.1 0.1 0.3 0.4 0.6 0.6 1.5 1.4 2.4 3.1 2.7 5.1-0.3 2 0.7 7 5 6.5-0.2-1.6 1.1-1.3 1.8-1.7-0.7-1.3-1-2.6 0.2-3.8 0.1 0.6 0.3 1.4 0 1.9-0.4 0.6-0.4 1 0 1.5 0.6-0.1 1.2-0.2 1.8-0.2-0.3-0.4-0.5-0.7-0.6-0.8 0.5-0.3 1-0.5 1.6-0.8 0.2 0.4 0.3 0.9 0.5 1.4 0.2-0.2 0.4-0.4 0.5-0.6l0.2 0.2c-0.2 0.4-0.4 0.8-0.6 1.1 0 0.1 0.1 0.1 0.1 0.2 0.5-0.4 1-0.7 1.5-1.1-1.4-1.1-1.4-1.3-0.2-2.7 0.3 0.2 0.6 0.5 0.9 0.7-0.1 0.1-0.1 0.2-0.1 0.3 0 0.3 0.1 0.6 0.1 0.9 0.2-0.2 0.5-0.4 0.6-0.6s0.1-0.4 0.2-0.6c0.2-0.3 0.5-0.4 0.8-0.7 0.1 0.3 0.4 0.5 0.4 0.8-0.1 0.2-0.1 1.2-0.5 1.4-0.1-0.3-0.1-0.5-0.2-0.8-0.4 0.5-0.6 1-0.6 1.6 0 0.1 0.7 0.5 0.8 0.4 1.5-0.5 1.5 0.5 2.5 0.5 1-1-2-3 0.5-4.4-1.7-1.2-2.7-2.4-3.4-3.6s-1.1-2.6-1.4-4.2c-0.2-1.2-0.1-2.5-0.4-3.7-0.7-3-4-4.7-7.2-3.9-1.9 0.6-2.4 1.2-2.8 3.1zm3.4 2.8h0.2v6.8h-0.2v-6.8z"/>
<path class="elementor-shape-fill" d="m680.6 50.3c-3.8-1.1-8.4-0.5-11.8 1.5-3.3 2-5.3 5.2-3.8 9.2 4 4 10 4 15 2 4-2 3-7 2.8-10.6 0-1.4-0.8-2.1-2.2-2.1zm-8.5 10.4c-0.1-1.7-0.1-4.7-0.3-6.4 0.1 2.2 0.2 4.3 0.3 6.4zm7.3-1.9c-0.4-1.8-0.4-4.8 0-6.5-0.1 2.1-0.1 4.3 0 6.5z"/>
<path class="elementor-shape-fill" d="m614.1 50.7h-4.8s-3.2 0-4.8 0c-3.4 1.3-3.4 4.3-4 5.9-0.9 0.8-1.6 1.9-3 2-1 0.1-1.5 0.9-1.6 1.9-0.1 1.6 0.9 3.2 2.5 3.6 1.2 0.3 2.5 0.4 3.7 0.5 3.6 0.2 7.3 0.4 11 0.5-0.1-1.9 0.4-3.1 2.1-3.6 0.9-0.3 1.2-1.1 1.2-2v-6.5c-0.1-1.5-0.8-2.3-2.3-2.3zm-8.8 10.9h-0.2v-6.8h0.2v6.8zm7.6-2.3h-0.2v-6.7h0.2v6.7z"/>
<path class="elementor-shape-fill" d="m597.8 12.4h4.8 4.8c2.4 0 3.3-0.8 3.2-3.2 0-1 0.1-1.8 0.9-2.4 0.2-0.1 0.3-0.3 0.5-0.5 0.6-0.9 1.4-1.4 2.5-1.6 1.2-0.2 1.7-0.9 1.7-2 0.1-1.9-1-3.4-2.9-3.6-3.1-0.4-6.3-0.6-9.4-0.8-1.6-0.1-3.2 0-4.9 0 0 1.7-0.5 3-2.3 3.6-0.8 0.3-1.1 1.2-1 2.1v3.2s0 2.1 0 3.2c0.1 1.2 0.9 2 2.1 2zm9.1-10.8h0.2v6.7h-0.2v-6.7zm-7.6 2.1h0.2v6.7h-0.2v-6.7z"/>
<path class="elementor-shape-fill" d="m724.9 12.3h5.2c1.6 0 3.2-0.1 4.8 0 1.7 0.1 3.1-1.1 2.9-2.9-0.1-0.6-0.2-1.4 0.2-1.8 1.1-1.2 1.9-3 3.9-3.1 0.8-0.1 1.3-0.5 1.5-1.4 0.4-2.2-0.7-4-2.9-4.2-4.5-0.4-9-0.6-13.5-0.9-0.8-0.1-0.9 0.5-0.9 1.1 0 1.2-0.5 1.9-1.7 2.3-0.9 0.3-1.5 1-1.5 2v6.8c0 1.4 0.7 2.1 2 2.1zm9-10.7h0.2v6.7h-0.2v-6.7zm-7.5 2.1h0.2v6.8h-0.2v-6.8z"/>
<path class="elementor-shape-fill" d="m743.8 52.8c-1.8-2.8-3.8-1.8-7.1-2.1h-5c-1.6 0-2.8 1.1-2.7 2.7 1 4.7-7 4.7-5 7.7 3 5 11 5 17 3 1-1 2-3 3-4.8-0.1-2.2-0.2-4.4-0.2-6.5zm-10.9 8.7c0.1-1.6 0.1-4.5-0.1-6.8 0.1 2.3 0.1 4.6 0.1 6.8zm7.6-2.3c-0.5-2.2-0.5-4.2-0.1-6.6-0.1 2.3 0 4.5 0.1 6.6z"/>
<path class="elementor-shape-fill" d="m533.9 10.3c0.5 2.8 2.1 2.3 3.6 1.5 1.5-0.7 3-1.7 3.5 0.5 1.4 0 2.8-0.1 4.2 0 2.8 0.2 3.7-1.1 3.5-3.5 0-0.4-0.1-1 0.1-1.2 1.1-1.2 1.9-2.9 3.9-3.1 0.8-0.1 1.3-0.6 1.5-1.4 0.5-2.1-0.8-4-2.9-4.2-4.4-0.4-8.9-0.6-13.4-0.9-0.7 0-1 0.3-1 1 0 1.3-0.5 2.1-1.8 2.5-1 0.3-1.4 1.1-1.4 2.2v3.2s0.2 2.3 0.2 3.4zm11-8.7h0.2v6.7h-0.2v-6.7zm-7.6 2h0.2v3.4c0.5 1 5.5 5-0.5 4 0-1 0-3 0.3-3.9v-3.5z"/>
<path class="elementor-shape-fill" d="m555.3 51.1c-3.3-2.1-9.3-1.1-10.3 2.9-1-1-2-2 0-3-5 1-6 7-10 8 5 5 11 4 17 4 2.5-0.5 3.8-2 4.2-3.8s0-4-0.8-5.8c0.5-0.4 0.6-1.3-0.1-2.3zm-10.6 9.3c0.3-2.2 0.3-4.1 0-5.9v5.9zm7.7-6.3c-0.4 1.9-0.4 2.9-0.4 4.9v-7s1 1 0.9 0.7c-0.2 0.5-0.4 1-0.5 1.4z"/>
<path class="elementor-shape-fill" d="m628.6 10.9c0.2 0.3 0.8 0.6 1.2 0.6h9.9c0.3 0 0.6 0 0.9-0.1 0-0.9-0.1-1.6 0-2.4 0.1-1-0.2-1.6-1-2.3-1.8-1.7-3.4-3.6-3.7-6.1-0.3-2.1-0.4-4.3-0.6-6.5h-9.2c-0.2 0-0.6 0.3-0.7 0.5-0.3 1.8-0.9 3.7-0.8 5.5 0.3 4 1.8 7.6 4 10.8zm1.2-11.2h0.2v6.3h-0.2v-6.3z"/>
<path class="elementor-shape-fill" d="m648.2 52.5c-3.2 0.5-7.2 0.5-10.2 0.5 2 5 2 10 6 14s10 2 10-2c2-4-2-8-4.3-11.8-0.4-0.5-0.8-0.7-1.5-0.7zm0.8 11.2c0-1.7-1-3.7-1-5.7h0.5c0.1 2 0.3 3.8 0.5 5.7z"/>
<path class="elementor-shape-fill" d="m582.4 29.2c1.6 5.8 4.6-0.2 6.6-0.2h-3c1-3 3-6 3-9l1 1c0-1 0-2-1-3 4-1 3 4 5 5 1 0-2-4 1-4s-1 5 3 4c-3-1-4 1-5 4l-1-1c-1 1-4 3-3 3 5 3 11 0 13-6l-1 1c1-3 3-1 5-1-2 0-2-2-2-3 0 2 3-2 2 1-9-10-23 1-31.9-8-0.9-0.9-1.9-1.1-3.1-0.9-0.4 0.1-1 0.5-1 0.8 0 1.5 0 3.1 0.4 4.6 2.6 6.5 7.6 12.5 14.2 11.9-0.8 0-1.5-0.1-2.2-0.2zm20.6-10.7c-0.9 0.6-1.8 1.2-2.8 1.9 1-2 1.6-2.4 2.8-1.9zm-7.8 6.9c-0.2-3.4 2.8-0.4 3.5-2.4-1.4 0.5-1.7 2.6-3.5 2.4zm-14.9-2.9c-0.3 0.5-0.3 2.5-0.3 3.5-1-2-2-5 0-7 0 1 0 2 0.2 3.1 0 0.1 0.1 0.2 0.1 0.4z"/>
<path class="elementor-shape-fill" d="m588.8 29.4c-0.1 0-0.1 0 0 0z"/>
<path class="elementor-shape-fill" d="m561.7 43.7c-0.8 0.6-0.9 1.2-0.4 2.1 0.4 0 0.8 0 1 0.2 1.1 0.6 2.3 0.9 3.5 1 2.2 0 5.2-1 7.2 0 2 2 4 4 5 3 4-4-1-10-3-11-4-1-1-11-11-1.6-0.6-0.3-1.1-0.5-1.7-0.7-0.1 0-0.4 0-0.4 0.1-0.1 0.1-0.2 0.3-0.1 0.4 0.1 0.2 0.3 0.4 0.4 0.6 0.5 0.5 0.5 0.9-0.2 1.3-0.5 0.2-0.9 0.5-1.4 0.7 0.4 0.5 0.8 0.8 1.1 1.2 0.8 1 0.9 2.1 0 2.7zm7.8-6.5c0.5 1.8 0.5 4.8 0.5 6.8 0-1 0-2-0.5-3.5v-3.3z"/>
<path class="elementor-shape-fill" d="m663.6 5.6c-0.1 0.2-0.3 0.3-0.4 0.4-0.2 0.3-0.5 0.8-0.4 0.9 0.3 0.3 0.7 0.5 1.1 0.6 0.1 0 0.4-0.5 0.4-0.8 0.1-0.7 0-1.4 0-2.1 0-0.3 0.1-0.6 0.2-1.2 0.6 1.1-0.5 2.4 0.9 2.9 0.9 0.3 1.4 1.7 2.7 0.8 0.6 0.9 1.1 1.8 1.5 2.4-1 1-2 1.9-3.1 2.9h7.5c0.2 0 0.3-0.1 0.5-0.2 1-0.5 1.6-1.4 1.4-2.5-0.2-1.4 0.2-2.5 1.4-3.3l0.3-0.3c0.5-0.9 1.3-1.2 2.3-1.3s1.6-0.7 1.7-1.7c0.2-2-1-3.6-2.9-3.9-1.4-0.2-2.9-0.4-4.3-0.5-3.1-0.2-6.2-0.2-9.4-0.3-0.2 0-0.7 0.3-0.7 0.4 0 1.7-0.7 2.6-2.3 3.3-1.1 0.4-1.2 2-0.4 2.6l-0.6 1.2c1-0.3 1.8-0.3 2.6-0.3zm8.3-4.1h0.2v6.8h-0.2v-6.8z"/>
<path class="elementor-shape-fill" d="m582.4 9.6c2.6 1.4 5.6 5.4 10 1.3 0-1.1 0.1-2.2 0.1-3.3s0-2.2 0-3.3c0-1.4-0.6-2.4-2-2.9-1-0.3-1.5-1.1-1.7-2.1-0.1-0.8-0.5-0.9-1.1-0.9h-4.9-4.9c-1.4 0-1.4 0.1-1.5 1.5-0.1 1.9 0.4 3.6 1.6 5 1.5 1.8 2.9 3.4 4.4 4.7zm6.7-5.9h0.2v3.3s0 2.2-0.2 3.3v-3.3s0-2.1 0-3.3zm-6.4-3.4h0.2v6.9h-0.2v-6.9z"/>
<path class="elementor-shape-fill" d="m630 53.7c-2.3-2-5.1-2.8-8.1-2.9-1.5-0.1-2.1 0.6-2.2 2v6.7c0 0.9 0.5 1.6 1.3 1.9 1.4 0.6 2.2 1.6 2.3 3.1 4 0 8-0.1 12.2-0.3 0.4-2.1 0.1-4-1.2-5.6-1.2-1.8-2.7-3.5-4.3-4.9zm-6.9 5.7h-0.2v-6.7h0.2v6.7zm6.4 3.3h-0.2v-6.7h0.2v6.7z"/>
<path class="elementor-shape-fill" d="m708.5 8.8c2.6 2.4 5.7 3.5 9.1 3.5 1.3 0 1.9-0.6 1.9-1.9 0-2-0.1-4 0-5.9 0.1-1.5-0.5-2.5-1.9-3-1-0.4-1.5-1.1-1.7-2.1-0.1-0.8-0.5-0.9-1.2-0.9h-4.8v0.1h-5.4c-0.6 0-0.9 0.2-0.9 0.9-0.1 2.2 0.3 4.1 1.7 5.8 1.1 1.3 2.1 2.5 3.2 3.5zm7.7-5.1h0.2v6.8h-0.2v-6.8zm-6.4-3.3h0.2v6.7h-0.2v-6.7z"/>
<path class="elementor-shape-fill" d="m696.9 53.5c-2.9-1.5-6.9-3.5-8.9-2.5-6 2-1 10 3 11 3 1 8 3 11 0 1-1 0-3-1.4-4.7-1.2-1.3-2.4-2.6-3.7-3.8zm-7.3 5.1c-4.6-1.6 1.4-4.6-0.1-6.4 0 2.2 0.1 4.3 0.1 6.4zm6.5 3c-0.1-1.6-0.1-4.6-0.1-6.2 0.1 2.1 0.2 4.2 0.1 6.2z"/>
<path class="elementor-shape-fill" d="m646.7 8.9c2.5 2.4 5.6 3.4 9.1 3.4 1.2 0 1.9-0.7 1.9-1.9v-6.3c0-0.9-0.4-1.8-1.3-2.2-1.5-0.6-2.4-1.6-2.5-3.2h-11.4c-0.3 0-0.7 0.5-0.7 0.9-0.3 2.3 0.5 4.4 1.9 6.1 0.9 1.2 1.9 2.2 3 3.2zm7.5-5.2h0.2v6.8h-0.2v-6.8zm-6.4-3.3h0.2v6.9h-0.2v-6.9z"/>
<path class="elementor-shape-fill" d="m521.5 9.9c2.5 1.1 5.5 5.1 10.3-0.8 0.4-1.1 0.3-2.3 0-3.5-0.8-2.4-2.8-4.6-4.8-5.6-4-2-9-2-12 0-0.5 0.5-0.2 1.5 0.3 2.7 0.6 1.2 1.5 2.6 2.3 4 1.1 1.2 2.5 2.3 3.9 3.2zm5.6-6.2c-0.1 1.1-0.1 2.5-0.1 3.7 0 1.3 0.1 2.5 0.1 3.5-0.1-1-0.1-2.9 0.1-3.7 0-1.2 0-2.3-0.1-3.5zm-6.3-3.2c0.1 0.8 0.2 1.9 0.2 3.1s0.1 2.4 0.1 3.4c0-1-0.1-2-0.2-3-0.1-1.2-0.1-2.4-0.1-3.5z"/>
<path class="elementor-shape-fill" d="m569.2 53.1c-2.1-1.9-4.9-2.6-7.7-2.9-0.5 0.8-1.5 0.8-2.5 1.8-0.2 1.2-0.4 2.5-0.4 3.7-0.6 9.3 9.4 8.3 15.7 8.3 0.2 0 0.6-0.4 0.6-0.6 0.2-1.8 0.1-3.6-1-5.1-1.5-1.8-3-3.6-4.7-5.2zm-6.5 1.5c-0.7 1.4 2.3 3.4-0.7 4.4v-3.5c0.1-1.2 0.2-2.4 0.4-3.3 0.1 0.8 0.9 1.2 0.3 2.4zm6.2 7.7c0.1-1.1 0.1-2.2 0.1-3.3s-0.1-2.2-0.3-3.4h0.2v3.4 3.3z"/>
<path class="elementor-shape-fill" d="m528 47c1-1 3-1 4-2v1c0-1 1-2 1-3 0 3 6 6 7 2 1-2-3-3-3-6 0 1 0 2 2 2-1-2 0-6-3-5-1 1-2 3-3 5-1-2-1-4-1-5-2-3-8-3-8 1-1 3 2 5 2.6 8.2 1.3-0.2 1.2 0.9 1.4 1.8zm3.5-2.5c0.5 0.4-0.5 0.4-0.3 0.3l0.3-0.3z"/>
<path class="elementor-shape-fill" d="m522.9 55.1c-2.9 0.9-5.9-1.1-7.9 1.9-0.5 1.5-0.7 3-0.5 4.3s1.1 2.5 2.6 3.2c0.9 0.7 1.9 1.1 3 1.3s2.2 0.1 3.2-0.4c3.7-1.5 3.7-7.5 0.5-10.6-0.5 0.2-0.8 0.3-0.9 0.3zm-1.5 7.4c-0.3-1.7-0.3-3.5-0.1-5.1 0 1.8 0 3.4 0.1 5.1z"/>
<path class="elementor-shape-fill" d="m708 54.4c-4 2.6-10-8.4-8-1.4 3 8 8 17 17 11 2-1-2-5-3.9-7.6-1.5-1.4-3.1-2.4-5.1-2zm1.3 8.5c-0.3-1.9-0.3-3.9-0.3-6.2 0.1 2.1 0.2 4.1 0.3 6.2z"/>
<path class="elementor-shape-fill" d="m571.5 9.1c1.7-0.3 3.1 0.4 4 1.9 0.2 0.3 0.6 0.6 0.8 1 0.8 1.4 2 1.5 3.4 1.2 0-1.6-0.3-2.9-1.5-3.9-1-0.8-1.8-1.8-2.4-2.8s-1.2-2.2-1.5-3.3c-0.5-1.6-0.7-3.4-1.1-5.1h-12.4c0.4 2.4 1.3 4.5 2.5 6.4 1.8 2.9 4.2 5.2 8.2 4.6zm-2-9.1h0.2v6.7h-0.2v-6.7z"/>
<path class="elementor-shape-fill" d="m691.1 5.4c1.5 2.2 3.5 4.2 6.5 3.7 2.7-0.4 4.5 0.7 5.8 2.9 0.8 1.4 2 1.4 3.3 1.1 0.2-1.5-0.1-2.8-1.3-3.9-1.9-1.6-3.2-3.7-4-6.1-0.5-1.7-0.7-3.4-1.1-5.2h-12.4c0 0.4 0 0.7 0.1 1 1 2.2 1.7 4.5 3.1 6.5zm5.5-5.4h0.2v6.8h-0.2v-6.8z"/>
<path class="elementor-shape-fill" d="m584.6 55.4c-4.6 0.6-8.6-3.4-12.6-4.4 0 1 0 2 1.2 3.3 1 1.1 1.9 2.2 2.7 3.4s1.3 2.6 1.6 4c0.3 1.3 0.4 2.6 0.7 3.9h12.5c-0.5-2.1-1.1-4-2.1-5.7s-2.3-3.2-4-4.5zm-2.7 8.2h-0.2v-3.4c0-1.1 0-2.3 0.2-3.4v3.4s0 2.2 0 3.4z"/>
<path class="elementor-shape-fill" d="m557 37.9c2.1 0.1 2.8-0.3 3-1.8 0.5-0.1 0.9-0.1 1.5-0.2-0.4 0.4-0.7 0.7-1.1 1 0.7-0.2 1.3-0.9 1.8-0.8 0.8-0.1 1.8-1.1 2.8-1.1-1 0-2 0-3-1-4-4 7 6 0.8-0.5-0.5 0.1-0.7 0.1-1.2 0-0.4-0.1-1.1 0-1.4 0.2-0.2 0.2-0.1 0.9-0.1 1.4-0.5-0.2-1.2 0-1.8-0.9-7.3-2.2-9.3 1.8-9.3 8.8l1-1c1 2-3 4-2 4 6 1 10-3 8.9-9.6 0.1 0.5 0.1 1 0.1 1.5zm-5.2-1.5c-1.8-3.4 1.2-0.4 0.8-1.2-0.3 0.4-0.5 0.8-0.8 1.2z"/>
<path class="elementor-shape-fill" d="m516.3 48.5c-2.3-4.5-2.3-1.5-0.3-6.5 0-1-2-1-3-1 1 0 1-1 2-1-1 0-2-1-3-1-2 1-3 3-3 5 0 1 2 1 3 1-1 1-3 3-2 5 2 1 4 0 5.8-0.7 0.2-0.3 0.4-0.5 0.5-0.8z"/>
<path class="elementor-shape-fill" d="m513.7 55c3.3-1 6.3-1 9.3-2-3-1-6-2-9.4 0.9-1 0.6-1.8 1.4-2.6 2.1 1 0 3 0 3.7 0.2-0.3-0.4-0.7-0.7-1-1.2z"/>
<path class="elementor-shape-fill" d="m537.5 53.6c0.5-0.6 0.5-2.6 1.5-3.6-3 2-7 5-11 4 1 1 3 1 4 1h-1c2 0 3 0 5 0.2 0.6-0.3 1.4-1 1.5-1.6z"/>
<path class="elementor-shape-fill" d="m507.5 59.1c5.6-1.2-0.3-1.3-0.3-2.3-2 0-1.1 4.1-4.1 3.1-0.1 1.6 1.2 2.8 2.5 3.2s2.7-0.2 3.1-2.4c-0.1-0.8 0-1.6-1.2-1.6z"/>
<path class="elementor-shape-fill" d="m663.3 12.3c0.1 0 0.2-0.3 0.3-0.5 0.2 0.2 0.4 0.4 0.6 0.4 0.2 0.1 0.5 0.1 0.8 0.1 0.1 0 0.1-0.4 0.2-0.6 2.2 0.6 1.9-1.7 3-2.5 0-0.1-0.1-0.1-0.1-0.2-0.4 0-0.7 0.1-1 0.1-0.2-0.6-0.3-1.2-0.7-1.6-0.3-0.4-0.9-0.6-1.6-1v4.1h-0.4v-2.3c-0.5-0.1-0.8-0.1-1.2-0.2 0.3 0.8 0.6 1.4 0.8 2-0.8 0.4-1.4 0.8-2.2 1.3 0.1 0.2 0.1 0.7 0.4 0.9 0.3 0.1 0.7 0 1.1 0z"/>
<path class="elementor-shape-fill" d="m530.8 51.8c1.2 0.2 1.2 0.2 2.2 0.2-2-1 1-5-6-4 2-1 3 0 3 2-1-1-2-1-3-1 1 1 1 3 1 4 1-1 2-1 2.9-2.2 0 0.5-0.1 0.8-0.1 1z"/>
<path class="elementor-shape-fill" d="m561 27.4c-0.3 0.2-0.4 0.6-0.7 1.1h3.2 3.1c-0.2-0.7-0.4-1.3-0.5-1.7-1.6-0.2-2.9-0.3-4.5-0.4 0.4 0.6 0.6 0.9 1 1.4-0.5-0.1-0.7-0.1-0.8-0.1-0.3-0.1-0.7-0.4-0.8-0.3z"/>
<path class="elementor-shape-fill" d="m570.6 28.5c1.4-1.5 1.4-4.5-1.6-4.5 0 0-1 2-0.6 3.1 0.9 0.3 2 0.1 2.2 1.4z"/>
<path class="elementor-shape-fill" d="m545.9 34.5c-1.9 1.5-1.9 2.5-1.9 4.5 2-1 3-2 4.8-2.8-1-0.6-1.9-1.1-2.9-1.7z"/>
<path class="elementor-shape-fill" d="m536.7 48.6c3.3 2.4 4.3-0.6 6.3-1.6-1 1-3-3-2.5 0.9-1.2 0-2.2 1.4-3.8 0.7z"/>
<path class="elementor-shape-fill" d="m505.5 45.4c1.4-0.9 1.4-0.9 2.7-2-2.4 1.2-3-1-4.6-0.7 0 1.6 1 2.3 1.9 2.7z"/>
<path class="elementor-shape-fill" d="m520.6 44.7c0.3-0.8-0.4-2-0.2-3.1-0.4 2.2-0.6 3.3-1.9 5.3 0 0 0.6 3.2 1.7 0.5 0.1-0.8 0.3-1.8 0.4-2.7z"/>
<path class="elementor-shape-fill" d="m600.3 29.3c1.7-0.3 3.7-0.3 3.7-2.3-1 1-3-2-3 1.3-0.1 0.4-0.4 0.6-0.7 1z"/>
<path class="elementor-shape-fill" d="m606.6 23.7c-2.3-0.1-3.2 0.6-3 2.3 1.6 0.2 3.1-1 3-2.3z"/>
<path class="elementor-shape-fill" d="m547.5 41.3c-1.5-1.3-2.5-0.3-2.5 1.7 0 1 2 1 3 1 0-1-6-1-0.5-2.4v-0.3z"/>
<path class="elementor-shape-fill" d="m533.6 37.1c-0.1-0.2 1.1 1 2 1.5s1.1 0-1-3.5c0.8 1.4-1.3 0.9-1 2z"/>
<path class="elementor-shape-fill" d="m508.5 43c-2.5 0.4 3.1-5.4-1.3-3.4 0.8 0.9 1.6 1.8 1.3 3.4z"/>
<path class="elementor-shape-fill" d="m557 38.9c2 2.1 1-0.9 1.3-0.6-0.4 0.3-0.8 0.4-1.3 0.6z"/>
<path class="elementor-shape-fill" d="m517.1 45.3c-0.6 1.5-0.6 1.5-0.7 2.6 1.1-1 1.3-2.1 1.4-2.7-0.3 0.1-0.5 0.1-0.7 0.1z"/>
<path class="elementor-shape-fill" d="m512.2 52.9z"/>
<path class="elementor-shape-fill" d="m510.9 52.6c3.3 2.2 0.5-1 1.8-0.6-0.7 0.2-1.3 0.4-1.8 0.6z"/>
<path class="elementor-shape-fill" d="m601.3 25.6c0.9-0.6 1.6-1.1 2.3-1.5-1.4-0.3-2.1 0.2-2.3 1.5z"/>
<path class="elementor-shape-fill" d="m518.5 35.9c-0.5-0.7-0.9-1.3-1.5-2.1 0 1.9 0.3 2.3 1.5 2.1z"/>
<path class="elementor-shape-fill" d="m500.7 44.9v0z"/>
<path class="elementor-shape-fill" d="m531.7 47c0.3 0.9 0.3 0.9 1.1 0.7-0.1-0.8-0.4-1.2-1.1-0.7z"/>
<path class="elementor-shape-fill" d="m549.9 34.8c0.1-0.8-0.9-0.8-1.5-1.1 0.3 0.7 0.5 1.5 1.5 1.1z"/>
<path class="elementor-shape-fill" d="m558.2 26.6c-0.1 0-0.3 0.3-0.4 0.5l-0.3 0.6c-0.1 0.2-0.1 0.4-0.3 0.8 0.6-0.4 1-0.7 1.3-1 0.1-0.1 0.2-0.5 0.2-0.7 0 0-0.3-0.2-0.5-0.2z"/>
<path class="elementor-shape-fill" d="m567.2 27.9v0z"/>
<path class="elementor-shape-fill" d="m538 48.4c0.1-0.3 0.2-0.6 0 0z"/>
<path class="elementor-shape-fill" d="m518.4 48.9c-1.8-1.6-3.1-3-3.5-3.2s0 0.9 1.9 4c0.5-0.2 1-0.5 1.6-0.8z"/>
<path class="elementor-shape-fill" d="m661.7 8c-0.1 0.1-0.2 0.3-0.3 0.4 0.2 0.6 0.5 0.9 1.6 0.5-0.5-0.3-0.9-0.6-1.3-0.9z"/>
<path class="elementor-shape-fill" d="m502.3 41.7c-0.1 0.1-0.1 0.2 0 0z"/>
<path class="elementor-shape-fill" d="m555.7 28.5c0.5-0.2 0.9-0.3 1.4-0.5-0.1-0.1-0.1-0.4-0.2-0.4-0.5 0.1-0.9 0.2-1.4 0.3 0.1 0.2 0.1 0.4 0.2 0.6z"/>
<path class="elementor-shape-fill" d="m588.8 28.7c1.2-0.7 1.2-1.7 1.9-2.5-0.6 0.9-1.8 1.2-1.9 2.5z"/>
<path class="elementor-shape-fill" d="m592.3 20c-0.5 0.8-1.2 1.5 0 2.2v-2.2z"/>
<path class="elementor-shape-fill" d="m749.9 46.9c0.1 0 0.1 0 0 0 0.1 0 0.1 0 0 0 3 0 5.9-0.1 8.8-0.1 2.7 0 5.3-0.1 7.5-1.9 2.2-1.7 3.3-4.8 2.6-7.4-0.1-0.2-0.4-0.4-0.6-0.5-0.3-0.1-0.6 0-0.9 0.1-0.8 0.3-1.2 0-1.4-0.9-0.6-2.4-0.6-2.4-3.1-2.4h-12.8-0.1-12.8c-2.5 0-2.5 0-3.1 2.4-0.2 0.9-0.6 1.1-1.4 0.9-0.3-0.1-0.6-0.2-0.9-0.1-0.2 0-0.5 0.3-0.6 0.5-0.7 2.6 0.4 5.7 2.6 7.4 2.3 1.8 4.9 1.9 7.5 1.9 2.9 0 5.8 0.1 8.7 0.1zm10.1-9.7h0.2v6.7h-0.2v-6.7zm-20.1 6.8h-0.2v-6.7h0.2v6.7z"/>
<path class="elementor-shape-fill" d="m992.9-5.9c-0.4 0-0.8 0.1-1.2 0.1-0.2 2-0.5 4-0.6 5.9-0.2 2.3-1.2 4.2-2.8 5.6-1.5 1.4-2.1 2.8-1.8 4.8v0.7c0 0.1 0 0.1 0.1 0.3h6 4.5c0.8 0 1.3-0.2 1.6-0.8 0.4-0.8 0.9-1.5 1.4-2.3v-14.4c-2.5 0-4.8 0.1-7.2 0.1zm4.3 11.9h-0.2v-6.3h0.2v6.3z"/>
<path class="elementor-shape-fill" d="m996.9 37.2c-0.1-0.1 0.2-1 0.5-1.4 0.3-0.5 0.8-0.8 1.3-1.2 0-0.1-0.1-0.2-0.1-0.3-0.5-0.1-0.9-0.2-1.4-0.2-1.1 0-2.3 0-3.4 0.1-0.2 0-0.5 0.3-0.7 0.5l0.3 0.3c0.2-0.2 0.5-0.4 0.7-0.7 0.2 0.1 0.5 0.2 0.7 0.3s0.2 0.4 0.3 0.6c-0.2 0.1-0.4 0.2-0.7 0.3-0.4 0.1-0.8 0.2-1.3 0.3-0.1-0.1-0.2-0.3-0.4-0.5-0.7-1.3-0.9-1.4-2.3-1.1-0.4 0.1-0.8 0.1-1.1 0.3-0.5 0.2-1.3 0.5-1.3 0.8 0 0.6 0.4 1.2 0.7 2-0.4 0.3-1.1 0.7-1.7 1 1 0.4 1.9 0.8 3.1 1.2-0.4-0.7-0.7-1.2-1.1-2h1.9v0.3c-0.3 0.1-0.5 0.1-0.8 0.2 0.7 1.3 1.4 1.6 3.2 1.2-0.1 0.6-0.1 1.2-0.2 1.8 0.7-0.1 1.2-0.2 1.8-0.2 0.5 0 0.5 0.1 0.3 0.6-0.3 0.6-0.5 1.2-0.8 1.8l0.2 0.2c0.7-0.5 1.7-0.1 2.4-0.9-0.1-0.3-0.2-0.5-0.2-0.8-0.1-0.2-0.1-0.5-0.1-0.7 0.2 0 0.5 0 0.7 0.1 0.4 0.3 0.7 0.6 1.1 0.9l0.2-0.2c-0.1-0.3-0.3-0.6-0.4-1 0.9-1 0.9-1 1.6-0.2v-1.9c-1.5 0.6-2-1-3-1.5zm-6.8-0.4h-0.3c-0.1-0.4-0.4-0.9-0.2-1.3s0.7-0.8 1.1-1.2c0.1 0.4 0.2 0.7 0.3 1.1-1.3-0.1-0.8 0.9-0.9 1.4z"/>
<path class="elementor-shape-fill" d="m752.9 53.4c-0.9-3.4-3.9-2.4-4.9-2.4-3 3-2 9 2 11 2 0 4-2 3-5.3-0.1-1-0.1-2.1-0.1-3.3z"/>
<path class="elementor-shape-fill" d="m994.8 25.9v3.1h5.2v-6.7c-1.7 1-3.3 1.9-5 2.9-0.1 0.2-0.2 0.5-0.2 0.7z"/>
<path class="elementor-shape-fill" d="m997.1 62.3c0 2.6 1.9-0.4 2.9 0.6v-4c-1 1-1 2-2 3.1-0.2 0.2-0.6 0.3-0.9 0.3z"/>
<path class="elementor-shape-fill" d="m999 52.6c0 0.4-1 0.4-1 0.4 1 1 2 2 2 3v-3.5c-0.4-0.6-0.6-0.3-1 0.1z"/>
<path class="elementor-shape-fill" d="m998.7 59.5c1.3-0.5 1.3-1.5 1.3-2.5 0 0-1 0-1.4-0.4 0.1 1 0.1 1.9 0.1 2.9z"/>
<path class="elementor-shape-fill" d="m998.9 37.3c0.6 0.6 0.7-0.2 1.1-0.4v-0.8h-1.9c-0.5 0.8 0.4 0.9 0.8 1.2z"/>
<path class="elementor-shape-fill" d="m1e3 41.7v-0.8c-0.3-0.2-0.6-0.5-0.9-0.7-0.4 1-0.3 1.3 0.9 1.5z"/>
<path class="elementor-shape-fill" d="m891.3 46.3c4.2-1.3 6.1-5.5 4.9-9.2l-2.4 0.3c-0.3-0.9-0.6-1.7-0.8-2.5-0.1-0.8-0.5-0.9-1.2-0.9-8.5 0-16.9 0.2-25.4 0-4.4-0.1-7.5 1.8-10.2 4.9-1.4 1.6-2.7 3.4-2.9 5.6-0.2 1.7 0 3.5 0 5.3 0.3 0 0.6 0.1 0.9 0.1h9.9c0.4 0 0.9-0.2 1.3-0.5 2-1.6 4.1-2.5 6.7-2.5 4.2 0.1 8.4-0.1 12.7 0 2-0.1 4.3 0.1 6.5-0.6zm-3.9-9.1h0.3v6.7h-0.3v-6.7zm-21.4 8.8h-0.2v-6.9h0.2v6.9zm11-2.1h-0.2v-6.6h0.2v6.6z"/>
<path class="elementor-shape-fill" d="m825.7 21.7c-0.4 1.4-0.4 2.8 0 4.3 0.4 0 0.8 0 1.2-0.1 1.1-0.5 1.5 0 1.7 1.1 0.5 2.1 0.6 2.1 2.8 2.1 8.4 0 16.8-0.1 25.2 0 2.4 0 4.5-0.7 6.3-2.2 1.3-1.1 2.5-2.4 3.6-3.7 1.6-1.9 2.4-4.1 2.2-6.7-0.1-1.1 0-2.1 0-3.3h-11.2c-0.2 0-0.5 0.1-0.7 0.3-2 1.8-4.3 2.8-7 2.7-5.3-0.1-10.7 0-16 0-4 0-7.1 2.1-8.1 5.5zm36.4-4.4c0.6-0.9 0.9 0.2 1.4 0.2 0 0.1 0.1 0.3 0.1 0.4-0.5 0.2-1 0.3-1.5 0.5-0.1-0.5-0.2-0.9 0-1.1zm-0.8-0.8c0 0.2 0.1 0.4 0.1 0.6-0.6 0.1-1.2 0.3-1.8 0.4 0-0.2-0.1-0.3-0.1-0.5 0.6-0.2 1.2-0.4 1.8-0.5zm-3.7 1.1v6.9h-0.3v-3.6c-0.1-1-0.2-2.2 0.3-3.3zm-12.1 1.7h0.2v6.8h-0.2v-6.8zm-11.6 6.7h-0.2v-6.7h0.2v6.7z"/>
<path class="elementor-shape-fill" d="m995.6 19c0.5-1.8 0.1-3.8 0.1-5.8-0.2 0-0.5-0.1-0.8-0.1h-9.9c-0.4 0-0.9 0.2-1.2 0.5-1.8 1.5-3.8 2.5-6.2 2.5-5.9 0-11.7 0-17.6 0.1-3.6 0-6.7 2.6-7.4 6.1-0.2 1.1 0 2.4 0 3.6 1.1-0.2 1.9-0.3 2.7-0.4 0.3 1.1 0.7 2.2 1 3.4 1.4-0.2 3.1 0.7 4.3-1.3 0.3 1.5 1.2 1.3 2.2 1.3h6.3v-2.8c0.7 0.5 1.3 0.9 1.9 1.3l-0.1 0.1c-0.4-0.1-0.8-0.2-1.1-0.2-0.2 1.2 0 1.6 1 1.5 0.7 0 1.5 0.4 2.1-0.4 0.1-0.1 0.7 0.2 1.1 0.3 0-0.4 0-0.7 0.1-1.3 1.1 0.4 2 0.8 3.1 1 1.3 0.2 2.6 0.3 3.9 0.3 0.2 0 0.4-0.7 0.7-1.3-1.1 0.3-1.9 0.5-2.6 0.7 0-0.1-0.1-0.2-0.1-0.3 0.3-0.2 0.7-0.4 1.1-0.6-0.4-0.3-0.7-0.6-1-0.8 0.9-0.8 1.8-0.6 2.2 0.4 0.1 0.3 0.5 0.6 0.7 0.9 0.3 0.4 0.5 0.9 0.9 1.1 0.3 0.1 1.1-0.5 1.3-0.3 1 0.9 2 0.3 2.8 0 4.1-1.9 7.3-4.9 8.5-9.5zm-34.6 7.1c-0.5-1.3-0.4-6.3 0-6.8v6.8zm11.8 0h-0.2v-6.8h0.2v6.8zm11.9-1.5h-0.2v-6.9h0.2v6.9z"/>
<path class="elementor-shape-fill" d="m824.6 45.9c0.7 0 1.6-0.2 2.1-0.7 2.2-1.8 3.7-4 3.7-7 0-0.6-0.1-1.1-0.8-1.1h-0.1c-1.6-0.2-2.5-1.1-2.4-2.8 0-0.7-0.4-0.9-1.1-0.9h-10.5c-2.8 0-5.7 0.2-8.5 0-2.6-0.2-4.6 0.8-6.4 2.4-3.1 2.6-5.2 5.9-6.6 9.7-0.4 1.3-0.2 2.8-0.1 4.2 0 0.3 0.9 0.8 1.4 0.8 0.8 0 1.6-0.4 2.3-0.7 0.3-0.1 0.6-0.5 0.8-0.8 1.1-1.9 2.8-2.2 4.8-2 1.7 0.1 3.6 0.3 5.2-0.3 2.4-0.8 4.8-0.7 7.2-0.7 2.9-0.1 5.9-0.1 9-0.1zm-21.3-2h-0.2v-6.9h0.2v6.9zm12.9-0.7h-0.2v-6.7h0.2v6.7z"/>
<path class="elementor-shape-fill" d="m769.8 29h3 18.2c1.2 0 2.2-0.3 3.2-0.9 4.1-2.7 6.8-6.5 8.4-11 0.5-1.3 0.2-2.8 0.1-4.2 0-0.3-0.7-0.7-1.1-0.7-1.1-0.2-2.1 0.1-3 0.9 0 0.1-0.1 0.1-0.1 0.1-1.3 2.2-3.3 2.7-5.8 2.5-2.3-0.2-4.6-0.1-6.8 0.8-1 0.4-2.2 0.2-3.4 0.2-3.4 0-6.9-0.1-10.3-0.1-1.2 0-2.2 0.3-3 1.1-2.1 2-3.5 4.4-3.1 7.5 0.3 0.1 0.7 0.3 1 0.3 1.6 0.2 2.3 1.1 2.3 2.6 0.1 0.3 0.3 0.6 0.4 0.9zm23.4-10.3h0.2v6.8h-0.2v-6.8zm-12.8 0.7h0.2v6.6h-0.2v-6.6z"/>
<path class="elementor-shape-fill" d="m913.1 50.2c0.1-4.3 1.7-7.9 5.6-10.1 0.4-0.2 0.8-0.5 1.2-0.8 0.7-0.4 1.9-0.7 2.1-1.3 0.4-1 0.1-2.3 0.1-3.6h-6.9-11.8c-1.5 0-1.9 0.4-2.1 1.9s-0.3 3-0.5 4.5c-0.3 2.1-1.3 3.8-2.9 5.3-0.2 0.2-0.4 0.3-0.5 0.5 0 0 0 0.1-0.1 0.2 1.8 0.9 3.5 1.9 4.7 3.7 0.3 0.5 0.6 1 0.7 1.6 0.5 2.7 1.4 3.6 4.1 3.8 3.2 0.2 6.3-2.2 6.3-5.7zm-5.7-0.9h-0.2v-6.9h0.2v6.9z"/>
<path class="elementor-shape-fill" d="m786 50.5c0-2.3 0.6-4.5 1.7-6.6 1.3-2.3 3.3-3.7 5.5-4.7 1.5-0.7 2.2-1.6 1.9-3.2-0.1-0.4 0-0.9 0-1.5h-6.6-12.2c-1.3 0-1.8 0.5-1.9 1.8-0.2 1.7-0.3 3.5-0.7 5.2-0.4 2.1-1.7 3.8-3.3 5.1 2.7 1.2 4.1 3.8 5.5 5.9s2.8 3.8 5.6 3.1c2.5-0.5 4.5-2.6 4.5-5.1zm-5.6-1.3h-0.2v-6.7h0.2v6.7z"/>
<path class="elementor-shape-fill" d="m853.4 38.7c0.7-0.3 1-0.7 0.9-1.5s0-1.6 0-2.4c0-0.1 0-0.1-0.1-0.4h-6.7-11.8c-1.5 0-2.1 0.5-2.1 2.1 0 2.3-0.2 4.6-1.3 6.6-0.7 1.3-1.7 2.4-2.5 3.5 5.1 1.3 4.1 6.3 6.9 8.6 3.8 1.7 8.4-0.4 8.5-4.7 0.2-5.8 3.2-9.5 8.2-11.8zm-13.8 10.6h-0.2v-6.9h0.2v6.9z"/>
<path class="elementor-shape-fill" d="m810.4 11.5c-0.2 1-0.1 2.1-0.3 3.1-0.5 3.6-2.3 6.5-5.5 8.4-0.5 0.3-0.9 0.7-1.4 0.8-1.7 0.5-2.2 1.6-1.9 3.3 0.1 0.4 0 0.9 0 1.5h5.3c4.5 0 8.9-0.1 13.4-0.2 1.4 0 1.8-0.5 1.9-1.9 0.2-2 0.3-4.1 0.9-6 0.6-1.6 1.8-3 2.8-4.6-1.8-0.8-3.5-2-4.7-3.8-0.3-0.4-0.5-1-0.5-1.5-0.2-2-0.9-2.9-2.9-3.3-3.7-0.9-6.4 1.3-7.1 4.2zm6.5 1.5h0.2v6.9h-0.2v-6.9z"/>
<path class="elementor-shape-fill" d="m874.4 20.8c0.1 0 0.2 0 0.2 0.1-0.2 0.1-0.5 0.1-0.7 0.3-1.6 1.7-3.5 2.9-5.6 3.9-0.6 0.3-0.8 0.6-0.8 1.3 0.1 0.9 0 1.7 0 2.7 0.4 0 0.7 0.1 1.1 0.1h17.8c1.2 0 1.6-0.3 1.8-1.5 0.2-1.1 0.4-2.3-0.9-3 0.3-0.2 0.4-0.4 0.6-0.5-0.3-0.4-0.5-0.7-0.9-1.3-0.2 0.5-0.3 0.9-0.4 1.3-1-0.4-2.1-0.9-2.8-1.2-1 0.2-1.7 0.3-2.6 0.5 0.2 0.3 0.4 0.5 0.7 0.8-0.8 0.3-1.5 0.5-2.4 0.8 0.2-0.3 0.3-0.6 0.5-0.9 0.2-0.4 0.5-0.8 0.6-1.3 0.2-0.6-0.1-1-0.8-1.1-0.5 0-1-0.3-1.4-0.7-0.4 0-0.9 0-1.3-0.1-1-0.3-1.1-0.2-1.2 0.9v-1.5c0.6-0.1 1.3-0.3 2-0.5 0.9 0.8 1.8 1.5 3.2 1.2 0.9-0.2 1.2-0.5 1.1-1.4-0.1-1.7 0-3.5 0-5.3h0.3v6.6c1.1-1 2-1.5 2.9-0.3h-0.6c-0.5 0.3-1.2 0.5-1.2 0.9-0.1 0.8 0.8 1.4 1.6 1.2 1-0.2 2.1-0.3 3.1-0.5 0.3-0.1 0.7-0.4 0.8-0.7 0.4-1.6 1.2-3 2.4-4.1 0.7-0.6 0.6-1-0.3-1.6-1.5-0.9-2.9-1.8-3.8-3.3-0.3-0.6-0.6-1.3-0.6-1.9-0.1-1.4-0.8-2.3-2-2.7-4-1.5-7.9 1-8.2 5.1-0.1 1.6-0.5 3.1-0.8 4.7v0.9h-0.2c-0.3 0.6-0.7 1.3-1.2 2.1zm14.1-0.5c-0.3 1-1.2 0.7-1.9 0.6-0.2 0-0.3-0.3-0.6-0.6h2.5z"/>
<path class="elementor-shape-fill" d="m937.6 11.1c-0.3 1.2-0.2 2.5-0.4 3.7-0.6 3.3-1.5 5.3-4.8 7.8 0.1 0 0.2 0.1 0.3 0.1-0.1 0.5 0 1-0.2 1.4-0.4 1-0.6 2 0.6 2.6 0 0 0.1 0 0.2-0.1 0.5-1 1.2-1.1 2-0.3 0.1 0.1 0.8-0.3 0.8-0.4 0-0.5-0.3-1.1-0.6-1.6-0.1 0.3-0.1 0.5-0.2 0.8h-0.2c-0.1-0.5-0.3-0.9-0.3-1.4 0-0.3 0.3-0.5 0.4-0.8 0.3 0.2 0.6 0.4 0.8 0.7 0.1 0.1 0.1 0.4 0.2 0.6l0.6 0.6c0-0.3 0.1-0.6 0.1-0.9 0-0.1-0.1-0.2-0.1-0.3 0.3-0.2 0.6-0.5 0.9-0.7 1.1 1.5 1.1 1.6-0.2 2.7 0.5 0.4 1 0.8 1.5 1.1 0-0.1 0.1-0.1 0.1-0.2-0.2-0.4-0.4-0.8-0.6-1.1l0.2-0.2c0.2 0.2 0.4 0.4 0.5 0.6 0.2-0.5 0.4-1 0.5-1.4l1.6 0.8c-0.1 0.1-0.3 0.4-0.6 0.8 0.5 0.1 1.1 0.2 1.8 0.2 0.5-0.5 0.4-0.9 0-1.5-0.3-0.5-0.1-1.2 0-1.9 1.2 1.2 0.9 2.5 0.2 3.8 0.8 0.4 2 0 1.8 1.7 0.9-0.1 1.7-0.2 2.6-0.3 0.1 0 0.1-0.1 0.2-0.1 1.3 0 1.7-0.4 1.8-1.8s0.2-2.9 0.4-4.3c0.3-2 1.2-3.7 2.7-5.1l0.6-0.6c-1.4-1.1-2.9-2.2-4.1-3.4-0.6-0.6-1-1.6-1.2-2.6-0.4-1.9-0.9-2.5-2.7-3-3.2-0.7-6.5 1-7.2 4zm6.4 2h0.2v6.8h-0.2v-6.8z"/>
<path class="elementor-shape-fill" d="m836.2 57.3c-4.2-5.3-14.2-12.3-18.2-5.3s3 12 9 12c4-1 8-1 10.9-5 0.1-0.9-0.7-1.7-1.7-1.7zm-15.2 1c0.1-2.3 0-4.3-0.2-6.2 0 2.1 0.1 4.2 0.2 6.2zm7.8 1.9c-3.8-2.2 1.2-4.2-0.2-6.1 0 2.2 0.1 4.2 0.2 6.1z"/>
<path class="elementor-shape-fill" d="m902.9 58c-2.5-3.4-5.3-5.9-8.2-7-2.9-1.2-6.2-0.9-9.7 1.1-1 0.5-1.8 2.8-1.6 5.1-0.4 0.8-0.4 2.8 0.6 3.8 6 3 16 5 20.7-1.4-0.2-0.8-0.8-1.6-1.8-1.6zm-15.5 0.7c-0.3-2.1-0.3-4-0.2-6.2 0.1 2.1 0.2 4.2 0.2 6.2zm8 1.9c-0.1-1.9-0.2-3.8-0.5-6 0.1 2.1 0.3 4.1 0.5 6z"/>
<path class="elementor-shape-fill" d="m885.2 4.6c1.1 0.1 1.9 0.7 2.5 1.6 0.1 0.2 0.3 0.4 0.5 0.5 0.8 0.6 1 1.4 0.9 2.4-0.1 2.4 0.8 3.2 3.2 3.2h9.7c1.2 0 2-0.8 2-2v-6.4c0-0.9-0.2-1.8-1-2.1-1.8-0.6-2.3-1.9-2.3-3.6-1.7 0-3.3-0.1-4.9 0-3.1 0.2-6.3 0.4-9.4 0.8-1.9 0.2-3 1.7-2.9 3.6 0.1 1.2 0.6 1.9 1.7 2zm15.2-0.9h0.2v6.7h-0.2v-6.7zm-7.6-2.1h0.2v6.7h-0.2v-6.7z"/>
<path class="elementor-shape-fill" d="m758.1 4.6c2 0.2 2.8 1.9 3.9 3.1 0.3 0.4 0.2 1.2 0.2 1.8-0.2 1.8 1.2 3 2.9 2.9 1.6-0.1 3.2 0 4.8 0h5.2c1.3 0 2-0.7 2-2v-6.8c0-1.1-0.5-1.7-1.5-2-1.2-0.4-1.6-1.1-1.7-2.3 0-0.6-0.1-1.1-0.9-1.1-4.5 0.3-9 0.5-13.5 0.9-2.2 0.2-3.3 2.1-2.9 4.2 0.1 0.8 0.7 1.3 1.5 1.3zm15.2-0.9h0.2v6.8h-0.2v-6.8zm-7.5-2.1h0.2v6.6h-0.2v-6.6z"/>
<path class="elementor-shape-fill" d="m775.1 58.3c-2.6-3.2-5.6-6.3-8.7-7.6s-6.4-0.8-9.4 3.2c-3 3 0 9 4 9 2.5 0.5 6 1.5 9.1 1.5 3.1-0.1 5.8-1 6.7-4.3-0.1-0.9-0.6-1.7-1.7-1.8zm-15 0.7c-0.1-2-0.1-4-0.3-6.4 0.1 2.2 0.2 4.3 0.3 6.4zm7.6 2.3c-3.7-1.3 1.3-4.3-0.3-6.6 0 2.2 0.1 4.4 0.3 6.6z"/>
<path class="elementor-shape-fill" d="m947.1 4.6c2 0.2 2.8 1.9 3.9 3.1 0.2 0.2 0.2 0.8 0.1 1.2-0.2 2.3 0.7 3.7 3.5 3.5 1.4-0.1 2.8 0 4.2 0h5c1.5 0 2.2-0.7 2.2-2.1v-6.5c0-1.1-0.4-1.9-1.4-2.2-1.2-0.4-1.8-1.2-1.8-2.5 0-0.7-0.3-1-1-1-4.5 0.3-8.9 0.5-13.4 0.9-2.1 0.2-3.4 2.1-2.9 4.2 0.3 0.8 0.9 1.3 1.6 1.4zm15.3-1h0.2v6.9h-0.2v-6.9zm-7.6-2h0.2v6.7h-0.2v-6.7z"/>
<path class="elementor-shape-fill" d="m963.4 57.7c-5.3 0.2-2.4-8.7-8.4-7.7-1 1 3 4-1 4 0-1 0-3-1-4-6-2-10 1-9 7 1 4 5.1 6.4 9.6 6.9 4.4 0.1 9.4 0.1 11.7-4.4-0.2-1-0.9-1.8-1.9-1.8zm-15 0.9c0.6-1.6-1.4-4.6-0.5-6.9 0.1 2.4 0.3 4.7 0.5 6.9zm7.8 2c-0.1-1.7-0.2-4.6-1.2-6.6 0 0 1 0 0.6 0.4 0.1 2.1 0.3 4.2 0.6 6.2z"/>
<path class="elementor-shape-fill" d="m859.3 11.4c0.3 0 0.6 0.1 0.9 0.1h9.9c0.4 0 1-0.2 1.2-0.6 2.2-3.3 3.7-6.8 3.9-10.7 0.1-1.8-0.4-3.7-0.8-5.5 0-0.2-0.4-0.5-0.7-0.5h-9.2c-0.2 2.3-0.3 4.4-0.6 6.5-0.4 2.5-1.9 4.4-3.7 6.1-0.7 0.7-1.1 1.4-1 2.3 0.2 0.7 0.1 1.5 0.1 2.3zm10.6-11.7h0.2v6.3h-0.2v-6.3z"/>
<path class="elementor-shape-fill" d="m861.6 52.2c-3.6-0.2-7.6-1.2-11.6 0.8-6 5-4 15 5 13 7-2 4-9 7.3-13.8h-0.7zm-9.1 9.6c-0.4-2.1-0.4-3.1-0.4-4.8 0.1 1.7 0.2 3.3 0.4 4.8z"/>
<path class="elementor-shape-fill" d="m915.9 28c0.4 0.1 0.8 0.3 1.2 0.4 0.7 0.1 1.4-0.2 2.1 0.4 0.2 0.2 0.8 0 1.2-0.1 0.8-0.4 1.6-0.9 2.3-1.5 0.3-0.3 0.5-0.7 0.5-1.2 0.7-0.3 1.6-0.5 2-1.1 0.8-1.1 1.8-2.1 2.4-3.3 0.6-1.3 1.5-2.5 1.9-3.9 0.4-1.5 0.4-3.1 0.4-4.6 0-0.3-0.6-0.7-1-0.8-1.1-0.2-2.2 0-3.1 0.9-0.1 0.1-0.3 0.2-0.4 0.4-1.2 2.1-3.1 2.4-5.3 2.3-2.4-0.2-4.8-0.3-7 0.8-0.3 0.1-0.7 0.1-1 0.1-1 0.1-1.9 0.2-2.9 0.4-0.2-0.1-0.3-0.3-0.5-0.3-3.2 0-6.4-0.1-9.6-0.1-1.5 0-2.7 0.8-3.6 1.9-0.7 0.8-1.2 1.7-1.8 2.6 0.1 0.1 0.2 0.1 0.3 0.2 0.3-0.4 0.7-0.9 1.1-1.4 0.1 0.3 0.2 0.6 0.4 0.9 0.3-0.1 0.6-0.2 0.8-0.3-0.3 0.7-0.7 1.4-1.1 2.3-0.4 0-1 0.1-1.6 0.1v0.4h3.6c-0.3-0.5-0.5-0.9-0.7-1.2 0-0.1 0.1-0.1 0.1-0.2 0.7 0.5 1.3 0.9 2.2 1.5-0.4 0-0.7-0.1-1.3-0.1 1.7 1.9 3.2 3.6 4.8 5.3 0.2 0.3 0.7 0.5 1.1 0.5 2.4 0.1 4.8 0 7.2 0 0.2 0 0.5-0.2 0.7-0.2-1.2-1.2-2.3-2.4-3.6-3.7-0.1 0.5-0.2 0.8-0.2 1h-0.2c0-0.5-0.1-0.9-0.1-1.4-0.3 0.2-0.6 0.4-1 0.6-0.2-0.9-0.4-1.7-0.7-2.5-0.6 0.1-1 0.2-1.5 0.3 0.2-0.9-0.5-0.6-0.9-0.7-0.3 0-0.6 0-1.1 0.1 0.7-0.8 1.3-1.4 1.9-2 0.6-0.5 0.8-1 0.1-1.7 0.5-0.4 0.9-0.7 1.4-1.2v1.2c0.4-0.5 0.7-0.7 1.1-1.2-0.1 0.9-0.2 1.6-0.3 2.3 1 0.7-1 1.5-0.1 2.3 0.7 0.2 1.1-0.1 1.1-1-0.1-1.5 0.1-2.9 1.4-3.9 0.4 1 0.7 1 1.8 0.2-0.2 0.9-0.3 1.7-0.5 2.6 0.1 0.1 0.3 0.1 0.4 0.2l0.6-0.9h0.3c0.1 1.2 0.1 2.3 0.2 3.5 0.3 0 0.7-0.1 1.1-0.1 0.1 0.6 0.2 1.2 0.4 1.7 0.3 1 1 2 0.4 3.2 0 0.1 0.3 0.4 0.5 0.6s0.5 0.3 0.8 0.4c-0.4 0.1-0.7 0-1 0-0.7 0-1.4 0.1-2.1 0.1 0.5 0.1 0.9 0.2 1.4 0.2h4.9v-0.3c-0.7 0.1-1.4 0.1-2.2 0.2 0-0.3-0.1-0.6-0.1-0.9 0.2-0.3 0.3-0.3 0.4-0.3zm3.9-6.2c0.1-0.7 0.3-1.4 0.4-2 0.1-0.4 0-0.7 0.1-1.4 0.8 1.2-0.5 2.9 1.2 3.5-0.4 1.2-0.8 2.4-1.1 3.5-0.2-1.1-0.4-2.2-0.6-3.2v-0.4zm-22.9-3.4c1.2-0.5 1.9-0.1 2.8 1.8-1-0.6-1.9-1.2-2.8-1.8zm5.8 4.9c0.5 0.3 1 0.3 1.3-0.3 0.3 0.6 0.6 1.3 0.9 2-1.8 0.3-2.2-1.8-3.5-2.2 0.5 0.1 0.9 0.3 1.3 0.5z"/>
<path class="elementor-shape-fill" d="m938.1 37.1c0.1-0.1 0-0.4-0.1-0.4-0.1-0.1-0.3-0.1-0.4-0.1-0.5 0.2-1.1 0.5-1.7 0.7-1-1.2-2-2.5-3.3-4-1.8-0.4-3.3 1-4.9 2.2-3.2 2.5-5.3 5.8-6.6 9.6-0.5 1.3-0.3 2.9-0.2 4.4 0 0.3 0.9 0.9 1.3 0.9 0.9-0.1 1.8-0.6 2.7-0.9 0.1 0 0.2-0.2 0.3-0.3 1.2-2.1 3.1-2.5 5.4-2.3 2.4 0.2 4.9 0.3 7.1-0.9 0.3-0.2 0.7-0.1 1-0.2 0.4-0.9 0.4-1.5-0.4-2.1-0.9-0.6-0.8-1.7-0.1-2.8 0.3-0.4 0.7-0.7 1.1-1.2-0.5-0.3-0.9-0.5-1.4-0.7-0.7-0.3-0.7-0.7-0.2-1.3 0.1-0.2 0.3-0.3 0.4-0.6zm-7.7 6.7h-0.2v-6.7h0.2v6.7z"/>
<path class="elementor-shape-fill" d="m820.1 4.6c1 0.1 1.8 0.5 2.3 1.3l0.3 0.3c1.2 0.8 1.6 1.9 1.4 3.3-0.1 1.1 0.4 2 1.4 2.5 0.2 0.1 0.3 0.2 0.5 0.2h7.5c-1.1-1.1-2.1-2-3.1-2.9 0.4-0.6 0.9-1.5 1.5-2.4 1.2 0.9 1.8-0.4 2.7-0.8 1.3-0.5 0.3-1.8 0.9-2.9 0.1 0.6 0.2 0.9 0.2 1.2v2.1c0 0.3 0.3 0.9 0.4 0.8 0.4-0.1 0.8-0.3 1.1-0.6 0.1-0.1-0.2-0.6-0.4-0.9-0.1-0.1-0.3-0.2-0.4-0.4h2.7l-0.6-1.2c0.7-0.6 0.7-2.1-0.4-2.6-1.6-0.6-2.3-1.6-2.3-3.3 0-0.1-0.4-0.4-0.7-0.4-3.1 0.1-6.2 0.2-9.4 0.3-1.4 0.1-2.9 0.3-4.3 0.5-1.9 0.3-3.1 2-2.9 3.9 0.1 1.3 0.7 1.9 1.6 2zm7.7-3.1h0.2v6.8h-0.2v-6.8z"/>
<path class="elementor-shape-fill" d="m909.3 12.3c3 0 5.9-0.8 8.2-2.7 1.6-1.3 3-2.9 4.3-4.5 1.2-1.4 1.7-3.1 1.6-5-0.1-1.4 0-1.4-1.5-1.5h-4.9-4.9c-0.6 0-1 0.1-1.1 0.9-0.1 0.9-0.7 1.7-1.7 2.1-1.4 0.5-2 1.5-2 2.9 0 2.2 0 4.4 0.1 6.5 0.1 0.8 0.8 1.3 1.9 1.3zm7.7-12h0.2v6.9h-0.2v-6.9zm-6.4 3.5h0.2v6.7h-0.2v-6.7z"/>
<path class="elementor-shape-fill" d="m878.1 50.6c-7.1-0.6-15.1 7.4-12.1 10.4 2 2 6.2 2.2 9.7 0.8 3.4-1.4 6-4.6 4.6-9.3-0.1-1.4-0.7-2-2.2-1.9zm-6.8 10.1c0-1.6-0.1-3.3-0.4-5.4 0.1 1.9 0.2 3.7 0.4 5.4zm6.1-2.4c-0.2-1.9-0.3-3.7-0.3-5.9 0.1 2 0.2 4 0.3 5.9z"/>
<path class="elementor-shape-fill" d="m780.3 10.5c0 1.3 0.6 1.9 1.9 1.9 3.5 0 6.6-1.1 9.1-3.5 1.1-1 2.1-2.2 3-3.4 1.4-1.7 1.9-3.6 1.7-5.8 0-0.7-0.3-0.9-0.9-0.9h-5.4v-0.1h-4.8c-0.7 0-1.1 0.1-1.2 0.9-0.2 1-0.7 1.7-1.7 2.1-1.3 0.5-1.9 1.5-1.9 3 0.3 1.8 0.2 3.8 0.2 5.8zm9.6-10h0.2v6.7h-0.2v-6.7zm-6.4 3.2h0.2v6.8h-0.2v-6.8z"/>
<path class="elementor-shape-fill" d="m811.5 50.2c-5.5 0.8-17.5 6.8-11.5 11.8 2.5 2 6.5 2 9.6 0.3s5.3-5.2 4.3-10.1c-0.1-1.5-0.8-2.1-2.4-2zm-6.8 10.9c-3.7-1.1 1.3-4.1-0.3-6l0.3 6zm6.2-3c0.1-2.1 0.1-4.1-0.2-6.1 0.1 2.1 0.1 4.2 0.2 6.1z"/>
<path class="elementor-shape-fill" d="m844.1 12.3c3.4 0 6.5-1 9.1-3.4 1.1-1 2.1-2.1 3.1-3.2 1.5-1.8 2.2-3.8 1.9-6.1 0-0.3-0.5-0.9-0.7-0.9-3.8-0.1-7.5 0-11.4 0-0.1 1.6-1 2.6-2.5 3.2-0.9 0.4-1.3 1.3-1.3 2.2v6.3c0 1.3 0.6 1.9 1.8 1.9zm7.8-12h0.2v6.9h-0.2v-6.9zm-6.4 3.4h0.2v6.8h-0.2v-6.8z"/>
<path class="elementor-shape-fill" d="m969.4 10.4c0 1.3 0.6 1.9 1.9 1.9 2.9 0.1 5.6-0.7 7.9-2.5 2.6-2 5-4.2 5.9-7.6 0.2-0.9 0.1-2 0.2-3 0-0.8-0.6-0.7-1-0.7h-5.2-5c-0.6 0-0.9 0.2-1 0.8-0.2 1.1-0.8 1.9-1.9 2.3-1.2 0.5-1.8 1.3-1.7 2.7-0.1 2-0.1 4.1-0.1 6.1zm9.6-10h0.2v6.7h-0.2v-6.7zm-6.4 3.3h0.2v6.8h-0.2v-6.8z"/>
<path class="elementor-shape-fill" d="m939.2 50.8c-7.2-1.8-17.2 6.2-12.2 11.2 4 4 18 0 13.9-10.1 0-1.2-0.6-1.5-1.7-1.1zm-6.9 10.5c-4-1.5 0.9-4.5-0.8-5.9 0.2 2 0.5 4 0.8 5.9zm5.6-6.3c0.1 1 0.1 3 0.1 4 0-2-1-3-1-5 0 0 1-11 1.4-0.3-0.2 0.5-0.5 0.9-0.5 1.3z"/>
<path class="elementor-shape-fill" d="m973.9 44.2c1.2-2.2 3.1-3.6 5.2-4.8 0.8-0.4 0.9-0.9 0.4-1.7 0.4 0.1 0.7 0.1 1.1 0.2 0.2-1.4-0.8-1-1.5-1.3 0.6-0.1 1.1-0.3 1.7-0.4-0.2-1.1-0.8-1.5-2-1.2-0.6 0.1-0.9 0.1-1.5-0.3-0.4-0.3-1.2-0.2-1.7-0.1-0.6 0.1-0.9 0.5-0.5 1.1 0.1 0.1-0.2 0.5-0.4 0.9-0.1-0.5-0.2-0.7-0.3-1.2-0.2 0.4-0.3 0.7-0.4 0.9-0.3-0.3-0.7-0.6-1.2-1-0.1 0.5-0.2 0.8-0.3 1.4-0.5-1.8-1.6-1.5-2.9-1.1-0.1-0.4-0.1-0.8-0.2-1.4-0.7 0.4-1.4 0.7-2 1 0 0.1 0.1 0.2 0.1 0.3h0.9c-0.2 0.6-0.3 1.2-0.5 1.9-2.9-0.3-0.2 1.6-1 2.3-0.7-0.6-1.5-1.2-2.3-1.8 0.2-0.4 0.4-0.8 0.5-1.1-0.1 0-0.2 0-0.3 0.1-0.2-0.5-0.4-1.1-0.7-1.5-0.2-0.3-0.7-0.6-1-0.6-0.4 0-0.8 0.3-1.3 0.4l0.6 1.8c-0.9 0.7-2 1.3-1.7 2.9 0.4 0 0.9 0.1 1.1 0.1 0-0.5 0-1 0.1-1.4 0.1-0.2 0.5-0.5 0.7-0.4 0.3 0.2 0.6 0.5 0.7 0.8 0.1 0.2-0.2 0.6-0.4 0.8-0.6 0.5-1.2 1-2.1 0.9-0.2 0-0.5 0.6-0.6 1.2 0.2 0 0.4-0.1 0.6-0.1v1.7c-0.3-0.4-0.6-0.6-0.8-0.9-0.2 0.4-0.5 0.9-0.7 1.4 0.3 0.2 0.6 0.4 0.9 0.7-0.2 0.4-0.3 0.7-0.5 1.2 1.2-0.1 2.3-0.2 3.5-0.3-0.1-0.3-0.1-0.6-0.2-0.9 1.4-0.3 1.1 1.6 2.3 1.6 0.1-0.8 0.3-1.5 0.4-2.4 0.1 0 0.5-0.1 0.9-0.1 0.1-0.5 0.1-0.9 0.2-1.4 0.3 0.8 0.6 1.5 1 2.3l0.4-0.4c1.2 0.9 2.7 0.3 2.8 1.8 0.5 0.1 0.9 0.1 1.3 0.2 0.2-0.8 0.3-1.9 1.6-1.7-0.2 0-0.1-0.2 0-0.4zm-5.8-0.2 0.4-0.4 0.3 0.3c-0.3 0-0.5 0.1-0.7 0.1z"/>
<path class="elementor-shape-fill" d="m981.6 57.6c0.4-3.6-3.6-3.6-5.6-2.6-1.5 1.5-2.2 4-2.1 6.5s1.1 5 3.1 6.5c6 3 9-1 8.9-5.6 0.7-1.9 0.8-3.8-2.5-6.3 0.1 1.5-1.3 1-1.8 1.5zm-1.8 5.8c-0.2-2.2-0.3-4-0.5-5.6 0.1 1.9 0.2 3.7 0.5 5.6z"/>
<path class="elementor-shape-fill" d="m801.2 50.4c-7.2 4.6-21.2 6.6-17.2 12.6 5 8 12 0 15.6-8.8 1.2-1.1 1.6-2.2 1.6-3.8zm-9.7 12.1c-0.2-1.4-0.3-4.1-0.3-6.1 0.1 2.1 0.2 4.2 0.3 6.1z"/>
<path class="elementor-shape-fill" d="m921.7 9.2c-1.3 1.1-1.5 2.4-1.5 3.9 1.4 0.3 2.7 0.3 3.4-1.2 0.2-0.4 0.6-0.6 0.8-1 0.9-1.5 2.2-2.1 4-1.9 4 0.6 6.3-1.7 8.2-4.7 1.2-1.9 2.1-4 2.5-6.4h-12.4c-0.3 1.7-0.5 3.4-1.1 5.1-0.7 2.4-1.9 4.5-3.9 6.2zm8.5-9.2h0.2v6.7h-0.2v-6.7z"/>
<path class="elementor-shape-fill" d="m794.6 9.2c-1.3 1.1-1.5 2.4-1.3 3.9 1.3 0.3 2.5 0.2 3.3-1.1 1.3-2.2 3.1-3.3 5.8-2.9 3 0.5 5-1.5 6.5-3.7 1.3-2 2.1-4.3 3.1-6.5 0.1-0.2 0.1-0.5 0.1-1h-12.4c-0.4 1.8-0.6 3.5-1.1 5.2-0.8 2.4-2.1 4.5-4 6.1zm8.5-9.2h0.2v6.8h-0.2v-6.8z"/>
<path class="elementor-shape-fill" d="m928.1 50.5c-1.3 1.1-3.2 2-5.4 2.9-2.1 0.8-4.4 1.6-6.4 2.4-3.9 1.7-6.4 3.7-3.4 7.2 6 6 11-4 13.8-8.9 1.5-1.4 1.5-1.4 1.4-3.6zm-8.7 11.8c-0.3-2.3-0.4-4.3-1.4-6.3 0 0 1 0 0.6 0.4 0.2 2 0.4 4 0.8 5.9z"/>
<path class="elementor-shape-fill" d="m911.4 28.8h0.1-0.1z"/>
<path class="elementor-shape-fill" d="m947.4 45.2c-0.2 0-0.4 0-0.6-0.1 0.4 1 2.8 1.1 3.4 0.3 0.6 0.2 1.1 0.4 1.9 0.6-0.4-1.1-0.1-2.3-1.6-2.3-0.1 0-0.2-0.2-0.3-0.3-0.2-0.4-0.5-0.8-0.7-1.4 0.3-0.5 0.7-0.7 1.3 0.1 0.8-1.3-0.8-2.9 0.5-3.9-0.4-0.6-0.8-1.1-1.2-1.7-0.3-0.5-0.5-1.1-0.8-1.9 0.1-0.2 0.2-0.6 0.4-1-0.7-0.4-1.2-0.6-1.3 0.5-0.9-0.1-2.1 0.1-2.4-0.3-0.6-0.9-1.4-0.3-1.9-0.4-0.8-0.1-2.1 0.1-2.5 0.7-0.6 0.9-1.3 0.7-1.8 0.9 0-0.5 0.1-1.2-0.1-1.4-0.3-0.3-1-0.4-1.4-0.2-0.4 0.1-0.7 0.1-1.2 0-0.7-0.2-1.5-0.1-2.3-0.1 0 0.1 0 0.3-0.1 0.4 0.4 0.2 0.7 0.4 1.3 0.7 0.2-0.3 0.3-0.5 0.6-0.9l0.8 0.8c-0.9 0-1.5 0.1-1.2 0.9-0.7 0.1-0.6-1.5-1.7-0.6 1 0.6 1.6 1.7 3.1 1.4 0.4-0.1 1.1 0.6 1.8 0.8-0.3-0.3-0.7-0.6-1.1-1 0.6 0.1 1 0.1 1.5 0.2 0.3 1.5 0.9 1.9 3 1.8 0-0.5 0.1-1 0.1-1.6 0.7 1.5-0.3 3.2 0.9 4.5-0.9 1-1 3 0 4.5 0.1-0.5 0.1-0.8 0.2-1.1 0.3-0.1 0.7-0.2 1-0.4 1.1-0.4 2.1 0.1 2.4 1.5zm0.3-10.4 1.2 1.2c-0.3 0.1-0.6 0.2-0.8 0.2-0.3-0.4-0.5-0.8-0.8-1.1 0.2-0.1 0.3-0.3 0.4-0.3z"/>
<path class="elementor-shape-fill" d="m989.3 45.6c0.5-0.9 0.5-0.9 3.4-1.3 0.2-1.2 0.2-2.4-0.8-3.3l-0.6 0.9c-0.1 0-0.2 0-0.3-0.1-0.1-0.5-0.2-1-0.3-1.4-0.9 0.2-1.9 0.3-3 0.5 0 0.2-0.1 0.6-0.2 1.2 0.5 0.1 0.9 0.3 1.4 0.4v0.3c-0.7 0.1-1.5 0.2-2.2 0.3l0.1 0.1c-0.5 0.2-0.9 0.4-1.5 0.6 0.2 0.6 0.5 1.2 0.7 1.7 0-0.1 0.1-0.1 0.1-0.2 0.6 0.5 1.3 1 1.9 1.5l-0.4 0.4c-0.3-0.3-0.6-0.6-0.9-1-0.4-0.1-1-0.2-1.8-0.3 0.2 0.5 0.2 1 0.4 1.3 0.6 0.7 0.7 1.1-0.3 1.3-0.3 0.1-0.6 0.1-0.8 0.2 0.1 0.2 0.3 0.5 0.4 0.7 1.9 0.1 3.8 0.3 5.4 0.4 0.1-0.6 0-1.1 0.2-1.4 0.8-0.8 0.3-2.4-0.9-2.8z"/>
<path class="elementor-shape-fill" d="m987.7 53z"/>
<path class="elementor-shape-fill" d="m986.1 52.6c-0.1 0.4 0.9 1.4 0.9 1.4-3-2-6-3-10-1 2 2 4 1 6 1 1 1-2 1-1 2 1 0 3-1 5-1 0 1-1 1-1 2 1 0 3 1 4-1-3 0-1-4-3.6-3.7l-0.3 0.3z"/>
<path class="elementor-shape-fill" d="m968.4 53c-4.4 1.9-5.4-6-6.4-4-2 3 0.1 6.9 7.2 6.8l-1-0.9c1 0 2 0 3-1-1 0-1-1-1.6-1.4-0.4-0.1-0.8 0.3-1.2 0.5z"/>
<path class="elementor-shape-fill" d="m996.3 60.1c-0.3-0.1 0.7-1.1 0.7-1.1-2 2-3-2-4-2-1 1-2 4-1 6 2 3 4 0 5.1-2.3-0.3-0.3-0.6-0.4-0.8-0.6z"/>
<path class="elementor-shape-fill" d="m833.6 7.5c-0.4 0.4-0.5 1.1-0.7 1.6-0.3 0-0.7-0.1-1-0.1 0 0.1-0.1 0.1-0.1 0.2 1.1 0.7 0.8 3 3 2.5 0.1 0.3 0.1 0.6 0.2 0.6 0.3 0 0.5 0 0.8-0.1 0.2-0.1 0.4-0.3 0.6-0.4 0.1 0.2 0.2 0.5 0.3 0.5 0.4 0.1 0.8 0.1 1.1 0 0.3-0.2 0.3-0.6 0.4-0.9-0.8-0.5-1.4-0.8-2.2-1.3 0.3-0.6 0.5-1.3 0.8-2-0.3 0-0.7 0.1-1.2 0.2v2.3h-0.4v-4.1c-0.7 0.4-1.3 0.6-1.6 1z"/>
<path class="elementor-shape-fill" d="m972.2 49.3c-0.7 0-1.3 0.1-1.9 0.1-0.2-1.3 0.4-1.9 2.1-2.2-0.8-0.9-1.4-0.6-2.9 1l-0.9-0.9c-0.1 0.6-0.1 1.1-0.2 1.8h-2.4c0.3 0.5 0.6 1.1 1 1.8 0.3-0.2 0.7-0.3 1-0.5 0.3 0.4 0.6 0.7 0.9 1.1 0.1 0 0.1-0.1 0.2-0.1 0-0.3-0.1-0.5-0.1-1.1 1.1 0.6 2 1.2 3.2 1.9 0.2-1.4 0.3-2.8 0.5-4.3-0.5 0.2-0.8 0.3-1.3 0.4 0.2 0.3 0.4 0.6 0.8 1z"/>
<path class="elementor-shape-fill" d="m933.8 26.8c-0.1 0.3-0.3 0.9-0.5 1.6h6.3c-0.3-0.5-0.4-0.9-0.7-1.1-0.1-0.1-0.5 0.2-0.8 0.3-0.2 0.1-0.4 0.1-0.8 0.1 0.4-0.6 0.6-0.9 1-1.4-1.6 0.2-2.9 0.4-4.5 0.5z"/>
<path class="elementor-shape-fill" d="m929.1 24.7c-0.6-0.3-0.8 0.2-0.7 1l0.3 2.7c0 0.1 0.2 0.2 0.3 0.2s0.3-0.1 0.3-0.2c0.2-1.3 1.3-1.1 2.2-1.3-0.3-1.1-0.6-2.1-0.9-3.4-0.5 0.3-0.9 0.6-1.5 1z"/>
<path class="elementor-shape-fill" d="m956.2 37.9c0-0.4-0.3-1-0.5-1-1.2-0.1-1.3-1-1.5-1.9 0-0.2-0.1-0.4-0.1-0.8-1 0.6-1.9 1.2-3 1.8 0.8 0.4 1.7 0.7 2.6 1.1 0.1-0.2 0.1-0.3 0.2-0.6 0.6 0.3 1.2 0.6 1.9 1-0.7-0.1-1.2-0.1-1.8-0.2 0 1.1 0.8 1.1 1.4 1.1 0.3 0.1 0.8-0.4 0.8-0.5z"/>
<path class="elementor-shape-fill" d="m959 45.6c-0.1 0-0.2 0-0.4-0.1 0.1 1.6-1.3 0.5-1.8 1.1 2.8 2.4 5 2.8 6.4 1-1.6 0.8-2.6-0.6-3.8-0.6-0.2-0.5-0.3-0.9-0.4-1.4z"/>
<path class="elementor-shape-fill" d="m996.3 43.7c-0.4 0.2-0.7 0.9-1 1.4-0.1-0.1-0.3-0.1-0.3-0.2-0.5-0.7-0.5-0.7-1.1 0-0.1 0.1-0.4 0-0.7 0.2 0.7 0.4 1.5 0.8 2.4 1.4 0.9-0.4 1.9-1.1 2.3-2.5-0.5-0.2-1.1-0.5-1.6-0.3z"/>
<path class="elementor-shape-fill" d="m981.8 46.8c-0.7-0.2-1-0.6-0.5-1.3s0.4-1.2-0.4-1.6c0.9-0.5 0.6-0.9-0.2-1.5-0.2 0.9-0.4 1.6-0.5 2.4-0.1 0.9 0 1.7 0 2.6-0.1 0.8 0.4 1.2 1.3 1.4v-1.1c0-0.2 0.1-0.5 0.3-0.9z"/>
<path class="elementor-shape-fill" d="m899.7 29c-0.3-0.3-0.6-0.6-0.7-0.9s0-0.6 0.1-1c-1.9-0.9-1.9-0.9-2.7-0.5 0.3 3.1 0 2.4 3.3 2.4z"/>
<path class="elementor-shape-fill" d="m893.3 23.6c-0.1 1.4 1.5 2.4 3 2.2 0.3-1.7-0.6-2.3-3-2.2z"/>
<path class="elementor-shape-fill" d="m954.6 42.8c-0.6-0.7 0-1.8-1.1-2.1-0.3-0.1-0.8 0-1.1 0.1v0.3c0.2 0.2 0.5 0.3 0.8 0.6-0.3 0.5-0.5 0.9-0.9 1.6 0.8-0.2 1.4-0.3 2.3-0.5z"/>
<path class="elementor-shape-fill" d="m964.4 36.1c0.7 0.1 1.4 0.2 2.2 0.3 0.4-1.1-1.9-0.6-1-1.9-1.2-0.1-1.3 0.1-1.2 1.6z"/>
<path class="elementor-shape-fill" d="m993.2 42.1c-0.1 0.1 0 0.3 0 0.5 0 0.6 0 1.1 0.1 1.7 0.1-1.4 1-2.2 2-3-0.3-0.1-0.6-0.4-0.7-0.3-0.6 0.2-1 0.7-1.4 1.1z"/>
<path class="elementor-shape-fill" d="m942.9 40.3v-1.3c-0.4-0.2-0.9-0.4-1.3-0.5-0.7 0.9-0.3 1.5 1.3 1.8z"/>
<path class="elementor-shape-fill" d="m983.9 45.9c-0.2 0-0.4-0.1-0.7-0.2-0.1 0.5-0.3 1-0.4 1.5 0.4 0.3 0.8 0.6 1.3 0.9-0.2-0.7-0.2-1.4-0.2-2.2z"/>
<path class="elementor-shape-fill" d="m989.4 54c-1.4 0 0.6-3-1.7-0.9 0.7 0.2 0.6 1.4 1.7 0.9z"/>
<path class="elementor-shape-fill" d="m896.4 24c0.7 0.5 1.5 0.9 2.3 1.5-0.3-1.4-1-1.9-2.3-1.5z"/>
<path class="elementor-shape-fill" d="m986.7 35.7c-0.8 0.7-1.4 1.1-2.2 1.7 1.4 0.3 1.8 0 2.2-1.7z"/>
<path class="elementor-shape-fill" d="m999.8 45.8v-0.3c-0.4-0.1-0.9-0.5-1.3-0.4s-0.7 0.6-1 0.9l0.3 0.3c0.7-0.1 1.4-0.3 2-0.5z"/>
<path class="elementor-shape-fill" d="m967.1 46.8c0.3 0.2 0.6 0.4 1 0.6 0.1-0.5 0.1-0.9 0.1-1.3-0.7-0.5-1-0.1-1.1 0.7z"/>
<path class="elementor-shape-fill" d="m951.5 33.5h-1.3c0.1 0.2 0.2 0.5 0.3 0.7-0.2 0.1-0.4 0.3-0.6 0.5 1.1 0.2 1.3-0.5 1.6-1.2z"/>
<path class="elementor-shape-fill" d="m942 27.1c-0.1-0.2-0.2-0.5-0.4-0.5s-0.5 0.2-0.5 0.3c-0.1 0.2 0 0.5 0.2 0.7 0.3 0.3 0.7 0.5 1.3 1-0.1-0.4-0.2-0.6-0.3-0.8-0.1-0.3-0.2-0.5-0.3-0.7z"/>
<path class="elementor-shape-fill" d="m932.8 28.2c0-0.1 0-0.2-0.1-0.4l-1.2-0.3c-0.1 0.3-0.1 0.6-0.2 1.2 0.6-0.2 1-0.3 1.5-0.5z"/>
<path class="elementor-shape-fill" d="m962.2 47.3c-0.1-0.4-0.2-0.8-0.4-1.2 0-0.1-0.3-0.1-0.6-0.2 0.2 0.3 0.3 0.5 0.4 0.7l0.3 0.9c0.1-0.1 0.3-0.2 0.3-0.2z"/>
<path class="elementor-shape-fill" d="m981.9 49c0.5 0.3 1.1 0.7 1.6 1 0.1-0.1 0.2-0.3 0.3-0.4-0.5-0.3-1-0.7-1.6-1 0 0.1-0.2 0.2-0.3 0.4z"/>
<path class="elementor-shape-fill" d="m838.5 8.5c-0.1-0.1-0.2-0.3-0.3-0.4-0.4 0.3-0.7 0.5-1.3 0.9 1 0.4 1.4 0.1 1.6-0.5z"/>
<path class="elementor-shape-fill" d="m997.4 43.3c0.3 0 0.7-0.3 1.1-0.5-0.1-0.1-0.1-0.2-0.2-0.4h-1.2c-0.2 0.3-0.3 0.8 0.3 0.9z"/>
<path class="elementor-shape-fill" d="m942.8 28c0.5 0.2 0.9 0.3 1.4 0.5 0.1-0.2 0.1-0.4 0.2-0.6-0.5-0.1-0.9-0.2-1.4-0.3 0 0-0.1 0.3-0.2 0.4z"/>
<path class="elementor-shape-fill" d="m909.5 25.7-0.3 0.3c0.6 0.8 1.3 1.6 1.9 2.3 0.1-0.1 0.2-0.1 0.3-0.2-0.1-1.2-1.3-1.5-1.9-2.4z"/>
<path class="elementor-shape-fill" d="m907.8 21.9c1.2-0.7 0.5-1.3 0-2.1v2.1z"/>
<path class="elementor-shape-fill" d="m240.6 10.8c-0.2 1.7-1.1 2.9-2.5 3.9-1 0.7-1.9 1.3-3 2 1.6 1.3 2.8 2.9 3.2 5 0.4 1.7 0.5 3.5 0.7 5.2 0.1 1.6 0.6 2.1 2.1 2.1h8.9s0 0 0 0h8.9c1.5 0 2-0.6 2.1-2.1 0.1-1.8 0.3-3.5 0.7-5.2 0.4-2 1.7-3.7 3.2-5-1-0.7-2-1.3-3-2-1.3-1-2.2-2.2-2.5-3.9-0.3-2.4-2.7-3.7-5.3-3.2-1.7 0.3-3 1.3-4.1 2.6-1.1-1.3-2.4-2.3-4.1-2.6-2.6-0.5-5 0.8-5.3 3.2zm14.3 3.7h0.2v6.8h-0.2v-6.8zm-9.9 0h0.2v6.7h-0.2v-6.7z"/>
<path class="elementor-shape-fill" d="m3 11.5c1.5-0.1 3 0 4.5 0h6c0.1-0.2 0.1-0.2 0.1-0.3v-0.7c0.3-1.9-0.3-3.4-1.8-4.8-1.7-1.4-2.8-3.3-2.9-5.6-0.1-2-0.4-3.9-0.6-5.9-0.4 0-0.8-0.1-1.2-0.1-2.4 0-4.7-0.1-7.1-0.1v14.4c0.5 0.8 0.9 1.5 1.4 2.3 0.3 0.6 0.8 0.9 1.6 0.8zm-0.2-11.8h0.2v6.3h-0.2v-6.3z"/>
<path class="elementor-shape-fill" d="m1.6 40.6c-0.1 0.3-0.3 0.6-0.4 1l0.2 0.2c0.4-0.3 0.7-0.6 1.1-0.9 0.2-0.1 0.5-0.1 0.7-0.1 0 0.2-0.1 0.5-0.1 0.7-0.1 0.3-0.1 0.5-0.2 0.8 0.6 0.8 1.7 0.4 2.4 0.9l0.2-0.2c-0.3-0.6-0.5-1.2-0.8-1.8-0.2-0.6-0.1-0.6 0.3-0.6 0.6 0 1.1 0.1 1.8 0.2-0.1-0.6-0.1-1.2-0.2-1.8 1.7 0.4 2.5 0.2 3.2-1.2-0.3-0.1-0.5-0.1-0.8-0.2v-0.3h1.9c-0.4 0.8-0.7 1.3-1.1 2 1.2-0.5 2.1-0.8 3.1-1.2-0.6-0.4-1.3-0.8-1.7-1 0.3-0.8 0.7-1.4 0.7-2 0-0.3-0.8-0.5-1.3-0.8-0.3-0.2-0.7-0.2-1.1-0.3-1.4-0.3-1.6-0.2-2.3 1.1-0.1 0.2-0.3 0.4-0.4 0.5-0.5-0.1-0.9-0.2-1.3-0.3-0.2-0.1-0.4-0.2-0.7-0.3 0.1-0.2 0.2-0.5 0.3-0.6 0.2-0.2 0.5-0.2 0.7-0.3l0.7 0.7 0.3-0.3c-0.2-0.2-0.5-0.5-0.7-0.5h-3.3c-0.5 0-0.9 0.1-1.4 0.2 0 0.1-0.1 0.2-0.1 0.3 0.4 0.4 0.9 0.8 1.3 1.2 0.3 0.4 0.6 1.4 0.5 1.4-1 0.6-1.6 2.1-3.1 1.4v1.9c0.7-0.8 0.8-0.8 1.6 0.2zm7.7-6.2c0.4 0.4 0.9 0.8 1.1 1.2 0.1 0.3-0.1 0.8-0.2 1.3h-0.3c-0.1-0.6 0.5-1.6-0.9-1.4 0.1-0.4 0.1-0.7 0.3-1.1z"/>
<path class="elementor-shape-fill" d="m5.2 25.9c0-0.2-0.1-0.5-0.2-0.6-1.6-1-3.3-2-5-2.9v6.7h5.2v-3.2z"/>
<path class="elementor-shape-fill" d="m0 59.4v3.6h3s-1 0-0.6-0.4c-0.8-1.1-1.6-2.1-2.4-3.2z"/>
<path class="elementor-shape-fill" d="m2.4 53.3c0-0.1 0-0.2 0.1-0.3-0.5-0.1-1.1-0.1-1.5-0.4s-0.6-0.7-1 0v3.3c0.3-0.7 0.5-1.4 0.9-2.3 0.3 0 0.9-0.1 1.5-0.3z"/>
<path class="elementor-shape-fill" d="m1.5 56.8c-0.4 0.2-0.9 0.4-1.5 0.6v1.7c0.5 0.3 1 0.6 1.5 0.8v-3.1z"/>
<path class="elementor-shape-fill" d="m1.1 37.3c0.4-0.4 1.3-0.5 0.8-1.2h-1.9v0.8c0.4 0.2 0.5 1 1.1 0.4z"/>
<path class="elementor-shape-fill" d="m0.9 40.2c-0.3 0.2-0.6 0.5-0.9 0.7v0.8c1.2-0.2 1.3-0.5 0.9-1.5z"/>
<path class="elementor-shape-fill" d="m146 49.9c0.3 0 0.6 0 0.9-0.1 0-1.8 0.1-3.6 0-5.3-0.2-2.2-1.5-4-2.9-5.6-2.7-3.1-5.8-5-10.2-4.9-8.5 0.2-16.9 0.1-25.4 0-0.7 0-1.1 0.1-1.2 0.9-0.2 0.8-0.5 1.6-0.8 2.5l-2.4-0.3c-1.2 3.7 0.6 7.9 4.9 9.2 2.2 0.7 4.4 0.5 6.7 0.5 4.2-0.1 8.4 0.1 12.7 0 2.6 0 4.8 0.9 6.7 2.5 0.3 0.3 0.8 0.5 1.3 0.5 3.1 0.1 6.4 0.1 9.7 0.1zm-33.4-6h-0.3v-6.7h0.3v6.7zm10.5 0h-0.2v-6.6h0.2v6.6zm11.1 2.1h-0.2v-6.9h0.2v6.9z"/>
<path class="elementor-shape-fill" d="m143.1 13.5c-0.2-0.2-0.5-0.3-0.7-0.3h-11.2c0 1.2 0.1 2.3 0 3.3-0.2 2.6 0.6 4.8 2.2 6.7 1.1 1.3 2.3 2.6 3.6 3.7 1.8 1.5 3.9 2.2 6.3 2.2 8.4-0.1 16.8 0 25.2 0 2.2 0 2.2 0 2.8-2.1 0.3-1 0.6-1.5 1.7-1.1 0.3 0.1 0.8 0.1 1.2 0.1 0.5-1.5 0.5-2.9 0-4.3-1-3.4-4.1-5.5-8.2-5.5-5.3 0-10.7-0.1-16 0-2.6 0.1-4.9-0.9-6.9-2.7zm-5.1 4.8c-0.5-0.2-1-0.3-1.5-0.5 0-0.1 0.1-0.3 0.1-0.4 0.5 0 0.8-1.1 1.4-0.2 0.1 0.3 0 0.7 0 1.1zm2.4-0.8c-0.6-0.1-1.2-0.3-1.8-0.4 0-0.2 0.1-0.4 0.1-0.6 0.6 0.2 1.2 0.3 1.8 0.5-0.1 0.1-0.1 0.3-0.1 0.5zm2.4 3.5c-0.1 1.2 0 2.4 0 3.6h-0.3v-6.9c0.4 1 0.3 2.2 0.3 3.3zm23.3-1.7h0.2v6.7h-0.2v-6.7zm-11.7 0h0.2v6.8h-0.2v-6.8z"/>
<path class="elementor-shape-fill" d="m44.7 25.6c0.8 0.1 1.6 0.2 2.7 0.4 0-1.3 0.2-2.5 0-3.6-0.7-3.5-3.8-6.1-7.4-6.1-5.9-0.1-11.7-0.1-17.6-0.1-2.4 0-4.4-1-6.2-2.5-0.3-0.3-0.8-0.5-1.2-0.5h-9.9c-0.3 0-0.6 0-0.8 0.1 0 2-0.4 4 0.1 5.8 1.2 4.6 4.4 7.6 8.6 9.5 0.8 0.4 1.8 0.9 2.8 0 0.2-0.2 0.9 0.4 1.3 0.3s0.6-0.7 0.9-1.1c0.2-0.3 0.6-0.5 0.7-0.9 0.4-1 1.3-1.2 2.2-0.4-0.3 0.3-0.6 0.5-1 0.8 0.5 0.3 0.8 0.5 1.1 0.6 0 0.1-0.1 0.2-0.1 0.3-0.7-0.2-1.5-0.4-2.6-0.7 0.3 0.6 0.5 1.3 0.7 1.3 1.3 0 2.6-0.1 3.9-0.3 1-0.2 2-0.6 3.1-1 0 0.6 0.1 1 0.1 1.3 0.4-0.1 1-0.4 1.1-0.3 0.6 0.8 1.4 0.3 2.1 0.4 1 0.1 1.2-0.3 1-1.5-0.4 0.1-0.8 0.2-1.1 0.2l-0.1-0.1c0.6-0.4 1.2-0.9 1.9-1.3v2.8h6.3c0.9 0 1.9 0.2 2.2-1.3 1.2 2 2.8 1 4.3 1.3 0.2-1.1 0.6-2.2 0.9-3.4zm-29.2-1h-0.2v-6.9h0.2v6.9zm11.9 1.5h-0.2v-6.8h0.2v6.8zm11.6 0v-6.8c0.5 0.5 0.6 5.5 0 6.8z"/>
<path class="elementor-shape-fill" d="m197 46.9c2-0.1 3.7 0.2 4.8 2 0.2 0.3 0.5 0.7 0.8 0.8 0.7 0.3 1.5 0.7 2.3 0.7 0.5 0 1.3-0.5 1.4-0.8 0.1-1.4 0.3-2.9-0.1-4.2-1.3-3.8-3.4-7.1-6.6-9.7-1.9-1.5-3.8-2.5-6.4-2.4-2.8 0.2-5.7 0-8.5 0h-10.5c-0.7 0-1.1 0.3-1.1 0.9 0 1.7-0.8 2.6-2.4 2.8h-0.1c-0.8 0-0.8 0.5-0.8 1.1 0 3 1.5 5.2 3.7 7 0.5 0.4 1.4 0.6 2.1 0.7 3.1 0.1 6.1 0 9.2 0 2.4 0 4.8-0.1 7.2 0.7 1.4 0.7 3.3 0.5 5 0.4zm-0.3-9.9h0.2v6.9h-0.2v-6.9zm-12.7 6.2h-0.2v-6.7h0.2v6.7z"/>
<path class="elementor-shape-fill" d="m233.8 25.2c0.4-3.1-1-5.5-3.1-7.5-0.8-0.8-1.9-1.2-3-1.1-3.4 0.1-6.9 0.1-10.3 0.1-1.1 0-2.4 0.2-3.4-0.2-2.2-0.9-4.5-1-6.8-0.8-2.4 0.2-4.4-0.2-5.8-2.5 0-0.1-0.1-0.1-0.1-0.1-0.8-0.9-1.8-1.1-3-0.9-0.4 0.1-1.1 0.5-1.1 0.7-0.1 1.4-0.3 2.9 0.1 4.2 1.6 4.5 4.2 8.4 8.4 11 1 0.6 2 0.9 3.2 0.9h18.2 3c0.1-0.3 0.3-0.6 0.3-0.9 0-1.5 0.7-2.4 2.3-2.6 0.4-0.1 0.8-0.2 1.1-0.3zm-27 0.2h-0.2v-6.8h0.2v6.8zm12.8 0.6h-0.2v-6.6h0.2v6.6z"/>
<path class="elementor-shape-fill" d="m97.1 52c0.1-0.5 0.4-1.1 0.7-1.5 1.2-1.7 2.9-2.7 4.7-3.6 0-0.1 0-0.2-0.1-0.2l-0.5-0.5c-1.6-1.4-2.5-3.2-2.9-5.3-0.2-1.5-0.4-3-0.5-4.5-0.2-1.5-0.6-1.9-2.1-1.9h-11.8-6.9c0 1.3-0.3 2.6 0.1 3.6 0.2 0.6 1.4 0.9 2.1 1.3 0.4 0.2 0.8 0.5 1.2 0.8 3.9 2.3 5.5 5.8 5.6 10 0.1 3.4 3.1 5.7 6.2 5.5 2.8-0.2 3.8-1.1 4.2-3.7zm-4.5-2.7v-6.8h0.2c0 2.2 0 4.5-0.2 6.8z"/>
<path class="elementor-shape-fill" d="m225.6 49.8c1.2-1.1 2.6-2.1 3.9-3.1-1.5-1.3-2.8-3-3.3-5.1-0.4-1.7-0.5-3.5-0.7-5.2-0.1-1.4-0.6-1.8-1.9-1.8h-12.2-6.6c0 0.6 0.1 1.1 0 1.5-0.3 1.6 0.3 2.5 1.9 3.2 2.2 1 4.2 2.4 5.5 4.7 1.2 2.1 1.7 4.3 1.8 6.6 0 2.5 2.1 4.7 4.5 5.2 3.1 0.7 5.2-0.6 5.8-3.7 0.2-0.9 0.6-1.8 1.3-2.3zm-5.8-0.5h-0.2v-6.7h0.2v6.7z"/>
<path class="elementor-shape-fill" d="m164.9 52.8c0.1-0.9 0.5-2 1.1-2.6 1.2-1.3 2.7-2.4 4.1-3.5-0.8-1.1-1.8-2.2-2.5-3.5-1.1-2.1-1.3-4.3-1.3-6.6 0-1.6-0.5-2.1-2.1-2.1h-11.8-6.7c-0.1 0.2-0.1 0.3-0.1 0.4v2.4c-0.1 0.8 0.2 1.2 0.9 1.5 5.1 2.3 8 6.1 8.2 11.9 0.1 4.3 4.6 6.5 8.5 4.7 1.1-0.6 1.5-1.4 1.7-2.6zm-4.3-3.5h-0.2v-6.9h0.2v6.9z"/>
<path class="elementor-shape-fill" d="m179.4 10.5c-0.1 0.5-0.2 1.1-0.5 1.5-1.2 1.9-2.9 3-4.7 3.8 1 1.6 2.2 3 2.8 4.6 0.6 1.9 0.7 4 0.9 6 0.1 1.4 0.5 1.9 1.9 1.9 4.5 0.1 8.9 0.1 13.4 0.2h5.3c0-0.6-0.1-1.1 0-1.5 0.3-1.7-0.2-2.8-1.9-3.3-0.5-0.2-1-0.5-1.4-0.8-3.2-1.9-5-4.7-5.5-8.4-0.1-1-0.1-2.1-0.3-3.1-0.6-2.9-3.3-5-7.2-4.3-1.8 0.5-2.5 1.4-2.8 3.4zm3.5 2.5h0.2v6.9h-0.2v-6.9z"/>
<path class="elementor-shape-fill" d="m113.1 10.7c0 0.7-0.3 1.4-0.6 1.9-0.8 1.6-2.3 2.5-3.8 3.3-0.9 0.5-1 0.9-0.3 1.6 1.3 1.1 2 2.5 2.4 4.1 0.1 0.3 0.5 0.6 0.8 0.7 1 0.2 2 0.3 3.1 0.5 0.8 0.1 1.8-0.4 1.6-1.2-0.1-0.4-0.8-0.6-1.2-0.9-0.1-0.1-0.4 0-0.6 0 0.9-1.2 1.8-0.7 2.9 0.3v-6.6h0.3c0 1.8 0.1 3.5 0 5.3 0 0.9 0.3 1.3 1.1 1.4 1.4 0.3 2.3-0.4 3.2-1.2 0.7 0.2 1.4 0.3 2 0.5v1.5c-0.1-1.1-0.2-1.2-1.2-0.9-0.4 0.1-0.9 0.1-1.3 0.1-0.4 0.4-0.9 0.7-1.4 0.7-0.7 0.1-1 0.4-0.8 1.1 0.1 0.4 0.4 0.8 0.6 1.3 0.2 0.3 0.3 0.6 0.5 0.9-0.9-0.3-1.7-0.6-2.4-0.8 0.2-0.3 0.4-0.6 0.7-0.8-0.9-0.2-1.6-0.3-2.6-0.5-0.8 0.3-1.8 0.8-2.8 1.2-0.1-0.4-0.3-0.8-0.4-1.3-0.4 0.6-0.6 0.9-0.9 1.3 0.1 0.1 0.3 0.3 0.6 0.5-1.3 0.7-1.1 1.9-0.9 3 0.2 1.2 0.5 1.5 1.8 1.5h17.8c0.3 0 0.7 0 1.1-0.1v-2.7c0-0.6-0.2-1-0.8-1.3-2-1-4-2.2-5.6-3.9-0.1-0.2-0.4-0.2-0.7-0.3 0.1 0 0.2 0 0.2-0.1-0.4-0.7-0.8-1.4-1.2-2.2h-0.2c0-0.3 0.1-0.6 0-0.9-0.3-1.6-0.7-3.1-0.8-4.7-0.3-4.1-4.2-6.6-8.2-5.1-1.1 0.5-1.9 1.4-2 2.8zm0.3 10.2c-0.8 0.1-1.7 0.3-1.9-0.6h2.5c-0.3 0.3-0.4 0.6-0.6 0.6z"/>
<path class="elementor-shape-fill" d="m52.4 10.3c-0.2 0.9-0.6 1.9-1.2 2.6-1.2 1.2-2.7 2.3-4.1 3.4 0.1 0.1 0.3 0.4 0.6 0.6 1.5 1.4 2.4 3.1 2.7 5.1 0.2 1.4 0.3 2.9 0.4 4.3s0.5 1.8 1.8 1.8c0.1 0 0.1 0.1 0.2 0.1 0.8 0.1 1.7 0.2 2.6 0.3-0.2-1.6 1.1-1.3 1.8-1.7-0.7-1.3-1-2.6 0.2-3.8 0.1 0.6 0.3 1.4 0 1.9-0.4 0.6-0.4 1 0 1.5 0.6-0.1 1.2-0.2 1.8-0.2-0.3-0.4-0.5-0.7-0.6-0.8 0.5-0.3 1-0.5 1.6-0.8 0.2 0.4 0.3 0.9 0.5 1.4 0.2-0.2 0.4-0.4 0.5-0.6l0.2 0.2c-0.2 0.4-0.4 0.8-0.6 1.1 0 0.1 0.1 0.1 0.1 0.2 0.5-0.4 1-0.7 1.5-1.1-1.4-1.1-1.4-1.3-0.2-2.7 0.3 0.2 0.6 0.5 0.9 0.7-0.1 0.1-0.1 0.2-0.1 0.3 0 0.3 0.1 0.6 0.1 0.9 0.2-0.2 0.5-0.4 0.6-0.6s0.1-0.4 0.2-0.6c0.2-0.3 0.5-0.4 0.8-0.7 0.1 0.3 0.4 0.5 0.4 0.8 0 0.5-0.2 0.9-0.3 1.4h-0.2c-0.1-0.3-0.1-0.5-0.2-0.8-0.4 0.5-0.6 1-0.6 1.6 0 0.1 0.7 0.5 0.8 0.4 0.8-0.7 1.5-0.7 2 0.3 0 0.1 0.2 0.1 0.2 0.1 1.3-0.7 1-1.6 0.6-2.6-0.2-0.4-0.1-0.9-0.2-1.4 0.1 0 0.2-0.1 0.3-0.1-3.3-2.5-4.2-4.5-4.8-7.8-0.2-1.2-0.1-2.5-0.4-3.7-0.7-3-4-4.7-7.2-3.9-1.8 0.4-2.3 1-2.7 2.9zm3.4 2.8h0.2v6.8h-0.2v-6.8z"/>
<path class="elementor-shape-fill" d="m180.7 50.3c-4.3-1.6-8.5-1-11.6 1-5.1 1.7-6.1 7.7-4.1 9.7 3 5 10 4 15 1.9 3-0.9 4-5.9 2.9-10.5 0-1.4-0.8-2.1-2.2-2.1zm-8.8 10.7c0.1-2 0.1-5 0-6.6v6.6zm7.5-2.1h-0.1v-6.6h0.1v6.6z"/>
<path class="elementor-shape-fill" d="m114.2 50.7c-4.6-0.8-8.1-0.5-11 1-4.2 2.3-9.2 6.3-6.2 9.3 4 5 13 4 18.3-1.4 1-1.7 1.5-3.9 1.1-6.7 0-1.5-0.7-2.2-2.2-2.2zm-8.8 10.7c-0.4-2.4-0.4-4.4 0-6.6v6.6zm7.4-2.1v-6.7h0.2c0 2.3 0 4.5-0.2 6.7z"/>
<path class="elementor-shape-fill" d="m97.9 12.3h9.7c2.4 0 3.3-0.8 3.2-3.2 0-1 0.1-1.8 0.9-2.4 0.2-0.1 0.3-0.3 0.5-0.5 0.6-0.9 1.4-1.4 2.5-1.6 1.2-0.2 1.7-0.9 1.7-2 0.1-1.9-1-3.4-2.9-3.6-3.1-0.4-6.3-0.6-9.4-0.8-1.6-0.1-3.2 0-4.9 0 0 1.7-0.5 3-2.3 3.6-0.8 0.3-1.1 1.2-1 2.1v6.4c0 1.3 0.8 2 2 2zm9.1-10.7h0.2v6.7h-0.2v-6.7zm-7.6 2.1h0.2v6.7h-0.2v-6.7z"/>
<path class="elementor-shape-fill" d="m225 12.3h5.2c1.6 0 3.2-0.1 4.8 0 1.7 0.1 3.1-1.1 2.9-2.9-0.1-0.6-0.2-1.4 0.2-1.8 1.1-1.2 1.9-3 3.9-3.1 0.8-0.1 1.3-0.5 1.5-1.4 0.4-2.2-0.7-4-2.9-4.2-4.5-0.4-9-0.6-13.5-0.9-0.8-0.1-0.9 0.5-0.9 1.1 0 1.2-0.5 1.9-1.7 2.3-0.9 0.3-1.5 1-1.5 2v6.8c0 1.4 0.7 2.1 2 2.1zm9-10.7h0.2v6.7h-0.2v-6.7zm-7.5 2.1h0.2v6.8h-0.2v-6.8z"/>
<path class="elementor-shape-fill" d="m243.9 52.7c-3.9-3.7-9.9-2.7-12.9-0.7s-4 6-8 8c6 5 18 7 20.9-0.9v-6.4zm-10.9 8.4v-6.5c-0.1 2.3-0.1 4.4 0 6.5zm7.4-2c-0.4-2.2-0.4-4.1 0-6.5v6.5z"/>
<path class="elementor-shape-fill" d="m34 10.2c0 1.5 0.7 2.1 2.2 2.1h5c1.4 0 2.8-0.1 4.2 0 2.8 0.2 3.7-1.1 3.5-3.5 0-0.4-0.1-1 0.1-1.2 1.1-1.2 1.9-2.9 3.9-3.1 0.8-0.1 1.3-0.6 1.5-1.4 0.5-2.1-0.8-4-2.9-4.2-4.5-0.3-8.9-0.4-13.4-0.7-0.7 0-1 0.3-1 1 0 1.3-0.5 2.1-1.8 2.5-1 0.3-1.4 1.1-1.4 2.2 0.1 2 0.1 4.2 0.1 6.3zm11-8.6h0.2v6.7h-0.2v-6.7zm-7.6 2h0.2v6.9h-0.2v-6.9z"/>
<path class="elementor-shape-fill" d="m55.4 51.1c-0.2 0.2-0.3 0.4-0.6 0.7 0.2-1.4 0.1-1.6-1.2-1.6h-2.3-3.7c-0.4 0-1-0.1-1 0-0.1 0.6-0.1 1.2-0.2 1.8 0 0.5 0.2 1.1 0 1.6-1.4 0.4-2.4 0.4-2.4-0.2 1.4-1.2 1.7-1.8 1.2-3.1h-0.9c-2.4-0.1-3.4 0.8-3.3 3.1 0 3.6-6 4.6-5 6.6 2 6 12 5 18.3 1.6 2.1-2.2 3-5.4 1.2-8.1 0.5-0.4 0.6-1.4-0.1-2.4zm-10.8 10c0.4-2.1 0.4-5.1 0.2-6.6 0 2.2 0 4.4-0.2 6.6zm7.9-6.9c0.5 1.8 1.5 3.8-0.5 4.8 0-2 0-5 0.2-7.3 0.3 0.4 0.6 0.8 0.8 0.9-0.2 0.7-0.4 1.1-0.5 1.6z"/>
<path class="elementor-shape-fill" d="m128.7 10.9c0.2 0.3 0.8 0.6 1.2 0.6h9.9c0.3 0 0.6 0 0.9-0.1 0-0.9-0.1-1.6 0-2.4 0.1-1-0.2-1.6-1-2.3-1.8-1.7-3.4-3.6-3.7-6.1-0.3-2.1-0.4-4.3-0.6-6.5h-9.2c-0.2 0-0.6 0.3-0.7 0.5-0.3 1.8-0.9 3.7-0.8 5.5 0.3 4 1.8 7.6 4 10.8zm1.2-11.2h0.2v6.3h-0.2v-6.3z"/>
<path class="elementor-shape-fill" d="m148.3 52.3c-3.3-0.3-8.3-1.3-9.3 0.7 0 8 4 18 13 13 1.5-2 1.5-4.2 0.8-6.5s-2-4.5-3.1-6.5c-0.3-0.5-0.8-0.7-1.4-0.7zm-0.1 10.4c-0.2-1.7-0.2-3.7 0.2-5.2-0.1 1.8-0.1 3.5-0.2 5.2z"/>
<path class="elementor-shape-fill" d="m88.5 28.8h0.1-0.1z"/>
<path class="elementor-shape-fill" d="m82.2 28.7v0.3h4.9c0.5 0 0.9-0.1 1.4-0.2-0.7-0.1-1.4-0.1-2.1-0.1-0.3 0-0.6 0.1-1 0 0.3-0.1 0.6-0.2 0.8-0.4s0.5-0.5 0.5-0.6c-0.5-1.2 0.1-2.1 0.4-3.2 0.2-0.5 0.2-1.1 0.4-1.7 0.4 0 0.8 0.1 1.1 0.1 0.1-1.2 0.1-2.3 0.2-3.5h0.3l0.6 0.9c0.1-0.1 0.3-0.1 0.4-0.2-0.2-0.9-0.3-1.7-0.5-2.6 1.1 0.8 1.4 0.8 1.8-0.2 1.4 1 1.5 2.4 1.4 3.9-0.1 0.9 0.3 1.2 1.1 1 0.9-0.8-1.1-1.7-0.1-2.3-0.1-0.8-0.2-1.5-0.3-2.3 0.4 0.5 0.7 0.8 1.1 1.2v-1.2c0.5 0.4 0.9 0.8 1.4 1.2-0.7 0.6-0.5 1.1 0.1 1.7s1.2 1.2 1.9 2c-0.5 0-0.8-0.1-1.1-0.1-0.4 0.1-1.1-0.2-0.9 0.7l-1.5-0.3c-0.2 0.8-0.4 1.6-0.7 2.5-0.4-0.2-0.7-0.4-1-0.6 0 0.5-0.1 1-0.1 1.4h-0.2c-0.1-0.3-0.1-0.6-0.2-1-1.3 1.3-2.4 2.5-3.6 3.7 0.2 0.1 0.5 0.2 0.7 0.2h7.2c0.4 0 0.8-0.2 1.1-0.5 1.6-1.7 3.1-3.4 4.8-5.3-0.6 0-0.9 0.1-1.3 0.1 0.9-0.6 1.5-1 2.2-1.5 0 0.1 0.1 0.1 0.1 0.2-0.2 0.4-0.4 0.7-0.7 1.2h3.6v-0.4c-0.6 0-1.2-0.1-1.6-0.1-0.4-0.9-0.7-1.6-1.1-2.3 0.2 0.1 0.5 0.2 0.8 0.3 0.1-0.3 0.2-0.6 0.4-0.9 0.4 0.5 0.7 1 1.1 1.4 0.1-0.1 0.2-0.1 0.3-0.2-0.6-0.9-1.2-1.8-1.8-2.6-0.9-1.2-2.1-1.9-3.6-1.9-3.2 0-6.4 0-9.6 0.1-0.2 0-0.3 0.2-0.5 0.3-1-0.1-1.9-0.2-2.9-0.4-0.3 0-0.7 0-1-0.1-2.2-1.1-4.7-1-7-0.8-2.2 0.1-4.1-0.2-5.3-2.3l-0.4-0.4c-0.9-0.9-1.9-1.1-3.1-0.9-0.4 0.1-1 0.5-1 0.8 0 1.5 0 3.1 0.4 4.6 0.4 1.4 1.2 2.6 1.9 3.9 0.6 1.2 1.7 2.2 2.4 3.3 0.4 0.6 1.3 0.7 2 1.1 0 0.5 0.2 1 0.5 1.2 0.7 0.6 1.5 1.1 2.3 1.5 0.3 0.2 1 0.3 1.2 0.1 0.6-0.6 1.4-0.3 2.1-0.4 0.4-0.1 0.8-0.3 1.2-0.4h0.4c0 0.3-0.1 0.6-0.1 0.9-0.8 0.2-1.5 0.2-2.2 0.1zm20.9-10.3c-0.9 0.6-1.8 1.1-2.8 1.8 0.9-1.9 1.6-2.3 2.8-1.8zm-8 6.6c0.3-0.7 0.6-1.3 0.9-2 0.3 0.6 0.8 0.6 1.3 0.3 0.4-0.3 0.9-0.4 1.4-0.5-1.4 0.4-1.8 2.5-3.6 2.2zm-14.9-2.8c-0.2 1.1-0.4 2.1-0.6 3.2-0.4-1.2-0.7-2.3-1.1-3.5 1.8-0.6 0.4-2.3 1.2-3.5 0 0.6 0 1 0.1 1.4 0.1 0.7 0.2 1.4 0.4 2v0.4z"/>
<path class="elementor-shape-fill" d="m61.8 43.7c-0.8 0.6-0.9 1.2-0.4 2.1 0.4 0 0.8 0 1 0.2 2.3 1.2 4.7 1.1 7.1 0.9 4.5-1.9 5.5 4.1 8.5 3.1 2-1 1-3 1-4.8-1.3-3.7-3.4-7.1-6.6-9.6-1.6-1.2-3.1-2.6-4.9-2.2-1.3 1.5-2.3 2.8-3.3 4-0.6-0.3-1.1-0.5-1.7-0.7-0.1 0-0.4 0-0.4 0.1-0.1 0.1-0.2 0.3-0.1 0.4 0.1 0.2 0.3 0.4 0.4 0.6 0.5 0.5 0.5 0.9-0.2 1.3-0.5 0.2-0.9 0.5-1.4 0.7 0.4 0.5 0.8 0.8 1.1 1.2 0.8 1 0.8 2.1-0.1 2.7zm7.8-6.6h0.2v6.7h-0.2v-6.7z"/>
<path class="elementor-shape-fill" d="m163.7 5.6c-0.1 0.2-0.3 0.3-0.4 0.4-0.2 0.3-0.5 0.8-0.4 0.9 0.3 0.3 0.7 0.5 1.1 0.6 0.1 0 0.4-0.5 0.4-0.8 0.1-0.7 0-1.4 0-2.1 0-0.3 0.1-0.6 0.2-1.2 0.6 1.1-0.5 2.4 0.9 2.9 0.9 0.3 1.4 1.7 2.7 0.8 0.6 0.9 1.1 1.8 1.5 2.4-1 1-2 1.9-3.1 2.9h7.5c0.2 0 0.3-0.1 0.5-0.2 1-0.5 1.6-1.4 1.4-2.5-0.2-1.4 0.2-2.5 1.4-3.3l0.3-0.3c0.5-0.9 1.3-1.2 2.3-1.3s1.6-0.7 1.7-1.7c0.2-2-1-3.6-2.9-3.9-1.4-0.2-2.9-0.4-4.3-0.5-3.1-0.2-6.2-0.2-9.4-0.3-0.2 0-0.7 0.3-0.7 0.4 0 1.7-0.7 2.6-2.3 3.3-1.1 0.4-1.2 2-0.4 2.6l-0.6 1.2c1-0.3 1.8-0.3 2.6-0.3zm8.3-4.1h0.2v6.8h-0.2v-6.8z"/>
<path class="elementor-shape-fill" d="m82.5 9.6c2.3 1.9 5.2 2.7 8.2 2.7 1.1 0 1.8-0.5 1.8-1.4 0.1-2.2 0.1-4.4 0.1-6.5 0-1.4-0.6-2.4-2-2.9-1-0.3-1.5-1.1-1.7-2.1-0.1-0.8-0.5-0.9-1.1-0.9h-4.9-4.9c-1.4 0-1.4 0.1-1.5 1.5-0.1 1.9 0.4 3.6 1.6 5 1.5 1.7 2.9 3.3 4.4 4.6zm6.7-5.9h0.2v6.7h-0.2v-6.7zm-6.4-3.4h0.2v6.9h-0.2v-6.9z"/>
<path class="elementor-shape-fill" d="m130 53.5c-3-0.5-5-3.5-8-2.5-3 2-4 7-2 10 4 5 10 4 15 1 2-2 1-3-0.6-4.1-1.3-1.5-2.7-3-4.4-4.4zm-6.8 5.9h-0.2v-6.7h0.2v6.7zm6.4 3.3h-0.2v-6.7h0.2v6.7z"/>
<path class="elementor-shape-fill" d="m208.6 8.8c2.6 2.4 5.7 3.5 9.1 3.5 1.3 0 1.9-0.6 1.9-1.9 0-2-0.1-4 0-5.9 0.1-1.5-0.5-2.5-1.9-3-1-0.4-1.5-1.1-1.7-2.1-0.1-0.8-0.5-0.9-1.2-0.9h-4.8v0.1h-5.4c-0.6 0-0.9 0.2-0.9 0.9-0.1 2.2 0.3 4.1 1.7 5.8 1.1 1.3 2.1 2.5 3.2 3.5zm7.7-5.1h0.2v6.8h-0.2v-6.8zm-6.4-3.3h0.2v6.7h-0.2v-6.7z"/>
<path class="elementor-shape-fill" d="m197 53.5c-3-1.5-9-5.5-11-1.5-1 4 0 9 4 11s9 1 13-1c-1-2-2-3-2.4-4.5-1.1-1.4-2.3-2.7-3.6-4zm-7.4 5.4h-0.2v-6.7h0.2v6.7zm6.4 2.9v-6.4 6.4z"/>
<path class="elementor-shape-fill" d="m146.8 8.9c2.5 2.4 5.6 3.4 9.1 3.4 1.2 0 1.9-0.7 1.9-1.9v-6.3c0-0.9-0.4-1.8-1.3-2.2-1.5-0.6-2.4-1.6-2.5-3.2h-11.4c-0.3 0-0.7 0.5-0.7 0.9-0.3 2.3 0.5 4.4 1.9 6.1 0.9 1.2 1.9 2.2 3 3.2zm7.5-5.2h0.2v6.8h-0.2v-6.8zm-6.4-3.3h0.2v6.9h-0.2v-6.9z"/>
<path class="elementor-shape-fill" d="m20.9 9.9c2.3 1.8 5 2.5 7.9 2.5 1.3 0 1.9-0.6 1.9-1.9v-6.1c0-1.3-0.5-2.2-1.7-2.7-1-0.4-1.7-1.2-1.9-2.3-0.1-0.6-0.4-0.8-1-0.8h-5-5.2c-0.4 0-1.1-0.1-1 0.7 0 1-0.1 2 0.2 3 0.8 3.3 3.2 5.6 5.8 7.6zm6.3-6.2h0.2v6.8h-0.2v-6.8zm-6.4-3.3h0.2v6.7h-0.2v-6.7z"/>
<path class="elementor-shape-fill" d="m69.3 53c-3.3-3-8.3-4-10.3-1-4 10 7 13 15 11 2-1 1-3 0-5.2-1.5-1.7-3-3.3-4.7-4.8zm-6.5 1.5c-0.8 1.5 2.2 3.5-0.8 4.5 0-2-1-5 0.5-6.8 0.1 0.7 0.9 1.2 0.3 2.3zm6.2 7.1v-6.3 6.3z"/>
<path class="elementor-shape-fill" d="m28 46.2c0.4-0.1 0.8-0.1 1.3-0.2 0.2-1.5 1.7-0.9 2.8-1.8 0.1 0.1 0.2 0.3 0.4 0.4 0.3-0.8 0.6-1.5 1-2.3 0.1 0.5 0.1 1 0.2 1.4 0.4 0 0.7 0.1 0.9 0.1 0.2 0.9 0.3 1.7 0.4 2.4 1.2 0.1 0.9-1.9 2.3-1.6-0.1 0.4-0.1 0.7-0.2 0.9 1.2 0.1 2.2 0.2 3.5 0.3-0.2-0.5-0.4-0.8-0.5-1.2 0.3-0.2 0.6-0.4 0.9-0.7-0.3-0.5-0.5-1-0.7-1.4-0.2 0.3-0.5 0.5-0.8 0.9v-1.7c0.2 0.1 0.4 0.1 0.6 0.1-0.1-0.5-0.4-1.2-0.6-1.2-0.9 0.1-1.5-0.4-2.1-0.9-0.2-0.2-0.5-0.6-0.4-0.8 0.1-0.3 0.4-0.6 0.7-0.8 0.1-0.1 0.6 0.2 0.7 0.4 0.1 0.4 0.1 0.9 0.1 1.4 0.2 0 0.7-0.1 1.1-0.1 0.3-1.6-0.8-2.2-1.7-2.9l0.6-1.8c-0.4-0.1-0.9-0.4-1.3-0.4s-0.8 0.3-1 0.6c-0.3 0.4-0.5 1-0.7 1.5-0.1 0-0.2 0-0.3-0.1 0.2 0.4 0.3 0.7 0.5 1.1-0.8 0.6-1.6 1.2-2.3 1.8-0.8-0.8 1.8-2.6-1-2.3-0.2-0.7-0.3-1.3-0.5-1.9h0.9c0-0.1 0.1-0.2 0.1-0.3-0.7-0.3-1.3-0.6-2-1-0.1 0.7-0.1 1-0.2 1.4-1.2-0.4-2.3-0.7-2.9 1.1-0.2-0.6-0.2-0.9-0.3-1.4-0.5 0.4-0.8 0.7-1.2 1-0.1-0.2-0.2-0.5-0.4-0.9-0.1 0.5-0.2 0.7-0.3 1.2-0.2-0.5-0.4-0.8-0.4-0.9 0.4-0.6 0.1-1-0.5-1.1s-1.3-0.2-1.7 0.1c-0.5 0.4-0.8 0.5-1.5 0.3-1.2-0.3-1.8 0.1-2 1.2 0.6 0.1 1.1 0.3 1.7 0.4-0.7 0.3-1.7-0.1-1.5 1.3 0.4-0.1 0.7-0.1 1.1-0.2-0.5 0.8-0.5 1.2 0.4 1.7 2.1 1.1 4 2.6 5.2 4.8 0.1 0.1 0.2 0.4 0.3 0.4 1-0.1 1.1 0.9 1.3 1.7zm3.6-2.6 0.4 0.4c-0.2 0-0.5-0.1-0.7-0.1l0.3-0.3z"/>
<path class="elementor-shape-fill" d="m23 55.5c-1-0.5-2-0.5-3-0.5-1 1-1 2-1 3-1 1-2-1-2-2-5 3-2 9-1 13 3-1 8 3 10-1 1-4 0-9-2.1-12.8-0.5 0.1-0.8 0.3-0.9 0.3zm-1.7 8.4c-0.3-1.9-0.3-3.9 0-5.8v5.8z"/>
<path class="elementor-shape-fill" d="m208 54.5c-4 1.5-7-5.5-8-3.5-2 9 9 18 17 13 2-1-2-5-3.9-7.6-1.4-1.3-3-2.3-5.1-1.9zm1.1 8.6c-0.1-2.2-0.1-4.1 0-6.3v6.3z"/>
<path class="elementor-shape-fill" d="m71.6 9.1c1.7-0.3 3.1 0.4 4 1.9 0.2 0.3 0.6 0.6 0.8 1 0.8 1.4 2 1.5 3.4 1.2 0-1.5-0.3-2.8-1.5-3.9-1.9-1.6-3.2-3.8-3.9-6.1-0.5-1.6-0.7-3.4-1.1-5.1-4.2-0.1-8.3-0.1-12.5-0.1 0.4 2.4 1.3 4.5 2.5 6.4 1.9 3 4.3 5.3 8.3 4.7zm-2-9.1h0.2v6.7h-0.2v-6.7z"/>
<path class="elementor-shape-fill" d="m191.2 5.4c1.5 2.2 3.5 4.2 6.5 3.7 2.7-0.4 4.5 0.7 5.8 2.9 0.8 1.4 2 1.4 3.3 1.1 0.2-1.5-0.1-2.8-1.3-3.9-1.9-1.6-3.2-3.7-4-6.1-0.5-1.7-0.7-3.4-1.1-5.2h-12.4c0 0.4 0 0.7 0.1 1 1 2.2 1.7 4.5 3.1 6.5zm5.5-5.4h0.2v6.8h-0.2v-6.8z"/>
<path class="elementor-shape-fill" d="m84.7 55c-3.7-1-9.7-1-12.7-5 3 10 8 17 18.6 14.3-0.9-3.6-2.5-6.9-5.9-9.3zm-2.7 7.6v-6.2 6.2z"/>
<path class="elementor-shape-fill" d="m57.2 37.9c2.1 0.1 2.8-0.3 3-1.8 0.5-0.1 0.9-0.1 1.5-0.2-0.4 0.4-0.7 0.7-1.1 1 0.7-0.2 1.3-0.9 1.8-0.8 1.5 0.3 2.1-0.8 3.1-1.4-1-1-1 0.7-1.7 0.6 0.3-0.8-0.3-0.9-1.2-0.9 0.4-0.3 0.5-0.5 0.8-0.8 0.2 0.4 0.4 0.7 0.6 0.9 0.5-0.3 0.9-0.5 1.3-0.7 0-0.1 0-0.3-0.1-0.4-0.8 0-1.6-0.1-2.3 0.1-0.5 0.1-0.7 0.1-1.2 0-0.4-0.1-1.1 0-1.4 0.2-0.2 0.2-0.1 0.9-0.1 1.4-0.5-0.2-1.2 0-1.8-0.9-0.4-0.6-1.7-0.7-2.5-0.7-0.6 0-1.3-0.5-1.9 0.4-0.3 0.4-1.5 0.2-2.4 0.3 0-1.1-0.6-0.9-1.3-0.5 0.2 0.4 0.4 0.8 0.4 1-0.3 0.7-0.5 1.3-0.8 1.9s-0.8 1.1-1.2 1.7c1.4 1-0.3 2.6 0.5 3.9 0.5-0.8 1-0.6 1.3-0.1-0.3 0.5-0.5 0.9-0.7 1.4-0.1 0.1-0.2 0.3-0.3 0.3-1.5 0-1.2 1.2-1.6 2.3 0.8-0.3 1.3-0.4 1.9-0.6 0.7 0.8 3 0.7 3.4-0.3-0.2 0-0.4 0-0.6 0.1 0.4-1.4 1.3-1.9 2.4-1.3 0.3 0.2 0.7 0.3 1 0.4 0 0.3 0.1 0.6 0.2 1.1 1-1.4 0.9-3.4 0-4.5 1.2-1.4 0.2-3.1 0.9-4.5 0 0.4 0 0.9 0.1 1.4zm-5.3-1.7c-0.2-0.1-0.5-0.1-0.8-0.2l1.2-1.2c0 0.1 0.2 0.2 0.3 0.3-0.2 0.4-0.4 0.7-0.7 1.1z"/>
<path class="elementor-shape-fill" d="m15.9 48.9c-0.3-0.1-0.6-0.1-0.8-0.2-1-0.2-0.9-0.7-0.3-1.3 0.2-0.3 0.3-0.7 0.4-1.3-0.8 0.1-1.4 0.2-1.8 0.3-0.4 0.4-0.7 0.7-0.9 1l-0.4-0.4c0.6-0.5 1.3-1 1.9-1.5 0 0.1 0.1 0.1 0.1 0.2 0.2-0.6 0.5-1.2 0.7-1.7l-1.5-0.6 0.1-0.1c-0.7-0.1-1.5-0.2-2.2-0.3v-0.3c0.5-0.1 0.9-0.3 1.4-0.4-0.1-0.5-0.2-1-0.2-1.2-1.1-0.2-2-0.3-3-0.5-0.1 0.5-0.2 0.9-0.3 1.4h-0.3l-0.6-0.9c-1 0.9-1 2.1-0.8 3.3 2.9 0.3 2.9 0.3 3.4 1.3-1.3 0.4-1.7 2-0.9 3 0.2 0.3 0.1 0.7 0.2 1.4 1.6-0.1 3.5-0.3 5.4-0.4 0.1-0.4 0.2-0.6 0.4-0.8z"/>
<path class="elementor-shape-fill" d="m13.6 55.7c0.4-0.1 0.7-0.2 0.9-0.3 0.3-0.2 0.6-0.4 0.8-0.6 0 0.1 0 0.2-0.1 0.3 1 0.3 2.1 0.6 3.1 0.9 0.1-0.2 0.1-0.3 0.2-0.5-0.3-0.1-0.7-0.2-1-0.3-0.2-0.1-0.4-0.3-0.6-0.5 1-0.1 1.6-0.1 2.3-0.2-0.1 0.2-0.1 0.4-0.3 0.7 1.2-0.6 2.4-1.2 3.8-2-0.6-0.2-1.1-0.5-1.7-0.6-1.6-0.1-3.3 0.1-4.9-0.1-1.2-0.1-2 0.3-2.5 1.3-0.1 0.2-0.1 0.3-0.3 0.4-0.2 0.2-0.5 0.2-0.7 0.3 0.4-0.7 0.7-1.3 1-1.9-0.1-0.1-0.1-0.2-0.2-0.3-0.5 0.3-0.9 0.5-1.4 0.8-0.1 0.6-0.2 1.2-0.4 1.8-0.4-0.1-0.8-0.1-1.3-0.2v1.6c0 0.2 0.3 0.5 0.5 0.5h3.5c0-0.3-0.4-0.7-0.7-1.1z"/>
<path class="elementor-shape-fill" d="m37.6 53.4c0.3-1.5 0.6-2.9 1.8-4-0.6-0.1-1.1-0.2-1.4-0.2-0.6 0.6-1.1 1.2-1.8 1.6-1.4 0.9-1.5 1.1-0.8 2.7-0.8-0.1-1.5-0.2-2.3-0.3-0.1 0.2-0.1 0.5-0.3 1.1-0.5-0.5-0.9-0.9-1.3-1.2-0.3-0.3-0.8-0.6-1.1-0.6-0.7 0.2-1.3 0.6-2 1 0.7 0.6 1.4 1.2 2 1.7 0.8-0.3 1.3-0.4 2-0.7-0.1 0.3-0.1 0.4-0.1 0.4-0.3 0.2-0.6 0.3-1 0.6 1.7 0.6 3.3 0.5 4.7-0.3 0.7-0.3 1.5-1.1 1.6-1.8z"/>
<path class="elementor-shape-fill" d="M7.4,59.9C7,59,7,59,8,59c-1-1-1-3-3-1c1,0,2,1,1,2c-1,0-4-1-3,1s4,6,5.5,0.6C8.5,60.8,8.5,59.9,7.4,59.9z"/>
<path class="elementor-shape-fill" d="m163.4 12.3c0.1 0 0.2-0.3 0.3-0.5 0.2 0.2 0.4 0.4 0.6 0.4 0.2 0.1 0.5 0.1 0.8 0.1 0.1 0 0.1-0.4 0.2-0.6 2.2 0.6 1.9-1.7 3-2.5 0-0.1-0.1-0.1-0.1-0.2-0.4 0-0.7 0.1-1 0.1-0.2-0.6-0.3-1.2-0.7-1.6-0.3-0.4-0.9-0.6-1.6-1v4.1h-0.4v-2.3c-0.5-0.1-0.8-0.1-1.2-0.2 0.3 0.8 0.6 1.4 0.8 2-0.8 0.4-1.4 0.8-2.2 1.3 0.1 0.2 0.1 0.7 0.4 0.9 0.3 0.1 0.7 0 1.1 0z"/>
<path class="elementor-shape-fill" d="m30.9 51.4c0.1 0 0.1 0.1 0.2 0.1 0.3-0.3 0.6-0.7 0.9-1.1 0.3 0.2 0.6 0.3 1 0.5 0.4-0.7 0.7-1.3 1-1.8h-2.4c-0.1-0.7-0.2-1.2-0.2-1.8l-0.9 0.9c-1.5-1.7-2.1-1.9-2.9-1 1.7 0.3 2.3 0.8 2.1 2.2-0.6 0-1.1-0.1-1.9-0.1 0.3-0.4 0.6-0.7 0.9-1-0.5-0.1-0.8-0.2-1.3-0.4 0.2 1.5 0.3 2.9 0.5 4.3 1.1-0.7 2.1-1.2 3.2-1.9-0.1 0.6-0.2 0.9-0.2 1.1z"/>
<path class="elementor-shape-fill" d="m61.1 27.4c-0.3 0.2-0.4 0.6-0.7 1.1h6.3c-0.2-0.7-0.4-1.3-0.5-1.6-1.6-0.2-2.9-0.3-4.4-0.4 0.4 0.6 0.6 0.9 1 1.4-0.5-0.1-0.7-0.1-0.8-0.1-0.4-0.2-0.8-0.5-0.9-0.4z"/>
<path class="elementor-shape-fill" d="m70.7 28.4c0 0.1 0.2 0.2 0.3 0.2s0.3-0.1 0.3-0.2l0.3-2.7c0.1-0.8-0.1-1.3-0.7-1-0.6-0.4-1-0.7-1.5-1.1-0.4 1.3-0.6 2.3-0.9 3.4 0.8 0.3 2 0.1 2.2 1.4z"/>
<path class="elementor-shape-fill" d="m46 34.1c-0.1 0.4-0.1 0.6-0.1 0.8-0.1 0.9-0.3 1.7-1.5 1.9-0.2 0-0.5 0.7-0.5 1 0 0.2 0.5 0.6 0.7 0.6 0.6-0.1 1.4 0 1.4-1.1-0.6 0-1 0.1-1.8 0.2 0.8-0.4 1.3-0.7 1.9-1 0.1 0.2 0.2 0.4 0.2 0.6 0.9-0.4 1.7-0.7 2.6-1.1-1-0.7-1.9-1.3-2.9-1.9z"/>
<path class="elementor-shape-fill" d="m36.8 47.7c1.4 1.8 3.6 1.4 6.4-1-0.5-0.6-1.9 0.5-1.8-1.1-0.1 0-0.2 0-0.4 0.1-0.1 0.4-0.3 0.9-0.5 1.4-1.1 0-2.1 1.4-3.7 0.6z"/>
<path class="elementor-shape-fill" d="m4.3 46.4c1-0.6 1.7-1 2.4-1.4-0.3-0.2-0.6-0.1-0.7-0.2-0.6-0.7-0.6-0.7-1.1 0 0.1 0.1-0.1 0.2-0.2 0.2-0.4-0.5-0.6-1.2-1-1.4-0.5-0.2-1.1 0.1-1.7 0.2 0.4 1.5 1.4 2.2 2.3 2.6z"/>
<path class="elementor-shape-fill" d="m19.8 44.9c-0.1-0.8-0.3-1.6-0.5-2.4-0.8 0.5-1 0.9-0.2 1.5-0.7 0.4-0.9 0.9-0.4 1.6s0.2 1.1-0.5 1.3c0.1 0.4 0.3 0.6 0.3 0.9v1.1c0.9-0.2 1.3-0.5 1.3-1.4s0.1-1.7 0-2.6z"/>
<path class="elementor-shape-fill" d="m100.3 29c3.3 0 3 0.7 3.3-2.4-0.8-0.4-0.8-0.4-2.7 0.5 0 0.3 0.2 0.7 0.1 1s-0.4 0.5-0.7 0.9z"/>
<path class="elementor-shape-fill" d="m106.7 23.6c-2.4-0.2-3.3 0.5-3 2.2 1.5 0.3 3.1-0.8 3-2.2z"/>
<path class="elementor-shape-fill" d="m47.6 40.8c-0.4 0-0.8-0.2-1.1-0.1-1.1 0.3-0.5 1.4-1.1 2.1 0.9 0.2 1.5 0.3 2.3 0.4-0.3-0.6-0.6-1.1-0.9-1.6 0.3-0.2 0.5-0.4 0.8-0.6v-0.2z"/>
<path class="elementor-shape-fill" d="m33.4 36.4c0.7-0.1 1.5-0.2 2.2-0.3 0.1-1.5 0-1.6-1.2-1.6 0.9 1.3-1.4 0.9-1 1.9z"/>
<path class="elementor-shape-fill" d="m6.8 44.3c0.1-0.6 0.1-1.2 0.1-1.7 0-0.2 0.1-0.4 0-0.5-0.4-0.4-0.9-0.8-1.3-1.1-0.1-0.1-0.5 0.2-0.7 0.3 0.8 0.8 1.8 1.6 1.9 3z"/>
<path class="elementor-shape-fill" d="m57.1 38.9v1.3c1.5-0.3 1.9-0.8 1.3-1.9-0.4 0.2-0.8 0.4-1.3 0.6z"/>
<path class="elementor-shape-fill" d="m16.1 45.9c0 0.8-0.1 1.5-0.1 2.2 0.5-0.4 0.9-0.6 1.3-0.9-0.1-0.5-0.3-1-0.4-1.5-0.3 0.1-0.6 0.1-0.8 0.2z"/>
<path class="elementor-shape-fill" d="m12.3 53.2v0 0z"/>
<path class="elementor-shape-fill" d="m10.6 53.1c0 0.4 0 0.8 0.1 1 1.2 0.6 1.1-0.7 1.6-1 0-0.2 0.1-0.4 0.1-0.7-0.6 0.3-1.2 0.5-1.8 0.7z"/>
<path class="elementor-shape-fill" d="m101.3 25.4c0.9-0.6 1.6-1 2.3-1.5-1.3-0.3-2 0.2-2.3 1.5z"/>
<path class="elementor-shape-fill" d="m15.4 37.4c-0.7-0.6-1.3-1.1-2.2-1.7 0.5 1.7 0.9 2 2.2 1.7z"/>
<path class="elementor-shape-fill" d="m1.4 45.2c-0.4-0.1-0.8 0.2-1.3 0.4v0.3c0.7 0.2 1.3 0.4 2 0.6l0.3-0.3c-0.3-0.4-0.6-0.9-1-1z"/>
<path class="elementor-shape-fill" d="m31.8 46.1c0 0.4 0.1 0.8 0.1 1.3 0.4-0.3 0.7-0.5 1-0.6-0.1-0.8-0.4-1.2-1.1-0.7z"/>
<path class="elementor-shape-fill" d="m50 34.6c-0.2-0.2-0.4-0.3-0.6-0.5 0.1-0.2 0.2-0.4 0.3-0.7h-1.3c0.4 0.8 0.6 1.5 1.6 1.2z"/>
<path class="elementor-shape-fill" d="m58.3 26.6c-0.1 0-0.3 0.3-0.4 0.5l-0.3 0.6c-0.1 0.2-0.1 0.4-0.3 0.8 0.6-0.4 1-0.7 1.3-1 0.1-0.1 0.2-0.5 0.2-0.7 0 0-0.3-0.2-0.5-0.2z"/>
<path class="elementor-shape-fill" d="m67.2 28.2c0.4 0.1 0.9 0.3 1.5 0.4-0.1-0.5-0.1-0.8-0.2-1.2-0.5 0.1-0.8 0.2-1.2 0.3 0 0.3-0.1 0.4-0.1 0.5z"/>
<path class="elementor-shape-fill" d="m38.4 46.6c0.1-0.2 0.2-0.4 0.4-0.7-0.3 0.1-0.6 0.1-0.6 0.2-0.2 0.4-0.3 0.8-0.4 1.2 0 0.1 0.2 0.2 0.4 0.3 0-0.4 0.1-0.7 0.2-1z"/>
<path class="elementor-shape-fill" d="m18.1 49c-0.1-0.2-0.2-0.3-0.3-0.5-0.5 0.3-1 0.7-1.6 1 0.1 0.1 0.2 0.3 0.3 0.4 0.5-0.3 1-0.6 1.6-0.9z"/>
<path class="elementor-shape-fill" d="m161.8 8c-0.1 0.1-0.2 0.3-0.3 0.4 0.2 0.6 0.5 0.9 1.6 0.5-0.5-0.3-0.9-0.6-1.3-0.9z"/>
<path class="elementor-shape-fill" d="m1.6 42.7c0.4 0.2 0.7 0.6 1.1 0.5 0.6 0 0.4-0.5 0.3-0.9h-1.2c-0.1 0.2-0.2 0.3-0.2 0.4z"/>
<path class="elementor-shape-fill" d="m55.8 28.5c0.5-0.2 0.9-0.3 1.4-0.5-0.1-0.1-0.1-0.4-0.2-0.4-0.5 0.1-0.9 0.2-1.4 0.3 0.1 0.2 0.1 0.4 0.2 0.6z"/>
<path class="elementor-shape-fill" d="m88.6 28.1c0.1 0.1 0.2 0.1 0.3 0.2 0.6-0.8 1.3-1.6 1.9-2.3l-0.3-0.3c-0.6 0.9-1.8 1.2-1.9 2.4z"/>
<path class="elementor-shape-fill" d="m92.2 19.8c-0.5 0.8-1.2 1.4 0 2.1v-2.1z"/>
<path class="elementor-shape-fill" d="m250.1 46.9c3 0 5.9-0.1 8.8-0.1 2.7 0 5.3-0.1 7.5-1.9 2.2-1.7 3.3-4.8 2.6-7.4-0.1-0.2-0.4-0.4-0.6-0.5-0.3-0.1-0.6 0-0.9 0.1-0.8 0.3-1.2 0-1.4-0.9-0.6-2.4-0.6-2.4-3.1-2.4h-12.8-0.1-12.8c-2.5 0-2.5 0-3.1 2.4-0.2 0.9-0.6 1.1-1.4 0.9-0.3-0.1-0.6-0.2-0.9-0.1-0.2 0-0.5 0.3-0.6 0.5-0.7 2.6 0.4 5.7 2.6 7.4 2.3 1.8 4.9 1.9 7.5 1.9 2.8 0 5.7 0.1 8.7 0.1-0.1 0-0.1 0 0 0-0.1 0-0.1 0 0 0zm10-9.7h0.2v6.7h-0.2v-6.7zm-20.1 6.8h-0.2v-6.7h0.2v6.7z"/>
<path class="elementor-shape-fill" d="m485.2 12c1.2-0.5 2.3-0.5 3.5-0.3 1.1 0.2 2.2 0.5 3.3 0.6 2 0.4 3.2-0.2 4.2-1.1 0.8-1.2 1.8-2.2 2.8-3.2 3 5 8 5 12 4 2-1 5-4 1.3-8.6-0.6-1.3-1.4-2.7-2.3-3.9s-2-2.5-3-3.5c-1.5-1.1-2.9-1.9-4.2-2.4-9.1-3.6-13.4 7-17.6 17.7 0.1 0.2 0 0.4 0 0.7zm17.3-12.2c0.5 2.2 0.5 4.2-0.5 6.2 0-1 0-2 0.4-2.9 0-1.1 0.1-2.2 0.1-3.3zm-5.9 0.1c0.2 1 0.3 2.3 0.2 3.6s-0.3 2.5-0.8 3.5c0-1 0-3 0.4-3.8 0-1.1 0.1-2.2 0.2-3.3z"/>
<path class="elementor-shape-fill" d="m252.9 53.4c-0.9-3.4-3.9-2.4-4.9-2.4-4 4-2 9 2 11 2 0 4-2 2.9-5.3-0.1-1.1 0-2.2 0-3.3z"/>
<path class="elementor-shape-fill" d="m501.7 21.8c-1.7-0.8-9.7 3.2-5.7 5.2 4 3 10 7 11-4 0-1-3-1-5.2-1.3-0.1 0-0.1 0-0.1 0.1z"/>
<path class="elementor-shape-fill" d="m499 56.4c-0.7 2.3 0.3 3.2 2.3 3.2 0-1 2-3-1-2.7-0.5-0.2-1-0.4-1.3-0.5z"/>
<path class="elementor-shape-fill" d="m500.4 34.8c1.2 2.4 2.8 0.1 4 0-1.2 0.1-1.2 0.1-1.9-0.3-0.6 0.1-1.3 0.2-2.1 0.3z"/>
<path class="elementor-shape-fill" d="m391.4 46.3c4.2-1.3 6.1-5.5 4.9-9.2l-2.4 0.3c-0.3-0.9-0.6-1.7-0.8-2.5-0.1-0.8-0.5-0.9-1.2-0.9-8.5 0-16.9 0.2-25.4 0-4.4-0.1-7.5 1.8-10.2 4.9-1.4 1.6-2.7 3.4-2.9 5.6-0.2 1.7 0 3.5 0 5.3 0.3 0 0.6 0.1 0.9 0.1h9.9c0.4 0 0.9-0.2 1.3-0.5 2-1.6 4.1-2.5 6.7-2.5 4.2 0.1 8.4-0.1 12.7 0 2-0.1 4.3 0.1 6.5-0.6zm-3.9-9.1h0.3v6.7h-0.3v-6.7zm-21.4 8.8h-0.2v-6.9h0.2v6.9zm11-2.1h-0.2v-6.6h0.2v6.6z"/>
<path class="elementor-shape-fill" d="m325.8 21.7c-0.4 1.4-0.4 2.8 0 4.3 0.4 0 0.8 0 1.2-0.1 1.1-0.5 1.5 0 1.7 1.1 0.5 2.1 0.6 2.1 2.8 2.1 8.4 0 16.8-0.1 25.2 0 2.4 0 4.5-0.7 6.3-2.2 1.3-1.1 2.5-2.4 3.6-3.7 1.6-1.9 2.4-4.1 2.2-6.7-0.1-1.1 0-2.1 0-3.3h-11.2c-0.2 0-0.5 0.1-0.7 0.3-2 1.8-4.3 2.8-7 2.7-5.3-0.1-10.7 0-16 0-4 0-7.1 2.1-8.1 5.5zm36.4-4.4c0.6-0.9 0.9 0.2 1.4 0.2 0 0.1 0.1 0.3 0.1 0.4-0.5 0.2-1 0.3-1.5 0.5-0.1-0.5-0.2-0.9 0-1.1zm-0.8-0.8c0 0.2 0.1 0.4 0.1 0.6-0.6 0.1-1.2 0.3-1.8 0.4 0-0.2-0.1-0.3-0.1-0.5 0.6-0.2 1.2-0.4 1.8-0.5zm-3.7 1.1v6.9h-0.3v-3.6c-0.1-1-0.2-2.2 0.3-3.3zm-12.1 1.7h0.2v6.8h-0.2v-6.8zm-11.6 6.7h-0.2v-6.7h0.2v6.7z"/>
<path class="elementor-shape-fill" d="m495.4 19.3c-0.3-1.3-0.4-3.3-0.4-4.3-1.5-0.8-3-1.1-4.5-1.1-4.5-0.1-9 2.1-13.5 2.1-4 1-9 0-12.5 0.3h-4.4c-3.6 0-6.7 2.6-7.4 6.1-0.2 1.1 0 2.4 0 3.6 1.1-0.2 1.9-0.3 2.7-0.4 0.3 1.1 0.7 2.2 1 3.4 1.4-0.2 3.1 0.7 4.3-1.3 0.3 1.5 1.2 1.3 2.2 1.3h3.1 3.2c-0.2-1-0.2-2-0.2-3 2 5 8 2 12 3 0-1-3 0-2-2 1.5 0.8 3.1 1.3 4.6 1.6s3 0.3 4.4 0.1c4 0.3 5-3.7 6.3-6.4 0.6-0.9 0.9-1.9 1.1-3zm-34.3 6.8c-0.5-1.3-0.4-6.3 0-6.8v6.8zm11.7 0c-0.8-2.1-1.8-6.1-0.8-6.1 6-2 1 2 0.7 2.8 0 1.1 0 2.2 0.1 3.3zm11.2-1.1v-6c0 1 0 2-0.2 2.7 0 1.1 0.1 2.2 0.2 3.3z"/>
<path class="elementor-shape-fill" d="m324.7 45.9c0.7 0 1.6-0.2 2.1-0.7 2.2-1.8 3.7-4 3.7-7 0-0.6-0.1-1.1-0.8-1.1h-0.1c-1.6-0.2-2.5-1.1-2.4-2.8 0-0.7-0.4-0.9-1.1-0.9h-10.5c-2.8 0-5.7 0.2-8.5 0-2.6-0.2-4.6 0.8-6.4 2.4-3.1 2.6-5.2 5.9-6.6 9.7-0.4 1.3-0.2 2.8-0.1 4.2 0 0.3 0.9 0.8 1.4 0.8 0.8 0 1.6-0.4 2.3-0.7 0.3-0.1 0.6-0.5 0.8-0.8 1.1-1.9 2.8-2.2 4.8-2 1.7 0.1 3.6 0.3 5.2-0.3 2.4-0.8 4.8-0.7 7.2-0.7 2.9-0.1 5.9-0.1 9-0.1zm-21.3-2h-0.2v-6.9h0.2v6.9zm12.9-0.7h-0.2v-6.7h0.2v6.7z"/>
<path class="elementor-shape-fill" d="m269.9 29h3 18.2c1.2 0 2.2-0.3 3.2-0.9 4.1-2.7 6.8-6.5 8.4-11 0.5-1.3 0.2-2.8 0.1-4.2 0-0.3-0.7-0.7-1.1-0.7-1.1-0.2-2.1 0.1-3 0.9 0 0.1-0.1 0.1-0.1 0.1-1.3 2.2-3.3 2.7-5.8 2.5-2.3-0.2-4.6-0.1-6.8 0.8-1 0.4-2.2 0.2-3.4 0.2-3.4 0-6.9-0.1-10.3-0.1-1.2 0-2.2 0.3-3 1.1-2.1 2-3.5 4.4-3.1 7.5 0.3 0.1 0.7 0.3 1 0.3 1.6 0.2 2.3 1.1 2.3 2.6 0.1 0.3 0.3 0.6 0.4 0.9zm23.4-10.3h0.2v6.8h-0.2v-6.8zm-12.8 0.7h0.2v6.6h-0.2v-6.6z"/>
<path class="elementor-shape-fill" d="m413.2 50.2c0.1-4.3 1.7-7.9 5.6-10.1 0.4-0.2 0.8-0.5 1.2-0.8 0.7-0.4 1.9-0.7 2.1-1.3 0.4-1 0.1-2.3 0.1-3.6h-6.9-11.8c-1.5 0-1.9 0.4-2.1 1.9s-0.3 3-0.5 4.5c-0.3 2.1-1.3 3.8-2.9 5.3-0.2 0.2-0.4 0.3-0.5 0.5 0 0 0 0.1-0.1 0.2 1.8 0.9 3.5 1.9 4.7 3.7 0.3 0.5 0.6 1 0.7 1.6 0.5 2.7 1.4 3.6 4.1 3.8 3.2 0.2 6.3-2.2 6.3-5.7zm-5.7-0.9h-0.2v-6.9h0.2v6.9z"/>
<path class="elementor-shape-fill" d="m286.1 50.5c0-2.3 0.6-4.5 1.8-6.6 1.3-2.3 3.3-3.7 5.5-4.7 1.5-0.7 2.2-1.6 1.9-3.2-0.1-0.4 0-0.9 0-1.5h-6.6-12.2c-1.3 0-1.8 0.5-1.9 1.8-0.2 1.7-0.3 3.5-0.7 5.2-0.4 2.1-1.7 3.8-3.3 5.1 5.4 1.4 4.4 10.4 11 9.1 2.4-0.5 4.5-2.7 4.5-5.2zm-5.8-1.2v-6.7h0.2c0 2.2 0 4.4-0.2 6.7z"/>
<path class="elementor-shape-fill" d="m353.5 38.7c0.7-0.3 1-0.7 0.9-1.5s0-1.6 0-2.4c0-0.1 0-0.1-0.1-0.4h-6.7-11.8c-1.5 0-2.1 0.5-2.1 2.1 0 2.3-0.2 4.6-1.3 6.6-0.7 1.3-1.7 2.4-2.5 3.5 1.3 1.1 2.8 2.2 4.1 3.5 0.6 0.6 0.9 1.7 1.1 2.6 0.2 1.2 0.7 2 1.7 2.5 3.8 1.7 8.4-0.4 8.5-4.7 0.2-5.8 3.2-9.5 8.2-11.8zm-13.8 10.6h-0.2v-6.9h0.2v6.9z"/>
<path class="elementor-shape-fill" d="m310.5 11.5c-0.2 1-0.1 2.1-0.3 3.1-0.5 3.6-2.3 6.5-5.5 8.4-0.5 0.3-0.9 0.7-1.4 0.8-1.7 0.5-2.2 1.6-1.9 3.3 0.1 0.4 0 0.9 0 1.5h5.3c4.5 0 8.9-0.1 13.4-0.2 1.4 0 1.8-0.5 1.9-1.9 0.2-2 0.3-4.1 0.9-6 0.6-1.6 1.8-3 2.8-4.6-1.8-0.8-3.5-2-4.7-3.8-0.3-0.4-0.5-1-0.5-1.5-0.2-2-0.9-2.9-2.9-3.3-3.7-0.9-6.4 1.3-7.1 4.2zm6.5 1.5h0.2v6.9h-0.2v-6.9z"/>
<path class="elementor-shape-fill" d="m374.5 20.8c0.1 0 0.2 0 0.2 0.1-0.2 0.1-0.5 0.1-0.7 0.3-1.6 1.7-3.5 2.9-5.6 3.9-0.6 0.3-0.8 0.6-0.8 1.3 0.1 0.9 0 1.7 0 2.7 0.4 0 0.7 0.1 1.1 0.1h17.8c1.2 0 1.6-0.3 1.8-1.5 0.2-1.1 0.4-2.3-0.9-3 0.3-0.2 0.4-0.4 0.6-0.5-0.3-0.4-0.5-0.7-0.9-1.3-0.2 0.5-0.3 0.9-0.4 1.3-1-0.4-2.1-0.9-2.8-1.2-1 0.2-1.7 0.3-2.6 0.5 0.2 0.3 0.4 0.5 0.7 0.8-0.8 0.3-1.5 0.5-2.4 0.8 0.2-0.3 0.3-0.6 0.5-0.9 0.2-0.4 0.5-0.8 0.6-1.3 0.2-0.6-0.1-1-0.8-1.1-0.5 0-1-0.3-1.4-0.7-0.4 0-0.9 0-1.3-0.1-1-0.3-1.1-0.2-1.2 0.9v-1.5c0.6-0.1 1.3-0.3 2-0.5 0.9 0.8 1.8 1.5 3.2 1.2 0.9-0.2 1.2-0.5 1.1-1.4-0.1-1.7 0-3.5 0-5.3h0.3v6.6c1.1-1 2-1.5 2.9-0.3h-0.6c-0.5 0.3-1.2 0.5-1.2 0.9-0.1 0.8 0.8 1.4 1.6 1.2 1-0.2 2.1-0.3 3.1-0.5 0.3-0.1 0.7-0.4 0.8-0.7 0.4-1.6 1.2-3 2.4-4.1 0.7-0.6 0.6-1-0.3-1.6-1.5-0.9-2.9-1.8-3.8-3.3-0.3-0.6-0.6-1.3-0.6-1.9-0.1-1.4-0.8-2.3-2-2.7-4-1.5-7.9 1-8.2 5.1-0.1 1.6-0.5 3.1-0.8 4.7v0.9h-0.2c-0.3 0.6-0.7 1.3-1.2 2.1zm14.1-0.5c-0.3 1-1.2 0.7-1.9 0.6-0.2 0-0.3-0.3-0.6-0.6h2.5z"/>
<path class="elementor-shape-fill" d="m437.7 11.1c-0.3 1.2-0.2 2.5-0.4 3.7-0.6 3.3-1.5 5.3-4.8 7.8 0.1 0 0.2 0.1 0.3 0.1-0.1 0.5 0 1-0.2 1.4-0.4 1-0.6 2 0.6 2.6 0 0 0.1 0 0.2-0.1 0.5-1 1.2-1.1 2-0.3 0.1 0.1 0.8-0.3 0.8-0.4 0-0.5-0.3-1.1-0.6-1.6-0.1 0.3-0.1 0.5-0.2 0.8h-0.2c-0.1-0.5-0.3-0.9-0.3-1.4 0-0.3 0.3-0.5 0.4-0.8 0.3 0.2 0.6 0.4 0.8 0.7 0.1 0.1 0.1 0.4 0.2 0.6l0.6 0.6c0-0.3 0.1-0.6 0.1-0.9 0-0.1-0.1-0.2-0.1-0.3 0.3-0.2 0.6-0.5 0.9-0.7 1.1 1.5 1.1 1.6-0.2 2.7 0.5 0.4 1 0.8 1.5 1.1 0-0.1 0.1-0.1 0.1-0.2-0.2-0.4-0.4-0.8-0.6-1.1l0.2-0.2c0.2 0.2 0.4 0.4 0.5 0.6 0.2-0.5 0.4-1 0.5-1.4l1.6 0.8c-0.1 0.1-0.3 0.4-0.6 0.8 0.5 0.1 1.1 0.2 1.8 0.2 0.5-0.5 0.4-0.9 0-1.5-0.3-0.5-0.1-1.2 0-1.9 1.2 1.2 0.9 2.5 0.2 3.8 0.8 0.4 2 0 1.8 1.7 0.9-0.1 1.7-0.2 2.6-0.3 0.1 0 0.1-0.1 0.2-0.1 1.3 0 1.7-0.4 1.8-1.8s0.2-2.9 0.4-4.3c0.3-2 1.2-3.7 2.7-5.1l0.6-0.6c-1.4-1.1-2.9-2.2-4.1-3.4-0.6-0.6-1-1.6-1.2-2.6-0.4-1.9-0.9-2.5-2.7-3-3.2-0.7-6.5 1-7.2 4zm6.4 2h0.2v6.8h-0.2v-6.8z"/>
<path class="elementor-shape-fill" d="m336 58c-4-6-9-11-17-7-3 1.5-3.2 4.2-2.5 6.7 1.5 6.3 8.5 7.3 13.2 6.7 3.2 0 6.1-1 8-4.5 0.1-0.9-0.6-1.8-1.7-1.9zm-15.2 0.7c0.2-1.7 0.2-4.7 0-6.4v6.4zm7.7 2.2c-3.5-1.9 1.5-4.9-0.5-6.9 0 0 1 0 0.6 0.4 0 2.2 0 4.4-0.1 6.5z"/>
<path class="elementor-shape-fill" d="m402.6 58.5c-1.5-0.1-2.1-1.2-3-2-0.9-0.7-1.1-1.6-1-2.8 0.1-2-1-3.1-3-3.1h-9.7c-1.5 0-2.2 0.8-2.2 2.2-0.7 5.2 1.3 10.2 4.3 11.2 3 2 16 3 16.2-3.6-0.1-1-0.6-1.8-1.6-1.9zm-15.3 0.8c-0.3-2.3-0.3-4.3 0-6.6v6.6zm7.6 2.3c0.1-1.6 0.1-4.6 0-6.7v6.7z"/>
<path class="elementor-shape-fill" d="m385.3 4.6c1.1 0.1 1.9 0.7 2.5 1.6 0.1 0.2 0.3 0.4 0.5 0.5 0.8 0.6 1 1.4 0.9 2.4-0.1 2.4 0.8 3.2 3.2 3.2h9.7c1.2 0 2-0.8 2-2v-6.4c0-0.9-0.2-1.8-1-2.1-1.8-0.6-2.3-1.9-2.3-3.6-1.7 0-3.3-0.1-4.9 0-3.1 0.2-6.3 0.4-9.4 0.8-1.9 0.2-3 1.7-2.9 3.6 0.1 1.2 0.6 1.9 1.7 2zm15.2-0.9h0.2v6.7h-0.2v-6.7zm-7.6-2.1h0.2v6.7h-0.2v-6.7z"/>
<path class="elementor-shape-fill" d="m258.2 4.6c2 0.2 2.8 1.9 3.9 3.1 0.3 0.4 0.2 1.2 0.2 1.8-0.2 1.8 1.2 3 2.9 2.9 1.6-0.1 3.2 0 4.8 0h5.2c1.3 0 2-0.7 2-2v-6.8c0-1.1-0.5-1.7-1.5-2-1.2-0.4-1.6-1.1-1.7-2.3 0-0.6-0.1-1.1-0.9-1.1-4.5 0.3-9 0.5-13.5 0.9-2.2 0.2-3.3 2.1-2.9 4.2 0.1 0.8 0.7 1.3 1.5 1.3zm15.2-0.9h0.2v6.8h-0.2v-6.8zm-7.5-2.1h0.2v6.6h-0.2v-6.6z"/>
<path class="elementor-shape-fill" d="m275 58.2c-4-1.2-3-5.2-5-6.2s-4.8-2-7.4-2.1-5.1 0.6-6.6 3.1c-2 4 1 9 4 10 2.5 1 6 2 9.2 1.9s6.1-1.4 7.4-4.8c0-1-0.5-1.8-1.6-1.9zm-15.3 0.8c0.3-2 0.3-4 0.2-6.5 0 2.2 0 4.4-0.2 6.5zm7.6 2.2c-0.3-1.5-0.3-4.4 0-6.5 0.1 2.1 0 4.3 0 6.5z"/>
<path class="elementor-shape-fill" d="m447.2 4.6c2 0.2 2.8 1.9 3.9 3.1 0.2 0.2 0.2 0.8 0.1 1.2-0.2 2.3 0.7 3.7 3.5 3.5 1.4-0.1 2.8 0 4.2 0h5c1.5 0 2.2-0.7 2.2-2.1v-6.5c0-1.1-0.4-1.9-1.4-2.2-1.2-0.4-1.8-1.2-1.8-2.5 0-0.7-0.3-1-1-1-4.5 0.3-8.9 0.5-13.4 0.9-2.1 0.2-3.4 2.1-2.9 4.2 0.3 0.8 0.9 1.3 1.6 1.4zm15.3-1h0.2v6.9h-0.2v-6.9zm-7.6-2h0.2v6.7h-0.2v-6.7z"/>
<path class="elementor-shape-fill" d="m463 58c-2-1-4-3-4-4.6 0.1-2.4-0.9-3.2-3.3-3.2h-0.9c-0.5 1.3-0.3 1.9 1.2 3.1-0.6 0-1.4-0.3-1 1.1-0.6-0.3-1.2-0.5-1.4-0.8-0.2-0.4 0-1 0-1.6s0-1.2-0.2-1.8c0-0.1-0.7 0-1 0h-3.7-2.3c-1.2 0-1.4 0.2-1.2 1.6-0.3-0.3-0.4-0.5-0.6-0.7-0.7 1-0.6 2-0.1 2.3-0.1 0.5-0.3 0.9-0.4 1.3-0.3 1.4-0.4 2.6-0.2 3.7 0.9 2.6 2.9 4.6 6.3 5.1 1.1 0.2 2.2 0.3 3.3 0.4s2.3 0.1 3.4 0.1h3.8c2 0 3-2 3.7-4.1 0.3-1-0.3-1.8-1.4-1.9zm-15.1 1c0.1 0 0.1-1-0.3-0.9v-3.9c0-0.5-0.3-0.9-0.4-1.5 0.2-0.2 0.4-0.5 0.8-0.9-0.1 2.4-0.1 4.8-0.1 7.2zm7.6 2.2c-0.5-2.2-0.5-5.2 0-6.7v6.7z"/>
<path class="elementor-shape-fill" d="m359.4 11.4c0.3 0 0.6 0.1 0.9 0.1h9.9c0.4 0 1-0.2 1.2-0.6 2.2-3.3 3.7-6.8 3.9-10.7 0.1-1.8-0.4-3.7-0.8-5.5 0-0.2-0.4-0.5-0.7-0.5h-9.2c-0.2 2.3-0.3 4.4-0.6 6.5-0.4 2.5-1.9 4.4-3.7 6.1-0.7 0.7-1.1 1.4-1 2.3 0.2 0.7 0.1 1.5 0.1 2.3zm10.6-11.7h0.2v6.3h-0.2v-6.3z"/>
<path class="elementor-shape-fill" d="m361.5 52.6h-9.7c-2.9 1.7-4.6 4.8-5.1 7.9-0.5 3 0.3 6 2.3 7.5 1 2 5 1.1 8 1.1-0.5-3 0.8-5.5 2.2-8s3-5.1 3.1-8.3c-0.3-0.2-0.5-0.2-0.8-0.2zm-9.6 11.5c0.1-2.3 0.1-4.2 0-5.9v5.9z"/>
<path class="elementor-shape-fill" d="m416 28c0.4 0.1 0.8 0.3 1.2 0.4 0.7 0.1 1.4-0.2 2.1 0.4 0.2 0.2 0.8 0 1.2-0.1 0.8-0.4 1.6-0.9 2.3-1.5 0.3-0.3 0.5-0.7 0.5-1.2 0.7-0.3 1.6-0.5 2-1.1 0.8-1.1 1.8-2.1 2.4-3.3 0.6-1.3 1.5-2.5 1.9-3.9 0.4-1.5 0.4-3.1 0.4-4.6 0-0.3-0.6-0.7-1-0.8-1.1-0.2-2.2 0-3.1 0.9-0.1 0.1-0.3 0.2-0.4 0.4-1.2 2.1-3.1 2.4-5.3 2.3-2.4-0.2-4.8-0.3-7 0.8-0.3 0.1-0.7 0.1-1 0.1-1 0.1-1.9 0.2-2.9 0.4-0.2-0.1-0.3-0.3-0.5-0.3-3.2 0-6.4-0.1-9.6-0.1-1.5 0-2.7 0.8-3.6 1.9-0.7 0.8-1.2 1.7-1.8 2.6 0.1 0.1 0.2 0.1 0.3 0.2 0.3-0.4 0.7-0.9 1.1-1.4 0.1 0.3 0.2 0.6 0.4 0.9 0.3-0.1 0.6-0.2 0.8-0.3-0.3 0.7-0.7 1.4-1.1 2.3-0.4 0-1 0.1-1.6 0.1v0.4h3.6c-0.3-0.5-0.5-0.9-0.7-1.2 0-0.1 0.1-0.1 0.1-0.2 0.7 0.5 1.3 0.9 2.2 1.5-0.4 0-0.7-0.1-1.3-0.1 1.7 1.9 3.2 3.6 4.8 5.3 0.2 0.3 0.7 0.5 1.1 0.5 2.4 0.1 4.8 0 7.2 0 0.2 0 0.5-0.2 0.7-0.2-1.2-1.2-2.3-2.4-3.6-3.7-0.1 0.5-0.2 0.8-0.2 1h-0.2c0-0.5-0.1-0.9-0.1-1.4-0.3 0.2-0.6 0.4-1 0.6-0.2-0.9-0.4-1.7-0.7-2.5-0.6 0.1-1 0.2-1.5 0.3 0.2-0.9-0.5-0.6-0.9-0.7-0.3 0-0.6 0-1.1 0.1 0.7-0.8 1.3-1.4 1.9-2 0.6-0.5 0.8-1 0.1-1.7 0.5-0.4 0.9-0.7 1.4-1.2v1.2c0.4-0.5 0.7-0.7 1.1-1.2-0.1 0.9-0.2 1.6-0.3 2.3 1 0.7-1 1.5-0.1 2.3 0.7 0.2 1.1-0.1 1.1-1-0.1-1.5 0.1-2.9 1.4-3.9 0.4 1 0.7 1 1.8 0.2-0.2 0.9-0.3 1.7-0.5 2.6 0.1 0.1 0.3 0.1 0.4 0.2l0.6-0.9h0.3c0.1 1.2 0.1 2.3 0.2 3.5 0.3 0 0.7-0.1 1.1-0.1 0.1 0.6 0.2 1.2 0.4 1.7 0.3 1 1 2 0.4 3.2 0 0.1 0.3 0.4 0.5 0.6s0.5 0.3 0.8 0.4c-0.4 0.1-0.7 0-1 0-0.7 0-1.4 0.1-2.1 0.1 0.5 0.1 0.9 0.2 1.4 0.2h4.9v-0.3c-0.7 0.1-1.4 0.1-2.2 0.2 0-0.3-0.1-0.6-0.1-0.9 0.2-0.3 0.3-0.3 0.4-0.3zm3.9-6.2c0.1-0.7 0.3-1.4 0.4-2 0.1-0.4 0-0.7 0.1-1.4 0.8 1.2-0.5 2.9 1.2 3.5-0.4 1.2-0.8 2.4-1.1 3.5-0.2-1.1-0.4-2.2-0.6-3.2v-0.4zm-22.9-3.4c1.2-0.5 1.9-0.1 2.8 1.8-1-0.6-1.9-1.2-2.8-1.8zm5.8 4.9c0.5 0.3 1 0.3 1.3-0.3 0.3 0.6 0.6 1.3 0.9 2-1.8 0.3-2.2-1.8-3.5-2.2 0.5 0.1 0.9 0.3 1.3 0.5z"/>
<path class="elementor-shape-fill" d="m438.2 37.1c0.1-0.1 0-0.4-0.1-0.4-0.1-0.1-0.3-0.1-0.4-0.1-0.5 0.2-1.1 0.5-1.7 0.7-1-1.2-2-2.5-3.3-4-1.8-0.4-3.3 1-4.9 2.2-3.2 2.5-5.3 5.8-6.6 9.6-0.5 1.3-0.3 2.9-0.2 4.4 0 0.3 0.9 0.9 1.3 0.9 0.9-0.1 1.8-0.6 2.7-0.9 0.1 0 0.2-0.2 0.3-0.3 1.2-2.1 3.1-2.5 5.4-2.3 2.4 0.2 4.9 0.3 7.1-0.9 0.3-0.2 0.7-0.1 1-0.2 0.4-0.9 0.4-1.5-0.4-2.1-0.9-0.6-0.8-1.7-0.1-2.8 0.3-0.4 0.7-0.7 1.1-1.2-0.5-0.3-0.9-0.5-1.4-0.7-0.7-0.3-0.7-0.7-0.2-1.3 0.1-0.2 0.3-0.3 0.4-0.6zm-7.7 6.7h-0.2v-6.7h0.2v6.7z"/>
<path class="elementor-shape-fill" d="m320.2 4.6c1 0.1 1.8 0.5 2.3 1.3l0.3 0.3c1.2 0.8 1.6 1.9 1.4 3.3-0.1 1.1 0.4 2 1.4 2.5 0.2 0.1 0.3 0.2 0.5 0.2h7.5c-1.1-1.1-2.1-2-3.1-2.9 0.4-0.6 0.9-1.5 1.5-2.4 1.2 0.9 1.8-0.4 2.7-0.8 1.3-0.5 0.3-1.8 0.9-2.9 0.1 0.6 0.2 0.9 0.2 1.2v2.1c0 0.3 0.3 0.9 0.4 0.8 0.4-0.1 0.8-0.3 1.1-0.6 0.1-0.1-0.2-0.6-0.4-0.9-0.1-0.1-0.3-0.2-0.4-0.4h2.7l-0.6-1.2c0.7-0.6 0.7-2.1-0.4-2.6-1.6-0.6-2.3-1.6-2.3-3.3 0-0.1-0.4-0.4-0.7-0.4-3.1 0.1-6.2 0.2-9.4 0.3-1.4 0.1-2.9 0.3-4.3 0.5-1.9 0.3-3.1 2-2.9 3.9 0.1 1.3 0.7 1.9 1.6 2zm7.7-3.1h0.2v6.8h-0.2v-6.8z"/>
<path class="elementor-shape-fill" d="m409.4 12.3c3 0 5.9-0.8 8.2-2.7 1.6-1.3 3-2.9 4.3-4.5 1.2-1.4 1.7-3.1 1.6-5-0.1-1.4 0-1.4-1.5-1.5h-4.9-4.9c-0.6 0-1 0.1-1.1 0.9-0.1 0.9-0.7 1.7-1.7 2.1-1.4 0.5-2 1.5-2 2.9 0 2.2 0 4.4 0.1 6.5 0.1 0.8 0.8 1.3 1.9 1.3zm7.7-12h0.2v6.9h-0.2v-6.9zm-6.4 3.5h0.2v6.7h-0.2v-6.7z"/>
<path class="elementor-shape-fill" d="m378.2 50.7c-3 0.1-5.9 0.9-8.1 2.9-2 3.3-8 6.3-4 9.2 2.5 2 6.8 2 10 0.3 3.3-1.8 5.6-5.3 4.3-10.5-0.1-1.3-0.8-2-2.2-1.9zm-7.5 11.7c0.3-2.4 0.3-4.4 0-6.4v6.4zm6.4-3.1c-0.1-2.3-0.1-4.3 0-6.6v6.6z"/>
<path class="elementor-shape-fill" d="m280.4 10.5c0 1.3 0.6 1.9 1.9 1.9 3.5 0 6.6-1.1 9.1-3.5 1.1-1 2.1-2.2 3-3.4 1.4-1.7 1.9-3.6 1.7-5.8 0-0.7-0.3-0.9-0.9-0.9h-5.4v-0.1h-4.8c-0.7 0-1.1 0.1-1.2 0.9-0.2 1-0.7 1.7-1.7 2.1-1.3 0.5-1.9 1.5-1.9 3 0.3 1.8 0.2 3.8 0.2 5.8zm9.6-10h0.2v6.7h-0.2v-6.7zm-6.4 3.2h0.2v6.8h-0.2v-6.8z"/>
<path class="elementor-shape-fill" d="m311.6 50.3c-2.8 0.4-6.9 2.3-9.8 4.7-3.8 2-3.8 7-0.8 9 4 1.5 7.5 0.5 9.9-1.8s3.6-6 3-9.8c-0.1-1.6-0.7-2.2-2.3-2.1zm-7.4 11.5c-0.3-1.9-0.2-3.9 0.1-6.3-0.1 2.2-0.1 4.3-0.1 6.3zm6.5-3.1c0.3-1.7 0.3-4.7 0-6.5v6.5z"/>
<path class="elementor-shape-fill" d="m344.2 12.3c3.4 0 6.5-1 9.1-3.4 1.1-1 2.1-2.1 3.1-3.2 1.5-1.8 2.2-3.8 1.9-6.1 0-0.3-0.5-0.9-0.7-0.9-3.8-0.1-7.5 0-11.4 0-0.1 1.6-1 2.6-2.5 3.2-0.9 0.4-1.3 1.3-1.3 2.2v6.3c0 1.3 0.6 1.9 1.8 1.9zm7.8-12h0.2v6.9h-0.2v-6.9zm-6.4 3.4h0.2v6.8h-0.2v-6.8z"/>
<path class="elementor-shape-fill" d="m469.4 10.5c6.6 5.5 16.6-5.5 14.6-9.5-3-5-12-3-14.6 3.3 0.1 2.1 0 4.1 0 6.2zm9.4-9.9c-1.8 2.4 4.2 5.4-0.8 7.4 0-1 1-3 0.6-3.9 0-1.2 0.1-2.3 0.2-3.5zm-6.2 3.1c0.4 2.3 1.4 6.3 0.4 6.3-6 2-1-2-0.5-2.8 0-1.2 0-2.3 0.1-3.5z"/>
<path class="elementor-shape-fill" d="m439.3 50.9v-0.3c-0.3-0.1-0.5-0.3-0.8-0.3-1.4 0.1-2.8 0.4-4.1 0.8s-2.5 1.1-3.6 2c-3.8 1.9-7.8 5.9-4.8 8.9 3 4 15 2 15.3-6.3 0-1.2-0.1-2.4-0.4-3.7 0-1.2-0.5-1.6-1.6-1.1zm-8.7 10.7c0.4-1.6 0.4-3.6 0.4-5.6v2.7c-0.1 1-0.3 2-0.4 2.9zm7.2-6.5c0.1 0.4 1.4 1.7 1.9 2.6 0.5 1 0.2 1.7-2.9 1.2 0.1-1 0.2-2.9 0.5-4.3-0.6-1.1 0.2-1.6 0.3-2.3 0.3 0.6 0.5 1.1 0.8 1.5-0.3 0.4-0.6 0.9-0.6 1.3z"/>
<path class="elementor-shape-fill" d="m474 44.2c0.6-1.1 1.4-2 2.2-2.8 0.9-0.8 1.9-1.4 3-2 1.8-0.4-0.2-3.4 1.8-3.4-2-1-4-2-5.7-0.2 0.1 0.1-0.2 0.5-0.4 0.9-0.1-0.5-0.2-0.7-0.3-1.2-0.2 0.4-0.3 0.7-0.4 0.9-0.3-0.3-0.7-0.6-1.2-1-0.1 0.5-0.2 0.8-0.3 1.4-0.5-1.8-1.6-1.5-2.9-1.1-0.1-0.4-0.1-0.8-0.2-1.4-0.7 0.4-1.4 0.7-2 1 0 0.1 0.1 0.2 0.1 0.3h0.9c-0.2 0.6-0.3 1.2-0.5 1.9-2.9-0.3-0.2 1.6-1 2.3-0.7-0.6-1.5-1.2-2.3-1.8 0.2-0.4 0.4-0.8 0.5-1.1-0.1 0-0.2 0-0.3 0.1-0.2-0.5-0.4-1.1-0.7-1.5-0.2-0.3-0.7-0.6-1-0.6-0.4 0-0.8 0.3-1.3 0.4l0.6 1.8c-0.9 0.7-2 1.3-1.7 2.9 0.4 0 0.9 0.1 1.1 0.1 0-0.5 0-1 0.1-1.4 0.1-0.2 0.5-0.5 0.7-0.4 0.3 0.2 0.6 0.5 0.7 0.8 0.1 0.2-0.2 0.6-0.4 0.8-0.6 0.5-1.2 1-2.1 0.9-0.2 0-0.5 0.6-0.6 1.2 0.2 0 0.4-0.1 0.6-0.1v1.7c-0.3-0.4-0.6-0.6-0.8-0.9-0.2 0.4-0.5 0.9-0.7 1.4 0.3 0.2 0.6 0.4 0.9 0.7-0.2 0.4-0.3 0.7-0.5 1.2 1.2-0.1 2.3-0.2 3.5-0.3-0.1-0.3-0.1-0.6-0.2-0.9 1.4-0.3 1.1 1.6 2.3 1.6 0.1-0.8 0.3-1.5 0.4-2.4 0.1 0 0.5-0.1 0.9-0.1 0.1-0.5 0.1-0.9 0.2-1.4 0.3 0.8 0.6 1.5 1 2.3l0.4-0.4c1.2 0.9 2.7 0.3 2.8 1.8 0.5 0.1 0.9 0.1 1.3 0.2 0.2-0.8 0.3-1.9 1.6-1.7-0.3-0.1-0.2-0.3-0.1-0.5zm-5.8-0.2 0.4-0.4 0.3 0.3c-0.3 0-0.5 0.1-0.7 0.1z"/>
<path class="elementor-shape-fill" d="m481.3 57.9c-0.1-0.5 0.1-1.7-0.5-2.4-0.5-0.7-1.8-1-4.8 0.5-2 1-4 7-1 11 3 2 7 2 8 0 0.5-1.5 1.5-3.5 1.9-5.5s0.2-3.9-1.6-5.2c-0.1 1.6-1.4 1-2 1.6zm-2.6 5.6c0.3-0.5 0.3 0.5 0.3 0.5 0-2 0-4-0.1-5.9-0.1 1.9-0.1 3.7-0.2 5.4z"/>
<path class="elementor-shape-fill" d="m301.2 50.5c-2.1 0.4-4.4 1-6.7 1.9s-4.6 1.9-6.5 3.1c-5 2.5-7 8.5-2 10.5 5 1 7-3 9.8-6 1.4-1.7 2.6-3.6 3.8-5.4 1.2-1.2 1.6-2.4 1.6-4.1zm-10.2 12.5c-0.2-1.4-0.1-4.2 0.1-6.3 0 2.2 0 4.3-0.1 6.3z"/>
<path class="elementor-shape-fill" d="m421.8 9.2c-1.3 1.1-1.5 2.4-1.5 3.9 1.4 0.3 2.7 0.3 3.4-1.2 0.2-0.4 0.6-0.6 0.8-1 0.9-1.5 2.2-2.1 4-1.9 4 0.6 6.3-1.7 8.2-4.7 1.2-1.9 2.1-4 2.5-6.4h-12.4c-0.3 1.7-0.5 3.4-1.1 5.1-0.7 2.4-1.9 4.5-3.9 6.2zm8.5-9.2h0.2v6.7h-0.2v-6.7z"/>
<path class="elementor-shape-fill" d="m294.7 9.2c-1.3 1.1-1.5 2.4-1.3 3.9 1.3 0.3 2.5 0.2 3.3-1.1 1.3-2.2 3.1-3.3 5.8-2.9 3 0.5 5-1.5 6.5-3.7 1.3-2 2.1-4.3 3.1-6.5 0.1-0.2 0.1-0.5 0.1-1h-12.4c-0.4 1.8-0.6 3.5-1.1 5.2-0.8 2.4-2.1 4.5-4 6.1zm8.5-9.2h0.2v6.8h-0.2v-6.8z"/>
<path class="elementor-shape-fill" d="m428.2 50.5c-8.2 1.5-16.2 6.5-19.2 14.5 8 2 15-4 17.7-10.8 1.5-1.4 1.5-1.4 1.5-3.7zm-10.4 12.5c0.2-2 0.2-4 0.2-6 0 1 0 2 0.1 2.9-0.1 1-0.2 2.1-0.3 3.1z"/>
<path class="elementor-shape-fill" d="m411.5 28.8h0.1-0.1z"/>
<path class="elementor-shape-fill" d="m447.5 45.2c-0.2 0-0.4 0-0.6-0.1 0.4 1 2.8 1.1 3.4 0.3 0.6 0.2 1.1 0.4 1.9 0.6-0.4-1.1-0.1-2.3-1.6-2.3-0.1 0-0.2-0.2-0.3-0.3-0.2-0.4-0.5-0.8-0.7-1.4 0.3-0.5 0.7-0.7 1.3 0.1 0.8-1.3-0.8-2.9 0.5-3.9-0.4-0.6-0.8-1.1-1.2-1.7-0.3-0.5-0.5-1.1-0.8-1.9 0.1-0.2 0.2-0.6 0.4-1-0.7-0.4-1.2-0.6-1.3 0.5-0.9-0.1-2.1 0.1-2.4-0.3-0.6-0.9-1.4-0.3-1.9-0.4-0.8-0.1-2.1 0.1-2.5 0.7-0.6 0.9-1.3 0.7-1.8 0.9 0-0.5 0.1-1.2-0.1-1.4-0.3-0.3-1-0.4-1.4-0.2-0.4 0.1-0.7 0.1-1.2 0-0.7-0.2-1.5-0.1-2.3-0.1 0 0.1 0 0.3-0.1 0.4 0.4 0.2 0.7 0.4 1.3 0.7 0.2-0.3 0.3-0.5 0.6-0.9l0.8 0.8c-0.9 0-1.5 0.1-1.2 0.9-0.7 0.1-0.6-1.5-1.7-0.6 1 0.6 1.6 1.7 3.1 1.4 0.4-0.1 1.1 0.6 1.8 0.8-0.3-0.3-0.7-0.6-1.1-1 0.6 0.1 1 0.1 1.5 0.2 0.3 1.5 0.9 1.9 3 1.8 0-0.5 0.1-1 0.1-1.6 0.7 1.5-0.3 3.2 0.9 4.5-0.9 1-1 3 0 4.5 0.1-0.5 0.1-0.8 0.2-1.1 0.3-0.1 0.7-0.2 1-0.4 1.1-0.4 2.1 0.1 2.4 1.5zm0.3-10.4 1.2 1.2c-0.3 0.1-0.6 0.2-0.8 0.2-0.3-0.4-0.5-0.8-0.8-1.1 0.2-0.1 0.3-0.3 0.4-0.3z"/>
<path class="elementor-shape-fill" d="m489.7 45.3c1.3-0.3 4.3-0.3 3.3-2.3-1-1-1-4-4-3-2 0.5-1.2 1.2-0.8 2s0.8 1.5-2.2 2c0 2 1 2 2 3-1-1-2-1-3-1 2 2 2 3-1 3 1-0.5 2.2 0.5 3.4 1s2.3 0.6 3.1-1.7c0.9-1 0.5-2.6-0.8-3z"/>
<path class="elementor-shape-fill" d="m486.3 52.6c-0.3 1.4 0.7 1.4 0.7 2.4-2-2-2-5-8.1-2.4-0.5 0-1 0.3-1.7 0.6 1.4 0.7 2.6 1.3 3.8 2 3-1.1 5 1.9 8 1.9 0-2 0-4-2.5-4.7-0.1 0-0.1 0.1-0.2 0.2z"/>
<path class="elementor-shape-fill" d="m487.9 53z"/>
<path class="elementor-shape-fill" d="m468.4 53.1c-0.4 0.3-0.8 0.7-1.3 1.2-0.1-0.6-0.2-0.9-0.3-1.1-0.7 0.1-1.4 0.2-2.3 0.3 0.7-1.6 0.5-1.8-0.8-2.7-0.6-0.4-1.1-1-1.8-1.6-0.3 0-0.8 0.1-1.4 0.2 1.3 1.1 1.6 2.5 1.8 4 0.1 0.7 0.9 1.5 1.6 1.9 1.4 0.8 2.9 0.9 4.7 0.3-0.4-0.3-0.7-0.4-1-0.6 0 0 0-0.1-0.1-0.4 0.7 0.2 1.3 0.4 2 0.7 0.5-0.5 1.2-1 2-1.7-0.7-0.4-1.3-0.8-2-1-0.2-0.1-0.7 0.3-1.1 0.5z"/>
<path class="elementor-shape-fill" d="m496.3 60c-1.2-1.1-1.1-4.2-4.2-2.1-2.1 2.1 3 3-0.1 5.1 2-1 3.1-2.1 5.1-2.4-0.3-0.2-0.5-0.4-0.8-0.6z"/>
<path class="elementor-shape-fill" d="m333.7 7.5c-0.4 0.4-0.5 1.1-0.7 1.6-0.3 0-0.7-0.1-1-0.1 0 0.1-0.1 0.1-0.1 0.2 1.1 0.7 0.8 3 3 2.5 0.1 0.3 0.1 0.6 0.2 0.6 0.3 0 0.5 0 0.8-0.1 0.2-0.1 0.4-0.3 0.6-0.4 0.1 0.2 0.2 0.5 0.3 0.5 0.4 0.1 0.8 0.1 1.1 0 0.3-0.2 0.3-0.6 0.4-0.9-0.8-0.5-1.4-0.8-2.2-1.3 0.3-0.6 0.5-1.3 0.8-2-0.3 0-0.7 0.1-1.2 0.2v2.3h-0.4v-4.1c-0.7 0.4-1.3 0.6-1.6 1z"/>
<path class="elementor-shape-fill" d="m472.3 49.3c-0.7 0-1.3 0.1-1.9 0.1-0.2-1.3 0.4-1.9 2.1-2.2-0.8-0.9-1.4-0.6-2.9 1l-0.9-0.9c-0.1 0.6-0.1 1.1-0.2 1.8h-2.4c0.3 0.5 0.6 1.1 1 1.8 0.3-0.2 0.7-0.3 1-0.5 0.3 0.4 0.6 0.7 0.9 1.1 0.1 0 0.1-0.1 0.2-0.1 0-0.3-0.1-0.5-0.1-1.1 1.1 0.6 2 1.2 3.2 1.9 0.2-1.4 0.3-2.8 0.5-4.3-0.5 0.2-0.8 0.3-1.3 0.4 0.2 0.3 0.4 0.6 0.8 1z"/>
<path class="elementor-shape-fill" d="m433.9 26.8c-0.1 0.3-0.3 0.9-0.5 1.6h6.3c-0.3-0.5-0.4-0.9-0.7-1.1-0.1-0.1-0.5 0.2-0.8 0.3-0.2 0.1-0.4 0.1-0.8 0.1 0.4-0.6 0.6-0.9 1-1.4-1.6 0.2-2.9 0.4-4.5 0.5z"/>
<path class="elementor-shape-fill" d="m429.2 24.7c-0.6-0.3-0.8 0.2-0.7 1l0.3 2.7c0 0.1 0.2 0.2 0.3 0.2s0.3-0.1 0.3-0.2c0.2-1.3 1.3-1.1 2.2-1.3-0.3-1.1-0.6-2.1-0.9-3.4-0.5 0.3-0.9 0.6-1.5 1z"/>
<path class="elementor-shape-fill" d="m456.3 37.9c0-0.4-0.3-1-0.5-1-1.2-0.1-1.3-1-1.5-1.9 0-0.2-0.1-0.4-0.1-0.8-1 0.6-1.9 1.2-3 1.8 0.8 0.4 1.7 0.7 2.6 1.1 0.1-0.2 0.1-0.3 0.2-0.6 0.6 0.3 1.2 0.6 1.9 1-0.7-0.1-1.2-0.1-1.8-0.2 0 1.1 0.8 1.1 1.4 1.1 0.3 0.1 0.8-0.4 0.8-0.5z"/>
<path class="elementor-shape-fill" d="m459.1 45.6c-0.1 0-0.2 0-0.4-0.1 0.1 1.6-1.3 0.5-1.8 1.1 2.8 2.4 5 2.8 6.4 1-1.6 0.8-2.6-0.6-3.8-0.6-0.1-0.5-0.3-0.9-0.4-1.4z"/>
<path class="elementor-shape-fill" d="m497.3 42.9c-0.2 3-2.1 0-3.2 1s0.9 2 2 2c1.1-1.1 2.3-2.1 3.1-3-0.6 0-1.3-0.2-1.9 0z"/>
<path class="elementor-shape-fill" d="m481.9 46.8c-1.9-0.8-0.9-2.8-0.9-4.8-1 3-2 5 1 7 0 0 0-1-0.4-1.3 0-0.3 0.2-0.5 0.3-0.9z"/>
<path class="elementor-shape-fill" d="m399.8 29c-0.3-0.3-0.6-0.6-0.7-0.9s0-0.6 0.1-1c-1.9-0.9-1.9-0.9-2.7-0.5 0.3 3.1 0 2.4 3.3 2.4z"/>
<path class="elementor-shape-fill" d="m393.4 23.6c-0.1 1.4 1.5 2.4 3 2.2 0.3-1.7-0.6-2.3-3-2.2z"/>
<path class="elementor-shape-fill" d="m454.7 42.8c-0.6-0.7 0-1.8-1.1-2.1-0.3-0.1-0.8 0-1.1 0.1v0.3c0.2 0.2 0.5 0.3 0.8 0.6-0.3 0.5-0.5 0.9-0.9 1.6 0.8-0.2 1.4-0.3 2.3-0.5z"/>
<path class="elementor-shape-fill" d="m464.5 36.1c0.7 0.1 1.4 0.2 2.2 0.3 0.4-1.1-1.9-0.6-1-1.9-1.2-0.1-1.3 0.1-1.2 1.6z"/>
<path class="elementor-shape-fill" d="m493.9 41.5c0.2 1.4 0.2 1.4 0.2 2.4 1.1-1.1 4.5-2.2 1.4-3.7-0.6 0.4-1.1 0.9-1.6 1.3z"/>
<path class="elementor-shape-fill" d="m443 40.3v-1.3c-0.4-0.2-0.9-0.4-1.3-0.5-0.7 0.9-0.3 1.5 1.3 1.8z"/>
<path class="elementor-shape-fill" d="m484.1 45.8c-4.1 1.2 0.9 1.2 0.1 2.2-0.1-0.7-0.1-1.4-0.1-2.2z"/>
<path class="elementor-shape-fill" d="m489.6 54c0.4-2-0.6-2-1.6-2 0 0 0 1-0.1 1 0.6 0.3 0.5 1.6 1.7 1z"/>
<path class="elementor-shape-fill" d="m396.5 24c0.7 0.5 1.5 0.9 2.3 1.5-0.3-1.4-1-1.9-2.3-1.5z"/>
<path class="elementor-shape-fill" d="m487 35.5c-0.8 0.7-1.5 1.2-2.2 1.7 1.3 0.3 1.7 0 2.2-1.7z"/>
<path class="elementor-shape-fill" d="m499.7 44.4c0.3 6.6 0.7 0.5 1.4 0.3-0.5-0.2-1-0.5-1.4-0.3z"/>
<path class="elementor-shape-fill" d="m467.2 46.8c0.3 0.2 0.6 0.4 1 0.6 0.1-0.5 0.1-0.9 0.1-1.3-0.7-0.5-1-0.1-1.1 0.7z"/>
<path class="elementor-shape-fill" d="m451.6 33.5h-1.3c0.1 0.2 0.2 0.5 0.3 0.7-0.2 0.1-0.4 0.3-0.6 0.5 1.1 0.2 1.3-0.5 1.6-1.2z"/>
<path class="elementor-shape-fill" d="m442.1 27.1c-0.1-0.2-0.2-0.5-0.4-0.5s-0.5 0.2-0.5 0.3c-0.1 0.2 0 0.5 0.2 0.7 0.3 0.3 0.7 0.5 1.3 1-0.1-0.4-0.2-0.6-0.3-0.8-0.1-0.3-0.2-0.5-0.3-0.7z"/>
<path class="elementor-shape-fill" d="m432.9 28.2c0-0.1 0-0.2-0.1-0.4l-1.2-0.3c-0.1 0.3-0.1 0.6-0.2 1.2 0.6-0.2 1-0.3 1.5-0.5z"/>
<path class="elementor-shape-fill" d="m462.3 47.3c-0.1-0.4-0.2-0.8-0.4-1.2 0-0.1-0.3-0.1-0.6-0.2 0.2 0.3 0.3 0.5 0.4 0.7l0.3 0.9c0.1-0.1 0.3-0.2 0.3-0.2z"/>
<path class="elementor-shape-fill" d="m482.1 49c0.9 0 0.9 1 1.9 1 0-2-1-2-1.6-1.5-0.1 0.1-0.2 0.3-0.3 0.5z"/>
<path class="elementor-shape-fill" d="m338.6 8.5c-0.1-0.1-0.2-0.3-0.3-0.4-0.4 0.3-0.7 0.5-1.3 0.9 1 0.4 1.4 0.1 1.6-0.5z"/>
<path class="elementor-shape-fill" d="m498.6 42.4c-0.1 0.4 6.8-1.1-0.2-0.9-0.3 0.4-0.5 0.9 0.2 0.9z"/>
<path class="elementor-shape-fill" d="m443 28c0.5 0.2 0.9 0.3 1.4 0.5 0.1-0.2 0.1-0.4 0.2-0.6-0.5-0.1-0.9-0.2-1.4-0.3-0.1 0-0.2 0.3-0.2 0.4z"/>
<path class="elementor-shape-fill" d="m409.6 25.7-0.3 0.3c0.6 0.8 1.3 1.6 1.9 2.3 0.1-0.1 0.2-0.1 0.3-0.2-0.1-1.2-1.3-1.5-1.9-2.4z"/>
<path class="elementor-shape-fill" d="m407.9 21.9c1.2-0.7 0.5-1.3 0-2.1v2.1z"/>
</svg>
