<?xml version="1.0" encoding="UTF-8"?>
<svg preserveAspectRatio="none" viewBox="0 0 1e3 100" xmlns="http://www.w3.org/2000/svg">
<style type="text/css">.st0{opacity:0.4;}</style>
<path class="elementor-shape-fill st0" d="m4.9 55.3c0.4-0.2 0.8-0.7 0.6-0.9-0.4-0.5-1.2-0.4-1.8-0.1-1.3 0.5-2.5 1-3.7 1.5v1.4c0.3 0 0.7 0 0.9-0.1 1.4-0.6 2.7-1.2 4-1.8z"/>
<path class="elementor-shape-fill st0" d="m6.4 70.6c-2.1-0.5-4.2-0.9-6.4-1.4v1.1c1.9 0.4 3.7 0.9 5.6 1.3 0.3 0.1 0.8-0.1 1.3-0.2-0.2-0.2-0.3-0.7-0.5-0.8z"/>
<path class="elementor-shape-fill st0" d="m314.7 0h-2.5c0.4 0.3 0.9 0.7 1.2 0.7 0.4-0.1 0.8-0.4 1.3-0.7z"/>
<path class="elementor-shape-fill" d="m60.5 0h-2.5c0.4 0.3 0.9 0.7 1.2 0.7 0.5-0.1 0.9-0.4 1.3-0.7z"/>
<path class="elementor-shape-fill st0" d="m245 0.6c0.1 0 0.5-0.4 0.8-0.6h-2.3c0.5 0.2 1 0.5 1.5 0.6z"/>
<path class="elementor-shape-fill" d="m497.7 0c0.5 0.2 0.9 0.5 1.5 0.6 0.1 0 0.5-0.4 0.8-0.6h-2.3z"/>
<path class="elementor-shape-fill" d="m464.9 0h-1.8c0.4 0.2 0.8 0.4 1.2 0.5 0.2-0.1 0.4-0.3 0.6-0.5z"/>
<path class="elementor-shape-fill" d="m210.7 0h-1.8c0.4 0.2 0.8 0.4 1.2 0.5 0.2-0.1 0.4-0.3 0.6-0.5z"/>
<path class="elementor-shape-fill" d="m147.4 19.2c0-0.9-0.8-1.1-2.1-0.6l-9 3.6c-0.4 0.2-0.7 0.4-1 0.6-0.6 0.5-0.6 0.8 0.4 0.9 0.4 0.1 1.1 0 1.5-0.1 3.2-1.2 6.3-2.5 9.4-3.8 0.4-0.1 0.6-0.5 0.8-0.6z"/>
<path class="elementor-shape-fill" d="m139.5 78.3c-0.1-0.1-0.3-0.3-0.5-0.4-0.5-0.1-1.1-0.2-1.6-0.1-0.2 0-0.3 0.5-0.3 0.8 0.1 0.3 0.4 0.6 0.7 0.9 1 1 2.1 1.9 3.1 2.9 1 0.9 2.1 1.8 3.3 2.7 0.2 0.2 0.9 0.3 1.1 0.2 0.4-0.2 0.5-0.5 0.8-0.7-0.2-0.3-0.3-0.5-0.5-0.7-2-1.9-4-3.7-6.1-5.6z"/>
<path class="elementor-shape-fill" d="m393.5 78.1c-0.3-0.2-0.7-0.3-0.9-0.4-1.1 0-1.5 0.2-1.3 0.7 0.1 0.3 0.3 0.6 0.6 0.9l3.9 3.6c0.9 0.8 1.7 1.5 2.8 2.2 0.7 0.5 1.4 0.3 1.6-0.4 0.1-0.2 0-0.5-0.2-0.7-2.2-2-4.4-3.9-6.5-5.9z"/>
<path class="elementor-shape-fill" d="m401.6 19.2c0-0.7-0.5-1-1.4-0.8-0.3 0.1-0.6 0.2-0.9 0.3-2.9 1.2-5.8 2.3-8.7 3.5-0.4 0.2-0.8 0.4-1.1 0.6-0.7 0.5-0.6 0.8 0.4 1 0.3 0.1 0.9 0.1 1.2-0.1 3.3-1.3 6.6-2.6 9.9-4 0.3-0.1 0.5-0.4 0.6-0.5z"/>
<path class="elementor-shape-fill st0" d="m12.8 2.3c-0.6-0.5-1.1-1-1.7-1.5-0.3-0.2-1-0.3-1.4-0.2-0.3 0-0.5 0.5-0.5 0.7 0 0.3 0.3 0.5 0.6 0.7 0.5 0.5 1 0.9 1.5 1.4 1.5 1.4 3.1 2.7 4.7 4.1 0.2 0.3 0.8 0.5 1.3 0.5 0.3 0 0.6-0.4 0.9-0.7-0.3-0.4-0.6-0.7-0.9-1-1.5-1.3-3-2.7-4.5-4z"/>
<path class="elementor-shape-fill st0" d="m269.9 5c-1.5-1.4-3-2.8-4.6-4.1-0.3-0.2-1-0.4-1.5-0.4-0.8 0.1-0.7 0.6-0.4 0.9 0.2 0.2 0.4 0.5 0.6 0.7 1.1 1 2.1 2 3.2 3 0.9 0.9 1.9 1.7 2.9 2.5 0.3 0.2 0.9 0.4 1.2 0.4s0.6-0.4 0.9-0.7c-0.3-0.3-0.5-0.6-0.7-0.9-0.5-0.4-1.1-0.9-1.6-1.4z"/>
<path class="elementor-shape-fill" d="m351.8 55.7c-2.8-1-5.6-1.9-8.5-2.9-0.7-0.2-1.5-0.3-2 0.2-0.4 0.4-0.1 0.8 0.6 1.1 0.3 0.1 0.5 0.2 0.8 0.3 0.8 0.2 1.6 0.4 2.4 0.7 1.8 0.6 3.6 1.3 5.4 2 0.5 0.2 1 0.2 1.8 0.4 0.2-0.3 0.7-0.5 0.6-0.7-0.1-0.5-0.5-0.9-1.1-1.1z"/>
<path class="elementor-shape-fill st0" d="m89.1 52.8c-0.4-0.1-1.4 0-1.7 0.2-0.5 0.3-0.2 0.8 0.5 1.1 0.3 0.1 0.6 0.2 0.9 0.3 0.7 0.2 1.5 0.4 2.2 0.6 1.5 0.5 2.9 1.1 4.4 1.6 0.8 0.3 1.7 0.5 2.5 0.7 0.7 0.1 1.1-0.1 1.3-0.6-0.3-0.3-0.6-0.7-1.1-0.8-3-1.2-6-2.2-9-3.1z"/>
<path class="elementor-shape-fill" d="m326.8 29.4c-0.6 0-1.1 0-1.7 0.1-0.2 0-0.4 0.2-0.5 0.3-1.7 1.9-3.3 3.7-5 5.6-0.1 0.1-0.1 0.3-0.2 0.5 0.2 0.1 0.5 0.5 0.7 0.5 0.5 0 1.3-0.2 1.5-0.4 0.8-0.8 1.5-1.6 2.2-2.5l3-3.3c0.3-0.2 0-0.5 0-0.8z"/>
<path class="elementor-shape-fill" d="m72.7 29.4c-0.3-0.1-0.9-0.1-1.3-0.1-0.4 0.1-0.7 0.3-0.9 0.5-1.5 1.7-3 3.3-4.5 5-0.3 0.3-0.5 0.6-0.8 1 0.3 0.2 0.5 0.5 0.8 0.5 0.4 0 1.1-0.1 1.3-0.3 0.6-0.6 1.1-1.2 1.7-1.8 1.3-1.4 2.6-2.7 3.8-4.1 0.1-0.1 0.1-0.5-0.1-0.7z"/>
<path class="elementor-shape-fill" d="m369.8 2.5c-0.4-0.2-1-0.3-1.5-0.4-0.4 0-0.9 0.2-1.3 0.3-1.4 0.5-2.7 0.9-4.1 1.4-1 0.3-2 0.6-2.8 1.1-0.4 0.2-0.5 0.6-0.5 1 0 0.2 0.6 0.4 0.9 0.5 0.8-0.2 1.4-0.3 2-0.5 2-0.6 4-1.3 5.9-2 0.4-0.2 0.9-0.4 1.2-0.6 0.2-0.3 0.4-0.7 0.2-0.8z"/>
<path class="elementor-shape-fill st0" d="m115.7 2.6c-0.2-0.2-0.8-0.4-1.2-0.5-0.5 0.1-1 0.2-1.3 0.3-1.5 0.5-3 1-4.5 1.5-0.9 0.3-1.9 0.6-2.8 1-0.6 0.2-0.8 0.6-0.5 1s0.9 0.5 1.5 0.3c0.3-0.1 0.7-0.1 1-0.2 1.7-0.5 3.4-1.1 5.1-1.7 0.8-0.3 1.7-0.7 2.4-1.1 0.2-0.1 0.5-0.5 0.3-0.6z"/>
<path class="elementor-shape-fill st0" d="m293.2 46.1c-0.5-0.4-1.2-0.4-1.8-0.1-2.1 0.9-4.3 1.8-6.4 2.8-0.7 0.4-1.2 0.9-1.8 1.4 0.1 0.5 0.4 0.7 1.1 0.5 0.3-0.1 0.5-0.1 0.7-0.2 2.6-1.1 5.3-2.2 7.9-3.3 0.6-0.2 0.8-0.7 0.3-1.1z"/>
<path class="elementor-shape-fill" d="m37.3 46c-2.2 0.9-4.5 1.8-6.6 2.8-0.7 0.3-1.1 0.9-1.5 1.4-0.1 0.1 0.2 0.4 0.3 0.6 0.5-0.1 0.7-0.1 0.8-0.2 2.9-1.2 5.7-2.3 8.5-3.6 0.3-0.1 0.3-0.8 0.1-1-0.3-0.1-1.2-0.2-1.6 0z"/>
<path class="elementor-shape-fill" d="m496.6 79.4c-0.4 0-0.9 0.1-1.3 0.2-0.7 0.2-1.3 0.5-2 0.7-1.7 0.6-3.4 1.1-5 1.7-0.4 0.2-0.8 0.6-0.8 0.9 0 0.2 0.7 0.4 1 0.6 0.6-0.1 1-0.2 1.4-0.3 2.3-0.8 4.5-1.5 6.8-2.3 0.3-0.1 0.6-0.2 0.8-0.4s0.5-0.6 0.4-0.7c-0.2-0.2-0.8-0.4-1.3-0.4z"/>
<path class="elementor-shape-fill" d="m314.1 69.1c-1.2-1-2.4-2.1-3.6-3.1-0.5-0.4-1-0.5-1.7-0.2s-0.7 0.7-0.3 1c0.2 0.3 0.5 0.6 0.9 0.8 1.2 1 2.5 2 3.7 3.1 0.8 0.7 1.8 1.1 3.4 1-0.1-0.3-0.1-0.5-0.3-0.6-0.7-0.7-1.4-1.4-2.1-2z"/>
<path class="elementor-shape-fill" d="m57.9 67.2c-0.5-0.4-1-0.9-1.7-1.3-0.3-0.2-1.2-0.3-1.5-0.1-0.4 0.1-0.5 0.6-0.5 0.9 0 0.2 0.3 0.4 0.5 0.6 1.5 1.2 2.9 2.5 4.4 3.7 0.7 0.6 1.7 0.8 3.2 0.7-0.3-0.4-0.4-0.8-0.7-1.1-1.2-1.1-2.4-2.3-3.7-3.4z"/>
<path class="elementor-shape-fill" d="m241.3 21.4c-0.7-0.7-1.5-1.5-2.3-2.2-0.2-0.2-0.9-0.3-1.2-0.2-0.4 0.1-0.5 0.5-0.8 0.8 0.5 0.5 0.9 1.1 1.4 1.6 1.1 1.2 2.2 2.4 3.4 3.6 0.4 0.4 0.9 0.6 1.6 0.3s0.7-0.6 0.3-1c-0.8-1-1.6-2-2.4-2.9z"/>
<path class="elementor-shape-fill" d="m495.5 21.5c-0.7-0.8-1.6-1.5-2.5-2.3-0.2-0.2-0.9-0.3-1.2-0.2-0.4 0.1-0.5 0.5-0.8 0.8 0.5 0.6 1 1.2 1.6 1.7 1 1.1 2.1 2.2 3.2 3.3 0.3 0.3 0.8 0.7 1.6 0.4 0.7-0.3 0.9-0.6 0.4-1.1-0.8-0.8-1.5-1.7-2.3-2.6z"/>
<path class="elementor-shape-fill st0" d="m455.1 53.9c2.1 0.5 4.2 1.1 6.3 1.7 1.1 0.3 2.1 0.5 3.3 0.8 0.4-0.1 0.9-0.2 1-0.4s0-0.5-0.2-0.7-0.7-0.4-1.1-0.5c-2.8-0.7-5.7-1.4-8.5-2.1-0.6-0.2-1.1-0.2-1.4 0.3-0.2 0.4-0.1 0.7 0.6 0.9z"/>
<path class="elementor-shape-fill st0" d="m201.2 53.9c1.8 0.5 3.5 1 5.2 1.4 1.3 0.4 2.7 0.7 4.2 1 0.4-0.2 0.9-0.3 1-0.5s0-0.5-0.3-0.7c-0.4-0.3-1-0.5-1.5-0.6-2.6-0.7-5.2-1.3-7.8-1.9-0.6-0.1-1.2-0.3-1.6 0.2-0.4 0.6 0.1 0.9 0.8 1.1z"/>
<path class="elementor-shape-fill st0" d="m440 27.3c-0.8-1-1.6-2.1-2.4-3.1-0.4-0.5-0.7-1-1.3-1.4-0.3-0.2-1.1-0.3-1.6-0.2-0.3 0.1-0.8 0.6-0.7 0.8 1 1.4 2.1 2.8 3.3 4.2 0.3 0.3 1.1 0.5 1.7 0.7 1.3-0.2 1.4-0.3 1-1z"/>
<path class="elementor-shape-fill" d="m185.8 27.4c-0.8-1.1-1.6-2.1-2.4-3.2-0.4-0.5-0.7-1-1.3-1.4-0.3-0.2-1.2-0.3-1.6-0.2-0.3 0.1-0.7 0.6-0.6 0.8 0.9 1.4 2 2.7 3.1 4 0.3 0.4 1.1 0.6 1.7 0.9 1.4-0.1 1.6-0.3 1.1-0.9z"/>
<path class="elementor-shape-fill" d="m276.7 40.8c1 0 1.2-0.6 1.3-1.1 0.1-0.6 0.2-1.3 0.4-1.9l1.2-3.9c0.1-0.3-0.2-0.5-0.3-0.8-0.5 0.2-1 0.4-1.4 0.6-0.1 0.1-0.1 0.2-0.2 0.3-0.5 1.4-1 2.7-1.5 4.1-0.2 0.5-0.3 1-0.5 1.4 0.1 0.6-0.1 1.3 1 1.3z"/>
<path class="elementor-shape-fill st0" d="m452.8 38.7c-0.4-0.1-0.9 0-1.3 0.1-0.2 0.1-0.4 0.3-0.5 0.5-1.2 1.8-2.4 3.6-3.6 5.5-0.1 0.2 0.2 0.5 0.5 0.6 0.8 0.3 1.3 0 1.6-0.5 0.9-1.4 1.9-2.8 2.9-4.2 0.3-0.5 0.7-0.9 1-1.5-0.2-0.2-0.3-0.5-0.6-0.5z"/>
<path class="elementor-shape-fill st0" d="m22.5 40.7c1.1 0.1 1.2-0.5 1.3-1 0.1-0.6 0.2-1.3 0.4-1.9 0.4-1.3 0.8-2.7 1.2-4 0.1-0.2-0.2-0.4-0.4-0.7-0.4 0.1-0.8 0.2-1.1 0.3-0.3 0.2-0.4 0.4-0.5 0.7-0.5 1.3-1 2.7-1.5 4-0.2 0.5-0.3 1-0.6 1.7 0.3 0.3 0.7 0.9 1.2 0.9z"/>
<path class="elementor-shape-fill" d="m198.7 38.7c-0.4-0.1-0.9 0-1.3 0.1-0.3 0.1-0.5 0.4-0.6 0.6-1.2 1.7-2.3 3.5-3.4 5.2-0.3 0.4-0.1 0.7 0.6 0.9s1.1-0.1 1.3-0.4c1.2-1.7 2.4-3.4 3.6-5.2 0.1-0.2 0.2-0.4 0.3-0.7-0.1-0.2-0.3-0.5-0.5-0.5z"/>
<path class="elementor-shape-fill" d="m483.2 48.4c2.8-0.8 5.5-1.6 8.2-2.4 0.8-0.2 1.1-0.6 0.7-1.1s-1.1-0.5-1.9-0.3c-1.9 0.6-3.9 1.1-5.8 1.7-1.5 0.4-1.8 0.9-1.2 2.1z"/>
<path class="elementor-shape-fill st0" d="m236.2 44.6c-2.1 0.6-4.2 1.2-6.2 1.8-1.3 0.4-1.5 1-0.8 2 2.8-0.8 5.6-1.6 8.4-2.5 0.7-0.2 0.8-0.6 0.4-1-0.5-0.5-1.2-0.5-1.8-0.3z"/>
<path class="elementor-shape-fill st0" d="m344.1 28.2c0.8 0.1 1.7 0 2.7 0-0.1-0.7-0.6-1-1.5-1.1-2.4-0.3-4.8-0.7-7.2-0.9-1-0.1-2-0.1-3-0.1-0.3 0-0.8 0.3-0.9 0.4-0.1 0.2 0.2 0.5 0.5 0.6 0.2 0.1 0.6 0.1 1 0.2 2.8 0.3 5.6 0.7 8.4 0.9z"/>
<path class="elementor-shape-fill st0" d="m81.4 27.3c2.9 0.3 5.7 0.6 8.6 0.9 0.8 0.1 1.7 0 2.6 0-0.1-0.7-0.6-1-1.5-1.1-2.4-0.3-4.8-0.7-7.2-0.9-1-0.1-2-0.1-3-0.1-0.3 0-0.9 0.3-0.9 0.4 0 0.2 0.4 0.5 0.7 0.7 0.2 0.1 0.5 0.1 0.7 0.1z"/>
<path class="elementor-shape-fill st0" d="m326.9 49.4c-0.2-0.4-0.5-1-1.6-0.8-1 0.2-0.7 0.7-0.6 1.1 0.7 1.7 1.3 3.3 2 5 0.2 0.5 0.5 1 0.8 1.5h0.6c0.2-0.3 0.5-0.7 0.5-1 0-0.5-0.3-1.1-0.4-1.6-0.3-1.4-0.7-2.8-1.3-4.2z"/>
<path class="elementor-shape-fill st0" d="m73.4 50.9c-0.2-0.7-0.6-1.3-1.1-2-0.1-0.2-0.8-0.4-1.1-0.3s-0.6 0.4-0.7 0.7c-0.1 0.2 0.1 0.4 0.2 0.6 0.6 1.6 1.2 3.1 1.9 4.7 0.2 0.5 0.5 1 0.9 1.7 1.2-0.5 1.3-0.8 1-1.6-0.3-1.3-0.6-2.5-1.1-3.8z"/>
<path class="elementor-shape-fill" d="m305.5 79.2c-0.6-0.3-1.4-0.4-2.1-0.5-1.6-0.3-3.2-0.6-5-0.9-0.5 0.3-0.9 0.6-1.4 0.9 0.5 0.2 1 0.6 1.6 0.7 1.6 0.4 3.2 0.6 4.8 0.9 0.6 0.1 1.2 0.3 1.8 0.3 0.5 0 1-0.3 1.5-0.5-0.5-0.3-0.7-0.7-1.2-0.9z"/>
<path class="elementor-shape-fill" d="m51.4 79.2c-2.1-0.5-4.3-0.9-6.5-1.3-1-0.2-2.3 0.3-2.1 0.7 0.2 0.3 1 0.6 1.6 0.8 1.4 0.3 2.8 0.5 4.2 0.8 0.7 0.1 1.4 0.3 2.4 0.5 0.4-0.2 1.2-0.4 1.3-0.6 0-0.3-0.4-0.8-0.9-0.9z"/>
<path class="elementor-shape-fill st0" d="m125.8 17.2c-2.2-1-4.5-2-6.7-2.9-0.7-0.3-1.4 0-1.4 0.7 0.2 0.1 0.4 0.5 0.8 0.6 2 0.9 3.9 1.8 5.9 2.7 0.6 0.3 1.2 0.4 1.7 0s0.2-0.8-0.3-1.1z"/>
<path class="elementor-shape-fill st0" d="m375 14.9c-0.6-0.2-1.1-0.5-1.8-0.6-0.3-0.1-1 0-1.2 0.2s-0.1 0.5 0 0.8c0.2 0.2 0.6 0.4 0.9 0.5 0.8 0.4 1.5 0.7 2.3 1 1.2 0.5 2.3 1.1 3.6 1.6 0.3 0.1 0.8 0.1 1.1 0s0.4-0.3 0.7-0.6c-0.4-0.3-0.6-0.6-1-0.8-1.5-0.7-3.1-1.4-4.6-2.1z"/>
<path class="elementor-shape-fill" d="m110.5 44.4c-0.5-0.1-1-0.4-1.4-0.4-1.9 0.2-3.7 0.4-5.5 0.7-1 0.2-1.9 0.5-2.7 0.9-0.3 0.1-0.4 0.5-0.4 0.7 0 0.1 0.4 0.3 0.6 0.3 0.3 0 0.3 0 0.4-0.1 2.7-0.4 5.4-0.9 8.1-1.4 0.4 0.1 0.6-0.4 0.9-0.7z"/>
<path class="elementor-shape-fill st0" d="m364.7 44.5c-0.5-0.1-1-0.4-1.5-0.4-0.6 0-1.2 0.1-1.8 0.2-2 0.3-4.1 0.4-5.8 1.2-0.4 0.2-0.7 0.4-1.3 0.8 0.6 0.2 0.9 0.5 1.2 0.4 2.8-0.4 5.5-0.9 8.2-1.4 0.4-0.1 0.7-0.6 1-0.8z"/>
<path class="elementor-shape-fill st0" d="m8.8 12.7c-0.6-0.3-1.2-0.2-1.7 0.2l-1.2 0.9c-1.2 1-2.4 2-3.5 3-0.6 0.6-0.3 1 1 1.1 0.2-0.1 0.6-0.2 0.9-0.4 0.9-0.7 1.7-1.3 2.5-2 0.7-0.5 1.4-1.1 2-1.6 0.4-0.4 0.7-0.8 0-1.2z"/>
<path class="elementor-shape-fill st0" d="m261.5 12.9c-0.5 0.2-0.9 0.6-1.3 0.9-1.2 1-2.4 2-3.6 3.1-0.6 0.6-0.2 1 0.9 1.1 0.2-0.1 0.6-0.1 0.8-0.3l4.8-3.9c0.2-0.2 0-0.6-0.1-0.9-0.5-0.1-1.1-0.2-1.5 0z"/>
<path class="elementor-shape-fill st0" d="m171.6 69.6c0.3-0.6 0.4-1.1 0.6-1.7 0.2-0.8 0.4-1.6 0.7-2.7-0.2-0.2-0.5-0.6-1-0.7-0.9-0.1-1.3 0.3-1.5 0.8-0.2 0.6-0.5 1.2-0.7 1.8-0.2 0.8-0.4 1.7-0.3 2.5 0 0.2 0.8 0.5 1.3 0.6 0.2 0 0.7-0.4 0.9-0.6z"/>
<path class="elementor-shape-fill st0" d="m425.7 69.6c0.3-0.5 0.4-1.1 0.6-1.7 0.2-0.8 0.4-1.6 0.7-2.7-0.2-0.2-0.5-0.6-1-0.7-0.9-0.1-1.3 0.3-1.5 0.8-0.2 0.6-0.5 1.2-0.7 1.8-0.2 0.8-0.3 1.7-0.3 2.5 0 0.2 0.7 0.5 1.2 0.6 0.3 0 0.9-0.4 1-0.6z"/>
<path class="elementor-shape-fill st0" d="m55.5 27.8c-0.8-1.8-1.6-3.5-2.4-5.2-0.1-0.2-0.8-0.3-1.2-0.5-0.2 0.3-0.7 0.6-0.6 0.8 0.1 0.8 0.4 1.7 0.8 2.5s1 1.6 1.7 2.4c0.2 0.2 0.9 0.3 1.3 0.4 0 0 0.2-0.3 0.4-0.4z"/>
<path class="elementor-shape-fill st0" d="m309.2 28.2c0.2 0 0.3-0.4 0.3-0.5-0.7-1.6-1.4-3.3-2.3-4.9-0.1-0.2-0.8-0.5-1.3-0.5-0.3 0-0.6 0.4-0.9 0.8 0.7 1.5 1.5 2.9 2.2 4.3 0.2 0.3 0.5 0.6 0.9 0.8h1.1z"/>
<path class="elementor-shape-fill" d="m422.1 38.8c-1.8-0.2-3.6-0.5-5.4-0.7-0.6-0.1-1.3-0.1-1.9 0-0.4 0.1-0.8 0.4-0.9 0.7 0 0.2 0.5 0.5 0.9 0.6 2.2 0.3 4.4 0.5 6.4 0.7h0.7c0.7 0 1.2-0.1 1.3-0.6s-0.4-0.6-1.1-0.7z"/>
<path class="elementor-shape-fill" d="m167.7 38.8c-1.7-0.2-3.4-0.5-5.1-0.7-0.7-0.1-1.4-0.1-2 0.1-0.4 0.1-0.7 0.5-0.8 0.7 0 0.2 0.5 0.5 0.9 0.5 2.2 0.3 4.5 0.5 7.1 0.8 0.3-0.1 1.1-0.3 1.2-0.6 0.3-0.6-0.6-0.7-1.3-0.8z"/>
<path class="elementor-shape-fill" d="m363.1 58.3c-0.7 1-1.2 2-1.7 3-0.2 0.4-0.5 0.8-0.4 1.2 0.1 0.3 0.7 0.5 1 0.8 0.4-0.2 0.8-0.4 1-0.6 0.3-0.3 0.4-0.7 0.6-1.1 0.5-1 1.1-2 1.6-3.1-0.3-0.3-0.5-0.6-0.8-0.9-0.4 0.3-1.1 0.4-1.3 0.7z"/>
<path class="elementor-shape-fill" d="m108.9 58.4c-0.7 0.9-1.1 1.9-1.7 2.8-0.2 0.4-0.4 0.7-0.4 1.1-0.1 0.5 0.2 0.9 1 1s1-0.3 1.2-0.7c0.2-0.3 0.3-0.5 0.4-0.8 0.6-1 1.1-2.1 1.7-3.2l-0.9-0.9c-0.4 0.2-1.1 0.4-1.3 0.7z"/>
<path class="elementor-shape-fill st0" d="m172.1 2c1.2 0.3 2.5 0.5 3.8 0.8 1 0.2 2 0.4 3.1 0.5 0.4 0 1-0.3 1.2-0.5 0.1-0.2-0.3-0.5-0.6-0.7-0.4-0.2-1-0.3-1.6-0.4-1.8-0.4-3.7-0.7-5.7-1.1-0.4 0.2-0.9 0.4-1.1 0.7-0.1 0.2 0.5 0.6 0.9 0.7z"/>
<path class="elementor-shape-fill st0" d="m426.3 2c1.9 0.5 3.8 0.8 5.8 1.2 0.4 0.1 0.9 0.2 1.3 0.1s0.8-0.3 0.9-0.5-0.2-0.5-0.5-0.6c-2.4-0.6-4.7-1.1-7.3-1.6-0.5 0.3-1.1 0.5-1.2 0.8 0 0.1 0.6 0.5 1 0.6z"/>
<path class="elementor-shape-fill st0" d="m472.8 92.3c-0.6 0.2-1.3 0.3-1.9 0.5-1.4 0.5-2.7 1-4 1.6-0.3 0.1-0.5 0.5-0.4 0.7 0.2 0.2 0.7 0.3 1 0.4 0.4-0.1 0.6-0.1 0.9-0.1l5.1-1.5c0.3-0.1 0.7-0.3 0.8-0.5 0.1-0.3 0.2-0.6 0-0.9-0.4-0.4-0.9-0.4-1.5-0.2z"/>
<path class="elementor-shape-fill st0" d="m219 92.2c-2.2 0.6-4.6 1-6.3 2.1-0.3 0.2-0.5 0.5-0.4 0.6 0.2 0.2 0.7 0.3 0.9 0.4 0.4-0.1 0.6-0.1 0.7-0.1 1.7-0.5 3.5-1 5.2-1.5 0.4-0.1 0.8-0.4 0.9-0.6s0.1-0.5-0.1-0.7c0-0.1-0.6-0.3-0.9-0.2z"/>
<path class="elementor-shape-fill" d="m371.9 73.1c-0.3 0.2-0.5 0.5-0.6 0.8-0.5 1-0.9 1.9-1.4 2.9-0.2 0.5 0 0.9 0.7 1 0.4 0.1 1.1-0.2 1.4-0.5 0.4-0.4 0.7-0.9 0.9-1.4 0.4-0.8 0.8-1.6 1.2-2.5-0.2-0.2-0.5-0.5-0.9-0.6-0.3 0-1 0.2-1.3 0.3z"/>
<path class="elementor-shape-fill st0" d="m117.6 73.3c-0.7 1.2-1.4 2.5-1.9 3.7-0.1 0.2 0.4 0.6 0.8 0.7 0.3 0.1 1.1-0.1 1.2-0.2 0.8-1.3 1.6-2.6 2.4-4-0.4-0.2-0.6-0.6-1-0.7-0.7-0.1-1.3 0.1-1.5 0.5z"/>
<path class="elementor-shape-fill st0" d="m26.9 84.7c-2.2-0.5-4.4-0.9-6.6-1.3-0.3 0-0.9 0.3-1 0.5s0.1 0.6 0.4 0.7c2.1 0.5 4.3 0.9 6.6 1.4 0.3-0.2 0.8-0.3 1-0.5 0.1-0.3-0.1-0.7-0.4-0.8z"/>
<path class="elementor-shape-fill" d="m281.1 84.7c-2.1-0.5-4.3-1-6.6-1.5-0.4 0.2-1 0.4-1 0.7-0.1 0.2 0.3 0.7 0.6 0.8 2 0.5 4.1 0.9 6.1 1.2 0.3 0.1 1-0.2 1.2-0.4s0-0.7-0.3-0.8z"/>
<path class="elementor-shape-fill" d="m113.7 30.5c-1.2 0.2-2.4 0.5-3.6 0.8-1.1 0.3-2.3 0.5-3.4 0.9-0.3 0.1-0.6 0.5-0.6 0.7 0 0.1 0.5 0.3 1 0.5 2.5-0.6 5-1.2 7.4-1.8 0.3-0.1 0.5-0.5 0.4-0.7-0.2-0.2-0.9-0.4-1.2-0.4z"/>
<path class="elementor-shape-fill" d="m367.9 30.5c-0.9 0.1-1.8 0.4-2.7 0.6-1.4 0.3-2.8 0.6-4.2 1-0.4 0.1-0.6 0.5-0.7 0.8 0 0.1 0.5 0.3 1 0.6 2.5-0.6 5-1.2 7.5-1.9 0.2-0.1 0.4-0.5 0.2-0.7-0.2-0.3-0.8-0.4-1.1-0.4z"/>
<path class="elementor-shape-fill st0" d="m285.7 24.3c0.2 0.3 0.9 0.4 1.4 0.5 0.1-0.3 0.5-0.5 0.4-0.8-0.5-1.1-1-2.1-1.6-3.2-0.2-0.4-0.6-0.8-1.1-1.2-0.2-0.1-0.8-0.2-1.1-0.2-0.3 0.1-0.5 0.4-0.7 0.6 0.4 0.5 0.7 1 1 1.5 0.5 1 1 2 1.7 2.8z"/>
<path class="elementor-shape-fill" d="m31.7 24.5c0.2 0.2 0.8 0.3 1.3 0.3 0.2 0 0.4-0.2 0.8-0.5-0.9-1.4-1.7-2.9-2.6-4.3-0.3-0.4-0.7-0.8-1.6-0.5-0.8 0.3-0.6 0.7-0.3 1.1 0.6 0.9 1.2 1.8 1.7 2.7 0.1 0.4 0.3 0.9 0.7 1.2z"/>
<path class="elementor-shape-fill st0" d="m220.4 25.2c-0.2-0.2-0.8-0.3-1-0.4-1.1 0-1.5 0.7-1 1.3s1 1.1 1.6 1.6 1.3 1.1 2.1 1.6c0.2 0.1 0.7 0.2 0.9 0.1 0.3-0.1 0.5-0.4 0.6-0.6 0.1-0.1-0.1-0.3-0.2-0.5-1-1-1.9-2.1-3-3.1z"/>
<path class="elementor-shape-fill st0" d="m85.4 17.4c0.9-0.2 1.9-0.4 2.8-0.7 1.1-0.3 2.2-0.7 3.3-1 0.7-0.2 1-0.6 0.6-1.1-0.4-0.4-1.1-0.4-1.7-0.2-0.7 0.2-1.4 0.3-2 0.6l-3.6 1.5c-0.2 0.1-0.3 0.4-0.2 0.6 0 0.1 0.5 0.2 0.8 0.3z"/>
<path class="elementor-shape-fill st0" d="m476.6 27.2c-0.7-0.7-1.3-1.4-2-2-0.3-0.2-0.9-0.4-1.4-0.3-0.3 0-0.6 0.4-0.8 0.6 0.1 0.2 0.1 0.4 0.2 0.5 1.2 1.1 2.3 2.2 3.6 3.2 0.2 0.2 0.8 0.2 1.2 0.2 0.1-0.3 0.5-0.6 0.4-0.9-0.4-0.4-0.8-0.9-1.2-1.3z"/>
<path class="elementor-shape-fill st0" d="m4.6 33.8c-0.2-0.2-0.7-0.4-1-0.5-1 0.1-1.5 0.4-1.2 0.8 1 1.2 2 2.4 3.1 3.6 0.2 0.2 0.9 0.2 1.4 0.3 0.1-0.3 0.4-0.6 0.2-0.8-0.7-1.1-1.6-2.3-2.5-3.4z"/>
<path class="elementor-shape-fill st0" d="m258.8 33.9c-0.4-0.4-1-0.6-1.8-0.4-0.7 0.2-0.6 0.6-0.3 1 0.2 0.4 0.4 0.7 0.7 1 0.8 0.8 1.6 1.6 2.5 2.4 0.2 0.2 0.8 0.2 1.1 0.2s0.4-0.3 0.6-0.5c-0.3-0.5-0.5-1-0.9-1.4-0.6-0.8-1.2-1.6-1.9-2.3z"/>
<path class="elementor-shape-fill" d="m339.6 17.4c0.8-0.2 1.4-0.3 2.1-0.5 1.3-0.4 2.6-0.7 3.9-1.2 0.7-0.2 1-0.7 0.6-1.1s-1.1-0.3-1.7-0.1-1.2 0.3-1.8 0.5c-1.3 0.5-2.5 1-3.7 1.5-0.2 0.1-0.4 0.4-0.3 0.6 0.1 0.1 0.5 0.2 0.9 0.3z"/>
<path class="elementor-shape-fill st0" d="m154.4 7.3c-2-0.4-4-0.7-6.1-1.1-0.3 0.2-0.9 0.4-0.9 0.6 0 0.3 0.3 0.7 0.7 0.8 1.8 0.4 3.6 0.8 5.4 1.2 0.6 0.1 1.3 0.3 1.7-0.2 0.3-0.8-0.1-1.2-0.8-1.3z"/>
<path class="elementor-shape-fill" d="m277.9 62v0c-1 0.1-1.9 0-2.9 0.1-0.7 0-1.4 0.1-1.4 0.6 0 0.6 0.7 0.6 1.4 0.6 1.9 0.1 3.8 0.1 5.7 0.1 0.4 0 0.8 0 1.1-0.1 0.4-0.2 0.7-0.4 1-0.7-0.4-0.2-0.7-0.5-1.1-0.5-1.2 0-2.5 0-3.8-0.1z"/>
<path class="elementor-shape-fill st0" d="m408.5 7.3c-2-0.4-4-0.7-6.1-1.1-0.3 0.2-0.9 0.4-0.9 0.6 0 0.3 0.3 0.7 0.7 0.8 1.8 0.4 3.6 0.8 5.4 1.1 0.6 0.1 1.3 0.3 1.7-0.2 0.4-0.7 0-1.1-0.8-1.2z"/>
<path class="elementor-shape-fill st0" d="m23.7 62v0c-1.1 0.1-2.2 0-3.2 0.1-0.4 0-0.8 0.3-1 0.6-0.1 0.1 0.3 0.5 0.5 0.5 2.6 0.1 5.2 0.1 7.8 0.1 0.3 0 0.6-0.4 0.9-0.6-0.4-0.2-0.7-0.5-1.1-0.5-1.3-0.1-2.6-0.1-3.9-0.2z"/>
<path class="elementor-shape-fill st0" d="m335 73.1v2.9c0 0.4-0.2 0.8 0 1.1 0.1 0.2 0.7 0.4 1.1 0.5 0.3-0.2 0.7-0.4 0.8-0.6 0.2-1.3 0.3-2.6 0.4-4.2-0.2-0.1-0.6-0.7-1-0.7-1 0-1.3 0.5-1.3 1z"/>
<path class="elementor-shape-fill" d="m82.9 72.7c-0.1-0.2-0.6-0.5-1-0.5s-0.7 0.3-1 0.5c-0.1 0.1-0.1 0.3-0.1 0.4-0.1 1.2-0.1 2.5-0.1 3.7 0 0.2 0 0.4 0.2 0.5 0.3 0.2 0.8 0.3 1.1 0.3 0.2 0 0.6-0.3 0.7-0.5 0.2-0.9 0.2-1.9 0.3-2.8h-0.1c0.1-0.5 0.2-1.1 0-1.6z"/>
<path class="elementor-shape-fill" d="m482 42.1c0.1 0.2 0.9 0.3 1 0.2 0.3-0.2 0.8-0.6 0.7-0.8-0.8-1.2-1.6-2.4-2.6-3.6-0.2-0.2-0.9-0.3-1.4-0.3-0.2 0-0.4 0.4-0.7 0.5 0.3 0.5 0.5 1 0.8 1.4 0.7 1 1.4 1.8 2.2 2.6z"/>
<path class="elementor-shape-fill" d="m226.9 41.4c0.2 0.3 0.6 0.6 1 0.8 0.3 0.1 1 0.2 1 0.2 0.3-0.3 0.6-0.7 0.5-0.9-0.6-1.1-1.4-2.2-2.2-3.2-0.2-0.3-0.8-0.5-1-0.6-1.1 0-1.4 0.6-1 1.2 0.6 0.8 1.1 1.6 1.7 2.5z"/>
<path class="elementor-shape-fill" d="m231.4 59.9c-0.7 0-1.4 0.1-2 0.3-1.2 0.4-2.3 0.9-3.4 1.4-0.4 0.2-0.7 0.4-1 0.6-0.2 0.1-0.2 0.4-0.1 0.6s0.5 0.2 0.7 0.3h0.4c2-0.7 4-1.4 5.9-2.1 0.6-0.4 0.3-1-0.5-1.1z"/>
<path class="elementor-shape-fill" d="m485.3 59.8h-0.6c-1.8 0.7-3.6 1.4-5.4 2.2-0.2 0.1-0.1 0.5-0.1 0.8 0.5 0 1 0.1 1.4 0 1.7-0.6 3.4-1.2 5-1.8 0.3-0.1 0.7-0.5 0.6-0.7s-0.7-0.4-0.9-0.5z"/>
<path class="elementor-shape-fill" d="m320 17.8c0-1.1 0.1-2.3 0.1-3.4 0-0.5-0.1-1-1-1-0.8 0-1.1 0.4-1.1 0.9v1.8c0 0.6-0.1 1.3 0 1.9s0.9 0.6 1.6 0.6c0.7-0.1 0.4-0.5 0.4-0.8z"/>
<path class="elementor-shape-fill st0" d="m65.9 18.1c0.1-1.3 0.1-2.6 0-3.9 0-0.3-0.6-0.6-1-0.9-0.4 0.3-1 0.5-1.1 0.8-0.2 0.6-0.1 1.3-0.1 1.9v1.8c0 0.5 0.8 0.6 1.4 0.6 0.3 0.1 0.8-0.1 0.8-0.3z"/>
<path class="elementor-shape-fill st0" d="m467.2 72.4c-0.2-0.2-0.9-0.4-1.2-0.3-1.1 0.2-2.3 0.4-3.4 0.7-0.9 0.2-1.8 0.6-2.6 0.9-0.2 0.1-0.4 0.5-0.3 0.6 0.2 0.2 0.7 0.3 1.1 0.4 2-0.5 4-1.1 6-1.7 0.3 0.1 0.5-0.4 0.4-0.6z"/>
<path class="elementor-shape-fill st0" d="m213 72.5c0-0.1-0.6-0.3-1-0.5-1.9 0.5-3.7 0.9-5.5 1.4-0.3 0.1-0.5 0.2-0.7 0.4s-0.4 0.6-0.4 0.6c0.4 0.2 0.9 0.3 1.3 0.3 0.6 0 1.2-0.2 1.7-0.4 1.3-0.3 2.6-0.6 3.8-1 0.5-0.1 0.8-0.5 0.8-0.8z"/>
<path class="elementor-shape-fill" d="m171.5 24.6c1.2 0.5 2.5 1 3.9 1.5 0.5 0.2 1.2 0.1 1.9 0.1-0.1-0.4 0-0.8-0.2-1.2-0.1-0.2-0.7-0.4-1.1-0.5-1-0.3-2.1-0.6-3.1-0.9-0.3-0.1-0.7-0.2-1.2-0.3-0.3 0.1-0.9 0.3-0.8 0.4 0 0.3 0.2 0.7 0.6 0.9z"/>
<path class="elementor-shape-fill st0" d="m425.3 24.4c1.6 0.7 3.2 1.3 4.9 1.8 0.8 0.3 1.5-0.1 1.4-0.8-0.2-0.1-0.4-0.6-0.8-0.7-1.5-0.5-3-0.9-4.6-1.3-0.3-0.1-1 0.1-1.2 0.3-0.2 0.1 0 0.6 0.3 0.7z"/>
<path class="elementor-shape-fill st0" d="m451.6 11.7c0.5 0.4 1.3 0.7 1.8 0.9 1.3 0 1.6-0.4 1.1-0.9-0.9-0.9-1.9-1.7-2.8-2.6-0.4-0.3-0.8-0.6-1.6-0.3-0.8 0.2-0.7 0.7-0.4 1 0.7 0.8 1.2 1.4 1.9 1.9z"/>
<path class="elementor-shape-fill st0" d="m298 54.1c-0.1 0.2 0.3 0.5 0.6 0.7 0.2 0.1 0.7 0.2 1.1 0.2 1.5 0.1 2.9 0.1 4.4 0.1l0.2 0.2c0.5-0.2 1.4-0.4 1.5-0.7 0.2-0.4-0.4-0.8-1.3-0.8-1.8-0.1-3.6-0.2-5.4-0.2-0.4 0.1-1.1 0.3-1.1 0.5z"/>
<path class="elementor-shape-fill st0" d="m199.1 12.6c0.1 0.1 0.4 0.1 0.5 0.1 0.9 0 1.4-0.3 1.1-0.7-1-1-2.2-2-3.3-2.9-0.2-0.1-0.9-0.2-1.2-0.1s-0.6 0.5-0.5 0.7c0.5 1.1 1.6 2.1 3.4 2.9z"/>
<path class="elementor-shape-fill st0" d="m374.8 51.8h-2.5c-0.7 0-1.5 0-1.5 0.6s0.7 0.7 1.4 0.7c1.8 0 3.7-0.1 5.5-0.2 0.5 0 0.9-0.3 1.3-0.5-0.5-0.2-0.9-0.5-1.4-0.6-0.8-0.1-1.8 0-2.8 0z"/>
<path class="elementor-shape-fill st0" d="m117.6 51.8c-0.3 0-0.8 0.4-0.9 0.6 0 0.2 0.5 0.5 0.9 0.5 0.6 0.1 1.3 0 2 0 1.4-0.1 2.8-0.1 4.2-0.2 0.4 0 0.7-0.3 1.1-0.5-0.4-0.2-0.7-0.6-1.1-0.6-2.1 0.2-4.2 0.2-6.2 0.2z"/>
<path class="elementor-shape-fill st0" d="m43.8 54.1c-0.1 0.2 0.3 0.6 0.6 0.7 0.3 0.2 0.8 0.2 1.2 0.2 1.4 0.1 2.8 0.1 4.3 0.1l0.2 0.2c0.5-0.2 1.4-0.4 1.5-0.7 0.2-0.5-0.5-0.8-1.3-0.8-1.8-0.1-3.5-0.1-5.3-0.1-0.4 0-1.1 0.2-1.2 0.4z"/>
<path class="elementor-shape-fill" d="m476.9 8.5c-0.8 1-1.4 2.1-2 3.2-0.1 0.2 0.2 0.6 0.3 0.9 0.5-0.1 1.1-0.2 1.4-0.4 0.5-0.4 0.7-0.9 1-1.3 0.5-0.7 0.9-1.4 1.4-2.2-0.3-0.2-0.6-0.5-0.9-0.5-0.4-0.1-1.1 0.1-1.2 0.3z"/>
<path class="elementor-shape-fill st0" d="m222.8 8.4c-0.7 1.1-1.4 2.2-2 3.3-0.1 0.3 0.2 0.6 0.3 0.9 0.5-0.2 1.2-0.3 1.4-0.6 0.7-0.8 1.2-1.7 1.8-2.6 0.2-0.3 0.3-0.5 0.5-0.9-0.3-0.1-0.6-0.4-0.9-0.5-0.3 0.1-1 0.2-1.1 0.4z"/>
<path class="elementor-shape-fill st0" d="m148.9 59.4c-0.5 0.1-1.1 0.2-1.3 0.5-0.8 0.9-1.5 1.9-2.3 2.9 0.2 0.2 0.2 0.5 0.4 0.5 0.3 0.1 0.8 0 0.9-0.1 1.1-1.1 2.2-2.1 3.2-3.2 0.3-0.3-0.2-0.6-0.9-0.6z"/>
<path class="elementor-shape-fill" d="m402.8 59.5c-0.4 0.1-0.9 0.2-1.1 0.4l-2.4 3c0.2 0.2 0.4 0.5 0.5 0.5 0.4 0 1-0.1 1.2-0.3 0.7-0.6 1.3-1.2 1.9-1.8 0.4-0.4 0.8-0.8 1-1.2 0.3-0.5-0.3-0.8-1.1-0.6z"/>
<path class="elementor-shape-fill" d="m389.5 40.4c-1.5-0.8-3.3-1.3-5.5-1.6-0.3 0.2-0.9 0.4-1 0.6s0.4 0.6 0.8 0.7c1.5 0.4 3.1 0.8 4.7 1.1 0.4 0.1 0.8 0 1.3 0 0-0.3 0-0.7-0.3-0.8z"/>
<path class="elementor-shape-fill" d="m135.3 40.4c-1.6-0.6-3.3-1.1-5.1-1.7-0.6 0.3-1.2 0.5-1.3 0.7-0.2 0.4 0.3 0.6 0.9 0.7 1.6 0.3 3.1 0.7 4.6 1.1 0.4 0.1 0.8 0 1.3 0-0.1-0.3-0.1-0.7-0.4-0.8z"/>
<path class="elementor-shape-fill" d="m254.6 57.1c0.2 0.1 0.7-0.1 1-0.2 0.5-0.2 1-0.4 1.4-0.6 0.8-0.4 1.7-0.7 2.4-1.1 0.3-0.2 0.3-0.5 0.4-0.8-0.5-0.1-1.1-0.3-1.4-0.2-1.2 0.4-2.4 0.8-3.5 1.3-0.4 0.2-0.5 0.6-0.8 0.9 0.1 0.2 0.2 0.5 0.5 0.7z"/>
<path class="elementor-shape-fill st0" d="m44.7 11.2c0.7-1 1.4-2 2-3.1 0.1-0.1 0.1-0.4-0.1-0.4-0.2-0.1-0.6-0.1-0.8-0.1-0.3 0.1-0.7 0.2-0.9 0.3-0.8 0.9-1.6 1.9-2.5 2.9 0.4 0.4 0.7 0.6 1 0.9 0.5-0.1 1.1-0.3 1.3-0.5z"/>
<path class="elementor-shape-fill" d="m260.3 70.6c-1.7-0.5-3.4-0.8-5.2-1.2-0.6-0.1-0.9 0-1 0.4-0.1 0.5 0.3 0.7 1 0.9 1.2 0.3 2.4 0.6 3.7 0.9 0.4 0.1 0.9 0.2 1.5 0.3 0.2-0.1 0.7-0.3 0.7-0.5-0.1-0.3-0.3-0.7-0.7-0.8z"/>
<path class="elementor-shape-fill st0" d="m427.1 85.2c-0.9 0.9-1.8 1.9-2.7 3 0.5 0.3 0.8 0.7 1.1 0.7 0.4 0 1-0.2 1.2-0.4 0.7-0.9 1.2-1.8 1.8-2.7 0.1-0.3 0-0.6 0-0.9-0.4 0.1-1.1 0.1-1.4 0.3z"/>
<path class="elementor-shape-fill" d="m298.8 11.2c0.7-1 1.4-2 2-3.1 0.3-0.4-0.2-0.6-0.8-0.5-0.4 0-0.8 0.2-1 0.3-0.9 0.9-1.6 1.9-2.5 2.9 0.4 0.4 0.7 0.6 1 0.9 0.5-0.1 1.2-0.3 1.3-0.5z"/>
<path class="elementor-shape-fill st0" d="m173.2 85.1c-1.5 0.8-1.9 2-2.7 3.2 0.3 0.2 0.6 0.6 0.9 0.6 0.4 0 1-0.2 1.2-0.4 0.7-0.9 1.3-1.9 1.8-2.9 0.1-0.2 0-0.5 0-0.7-0.4 0.1-0.9 0-1.2 0.2z"/>
<path class="elementor-shape-fill st0" d="m435.1 57.1c-1.7-0.7-3.6-0.9-5.6-1-0.3 0-0.8 0.1-1 0.3s-0.3 0.5-0.3 0.8c0 0.1 0.6 0.2 0.9 0.2 0.6 0 1.2 0 1.8 0.1 1.1 0.1 2.2 0.3 3.4 0.5 0.3-0.1 0.7-0.2 1.1-0.3 0.1-0.3 0-0.5-0.3-0.6z"/>
<path class="elementor-shape-fill" d="m180.7 57c-1.5-0.4-3-0.7-4.4-1l-0.1 0.1c-0.5 0-1.1 0-1.4 0.2s-0.5 0.5-0.7 0.8c0.4 0.1 0.7 0.3 1.1 0.3 0.5 0.1 1.1 0 1.6 0 1.2 0.1 2.4 0.3 3.6 0.4 0.3 0 0.7-0.2 1.1-0.2-0.3-0.2-0.5-0.5-0.8-0.6z"/>
<path class="elementor-shape-fill st0" d="m200.5 57.3c-1 0.9-1.5 2-1.5 3.1 0 0.2 0 0.5 0.3 0.7 0.4 0.2 0.9 0.3 1.4 0.3 0.1 0 0.4-0.4 0.5-0.6 0.2-0.7 0.2-1.4 0.4-2.1 0.1-0.6 0.2-1.1 0.4-1.7-0.1 0-0.3-0.1-0.4-0.1-0.6 0.2-0.9 0.3-1.1 0.4z"/>
<path class="elementor-shape-fill" d="m455.4 57.1c-0.3 0.1-0.7 0.2-0.8 0.3-0.6 0.9-1.2 1.9-1.8 2.8 0.1 0 0.2 0 0.2 0.1 0 0.2 0.1 0.4 0.2 0.6 0.2 0.4 0.7 0.7 1.5 0.6s0.5-0.5 0.5-0.8c0.1-0.6 0.2-1.3 0.3-1.9 0.1-0.4 0.3-0.8 0.3-1.2 0-0.2-0.2-0.3-0.4-0.5z"/>
<path class="elementor-shape-fill st0" d="m440 74.6c-0.2 0.3-0.6 0.6-0.5 0.9 0.1 0.6 0.4 1.2 0.8 1.7 0.2 0.3 0.9 0.5 1.4 0.7 0.3-0.3 0.7-0.6 1-0.9-0.4-0.7-0.7-1.4-1.2-2-0.3-0.2-1-0.3-1.5-0.4z"/>
<path class="elementor-shape-fill" d="m185.8 74.6c-0.2 0.3-0.5 0.5-0.5 0.8 0.2 0.6 0.4 1.3 0.8 1.9 0.2 0.3 0.8 0.4 1.3 0.7 0.4-0.3 0.7-0.5 1.1-0.8-0.4-0.8-0.8-1.5-1.3-2.1-0.2-0.3-0.9-0.4-1.4-0.5z"/>
<path class="elementor-shape-fill st0" d="m405.2 47.8c-0.9 0.1-1.8 0.2-2.6 0.4-0.5 0.1-0.9 0.5-1.3 0.8 0.5 0.2 1 0.5 1.5 0.7 1.3-0.3 2.4-0.5 3.3-0.8 0.3-0.1 0.4-0.6 0.4-0.9-0.1-0.1-0.9-0.2-1.3-0.2z"/>
<path class="elementor-shape-fill" d="m151.1 47.8c-0.9 0.1-1.9 0.2-2.7 0.5-0.5 0.1-0.8 0.5-1.2 0.8 0.5 0.2 1 0.4 1.5 0.7 1.2-0.3 2.3-0.5 3.3-0.8 0.3-0.1 0.4-0.6 0.4-0.9-0.1-0.2-0.9-0.3-1.3-0.3z"/>
<path class="elementor-shape-fill st0" d="m500.9 57c1.4-0.6 2.8-1.1 4-1.7 0.4-0.2 0.8-0.7 0.6-0.9-0.4-0.5-1.2-0.4-1.8-0.1-1.3 0.5-2.5 1-3.7 1.5v1.4c0.3-0.1 0.7-0.1 0.9-0.2z"/>
<path class="elementor-shape-fill st0" d="m506.4 70.6c-2.1-0.5-4.2-0.9-6.4-1.4v1.1c1.9 0.4 3.7 0.9 5.6 1.3 0.3 0.1 0.8-0.1 1.3-0.2-0.2-0.2-0.3-0.7-0.5-0.8z"/>
<path class="elementor-shape-fill st0" d="m814.7 0h-2.5c0.4 0.3 0.9 0.7 1.2 0.7 0.4-0.1 0.8-0.4 1.3-0.7z"/>
<path class="elementor-shape-fill" d="m560.5 0h-2.5c0.4 0.3 0.9 0.7 1.2 0.7 0.5-0.1 0.9-0.4 1.3-0.7z"/>
<path class="elementor-shape-fill" d="m745 0.6c0.1 0 0.5-0.4 0.8-0.6h-2.3c0.5 0.2 1 0.5 1.5 0.6z"/>
<path class="elementor-shape-fill" d="m997.7 0c0.5 0.2 0.9 0.5 1.5 0.6 0.1 0 0.5-0.4 0.8-0.6h-2.3z"/>
<path class="elementor-shape-fill" d="m964.9 0h-1.8c0.4 0.2 0.8 0.4 1.2 0.5 0.2-0.1 0.4-0.3 0.6-0.5z"/>
<path class="elementor-shape-fill" d="m710.7 0h-1.8c0.4 0.2 0.8 0.4 1.2 0.5 0.2-0.1 0.4-0.3 0.6-0.5z"/>
<path class="elementor-shape-fill" d="m635.7 23.8c0.4 0.1 1.1 0 1.5-0.1 3.2-1.2 6.3-2.5 9.4-3.8 0.4-0.2 0.7-0.5 0.9-0.6 0-0.9-0.8-1.1-2.1-0.6l-9 3.6c-0.4 0.2-0.7 0.4-1 0.6-0.8 0.4-0.7 0.7 0.3 0.9z"/>
<path class="elementor-shape-fill st0" d="m639.5 78.3c-0.1-0.1-0.3-0.3-0.5-0.4-0.5-0.1-1.1-0.2-1.6-0.1-0.2 0-0.3 0.5-0.3 0.8 0.1 0.3 0.4 0.6 0.7 0.9 1 1 2.1 1.9 3.1 2.9 1 0.9 2.1 1.8 3.3 2.7 0.2 0.2 0.9 0.3 1.1 0.2 0.4-0.2 0.5-0.5 0.8-0.7-0.2-0.3-0.3-0.5-0.5-0.7-2-1.9-4-3.7-6.1-5.6z"/>
<path class="elementor-shape-fill" d="m889.9 23.8c0.3 0.1 0.9 0.1 1.2-0.1 3.3-1.3 6.6-2.6 9.9-4 0.3-0.1 0.5-0.4 0.6-0.5 0-0.7-0.5-1-1.4-0.8-0.3 0.1-0.6 0.2-0.9 0.3-2.9 1.2-5.8 2.3-8.7 3.5-0.4 0.2-0.8 0.4-1.1 0.6-0.7 0.5-0.6 0.8 0.4 1z"/>
<path class="elementor-shape-fill" d="m512.8 2.3c-0.6-0.5-1.1-1-1.7-1.5-0.3-0.2-1-0.3-1.4-0.2-0.3 0.1-0.5 0.5-0.4 0.8 0 0.3 0.3 0.5 0.6 0.7 0.5 0.5 1 0.9 1.5 1.4 1.5 1.4 3.1 2.7 4.7 4.1 0.3 0.2 0.9 0.4 1.3 0.4 0.3 0 0.6-0.4 0.9-0.7-0.3-0.4-0.6-0.7-0.9-1-1.6-1.3-3.1-2.7-4.6-4z"/>
<path class="elementor-shape-fill" d="m769.9 5c-1.5-1.4-3-2.8-4.6-4.1-0.3-0.2-1-0.4-1.5-0.4-0.8 0.1-0.7 0.6-0.4 0.9 0.2 0.2 0.4 0.5 0.6 0.7 1.1 1 2.1 2 3.2 3 0.9 0.9 1.9 1.7 2.9 2.5 0.3 0.2 0.9 0.4 1.2 0.4s0.6-0.4 0.9-0.7c-0.3-0.3-0.5-0.6-0.7-0.9-0.5-0.4-1.1-0.9-1.6-1.4z"/>
<path class="elementor-shape-fill st0" d="m851.8 55.7c-2.8-1-5.6-1.9-8.5-2.9-0.7-0.2-1.5-0.3-2 0.2-0.4 0.4-0.1 0.8 0.6 1.1 0.3 0.1 0.5 0.2 0.8 0.3 0.8 0.2 1.6 0.4 2.4 0.7 1.8 0.6 3.6 1.3 5.4 2 0.5 0.2 1 0.2 1.8 0.4 0.2-0.3 0.7-0.5 0.6-0.7-0.1-0.5-0.5-0.9-1.1-1.1z"/>
<path class="elementor-shape-fill" d="m589.1 52.8c-0.4-0.1-1.4 0-1.7 0.2-0.5 0.3-0.2 0.8 0.5 1.1 0.3 0.1 0.6 0.2 0.9 0.3 0.7 0.2 1.5 0.4 2.2 0.6 1.5 0.5 2.9 1.1 4.4 1.6 0.8 0.3 1.7 0.5 2.5 0.7 0.7 0.1 1.1-0.1 1.3-0.6-0.3-0.3-0.6-0.7-1.1-0.8-3-1.2-6-2.2-9-3.1z"/>
<path class="elementor-shape-fill" d="m826.8 29.4c-0.6 0-1.1 0-1.7 0.1-0.2 0-0.4 0.2-0.5 0.3-1.7 1.9-3.3 3.7-5 5.6-0.1 0.1-0.1 0.3-0.2 0.5 0.2 0.1 0.5 0.5 0.7 0.5 0.5 0 1.3-0.2 1.5-0.4 0.8-0.8 1.5-1.6 2.2-2.5l3-3.3c0.3-0.2 0-0.5 0-0.8z"/>
<path class="elementor-shape-fill st0" d="m572.7 29.4c-0.3-0.1-0.9-0.1-1.3-0.1-0.4 0.1-0.7 0.3-0.9 0.5-1.5 1.7-3 3.3-4.5 5-0.3 0.3-0.5 0.6-0.8 1 0.3 0.2 0.5 0.5 0.8 0.5 0.4 0 1.1-0.1 1.3-0.3 0.6-0.6 1.1-1.2 1.7-1.8 1.3-1.4 2.6-2.7 3.8-4.1 0.1-0.1 0.1-0.5-0.1-0.7z"/>
<path class="elementor-shape-fill st0" d="m869.8 2.5c-0.4-0.2-1-0.3-1.5-0.4-0.4 0-0.9 0.2-1.3 0.3-1.4 0.5-2.7 0.9-4.1 1.4-1 0.3-2 0.6-2.8 1.1-0.4 0.2-0.5 0.6-0.5 1 0 0.2 0.6 0.4 0.9 0.5 0.8-0.2 1.4-0.3 2-0.5 2-0.6 4-1.3 5.9-2 0.4-0.2 0.9-0.4 1.2-0.6 0.2-0.3 0.4-0.7 0.2-0.8z"/>
<path class="elementor-shape-fill" d="m615.7 2.6c-0.2-0.2-0.8-0.4-1.2-0.5-0.5 0.1-1 0.2-1.3 0.3-1.5 0.5-3 1-4.5 1.5-0.9 0.3-1.9 0.6-2.8 1-0.6 0.2-0.8 0.6-0.5 1s0.9 0.5 1.5 0.3c0.3-0.1 0.7-0.1 1-0.2 1.7-0.5 3.4-1.1 5.1-1.7 0.8-0.3 1.7-0.7 2.4-1.1 0.2-0.1 0.5-0.5 0.3-0.6z"/>
<path class="elementor-shape-fill" d="m793.2 46.1c-0.5-0.4-1.2-0.4-1.8-0.1-2.1 0.9-4.3 1.8-6.4 2.8-0.7 0.4-1.2 0.9-1.8 1.4 0.1 0.5 0.4 0.7 1.1 0.5 0.3-0.1 0.5-0.1 0.7-0.2 2.6-1.1 5.3-2.2 7.9-3.3 0.6-0.2 0.8-0.7 0.3-1.1z"/>
<path class="elementor-shape-fill st0" d="m537.3 46c-2.2 0.9-4.5 1.8-6.6 2.8-0.7 0.3-1.1 0.9-1.5 1.4-0.1 0.1 0.2 0.4 0.3 0.6 0.5-0.1 0.7-0.1 0.8-0.2 2.9-1.2 5.7-2.3 8.5-3.6 0.3-0.1 0.3-0.8 0.1-1-0.3-0.1-1.2-0.2-1.6 0z"/>
<path class="elementor-shape-fill st0" d="m996.6 79.4c-0.4 0-0.9 0.1-1.3 0.2-0.7 0.2-1.3 0.5-2 0.7-1.7 0.6-3.4 1.1-5 1.7-0.4 0.2-0.8 0.6-0.8 0.9 0 0.2 0.7 0.4 1 0.6 0.6-0.1 1-0.2 1.4-0.3 2.3-0.8 4.5-1.5 6.8-2.3 0.3-0.1 0.6-0.2 0.8-0.4s0.5-0.6 0.4-0.7c-0.2-0.2-0.8-0.4-1.3-0.4z"/>
<path class="elementor-shape-fill" d="m741 79.6c-1.6 0.5-3.2 1.1-4.7 1.6-0.9 0.3-1.8 0.6-2.5 1-0.3 0.1-0.5 0.6-0.4 0.8s0.7 0.4 1 0.5c0.6-0.1 1-0.2 1.4-0.3 1.5-0.5 3.1-1 4.6-1.5 0.9-0.3 1.9-0.6 2.6-1 0.4-0.2 0.5-0.6 0.8-1-0.7-0.1-1.3-0.3-2-0.3-0.3 0-0.5 0.2-0.8 0.2z"/>
<path class="elementor-shape-fill st0" d="m814.1 69.1c-1.2-1-2.4-2.1-3.6-3.1-0.5-0.4-1-0.5-1.7-0.2s-0.7 0.7-0.3 1c0.2 0.3 0.5 0.6 0.9 0.8 1.2 1 2.5 2 3.7 3.1 0.8 0.7 1.8 1.1 3.4 1-0.1-0.3-0.1-0.5-0.3-0.6-0.7-0.7-1.4-1.4-2.1-2z"/>
<path class="elementor-shape-fill st0" d="m557.9 67.2c-0.5-0.4-1-0.9-1.7-1.3-0.3-0.2-1.2-0.3-1.5-0.1-0.4 0.1-0.5 0.6-0.5 0.9 0 0.2 0.3 0.4 0.5 0.6 1.5 1.2 2.9 2.5 4.4 3.7 0.7 0.6 1.7 0.8 3.2 0.7-0.3-0.4-0.4-0.8-0.7-1.1-1.2-1.1-2.4-2.3-3.7-3.4z"/>
<path class="elementor-shape-fill st0" d="m741.3 21.4c-0.7-0.7-1.5-1.5-2.3-2.2-0.2-0.2-0.9-0.3-1.2-0.2-0.4 0.1-0.5 0.5-0.8 0.8 0.5 0.5 0.9 1.1 1.4 1.6 1.1 1.2 2.2 2.4 3.4 3.6 0.4 0.4 0.9 0.6 1.6 0.3s0.7-0.6 0.3-1c-0.8-1-1.6-2-2.4-2.9z"/>
<path class="elementor-shape-fill" d="m995.5 21.5c-0.7-0.8-1.6-1.5-2.5-2.3-0.2-0.2-0.9-0.3-1.2-0.2-0.4 0.1-0.5 0.5-0.8 0.8 0.5 0.6 1 1.2 1.6 1.7 1 1.1 2.1 2.2 3.2 3.3 0.3 0.3 0.8 0.7 1.6 0.4 0.7-0.3 0.9-0.6 0.4-1.1-0.8-0.8-1.5-1.7-2.3-2.6z"/>
<path class="elementor-shape-fill st0" d="m955.1 53.9c2.1 0.5 4.2 1.1 6.3 1.7 1.1 0.3 2.1 0.5 3.3 0.8 0.4-0.1 0.9-0.2 1-0.4s0-0.5-0.2-0.7-0.7-0.4-1.1-0.5c-2.8-0.7-5.7-1.4-8.5-2.1-0.6-0.2-1.1-0.2-1.4 0.3-0.2 0.4-0.1 0.7 0.6 0.9z"/>
<path class="elementor-shape-fill" d="m701.2 53.9c1.8 0.5 3.5 1 5.2 1.4 1.3 0.4 2.7 0.7 4.2 1 0.4-0.2 0.9-0.3 1-0.5s0-0.5-0.3-0.7c-0.4-0.3-1-0.5-1.5-0.6-2.6-0.7-5.2-1.3-7.8-1.9-0.6-0.1-1.2-0.3-1.6 0.2-0.4 0.6 0.1 0.9 0.8 1.1z"/>
<path class="elementor-shape-fill" d="m940 27.3c-0.8-1-1.6-2.1-2.4-3.1-0.4-0.5-0.7-1-1.3-1.4-0.3-0.2-1.1-0.3-1.6-0.2-0.3 0.1-0.8 0.6-0.7 0.8 1 1.4 2.1 2.8 3.3 4.2 0.3 0.3 1.1 0.5 1.7 0.7 1.3-0.2 1.4-0.3 1-1z"/>
<path class="elementor-shape-fill st0" d="m685.8 27.4c-0.8-1.1-1.6-2.1-2.4-3.2-0.4-0.5-0.7-1-1.3-1.4-0.3-0.2-1.2-0.3-1.6-0.2-0.3 0.1-0.7 0.6-0.6 0.8 0.9 1.4 2 2.7 3.1 4 0.3 0.4 1.1 0.6 1.7 0.9 1.4-0.1 1.6-0.3 1.1-0.9z"/>
<path class="elementor-shape-fill" d="m776.7 40.8c1 0 1.2-0.6 1.3-1.1 0.1-0.6 0.2-1.3 0.4-1.9l1.2-3.9c0.1-0.3-0.2-0.5-0.3-0.8-0.5 0.2-1 0.4-1.4 0.6-0.1 0.1-0.1 0.2-0.2 0.3-0.5 1.4-1 2.7-1.5 4.1-0.2 0.5-0.3 1-0.5 1.4 0.1 0.6-0.1 1.3 1 1.3z"/>
<path class="elementor-shape-fill st0" d="m952.8 38.7c-0.4-0.1-0.9 0-1.3 0.1-0.2 0.1-0.4 0.3-0.5 0.5-1.2 1.8-2.4 3.6-3.6 5.5-0.1 0.2 0.2 0.5 0.5 0.6 0.8 0.3 1.3 0 1.6-0.5 0.9-1.4 1.9-2.8 2.9-4.2 0.3-0.5 0.7-0.9 1-1.5-0.2-0.2-0.3-0.5-0.6-0.5z"/>
<path class="elementor-shape-fill" d="m522.5 40.7c1.1 0.1 1.2-0.5 1.3-1 0.1-0.6 0.2-1.3 0.4-1.9 0.4-1.3 0.8-2.7 1.2-4 0.1-0.2-0.2-0.4-0.4-0.7-0.4 0.1-0.8 0.2-1.1 0.3-0.3 0.2-0.4 0.4-0.5 0.7-0.5 1.3-1 2.7-1.5 4-0.2 0.5-0.3 1-0.6 1.7 0.3 0.3 0.7 0.9 1.2 0.9z"/>
<path class="elementor-shape-fill st0" d="m698.7 38.7c-0.4-0.1-0.9 0-1.3 0.1-0.3 0.1-0.5 0.4-0.6 0.6-1.2 1.7-2.3 3.5-3.4 5.2-0.3 0.4-0.1 0.7 0.6 0.9s1.1-0.1 1.3-0.4c1.2-1.7 2.4-3.4 3.6-5.2 0.1-0.2 0.2-0.4 0.3-0.7-0.1-0.2-0.3-0.5-0.5-0.5z"/>
<path class="elementor-shape-fill" d="m983.2 48.4c2.8-0.8 5.5-1.6 8.2-2.4 0.8-0.2 1.1-0.6 0.7-1.1s-1.1-0.5-1.9-0.3c-1.9 0.6-3.9 1.1-5.8 1.7-1.5 0.4-1.8 0.9-1.2 2.1z"/>
<path class="elementor-shape-fill" d="m729.1 48.3c2.8-0.8 5.6-1.6 8.4-2.5 0.7-0.2 0.8-0.6 0.4-1s-1-0.5-1.7-0.3c-2.1 0.6-4.2 1.2-6.2 1.8-1.3 0.5-1.6 1.1-0.9 2z"/>
<path class="elementor-shape-fill st0" d="m844.1 28.2c0.8 0.1 1.7 0 2.7 0-0.1-0.7-0.6-1-1.5-1.1-2.4-0.3-4.8-0.7-7.2-0.9-1-0.1-2-0.1-3-0.1-0.3 0-0.8 0.3-0.9 0.4-0.1 0.2 0.2 0.5 0.5 0.6 0.2 0.1 0.6 0.1 1 0.2 2.8 0.3 5.6 0.7 8.4 0.9z"/>
<path class="elementor-shape-fill" d="m581.4 27.3c2.9 0.3 5.7 0.6 8.6 0.9 0.8 0.1 1.7 0 2.6 0-0.1-0.7-0.6-1-1.5-1.1-2.4-0.3-4.8-0.7-7.2-0.9-1-0.1-2-0.1-3-0.1-0.3 0-0.9 0.3-0.9 0.4 0 0.2 0.4 0.5 0.7 0.7 0.2 0.1 0.5 0.1 0.7 0.1z"/>
<path class="elementor-shape-fill" d="m826.9 49.4c-0.2-0.4-0.5-1-1.6-0.8-1 0.2-0.7 0.7-0.6 1.1 0.7 1.7 1.3 3.3 2 5 0.2 0.5 0.5 1 0.8 1.5h0.6c0.2-0.3 0.5-0.7 0.5-1 0-0.5-0.3-1.1-0.4-1.6-0.3-1.4-0.7-2.8-1.3-4.2z"/>
<path class="elementor-shape-fill st0" d="m573.4 50.9c-0.2-0.7-0.6-1.3-1.1-2-0.1-0.2-0.8-0.4-1.1-0.3s-0.6 0.4-0.7 0.7c-0.1 0.2 0.1 0.4 0.2 0.6 0.6 1.6 1.2 3.1 1.9 4.7 0.2 0.5 0.5 1 0.9 1.7 1.2-0.5 1.3-0.8 1-1.6-0.3-1.3-0.6-2.5-1.1-3.8z"/>
<path class="elementor-shape-fill" d="m805.5 79.2c-0.6-0.3-1.4-0.4-2.1-0.5-1.6-0.3-3.2-0.6-5-0.9-0.5 0.3-0.9 0.6-1.4 0.9 0.5 0.2 1 0.6 1.6 0.7 1.6 0.4 3.2 0.6 4.8 0.9 0.6 0.1 1.2 0.3 1.8 0.3 0.5 0 1-0.3 1.5-0.5-0.5-0.3-0.7-0.7-1.2-0.9z"/>
<path class="elementor-shape-fill" d="m551.4 79.2c-2.1-0.5-4.3-0.9-6.5-1.3-1-0.2-2.3 0.3-2.1 0.7 0.2 0.3 1 0.6 1.6 0.8 1.4 0.3 2.8 0.5 4.2 0.8 0.7 0.1 1.4 0.3 2.4 0.5 0.4-0.2 1.2-0.4 1.3-0.6 0-0.3-0.4-0.8-0.9-0.9z"/>
<path class="elementor-shape-fill st0" d="m635.8 90.6c-0.5 0.1-0.9 0.3-1.2 0.6-0.9 0.7-1.7 1.5-2.6 2.2-0.5 0.5-1.1 0.9-1.5 1.4-0.2 0.2 0.1 0.6 0.1 0.9 0.5-0.1 1-0.1 1.5-0.2 0.2 0 0.3-0.2 0.4-0.3 1.5-1.2 2.9-2.3 4.4-3.5 0.2-0.2 0.3-0.4 0.4-0.5 0-0.4-0.8-0.8-1.5-0.6z"/>
<path class="elementor-shape-fill" d="m625.8 17.2c-2.2-1-4.5-2-6.7-2.9-0.7-0.3-1.4 0-1.4 0.7 0.2 0.1 0.4 0.5 0.8 0.6 2 0.9 3.9 1.8 5.9 2.7 0.6 0.3 1.2 0.4 1.7 0s0.2-0.8-0.3-1.1z"/>
<path class="elementor-shape-fill st0" d="m875 14.9c-0.6-0.2-1.1-0.5-1.8-0.6-0.3-0.1-1 0-1.2 0.2s-0.1 0.5 0 0.8c0.2 0.2 0.6 0.4 0.9 0.5 0.8 0.4 1.5 0.7 2.3 1 1.2 0.5 2.3 1.1 3.6 1.6 0.3 0.1 0.8 0.1 1.1 0s0.4-0.3 0.7-0.6c-0.4-0.3-0.6-0.6-1-0.8-1.5-0.7-3.1-1.4-4.6-2.1z"/>
<path class="elementor-shape-fill" d="m889 91c-1.4 1.1-2.7 2.3-4.1 3.5-0.4 0.4-1.2 0.8-0.2 1.3 0.9 0.4 1.4-0.1 2-0.5 0.1 0 0.1-0.1 0.1-0.1l4.2-3.3c0.2-0.2 0.3-0.4 0.6-0.6-0.3-0.2-0.6-0.5-0.9-0.5-0.6-0.2-1.4-0.1-1.7 0.2z"/>
<path class="elementor-shape-fill st0" d="m610.5 44.4c-0.5-0.1-1-0.4-1.4-0.4-1.9 0.2-3.7 0.4-5.5 0.7-1 0.2-1.9 0.5-2.7 0.9-0.3 0.1-0.4 0.5-0.4 0.7 0 0.1 0.4 0.3 0.6 0.3 0.3 0 0.3 0 0.4-0.1 2.7-0.4 5.4-0.9 8.1-1.4 0.4 0.1 0.6-0.4 0.9-0.7z"/>
<path class="elementor-shape-fill st0" d="m864.7 44.5c-0.5-0.1-1-0.4-1.5-0.4-0.6 0-1.2 0.1-1.8 0.2-2 0.3-4.1 0.4-5.8 1.2-0.4 0.2-0.7 0.4-1.3 0.8 0.6 0.2 0.9 0.5 1.2 0.4 2.8-0.4 5.5-0.9 8.2-1.4 0.4-0.1 0.7-0.6 1-0.8z"/>
<path class="elementor-shape-fill" d="m508.8 12.7c-0.6-0.3-1.2-0.2-1.7 0.2l-1.2 0.9c-1.2 1-2.4 2-3.5 3-0.6 0.6-0.3 1 1 1.1 0.2-0.1 0.6-0.2 0.9-0.4 0.9-0.7 1.7-1.3 2.5-2 0.7-0.5 1.4-1.1 2-1.6 0.4-0.4 0.7-0.8 0-1.2z"/>
<path class="elementor-shape-fill st0" d="m761.5 12.9c-0.5 0.2-0.9 0.6-1.3 0.9-1.2 1-2.4 2-3.6 3.1-0.6 0.6-0.2 1 0.9 1.1 0.2-0.1 0.6-0.1 0.8-0.3l4.8-3.9c0.2-0.2 0-0.6-0.1-0.9-0.5-0.1-1.1-0.2-1.5 0z"/>
<path class="elementor-shape-fill st0" d="m671.6 69.6c0.3-0.6 0.4-1.1 0.6-1.7 0.2-0.8 0.4-1.6 0.7-2.7-0.2-0.2-0.5-0.6-1-0.7-0.9-0.1-1.3 0.3-1.5 0.8-0.2 0.6-0.5 1.2-0.7 1.8-0.2 0.8-0.4 1.7-0.3 2.5 0 0.2 0.8 0.5 1.3 0.6 0.2 0 0.7-0.4 0.9-0.6z"/>
<path class="elementor-shape-fill" d="m925.7 69.6c0.3-0.5 0.4-1.1 0.6-1.7 0.2-0.8 0.4-1.6 0.7-2.7-0.2-0.2-0.5-0.6-1-0.7-0.9-0.1-1.3 0.3-1.5 0.8-0.2 0.6-0.5 1.2-0.7 1.8-0.2 0.8-0.3 1.7-0.3 2.5 0 0.2 0.7 0.5 1.2 0.6 0.3 0 0.9-0.4 1-0.6z"/>
<path class="elementor-shape-fill st0" d="m555.5 27.8c-0.8-1.8-1.6-3.5-2.4-5.2-0.1-0.2-0.8-0.3-1.2-0.5-0.2 0.3-0.7 0.6-0.6 0.8 0.1 0.8 0.4 1.7 0.8 2.5s1 1.6 1.7 2.4c0.2 0.2 0.9 0.3 1.3 0.4 0 0 0.2-0.3 0.4-0.4z"/>
<path class="elementor-shape-fill" d="m809.2 28.2c0.2 0 0.3-0.4 0.3-0.5-0.7-1.6-1.4-3.3-2.3-4.9-0.1-0.2-0.8-0.5-1.3-0.5-0.3 0-0.6 0.4-0.9 0.8 0.7 1.5 1.5 2.9 2.2 4.3 0.2 0.3 0.5 0.6 0.9 0.8h1.1z"/>
<path class="elementor-shape-fill" d="m922.1 38.8c-1.8-0.2-3.6-0.5-5.4-0.7-0.6-0.1-1.3-0.1-1.9 0-0.4 0.1-0.8 0.4-0.9 0.7 0 0.2 0.5 0.5 0.9 0.6 2.2 0.3 4.4 0.5 6.4 0.7h0.7c0.7 0 1.2-0.1 1.3-0.6s-0.4-0.6-1.1-0.7z"/>
<path class="elementor-shape-fill" d="m667.7 38.8c-1.7-0.2-3.4-0.5-5.1-0.7-0.7-0.1-1.4-0.1-2 0.1-0.4 0.1-0.7 0.5-0.8 0.7 0 0.2 0.5 0.5 0.9 0.5 2.2 0.3 4.5 0.5 7.1 0.8 0.3-0.1 1.1-0.3 1.2-0.6 0.3-0.6-0.6-0.7-1.3-0.8z"/>
<path class="elementor-shape-fill" d="m863.1 58.3c-0.7 1-1.2 2-1.7 3-0.2 0.4-0.5 0.8-0.4 1.2 0.1 0.3 0.7 0.5 1 0.8 0.4-0.2 0.8-0.4 1-0.6 0.3-0.3 0.4-0.7 0.6-1.1 0.5-1 1.1-2 1.6-3.1-0.3-0.3-0.5-0.6-0.8-0.9-0.4 0.3-1.1 0.4-1.3 0.7z"/>
<path class="elementor-shape-fill st0" d="m608.9 58.4c-0.7 0.9-1.1 1.9-1.7 2.8-0.2 0.4-0.4 0.7-0.4 1.1-0.1 0.5 0.2 0.9 1 1s1-0.3 1.2-0.7c0.2-0.3 0.3-0.5 0.4-0.8 0.6-1 1.1-2.1 1.7-3.2l-0.9-0.9c-0.4 0.2-1.1 0.4-1.3 0.7z"/>
<path class="elementor-shape-fill" d="m672.1 2c1.2 0.3 2.5 0.5 3.8 0.8 1 0.2 2 0.4 3.1 0.5 0.4 0 1-0.3 1.2-0.5 0.1-0.2-0.3-0.5-0.6-0.7-0.4-0.2-1-0.3-1.6-0.4-1.8-0.4-3.7-0.7-5.7-1.1-0.4 0.2-0.9 0.4-1.1 0.7-0.1 0.2 0.5 0.6 0.9 0.7z"/>
<path class="elementor-shape-fill" d="m926.3 2c1.9 0.5 3.8 0.8 5.8 1.2 0.4 0.1 0.9 0.2 1.3 0.1s0.8-0.3 0.9-0.5-0.2-0.5-0.5-0.6c-2.4-0.6-4.7-1.1-7.3-1.6-0.5 0.3-1.1 0.5-1.2 0.8 0 0.1 0.6 0.5 1 0.6z"/>
<path class="elementor-shape-fill" d="m972.8 92.3c-0.6 0.2-1.3 0.3-1.9 0.5-1.4 0.5-2.7 1-4 1.6-0.3 0.1-0.5 0.5-0.4 0.7 0.2 0.2 0.7 0.3 1 0.4 0.4-0.1 0.6-0.1 0.9-0.1l5.1-1.5c0.3-0.1 0.7-0.3 0.8-0.5 0.1-0.3 0.2-0.6 0-0.9-0.4-0.4-0.9-0.4-1.5-0.2z"/>
<path class="elementor-shape-fill st0" d="m719 92.2c-2.2 0.6-4.6 1-6.3 2.1-0.3 0.2-0.5 0.5-0.4 0.6 0.2 0.2 0.7 0.3 0.9 0.4 0.4-0.1 0.6-0.1 0.7-0.1 1.7-0.5 3.5-1 5.2-1.5 0.4-0.1 0.8-0.4 0.9-0.6s0.1-0.5-0.1-0.7c0-0.1-0.6-0.3-0.9-0.2z"/>
<path class="elementor-shape-fill st0" d="m871.9 73.1c-0.3 0.2-0.5 0.5-0.6 0.8-0.5 1-0.9 1.9-1.4 2.9-0.2 0.5 0 0.9 0.7 1 0.4 0.1 1.1-0.2 1.4-0.5 0.4-0.4 0.7-0.9 0.9-1.4 0.4-0.8 0.8-1.6 1.2-2.5-0.2-0.2-0.5-0.5-0.9-0.6-0.3 0-1 0.2-1.3 0.3z"/>
<path class="elementor-shape-fill st0" d="m617.6 73.3c-0.7 1.2-1.4 2.5-1.9 3.7-0.1 0.2 0.4 0.6 0.8 0.7 0.3 0.1 1.1-0.1 1.2-0.2 0.8-1.3 1.6-2.6 2.4-4-0.4-0.2-0.6-0.6-1-0.7-0.7-0.1-1.3 0.1-1.5 0.5z"/>
<path class="elementor-shape-fill st0" d="m526.9 84.7c-2.2-0.5-4.4-0.9-6.6-1.3-0.3 0-0.9 0.3-1 0.5s0.1 0.6 0.4 0.7c2.1 0.5 4.3 0.9 6.6 1.4 0.3-0.2 0.8-0.3 1-0.5 0.1-0.3-0.1-0.7-0.4-0.8z"/>
<path class="elementor-shape-fill" d="m781.1 84.7c-2.1-0.5-4.3-1-6.6-1.5-0.4 0.2-1 0.4-1 0.7-0.1 0.2 0.3 0.7 0.6 0.8 2 0.5 4.1 0.9 6.1 1.2 0.3 0.1 1-0.2 1.2-0.4s0-0.7-0.3-0.8z"/>
<path class="elementor-shape-fill st0" d="m613.7 30.5c-1.2 0.2-2.4 0.5-3.6 0.8-1.1 0.3-2.3 0.5-3.4 0.9-0.3 0.1-0.6 0.5-0.6 0.7 0 0.1 0.5 0.3 1 0.5 2.5-0.6 5-1.2 7.4-1.8 0.3-0.1 0.5-0.5 0.4-0.7-0.2-0.2-0.9-0.4-1.2-0.4z"/>
<path class="elementor-shape-fill st0" d="m867.9 30.5c-0.9 0.1-1.8 0.4-2.7 0.6-1.4 0.3-2.8 0.6-4.2 1-0.4 0.1-0.6 0.5-0.7 0.8 0 0.1 0.5 0.3 1 0.6 2.5-0.6 5-1.2 7.5-1.9 0.2-0.1 0.4-0.5 0.2-0.7-0.2-0.3-0.8-0.4-1.1-0.4z"/>
<path class="elementor-shape-fill st0" d="m785.7 24.3c0.2 0.3 0.9 0.4 1.4 0.5 0.1-0.3 0.5-0.5 0.4-0.8-0.5-1.1-1-2.1-1.6-3.2-0.2-0.4-0.6-0.8-1.1-1.2-0.2-0.1-0.8-0.2-1.1-0.2-0.3 0.1-0.5 0.4-0.7 0.6 0.4 0.5 0.7 1 1 1.5 0.5 1 1 2 1.7 2.8z"/>
<path class="elementor-shape-fill" d="m531.7 24.5c0.2 0.2 0.8 0.3 1.3 0.3 0.2 0 0.4-0.2 0.8-0.5-0.9-1.4-1.7-2.9-2.6-4.3-0.3-0.4-0.7-0.8-1.6-0.5-0.8 0.3-0.6 0.7-0.3 1.1 0.6 0.9 1.2 1.8 1.7 2.7 0.1 0.4 0.3 0.9 0.7 1.2z"/>
<path class="elementor-shape-fill" d="m720.4 25.2c-0.2-0.2-0.8-0.3-1-0.4-1.1 0-1.5 0.7-1 1.3s1 1.1 1.6 1.6 1.3 1.1 2.1 1.6c0.2 0.1 0.7 0.2 0.9 0.1 0.3-0.1 0.5-0.4 0.6-0.6 0.1-0.1-0.1-0.3-0.2-0.5-1-1-1.9-2.1-3-3.1z"/>
<path class="elementor-shape-fill st0" d="m585.4 17.4c0.9-0.2 1.9-0.4 2.8-0.7 1.1-0.3 2.2-0.7 3.3-1 0.7-0.2 1-0.6 0.6-1.1-0.4-0.4-1.1-0.4-1.7-0.2-0.7 0.2-1.4 0.3-2 0.6l-3.6 1.5c-0.2 0.1-0.3 0.4-0.2 0.6 0 0.1 0.5 0.2 0.8 0.3z"/>
<path class="elementor-shape-fill" d="m976.6 27.2c-0.7-0.7-1.3-1.4-2-2-0.3-0.2-0.9-0.4-1.4-0.3-0.3 0-0.6 0.4-0.8 0.6 0.1 0.2 0.1 0.4 0.2 0.5 1.2 1.1 2.3 2.2 3.6 3.2 0.2 0.2 0.8 0.2 1.2 0.2 0.1-0.3 0.5-0.6 0.4-0.9-0.4-0.4-0.8-0.9-1.2-1.3z"/>
<path class="elementor-shape-fill st0" d="m504.6 33.8c-0.2-0.2-0.7-0.4-1-0.5-1 0.1-1.5 0.4-1.2 0.8 1 1.2 2 2.4 3.1 3.6 0.2 0.2 0.9 0.2 1.4 0.3 0.1-0.3 0.4-0.6 0.2-0.8-0.7-1.1-1.6-2.3-2.5-3.4z"/>
<path class="elementor-shape-fill" d="m758.8 33.9c-0.4-0.4-1-0.6-1.8-0.4-0.7 0.2-0.6 0.6-0.3 1 0.2 0.4 0.4 0.7 0.7 1 0.8 0.8 1.6 1.6 2.5 2.4 0.2 0.2 0.8 0.2 1.1 0.2s0.4-0.3 0.6-0.5c-0.3-0.5-0.5-1-0.9-1.4-0.6-0.8-1.2-1.6-1.9-2.3z"/>
<path class="elementor-shape-fill st0" d="m839.6 17.4c0.8-0.2 1.4-0.3 2.1-0.5 1.3-0.4 2.6-0.7 3.9-1.2 0.7-0.2 1-0.7 0.6-1.1s-1.1-0.3-1.7-0.1-1.2 0.3-1.8 0.5c-1.3 0.5-2.5 1-3.7 1.5-0.2 0.1-0.4 0.4-0.3 0.6 0.1 0.1 0.5 0.2 0.9 0.3z"/>
<path class="elementor-shape-fill" d="m654.4 7.3c-2-0.4-4-0.7-6.1-1.1-0.3 0.2-0.9 0.4-0.9 0.6 0 0.3 0.3 0.7 0.7 0.8 1.8 0.4 3.6 0.8 5.4 1.2 0.6 0.1 1.3 0.3 1.7-0.2 0.3-0.8-0.1-1.2-0.8-1.3z"/>
<path class="elementor-shape-fill st0" d="m777.9 62v0c-1 0.1-1.9 0-2.9 0.1-0.7 0-1.4 0.1-1.4 0.6 0 0.6 0.7 0.6 1.4 0.6 1.9 0.1 3.8 0.1 5.7 0.1 0.4 0 0.8 0 1.1-0.1 0.4-0.2 0.7-0.4 1-0.7-0.4-0.2-0.7-0.5-1.1-0.5-1.2 0-2.5 0-3.8-0.1z"/>
<path class="elementor-shape-fill" d="m908.5 7.3c-2-0.4-4-0.7-6.1-1.1-0.3 0.2-0.9 0.4-0.9 0.6 0 0.3 0.3 0.7 0.7 0.8 1.8 0.4 3.6 0.8 5.4 1.1 0.6 0.1 1.3 0.3 1.7-0.2 0.4-0.7 0-1.1-0.8-1.2z"/>
<path class="elementor-shape-fill" d="m523.7 62v0c-1.1 0.1-2.2 0-3.2 0.1-0.4 0-0.8 0.3-1 0.6-0.1 0.1 0.3 0.5 0.5 0.5 2.6 0.1 5.2 0.1 7.8 0.1 0.3 0 0.6-0.4 0.9-0.6-0.4-0.2-0.7-0.5-1.1-0.5-1.3-0.1-2.6-0.1-3.9-0.2z"/>
<path class="elementor-shape-fill st0" d="m835 73.1v2.9c0 0.4-0.2 0.8 0 1.1 0.1 0.2 0.7 0.4 1.1 0.5 0.3-0.2 0.7-0.4 0.8-0.6 0.2-1.3 0.3-2.6 0.4-4.2-0.2-0.1-0.6-0.7-1-0.7-1 0-1.3 0.5-1.3 1z"/>
<path class="elementor-shape-fill st0" d="m582.9 72.7c-0.1-0.2-0.6-0.5-1-0.5s-0.7 0.3-1 0.5c-0.1 0.1-0.1 0.3-0.1 0.4-0.1 1.2-0.1 2.5-0.1 3.7 0 0.2 0 0.4 0.2 0.5 0.3 0.2 0.8 0.3 1.1 0.3 0.2 0 0.6-0.3 0.7-0.5 0.2-0.9 0.2-1.9 0.3-2.8h-0.1c0.1-0.5 0.2-1.1 0-1.6z"/>
<path class="elementor-shape-fill" d="m982 42.1c0.1 0.2 0.9 0.3 1 0.2 0.3-0.2 0.8-0.6 0.7-0.8-0.8-1.2-1.6-2.4-2.6-3.6-0.2-0.2-0.9-0.3-1.4-0.3-0.2 0-0.4 0.4-0.7 0.5 0.3 0.5 0.5 1 0.8 1.4 0.7 1 1.4 1.8 2.2 2.6z"/>
<path class="elementor-shape-fill" d="m726.9 41.4c0.2 0.3 0.6 0.6 1 0.8 0.3 0.1 1 0.2 1 0.2 0.3-0.3 0.6-0.7 0.5-0.9-0.6-1.1-1.4-2.2-2.2-3.2-0.2-0.3-0.8-0.5-1-0.6-1.1 0-1.4 0.6-1 1.2 0.6 0.8 1.1 1.6 1.7 2.5z"/>
<path class="elementor-shape-fill st0" d="m731.4 59.9c-0.7 0-1.4 0.1-2 0.3-1.2 0.4-2.3 0.9-3.4 1.4-0.4 0.2-0.7 0.4-1 0.6-0.2 0.1-0.2 0.4-0.1 0.6s0.5 0.2 0.7 0.3h0.4c2-0.7 4-1.4 5.9-2.1 0.6-0.4 0.3-1-0.5-1.1z"/>
<path class="elementor-shape-fill" d="m985.3 59.8h-0.6c-1.8 0.7-3.6 1.4-5.4 2.2-0.2 0.1-0.1 0.5-0.1 0.8 0.5 0 1 0.1 1.4 0 1.7-0.6 3.4-1.2 5-1.8 0.3-0.1 0.7-0.5 0.6-0.7s-0.7-0.4-0.9-0.5z"/>
<path class="elementor-shape-fill st0" d="m820 17.8c0-1.1 0.1-2.3 0.1-3.4 0-0.5-0.1-1-1-1-0.8 0-1.1 0.4-1.1 0.9v1.8c0 0.6-0.1 1.3 0 1.9s0.9 0.6 1.6 0.6c0.7-0.1 0.4-0.5 0.4-0.8z"/>
<path class="elementor-shape-fill st0" d="m565.9 18.1c0.1-1.3 0.1-2.6 0-3.9 0-0.3-0.6-0.6-1-0.9-0.4 0.3-1 0.5-1.1 0.8-0.2 0.6-0.1 1.3-0.1 1.9v1.8c0 0.5 0.8 0.6 1.4 0.6 0.3 0.1 0.8-0.1 0.8-0.3z"/>
<path class="elementor-shape-fill st0" d="m967.2 72.4c-0.2-0.2-0.9-0.4-1.2-0.3-1.1 0.2-2.3 0.4-3.4 0.7-0.9 0.2-1.8 0.6-2.6 0.9-0.2 0.1-0.4 0.5-0.3 0.6 0.2 0.2 0.7 0.3 1.1 0.4 2-0.5 4-1.1 6-1.7 0.3 0.1 0.5-0.4 0.4-0.6z"/>
<path class="elementor-shape-fill" d="m713 72.5c0-0.1-0.6-0.3-1-0.5-1.9 0.5-3.7 0.9-5.5 1.4-0.3 0.1-0.5 0.2-0.7 0.4s-0.4 0.6-0.4 0.6c0.4 0.2 0.9 0.3 1.3 0.3 0.6 0 1.2-0.2 1.7-0.4 1.3-0.3 2.6-0.6 3.8-1 0.5-0.1 0.8-0.5 0.8-0.8z"/>
<path class="elementor-shape-fill" d="m671.5 24.6c1.2 0.5 2.5 1 3.9 1.5 0.5 0.2 1.2 0.1 1.9 0.1-0.1-0.4 0-0.8-0.2-1.2-0.1-0.2-0.7-0.4-1.1-0.5-1-0.3-2.1-0.6-3.1-0.9-0.3-0.1-0.7-0.2-1.2-0.3-0.3 0.1-0.9 0.3-0.8 0.4 0 0.3 0.2 0.7 0.6 0.9z"/>
<path class="elementor-shape-fill" d="m925.3 24.4c1.6 0.7 3.2 1.3 4.9 1.8 0.8 0.3 1.5-0.1 1.4-0.8-0.2-0.1-0.4-0.6-0.8-0.7-1.5-0.5-3-0.9-4.6-1.3-0.3-0.1-1 0.1-1.2 0.3-0.2 0.1 0 0.6 0.3 0.7z"/>
<path class="elementor-shape-fill st0" d="m951.6 11.7c0.5 0.4 1.3 0.7 1.8 0.9 1.3 0 1.6-0.4 1.1-0.9-0.9-0.9-1.9-1.7-2.8-2.6-0.4-0.3-0.8-0.6-1.6-0.3-0.8 0.2-0.7 0.7-0.4 1 0.7 0.8 1.2 1.4 1.9 1.9z"/>
<path class="elementor-shape-fill st0" d="m798 54.1c-0.1 0.2 0.3 0.5 0.6 0.7 0.2 0.1 0.7 0.2 1.1 0.2 1.5 0.1 2.9 0.1 4.4 0.1l0.2 0.2c0.5-0.2 1.4-0.4 1.5-0.7 0.2-0.4-0.4-0.8-1.3-0.8-1.8-0.1-3.6-0.2-5.4-0.2-0.4 0.1-1.1 0.3-1.1 0.5z"/>
<path class="elementor-shape-fill" d="m699.1 12.6c0.1 0.1 0.4 0.1 0.5 0.1 0.9 0 1.4-0.3 1.1-0.7-1-1-2.2-2-3.3-2.9-0.2-0.1-0.9-0.2-1.2-0.1s-0.6 0.5-0.5 0.7c0.5 1.1 1.6 2.1 3.4 2.9z"/>
<path class="elementor-shape-fill" d="m874.8 51.8h-2.5c-0.7 0-1.5 0-1.5 0.6s0.7 0.7 1.4 0.7c1.8 0 3.7-0.1 5.5-0.2 0.5 0 0.9-0.3 1.3-0.5-0.5-0.2-0.9-0.5-1.4-0.6-0.8-0.1-1.8 0-2.8 0z"/>
<path class="elementor-shape-fill" d="m617.6 51.8c-0.3 0-0.8 0.4-0.9 0.6 0 0.2 0.5 0.5 0.9 0.5 0.6 0.1 1.3 0 2 0 1.4-0.1 2.8-0.1 4.2-0.2 0.4 0 0.7-0.3 1.1-0.5-0.4-0.2-0.7-0.6-1.1-0.6-2.1 0.2-4.2 0.2-6.2 0.2z"/>
<path class="elementor-shape-fill" d="m543.8 54.1c-0.1 0.2 0.3 0.6 0.6 0.7 0.3 0.2 0.8 0.2 1.2 0.2 1.4 0.1 2.8 0.1 4.3 0.1l0.2 0.2c0.5-0.2 1.4-0.4 1.5-0.7 0.2-0.5-0.5-0.8-1.3-0.8-1.8-0.1-3.5-0.1-5.3-0.1-0.4 0-1.1 0.2-1.2 0.4z"/>
<path class="elementor-shape-fill st0" d="m976.9 8.5c-0.8 1-1.4 2.1-2 3.2-0.1 0.2 0.2 0.6 0.3 0.9 0.5-0.1 1.1-0.2 1.4-0.4 0.5-0.4 0.7-0.9 1-1.3 0.5-0.7 0.9-1.4 1.4-2.2-0.3-0.2-0.6-0.5-0.9-0.5-0.4-0.1-1.1 0.1-1.2 0.3z"/>
<path class="elementor-shape-fill st0" d="m722.8 8.4c-0.7 1.1-1.4 2.2-2 3.3-0.1 0.3 0.2 0.6 0.3 0.9 0.5-0.2 1.2-0.3 1.4-0.6 0.7-0.8 1.2-1.7 1.8-2.6 0.2-0.3 0.3-0.5 0.5-0.9-0.3-0.1-0.6-0.4-0.9-0.5-0.3 0.1-1 0.2-1.1 0.4z"/>
<path class="elementor-shape-fill st0" d="m648.9 59.4c-0.5 0.1-1.1 0.2-1.3 0.5-0.8 0.9-1.5 1.9-2.3 2.9 0.2 0.2 0.2 0.5 0.4 0.5 0.3 0.1 0.8 0 0.9-0.1 1.1-1.1 2.2-2.1 3.2-3.2 0.3-0.3-0.2-0.6-0.9-0.6z"/>
<path class="elementor-shape-fill st0" d="m902.8 59.5c-0.4 0.1-0.9 0.2-1.1 0.4l-2.4 3c0.2 0.2 0.4 0.5 0.5 0.5 0.4 0 1-0.1 1.2-0.3 0.7-0.6 1.3-1.2 1.9-1.8 0.4-0.4 0.8-0.8 1-1.2 0.3-0.5-0.3-0.8-1.1-0.6z"/>
<path class="elementor-shape-fill st0" d="m889.8 41.2c-0.1-0.3 0-0.6-0.3-0.8-1.5-0.8-3.3-1.3-5.5-1.6-0.3 0.2-0.9 0.4-1 0.6s0.4 0.6 0.8 0.7c1.5 0.4 3.1 0.8 4.7 1.1 0.5 0.1 0.9 0 1.3 0z"/>
<path class="elementor-shape-fill" d="m635.7 41.2c-0.1-0.3-0.1-0.7-0.4-0.8-1.6-0.6-3.3-1.1-5.1-1.7-0.6 0.3-1.2 0.5-1.3 0.7-0.2 0.4 0.3 0.6 0.9 0.7 1.6 0.3 3.1 0.7 4.6 1.1 0.4 0.1 0.9 0 1.3 0z"/>
<path class="elementor-shape-fill st0" d="m754.6 57.1c0.2 0.1 0.7-0.1 1-0.2 0.5-0.2 1-0.4 1.4-0.6 0.8-0.4 1.7-0.7 2.4-1.1 0.3-0.2 0.3-0.5 0.4-0.8-0.5-0.1-1.1-0.3-1.4-0.2-1.2 0.4-2.4 0.8-3.5 1.3-0.4 0.2-0.5 0.6-0.8 0.9 0.1 0.2 0.2 0.5 0.5 0.7z"/>
<path class="elementor-shape-fill" d="m544.7 11.2c0.7-1 1.4-2 2-3.1 0.1-0.1 0.1-0.4-0.1-0.4-0.2-0.1-0.6-0.1-0.8-0.1-0.3 0.1-0.7 0.2-0.9 0.3-0.8 0.9-1.6 1.9-2.5 2.9 0.4 0.4 0.7 0.6 1 0.9 0.5-0.1 1.1-0.3 1.3-0.5z"/>
<path class="elementor-shape-fill" d="m760.3 70.6c-1.7-0.5-3.4-0.8-5.2-1.2-0.6-0.1-0.9 0-1 0.4-0.1 0.5 0.3 0.7 1 0.9 1.2 0.3 2.4 0.6 3.7 0.9 0.4 0.1 0.9 0.2 1.5 0.3 0.2-0.1 0.7-0.3 0.7-0.5-0.1-0.3-0.3-0.7-0.7-0.8z"/>
<path class="elementor-shape-fill" d="m927.1 85.2c-0.9 0.9-1.8 1.9-2.7 3 0.5 0.3 0.8 0.7 1.1 0.7 0.4 0 1-0.2 1.2-0.4 0.7-0.9 1.2-1.8 1.8-2.7 0.1-0.3 0-0.6 0-0.9-0.4 0.1-1.1 0.1-1.4 0.3z"/>
<path class="elementor-shape-fill st0" d="m798.8 11.2c0.7-1 1.4-2 2-3.1 0.3-0.4-0.2-0.6-0.8-0.5-0.4 0-0.8 0.2-1 0.3-0.9 0.9-1.6 1.9-2.5 2.9 0.4 0.4 0.7 0.6 1 0.9 0.5-0.1 1.2-0.3 1.3-0.5z"/>
<path class="elementor-shape-fill" d="m673.2 85.1c-1.5 0.8-1.9 2-2.7 3.2 0.3 0.2 0.6 0.6 0.9 0.6 0.4 0 1-0.2 1.2-0.4 0.7-0.9 1.3-1.9 1.8-2.9 0.1-0.2 0-0.5 0-0.7-0.4 0.1-0.9 0-1.2 0.2z"/>
<path class="elementor-shape-fill" d="m935.1 57.1c-1.7-0.7-3.6-0.9-5.6-1-0.3 0-0.8 0.1-1 0.3s-0.3 0.5-0.3 0.8c0 0.1 0.6 0.2 0.9 0.2 0.6 0 1.2 0 1.8 0.1 1.1 0.1 2.2 0.3 3.4 0.5 0.3-0.1 0.7-0.2 1.1-0.3 0.1-0.3 0-0.5-0.3-0.6z"/>
<path class="elementor-shape-fill" d="m680.7 57c-1.5-0.4-3-0.7-4.4-1l-0.1 0.1c-0.5 0-1.1 0-1.4 0.2s-0.5 0.5-0.7 0.8c0.4 0.1 0.7 0.3 1.1 0.3 0.5 0.1 1.1 0 1.6 0 1.2 0.1 2.4 0.3 3.6 0.4 0.3 0 0.7-0.2 1.1-0.2-0.3-0.2-0.5-0.5-0.8-0.6z"/>
<path class="elementor-shape-fill st0" d="m700.5 57.3c-1 0.9-1.5 2-1.5 3.1 0 0.2 0 0.5 0.3 0.7 0.4 0.2 0.9 0.3 1.4 0.3 0.1 0 0.4-0.4 0.5-0.6 0.2-0.7 0.2-1.4 0.4-2.1 0.1-0.6 0.2-1.1 0.4-1.7-0.1 0-0.3-0.1-0.4-0.1-0.6 0.2-0.9 0.3-1.1 0.4z"/>
<path class="elementor-shape-fill st0" d="m955.4 57.1c-0.3 0.1-0.7 0.2-0.8 0.3-0.6 0.9-1.2 1.9-1.8 2.8 0.1 0 0.2 0 0.2 0.1 0 0.2 0.1 0.4 0.2 0.6 0.2 0.4 0.7 0.7 1.5 0.6s0.5-0.5 0.5-0.8c0.1-0.6 0.2-1.3 0.3-1.9 0.1-0.4 0.3-0.8 0.3-1.2 0-0.2-0.2-0.3-0.4-0.5z"/>
<path class="elementor-shape-fill" d="m940 74.6c-0.2 0.3-0.6 0.6-0.5 0.9 0.1 0.6 0.4 1.2 0.8 1.7 0.2 0.3 0.9 0.5 1.4 0.7 0.3-0.3 0.7-0.6 1-0.9-0.4-0.7-0.7-1.4-1.2-2-0.3-0.2-1-0.3-1.5-0.4z"/>
<path class="elementor-shape-fill st0" d="m685.8 74.6c-0.2 0.3-0.5 0.5-0.5 0.8 0.2 0.6 0.4 1.3 0.8 1.9 0.2 0.3 0.8 0.4 1.3 0.7 0.4-0.3 0.7-0.5 1.1-0.8-0.4-0.8-0.8-1.5-1.3-2.1-0.2-0.3-0.9-0.4-1.4-0.5z"/>
<path class="elementor-shape-fill" d="m905.2 47.8c-0.9 0.1-1.8 0.2-2.6 0.4-0.5 0.1-0.9 0.5-1.3 0.8 0.5 0.2 1 0.5 1.5 0.7 1.3-0.3 2.4-0.5 3.3-0.8 0.3-0.1 0.4-0.6 0.4-0.9-0.1-0.1-0.9-0.2-1.3-0.2z"/>
<path class="elementor-shape-fill" d="m651.1 47.8c-0.9 0.1-1.9 0.2-2.7 0.5-0.5 0.1-0.8 0.5-1.2 0.8 0.5 0.2 1 0.4 1.5 0.7 1.2-0.3 2.3-0.5 3.3-0.8 0.3-0.1 0.4-0.6 0.4-0.9-0.1-0.2-0.9-0.3-1.3-0.3z"/>
</svg>
