<?xml version="1.0" encoding="UTF-8"?>
<svg preserveAspectRatio="none" viewBox="0 0 1e3 100" xmlns="http://www.w3.org/2000/svg">
<path class="elementor-shape-fill" d="m1002.3-6.4h-1006.6v46.3h2v6.1c0.1 0 3.1 2.1 3.4 2.1 0.7 0.1 1.9 0 2.5 0.3 0.4 0.2 0.3 0.6 0.9 0.8 0.4 0.1 0.9 0.2 1.2 0.4 0.5 0.2 0.8 0.1 1.3 0.2s0.9 0.4 1.3 0.5c0.7 0.3 1 0.5 1.9 0.4 1.7-0.2 2.1-1.3 3.5-1.6 0.2 1.2 1.8 2.1 2.9 3.1 0.9 0 1.6-0.5 2.3-0.8 0.6-0.3 1.1-0.4 1.7-0.7 0.9-0.4 1.6-0.9 2.5-1.2 0.8-0.3 1.1-0.6 1.7-1 0.7-0.4 1-0.8 2-1 0.7-0.1 1.5-0.2 2.1 0 0.7 0.3 0.6 1 1.2 1.4 0.6 0.3 2.5 0.1 3.2 0.1 1.4 0 2.9 0 3.5 0.8 1.7 0.1 2.8-0.9 3.9-1.4 1.5-0.7 3-1.3 5-1.4 2.9-0.1 5.5 0.8 8.3 1.2 0.6 0.1 1.3 0.1 1.9 0.2 1 0.1 1.3 0.7 1.7 1.2 0.4 0.4 0.8 0.6 1.5 0.7 0.5 0.1 1.6 0.4 2.1 0.4 1.7 0 2-1.4 3.2-1.9 1.5-0.6 3.7-0.7 5.5-0.7h1.6c0.7 0 0.7 0.1 0.9 0.6 0.3 0.6 0.5 1.2 0.9 1.7 0.4 0 0.9-0.5 1.2-0.6 0.7-0.5 1.6-0.9 2.6-1.1 0.5-0.1 0.8-0.2 1.2-0.3 0.5-0.2 1-0.1 1.5-0.2 0.3 0 0.5-0.1 0.9-0.1h1.8 1.5c0.5 0.1 1 0.2 1.6 0.3 0.7 0.1 1.2 0.1 1.8-0.1 1.2-0.3 2.5-0.4 3.8-0.6 0.8-0.1 1.8-0.1 2.7-0.1s1.1 0 1.3-0.6c0.2-0.7 0.2-1.5 0.7-2.2 1.4-0.1 1.7 0.4 2.6 0.9 0.6 0.3 1.2 0.3 1.9 0.3 0.8 0.1 1.1 0.4 1.7 0.6 0.8 0.3 1.8 0.4 2.5 0.7 0.1 0.1 0.2 0.2 0.3 0.2 0.2 0 0.3 0 0.4 0.1 0.2 0.1 0.2 0.3 0.5 0.4 0.8-0.2 0.1-0.9 0.7-1.2 0.2-0.1 1.3 0 1.4 0 1 0 1.5 0.1 2.2 0.4 1.2 0.5 2 0.5 3.4 0.1 1.3-0.4 1.9-0.2 2.9 0.3s2.3 0.8 3.4 1.2c0.8 0.3 1.9 0.9 2.9 0.7 0.7-0.1 1.3-0.4 2-0.4h0.8c0.1 0 0.2-0.2 0.2-0.2 0.5-0.2 0.8-0.3 1.1-0.6s0.5-0.7 0.8-0.9c0.4-0.3 0.9-0.5 1.1-0.9 0.1-0.2 0.1-0.2 0.3-0.4 0.2-0.1 0.4 1.4 0.5 1.3 0 0 0.1 0 0.1-0.1 0 0.1 0 0.3 0.3 0.3 0.4 0 0.4-0.3 0.5-0.4 0.4-0.3 1.8-0.2 2.4-0.2 0.4 0 0.7 0 1 0.1 0.4 0.1 0.3 0.4 0.6 0.5 0.4 0.2 1.3 0 1.8 0 0.7-0.1 1.4-0.1 2.1-0.1 0.4 0 0.8-0.1 1.1 0s0.5 0.3 0.9 0.4l1.5 0.3c0.8 0.2 1.7 0.3 2.6 0.1 0.3-0.1 0.6-0.3 0.9-0.4 1.1-0.3 2.9 0.1 4.1-0.1 0.7-0.1 0.8-0.4 1.2-0.6s0.9-0.3 1.2-0.5c0.2-0.1 0.6-0.4 0.8-0.4 1.4-0.1 1.6 1.2 2.1 1.7 0.9 0.8 4 0.2 5-0.2 0.6-0.3 0.6-0.6 1.5-0.6h1.3c0.7 0.1 1.2 0.1 2 0.1 0.4 0 0.9 0.1 1.2-0.1 0.2-0.1 0.4-0.3 0.6-0.5 0.2-0.1 0.6-0.3 0.9-0.4 0.7-0.2 1.6-0.2 2.4-0.3 0.8 0 1.2 0.2 1.9 0.4s1.4 0.4 2.2 0.6c0.1 0 1.1 0.3 1.3 0.3 0.5-0.1 0.9-0.3 1.4-0.4 1.1-0.2 2.2-0.2 3.2-0.5 0.4-0.1 0.8-0.3 1.2-0.4h0.7c0.5-0.1 0.9-0.3 1.4-0.4 0.6-0.2 1.4-0.1 2.1-0.1 0.6 0 0.8-0.2 1.4-0.3s1.4 0 2 0h4.7c1.6 0 3.1 0 4.7 0.1 1 0.1 2.1 0.2 3.1 0 0.9-0.1 1.7-0.3 2.5-0.6 0.5-0.2 0.9-0.3 1.2-0.5 0.2-0.1 0.3-0.4 0.5-0.5 0.5-0.2 1.6-0.1 2.2-0.1 1 0 2.1 0 3.1-0.1 2-0.2 4.4-0.4 6.3 0 0.7 0.1 1.2 0.3 1.9 0.3 1.1 0 2.2 0.1 3.3 0 1-0.1 2-0.4 3-0.5 0.7-0.1 1.5-0.1 2.2-0.2 0.9-0.1 1.6 1.2 2.2 0.8 0.4-0.2 0.8-0.4 1.3-0.5 0.2 0 0.3 0 0.5-0.1 0.5-0.2 0.1-0.3 0.8-0.4 1.3-0.2 2.9-0.1 4-0.5 0.5-0.2 0.9-0.3 1.3-0.5 1.6-0.5 3.5-0.5 5.1-0.9 0.4-0.1 0.7-0.2 1.1-0.2l5.1-0.3c1.9 0 3.8 0.1 5.6 0.1 0.7 0 1.3 0.1 2 0.2 1.1 0.1 1.8 0.2 2.7 0.6 1 0.4 2.1 0.4 3.1 0.7 0.4 0.1 1.8 0.7 2.4 0.6 0.4 0 0.8-0.1 1.1 0 0.4 0.1 0.6 0.3 0.9 0.4 0.6 0.3 1.3 0.1 1.9 0.2 0.3 0.1 0.5 0.3 0.9 0.4 0.2 0 0.5-0.1 0.6 0 0.3 0.1 0.5 0.3 0.9 0.3 0.7 0.1 1.4 0.1 2.1 0.2 0.4 0.1 1.4 0.2 1.7 0 0.8-0.3 0.6-1.3 1.4-1.6 0.8-0.4 2.6-0.1 3.7-0.1h4c1.1 0 3 0.2 3.9-0.1 1.1-0.3 1.1-0.7 2.4-0.7 1 0 1.3 0.2 2.2 0.4 2 0.5 4.1 0.1 6.1 0s2.8 1.6 4.8 1.6h1.9 1.1c0.1 0 0.3-0.1 0.4-0.1 0.8-0.1 1.7-0.1 2.6-0.1h1.8c0.5-0.1 1.3-0.2 1.9-0.3 0.2 0 0.3-0.2 0.6-0.2 0.5-0.1 1.6-0.1 2.1 0 1 0.1 1.4 0.6 2.5 0.5 0.5 0 1-0.2 1.5-0.2h1.4c0.4 0 0.9-0.2 1.2-0.3 0.6-0.1 1.4-0.2 2.1-0.2 0.9 0 1.7 0.4 2.4 0.7s1.3 0.7 1.9 1c0.4 0.2 0.6 0.3 1.2 0.4 0.3 0 0.7 0 1 0.1s0.5 0.3 0.8 0.3c0.3 0.1 0.7 0 1 0h2c0.7 0 1.6-0.2 2.4-0.3 0.7-0.1 1.1-0.4 1.7-0.6 0.5-0.3 1.1-0.5 1.6-0.7 0.4-0.2 0.6-0.2 1-0.3 0.9-0.1 1.7 0 2.6 0h1c0.5 0.1 1 0.3 1.6 0.4 0.7 0.1 1.3 0 2 0.1 0.6 0.1 0.9 0.3 1.4 0.4s1 0.1 1.5 0.1c0.8 0.1 1 0.5 1.6 0.8 0.5 0.3 1.1 0.6 1.7 0.9 0.3 0.2 0.4 0.3 0.9 0.4s1.3 0 1.9 0h2.5c0.4 0 0.8 0 1.2-0.1 0.5-0.1 0.7-0.2 1.4-0.3 0.6-0.1 1.2 0 1.8-0.2 0.4-0.1 0.8-0.3 1.1-0.4 0.8-0.3 1.5-0.4 2.4-0.4 3.1 0 6.4-0.1 9.4-0.7 0.7-0.1 1.3-0.3 2-0.2 0.8 0.1 1.5 0.2 2.3 0.3 0.7 0.2 2.1 0.4 2.2 0.9 0.7 0.1 1.4-0.1 2-0.2 0.6-0.2 1.3-0.2 2-0.2 2-0.1 3.9 0.3 5.9 0.1 0.4 0 0.7-0.1 1.2 0 0.4 0.1 0.8 0.2 1.2 0.4 1.6 0.4 3.7 0.5 5.5 0.4 1.5-0.1 2.5-0.7 4-0.7s3 0.2 4.4 0.3c1.6 0.1 3.2 0.2 4.7 0.4 1.3 0.1 2.4 0.3 3.7 0.2h1.6c0.5 0 0.3 0 0.5-0.2 0.4-0.4 0.6-1 1.6-1.1 0.8-0.1 1.2 0.1 1.8 0.2 0.4 0.1 1 0 1.4 0 1 0 1.7 0 2.7-0.3 0.6-0.1 0.9-0.3 1.6-0.3 0.4 0 0.9 0.1 1.3 0 0.2 0 0.3-0.1 0.5-0.1 0.5-0.1 1-0.2 1.5-0.2 0.6 0 1.1-0.1 1.6-0.2 0.1 0 0.2-0.1 0.3-0.1h0.3c0.2 0 0.3 0.1 0.5 0.1 0.6 0.1 1.2 0.2 1.7 0.4 0.9 0.2 1.6 0.3 2.6 0.3 0.5 0 1 0 1.5 0.1 1.9 0.2 3.9 0.3 5.9 0.3 1.6 0.1 3 0.4 4.6 0.7 1.1 0.2 2.3 0.2 3.4 0.5 0.9 0.3 1.7 0.9 2.8 1h0.5c0.2 0 0.2 0.1 0.3 0.1 0.7 0.1 1.3 0.1 2 0.1 0.4 0 1.1 0.1 1.5 0 0.8-0.1 0.8-0.5 1.2-0.8s0.9-0.2 1.5-0.2c1.2-0.1 2.4-0.2 3.6-0.2h4.4c0.9 0 1.5-0.1 2.3-0.1 0.3 0 0.5-0.1 0.8-0.1 0.2 0 1 0 1.2-0.1 0.4-0.1 0.1-0.5 0.4-0.6 1.4-0.6 3.7 0 5.5 0.1 0.9 0.1 1.9 0.3 2.8 0.3 0.4 0 0.7-0.1 1.1-0.1 3-0.3 6.2-0.2 9.3 0 0.8 0.1 3.1 0.3 3.7-0.2 0.4-0.3 0.3-0.6 0.7-0.9 0.5-0.3 1-0.3 1.7-0.3 2.1 0 4.2-0.1 6.2-0.1 0.3 0 1.1-0.1 1.4 0 0.4 0.1 0.8 0.4 1.1 0.6 0.5 0.3 0.5 0.3 1.2 0.4 0.4 0 0.7 0.1 1 0.1 1.1 0.2 2.1 0.1 3.2 0.1 1 0 2.1 0.1 3.1 0.1h4.2c0.4 0 0.8 0.1 1.2 0 0.7-0.1 1.2-0.5 1.6-0.7 0.7-0.4 1.3-0.7 2.4-0.7 1 0 1.8 0.1 2.7 0.4 1.2 0.4 1.7 0.8 3.2 0.9 0.7 0 1.3-0.1 1.6 0.2 0.1 0.1 0.1 0.3 0.2 0.4s0.4 0.3 0.6 0.4c1.1 0.8 3 0.5 4.6 0.5 0.3-0.1 0.3 0 0.6-0.2 0.1 0 0.1-0.1 0.2-0.1h0.5c0.8 0 1.7-0.1 2.5-0.1h1c0.5-0.1 0.9-0.3 1.3-0.5l0.6-0.3c0.3-0.1 0.7-0.1 1.1-0.1 0.5 0 1 0 1.4-0.1s0.7 0 1.1-0.1c0.3 0 0.7 0 1 0.1 0.2 0.1 0.5 0.1 0.7 0.2s0.2 0.2 0.4 0.2c0.3 0.1 0.4 0.2 0.6 0.3 0.4 0.3 0.9 0.6 1.4 0.6 2.3 0 4.9-0.2 7.1 0.3 0.7 0.2 1.4 0.1 2.1 0.3 0.9 0.1 1.7 0.5 2.7 0.6 1.6 0.2 3 0.5 4.6 0.8 0.6 0.1 1.4 0.2 2 0.1 2-0.2 2.9-1.4 4.8-1.7 2.6-0.4 5.3-0.2 7.9-0.2 1.2 0 2.4-0.1 3.6 0 1.3 0 2.6 0.3 3.9 0.3h3.9l3.6-0.3c1.1 0 2.2-0.1 3.2-0.2 0.8 0 1.7-0.1 2.5-0.2 1.1-0.2 2-0.5 3-0.7 0.7-0.1 1.1-0.1 1.8 0 1.5 0.1 3.2 0 4.7 0.3 1 0.1 1.8 0.5 2.8 0.6 0.7 0.1 1.4 0.1 2.2 0.1 0.9 0.1 1.9 0 2.8 0.2 0.6 0.1 1 0.1 1.7 0.1 1.4 0 2.5-0.1 3.7-0.3 0.4-0.1 0.5-0.1 0.9-0.1 1 0 2-0.2 3-0.3 0.5-0.1 1.3 0 1.7-0.1 0.3-0.1 0.4-0.3 0.6-0.3h1 1.6c0.6 0 1.2-0.1 1.8-0.2 0.5-0.1 1.3-0.3 1.9-0.2 0.4 0 0.7 0.2 1.1 0.2h1.2c1.1 0.1 2.3 0.2 3.4 0.1 0.8 0 1.6-0.4 2.4-0.4h0.7c0.4 0 0.7-0.1 1.1-0.1 1-0.1 2.2-0.1 3.1 0.2 0.8 0.2 1.8 0.6 2.2 1.1 0.3 0.3 0 0.7 0.2 1s0.4 0.3 1.1 0.3 1.2 0 1.8-0.1c0.5-0.1 0.4-0.1 0.9-0.1 1.3-0.1 1.4-1 2.5-1.2 0.8-0.1 1.8 0.2 2.5 0.3 0.5 0.1 0.9 0.1 1.3 0.1 1 0.1 1.3 0.3 1.6 0.9 0.1 0.2 0 0.5 0.1 0.7 0.1 0.3 0.9 0.6 1.3 0.7 1.2 0.4 2.3 0 3.5 0 1.3 0.1 2.4-0.8 2.9-1.5 0.1-0.2 0.5-0.9 0.9-1s1.3 0.1 1.6 0.2c0.7 0.2 1 0.4 1.9 0.3h1.4c1.1 0.1 2 0.7 3 1 0.2 0 1.3 0.8 2 0.1 0.3-0.3 1.6 0.4 2.2 0.5 0.8 0.2 1.7 0.2 2.6 0.3 0.5 0 1.2 0.1 1.7 0s0.2-0.1 0.6-0.3c0.9-0.5 1.3-0.7 2.6-0.9 0.7-0.1 1.5-0.1 2.2-0.2 0.8-0.1 1.6-0.1 2.4-0.1 0.4 0.1 0.6 0.3 1 0.3 0.4 0.1 0.7 0 1.2 0.1 0.5 0 1 0.1 1.5 0.2 0.8 0.1 1.4 0.3 2.3 0.4h2.3c0.6 0 1 0.1 1.6 0.2s1.3 0.1 1.8 0.1c0.6 0 0.8-0.3 1.3-0.4 0.2-0.1 0.5-0.1 0.7-0.1 0.1 0 0.6-0.2 0.8-0.3 0.5 0 1 0.2 1.3 0.4 0.6 0.3 1 0.8 1.7 1s1.7 0.1 2.4 0.1h4.7c1.1 0 2-0.1 2.9-0.4 0.6-0.2 0.5-0.4 1-0.6 0.3-0.2 0.8-0.2 1.2-0.1 0.6 0 0.7 0.3 1.2 0.5 0.1 0 0.7 0.1 0.9 0.1 0.3-0.1 0.1-0.1 0.2-0.2 0.3-0.2 0.1-0.2 0.5-0.2 0.4-0.1 1.3-0.1 1.8-0.1 1.3-0.1 2.8 0.1 4-0.1 0.5-0.1 0.8-0.2 1.3-0.3 1 0 1.6 0.5 2.5 0.5s2.1 0.3 2.8 0c0.4-0.2 0.4-0.4 0.9-0.4h0.9c1.6 0 3.2-0.1 4.9-0.1 0.8 0 1.8-0.1 2.6 0.1 0.4 0.1 0.6 0.2 1 0.2h1.2c0.6 0 1.1 0.1 1.7 0.1s1.2-0.1 1.8-0.1c0.7 0 1.4-0.1 2.1-0.1h1.7c0.8 0 1.7-0.1 2.4-0.4 0.6-0.2 0.7-0.5 1.1-0.8 0.5-0.3 1.8-0.4 2.5-0.4 0.9-0.1 2 0.1 2.8 0 0.3 0 0.6-0.2 0.9-0.3 0.8-0.2 1.7-0.3 2.6-0.3 2.7-0.1 5.6-0.2 8.1 0.3 2.1 0.4 4.3 0.1 6.1-0.5 1.1-0.4 2.1-0.6 3.3-0.4 0.7 0.1 0.9 0.3 1.4 0.5 0.4 0.2 0.7 0.1 1.1 0.1 0.5 0 0.9 0.3 1.4 0.4 0.4 0.1 1 0 1.5 0h1.7c0.8 0 1.5-0.1 2.2-0.1 0.6 0 1.7-0.1 2.1 0.1 0.1 0.1 0.3 0.3 0.5 0.3 0.3 0.1 0.6 0.4 1 0.5 0.3 0.1 0.8 0.1 1.2 0.1 1.4 0.3 2.7 0.6 4.2 0.7 1 0.1 1.2 0.2 2 0.5 0.2 0.1 0.3 0.2 0.6 0.2 0.5 0.1 1-0.1 1.4-0.1 0.7-0.1 1.4 0 2.1 0 2.1-0.1 4.9-0.2 6.4-1.1 0.3-0.2 0.3-0.2 0.7-0.2h1c0.8 0 1.7 0.1 2.4-0.1 0.4-0.1 0.7-0.1 1.1-0.2 0.6-0.1 0.8-0.3 1.4-0.3 0.9 0 1.7 0.2 2.5 0.4 0.5 0.1 0.9 0.2 1.5 0.2s1 0 1.5 0.2c0.3 0.2 0.4 0.5 0.9 0.6h0.6c0.5 0 1 0 1.5-0.1s0.8-0.2 1.2-0.4 0.8-0.6 1.3-0.8c0.8-0.3 2.3-0.1 3.2-0.1 0.8 0 1.8-0.1 2.6 0 0.1 0.2 0.1 0.5 0.4 0.6s0.7 0 1 0c0.7 0 1.4 0.2 2.1 0.1-0.1-0.3 1.6-0.6 1.9-0.8 0.7-0.3 1.2-0.7 1.9-1 0.8-0.3 1.7-0.3 2.6-0.3 0.6 0 1.3-0.1 1.7 0.1 0 0.1 0.1 0.2 0.3 0.2 0.5 0.1 1 0.2 1.5 0.2 1.1 0.2 1.5 0.6 2.4 0.9 0.4 0.1 0.9 0.2 1.4 0.1s0.7-0.2 1.2-0.4 1.2-0.4 1.7-0.5c0.7-0.2 0.9-0.4 1.5-0.7 0.3-0.2 0.6-0.3 1-0.4l0.6-0.3c0.3-0.1 0.5 0 0.8 0 0.9 0.1 1.7 0.3 2.5 0.3 0.8 0.1 1.1 0.1 1.8 0.4 1.2 0.5 2.4 0.9 4 0.8h0.9c0.9 0 1.1-0.2 1.6-0.6 0.4-0.3 0.7-0.7 1.4-0.8 0.6-0.1 0.3-0.1 0.7 0.1 0.9 0.5 1.9 0.8 3 1.1 0.4 0.1 0.6 0.3 1.1 0.3h0.9c0.8 0 1.8 0.1 2.5-0.2 0.5-0.2 0.9-0.7 1.7-0.7 0.7 0.1 1.4 0.5 2.1 0.6 0.6 0.1 1.3 0.1 2 0.1 0.4 0 0.5-0.1 0.9-0.2s0.2-0.1 0.8 0c1.1 0.1 2.1 0.4 3.2 0.5 1 0.1 1.8 0.3 2.8 0.5 1.5 0.3 3 0.3 4.4 0 1.5-0.3 2.7-1 4.2-1.4 1-0.3 1.6-0.3 2.6-0.1 1.1 0.1 2.2 0 3.3 0.2 1.7 0.3 3.9 0.1 5.7 0.1 0.7 0 1.4 0 2.1-0.1 0.3-0.1 0.7-0.1 1-0.1 0.4-0.1 1.2-0.5 1.5-0.6 0.5-0.1 0.8-0.4 1-0.6 0-0.1 0.2-0.2 0.4-0.1 0.5-0.1 1.3 0 1.8 0 1.5 0 3.1-0.1 4.6 0 0.7 0 1.2 0.3 1.9 0.4 0.6 0.1 1.4 0 2 0 0.7 0 1.4 0.1 2-0.2 0.5-0.3 0.7-0.6 1.2-0.9 0.6-0.3 1.1-0.3 1.8-0.3 1.1 0 1.9 0.1 2.7 0.5 0.4 0.2 0.6 0.4 1 0.7 0.5 0.3 1 0.7 1.6 1 1.2 0.6 2.5 0.5 3.9 0.5 0.6 0 0.7 0 1.1-0.3 0.1-0.1 0.4-0.3 0.5-0.4 0.3-0.3 0.3-0.7 0.8-0.9 1.4 0.4 1.2 1.6 2.7 2.1 1.1 0.3 1-0.1 1-0.5 0-0.3 0.1-0.7 0.3-1.1 0.1-0.3 0.1-0.3 0.5-0.4h0.8c0.8 0 1.6 0 2.3 0.1 0.6 0.1 1.2 0.2 1.8 0.2 0.2 0 0.5-0.1 0.7 0 0.3 0.1 0.5 0.5 0.5 0.7s-0.2 0.6 0 0.8c0.3 0.3 1.2 0.1 1.6 0.1 1-0.1 2.6-0.2 3-0.8 0.2-0.2 0.2-0.4 0.3-0.7 0.6-0.7 2.2-0.4 3.4-0.5 0.6-0.1 1-0.3 1.7-0.4 1.1-0.1 2.6 0.2 3.6 0 0.3-0.1 0.6-0.3 1-0.4 0.7-0.2 1.5-0.3 2.2-0.4 0.2 0.7 0.4 1 1.5 1.4 1.9 0.7 4.1 0.4 6.4 0.4 0.3 0 0.7 0.2 1 0.2v-6.1h3v-45.5z"/>
</svg>
