<?xml version="1.0" encoding="UTF-8"?>
<svg preserveAspectRatio="none" viewBox="0 0 1e3 100" xmlns="http://www.w3.org/2000/svg">
<path class="elementor-shape-fill" d="m1007.3 41.5-4-47.9h-1010.6l-4 47.9c0.6 0 4.8-0.8 11-2 0.1 4.8 0.1 9.7 0.1 10.2 1.8 0.1 3.7-1.1 5.4-0.8 2 0.4 3.7 1.9 5.4 2.8 0.8 0.4 1.1 0.7 1.8 0.2 0.5-0.5 0.6-1.1 1.3-1.5 0.4-0.2 0.7-0.2 1.1-0.3 0.7-0.2 1.4-0.6 2.1-0.7 0.4-0.1 0.8 0.1 1.2 0 0.3-0.1 0.6-0.3 0.9-0.3 1.7-0.4 3.8 0.6 5.2-0.6 1.1-0.9 2-1.8 3.5-2 1.3-0.1 2.7 0.1 4.1 0 2.2-0.2 4.1 0.2 6.3 0.4 1.4 0.1 4.8 0.8 4.7-1.3 1.4-0.5 3.1 0.2 4.6 0 0.8-0.1 1.4-0.5 2.3-0.4 0.5 0 1 0.1 1.5 0 0.6-0.2 1-0.7 1.5-1.1 0.6-0.3 1.2-0.1 1.8-0.3 0.4-0.1 0.7-0.3 1.1-0.4 0.6-0.1 1.1-0.1 1.6-0.5 0.6-0.5 0.6-0.8 1.3-0.9 1.7-0.3 3.3 0.8 5.1 0.8 0.3 0 0.6 0 0.9-0.2 0.8-0.5 1.5-1 2.2-1.7l0.9-0.9c0.6-0.1 0.6 0.8 0.9 1.1 0.2 0.2 0.3 0.2 0.6 0.2 1.5 0.1 2.7-0.3 3.9-1.1 0.6-0.4 1-1 1.7-1.2 0.4-0.1 0.7-0.2 1.1-0.4s0.5-0.4 1-0.3 1.1 0.9 1.6 1.2c1.1 0.6 3.4 1.6 4.5 0.5 0.3-0.2 0.4-0.7 0.6-1.1 0.1-0.2 0.1-0.6 0.2-0.8 0.3-0.5 1.1-0.9 1.4-1.4 1.3-1.5 3.6-0.2 4.8 0.9 0.6 0.5 1.1 1 1.9 1.2 0.4 0.1 1.3 0.3 1.8 0.1 0.3-0.2 0.5-0.8 0.7-1.1 0.4-0.9 0.4-2 0.6-2.9 0.4-0.1 1.1 0.7 1.3 1 0.5 0.5 0.7 0.6 1.3-0.1 0.3-0.3 0.5-1.3 0.9-1.4 0.2 0 0.5 0.3 0.8 0.4 0.4 0.2 0.9 0 1.3 0.1 0.6 0.1 0.4 0.2 0.7 0.6s0.8 0.5 1.2 0.6c1.3 0.2 2.5 0.4 3.9 0.6 1 0.2 2.4 0.3 3.4 0.1 0.8-0.1 0.9-0.9 1.3-1.6s0.8-2 1.7-1.7c0.3 0.1 0.6 0.3 0.9 0.4 0.2 0.1 0.5 0 0.7 0 0.5 0.1 0.3 0.4 0.7 0.6 0.4 0.3 0.8 0 1.3-0.1 1-0.3 1.8-0.6 2.7-1 0.3-0.2 0.8-0.4 1.2-0.4 0.1 0 1.5 1 1.1 0.8 0.7 0.4 1.6 0.7 2.3 1.1 0.5 0.2 1 0.5 1.5 0.6 0.3 0 0.9 0 1.2-0.2 0.4-0.2 0.3-0.6 0.7-0.9 0.3-0.2 0.4-0.2 0.8-0.2 0.7 0.1 1.5 0.2 2.3 0.3 0.5 0.1 1.1 0.1 1.6 0.2 0.7 0.1 1.3 0.3 2 0.3h2.2c0.7 0 1.3 0 2 0.3s1.2 1 1.8 1.2c1 0.3 2-0.5 3-0.5 0.6 0 0.8 0.4 1.3 0.5 0.9 0.2 1.1-0.6 1.8-0.9 0.6-0.2 1.5 0.8 2 1.1 0.7 0.4 1.4 0.9 2.1 1.2s1.2 0.2 1.9-0.1c1-0.4 2.2-0.9 3.1-1.5 0.6-0.4 0.9-1 1.6-0.9s0.2 0.5 0.7 0.9c0.3 0.2 0.8 0.1 1.1 0.1 0.6 0 1.8 0.2 2.3 0s0.5-0.5 1.1-0.5c1.7-0.2 2.8 1.1 4.3 1.5 0.6 0.2 1.3 0.2 1.9 0.2 1.4 0 2.6-1 3.9-1.3 0.6 0.8 0.9 0.6 1.8 0.8 0 0.5 0.6 1.3 1 1.5 0.6 0.4 1.1 0 1.6-0.2s1-0.1 1.5 0c1 0.2 2 0.1 2.9 0.1 0.6 0 1.3 0.1 1.9 0 0.7 0 1.4-0.4 2-0.7 0.3-0.2 0.6-0.5 0.9-0.5 0.8-0.1 1.4 0.8 2 1.1 0.4 0.3 1.7 0.6 2.2 0.3 0.2-0.2 0.2-0.5 0.4-0.7 0.3-0.2 0.5 0.1 0.7 0.2 0.6 0.3 1.2 0.5 1.9 0.6 0.5 0.1 1 0.4 1.4 0.4 0.9 0 0.5-0.7 1.1-1 0.5-0.2 1.3 0.2 1.9 0.2 0.7 0 1.6-0.2 2.2 0.1 0.5 0.4 0.2 0.8 0.9 0.8 1.5 0 1.1-2 2.2-2.8 0.4 0.1 0.6 0.8 0.8 1.1 0.4 0.5 0.8 1 1.2 1.4s0.7 0.9 1.2 1.1c1.1 0.4 1.7-0.9 2-1.8 0.6-0.1 1.2 0.7 1.9 0.7 0.4 0 0.8-0.1 1.2 0 0.3 0 0.4 0.2 0.7 0.3s0.6 0 0.9 0c0.7 0.1 1.7 0.5 2.5 0.2 0-0.1 0-0.3 0.1-0.4 0.7 0.3 0.9 1.1 1.4 1.4 0.4 0.2 0.9 0.2 1.4 0.2 0.3 0 0.9-0.1 1.2 0s0.3 0.2 0.5 0.3c0.3 0.2 0.2 0.3 0.7 0.4 0.8 0.1 1.5-0.1 2.4 0.3 0.9 0.5 0.2 0.8 1.7 0.9 1.2 0 2.1 0.2 3.2 0.4 0.7 0.1 1.7 0.1 2.4 0.1 1.7-0.1 1.5-1.6 3-2.3 0.6-0.3 0.7 0 1.3-0.1 0.9-0.2 1.7-0.9 2.7-1 3-0.4 6 0.2 8.9 0.7 2.2 0.3 4.1 0.6 6.1 1.3 2.3 0.8 4.1 2.2 6.6 2.1 2.2-0.1 4.4-0.7 6.4-1.6s3.9-0.3 5.9 0.2c1.3 0.3 2.4 1 3.6 1.2 3 0.6 6.1-0.9 9.1-0.5 2.4 0.3 4 1.7 6.5 0.7 2.6-1 4.5-3.1 7.3-2.5 0.3 1.1 1.4 1.2 2.3 1.6 0.8 0.4 1.5 0.9 2.4 1.1 1.3 0.3 3.1 0.2 4.4 0 1.9-0.4 3.7-0.4 5.7-0.4 2.1 0 4.2 0.2 5.8-1.4 0.3 0.1 0.6 0.3 0.7 0.7 0.6 0.4 1.2 0.6 1.9 0.8 1 0.4 1.6 0.5 2.6 0.5 0.7 0 1.5 0 2.2 0.1 0.4 0.1 0.7 0.4 1.3 0.4 1.7 0.1 2.9-1.6 4.5-1.5 1.1 0.1 1.6 1.2 2.6 1.7 1.4 0.7 3 1 4.4 1.8 0.1 0.3 0.3 0.5 0.5 0.7 0.4 0 0.8 0.1 1.2 0.3 1.5 0.6 2 1.7 3.7 1.8 2 0.1 5.3 0.4 7.3-0.1 1.1-0.3 1.7-1.2 2.7-1.4 0.8-0.1 1.6 0 2.4-0.2 1.8-0.4 3.4-0.6 5.2-0.8 1.6-0.2 3.2-0.8 4.8-0.9 0.8-0.1 1.6 0.1 2.3 0 1.4-0.1 2.4-0.9 3.6-1.6 3.6-2.1 8.1 0.4 11.8-1.2 1.3-0.6 2.4-1.5 3.8-1.9 2.8-0.7 5.7 0.6 8.1 1.7 1.8 0.8 3.7 1.9 5.6 2.4 1.6 0.4 3.1 0 4.6 0.3 1.1 0.2 2.2 0.7 2.9 1.5 0.8 0.9 2.3 2.7 3.5 3.1 1.3 0.4 3.1 0.2 4.4 0.5 0.8 0.3 1.6 0.7 2.4 1.1 1.5 0.5 3 0.8 4.5 0.9 3.4 0.4 8.2 1.3 11.4-0.2 2.1-1 4.7-0.6 7.1-0.6 0.6 0 1.1-0.6 1.4-1 0.2-0.2 0.3-0.4 0.6-0.6 0.2-0.1 0.3-0.2 0.4-0.4 0.2-0.2 0.5-0.3 0.7-0.4 0.3-0.1 0.7-0.1 1-0.1 0.4 0 0.7 0 1.1 0.1 0.5 0.1 0.9 0.1 1.4 0.1 0.3 0 0.8-0.1 1.1 0.1l0.6 0.6c0.4 0.4 0.8 0.7 1.3 0.9 0.3 0.1 0.6 0.1 1 0.1 0.8 0 1.7 0.1 2.5 0.1h0.5c0.1 0 0.2 0.1 0.2 0.2 0.2 0.2 0.3 0.1 0.6 0.3 1.6 0 3.5 0.5 4.6-0.9 0.2-0.2 0.4-0.5 0.6-0.8 0.1-0.2 0.1-0.5 0.2-0.8 0.3-0.6 0.8-0.4 1.6-0.4 1.5-0.1 2-0.8 3.2-1.6 0.9-0.5 1.6-0.9 2.7-0.8s1.7 0.6 2.4 1.3c0.5 0.5 0.9 1.1 1.6 1.3 0.4 0.1 0.8 0 1.2 0 1.4 0 2.8 0.1 4.2 0 1 0 2.1-0.2 3.1-0.2 1.1 0 2.1 0.1 3.2-0.3 0.4-0.1 0.7-0.2 1-0.2 0.7-0.1 0.7-0.1 1.2-0.7 0.2-0.3 0.7-0.9 1.1-1 0.3-0.1 1.1 0 1.4 0 2.1 0 4.1 0.3 6.2 0.2 0.7 0 1.2-0.1 1.7 0.5s0.4 1.2 0.7 1.7c0.6 0.9 2.8 0.5 3.7 0.4 3-0.4 6.2-0.4 9.3 0.1 0.4 0.1 0.7 0.2 1.1 0.2 0.9 0 1.9-0.5 2.8-0.6 1.8-0.2 4.1-1.3 5.5-0.1 0.3 0.3 0 0.9 0.4 1.1 0.2 0.1 1 0.1 1.2 0.1 0.3 0 0.5 0.1 0.8 0.2 0.8 0.1 1.4 0.2 2.3 0.2 3 0 6-0.3 8.8 0.8 2.5 1 6.1 1.2 7.9 3.3 0.4 0.4 0.6 0.8 1.1 1.1 0.2 0.1 0.6 0.1 0.9 0.2 0.9 0.5 1.5 1.5 2 2.4 0.2 0.4 0.3 1.3 0.7 1.4 0.8 0.2 1.5-1 1.7-1.5 0.1-0.3 0.2-0.7 0.5-0.9 0.3-0.4 0.7-0.3 1.1-0.6s0.6-0.9 1-1.3c0.6 0 1.1 0.3 1.5 0.8 0.8 0.6 1.8 1.1 2.8 1.4 1.6 0.6 3.2 1.1 4.7 1.8 1.1 0.5 2.1 1.6 3.3 2 0.6 0.2 2-0.1 2.1 0.8 1.2 0.3 2.2 0.5 3.3 1 0.8 0.4 1.6 0.6 2.4 0.5 0.6-0.1 1-0.5 1.6-0.6 0.7-0.2 1.6-0.3 2.3-0.4 0.6-0.1 1.3-0.2 2-0.1 0.6 0 1.1 0.2 1.5 0.7 0.2 0.2 0.2 0.5 0.4 0.7 0.6 0.5 1.9 0.8 2.7 0.8 1.6 0.1 3.4 0 5 0 1.7-0.1 2.9 0.8 4.4 1.6 0.3 0.2 1.9 0.7 2.3 1.2 0.1 0.2 0 0.6 0.2 0.8 0.8 1.6 4.9 2.8 6.4 2.9 3.1 0.3 6.4-0.1 9.4 0.7 1.2 0.3 2 0.2 2.9 1 1.4 1.1 2.3 1.2 4.1 1.2 1.7 0 3.8 0 5.2-0.9 0.7-0.4 0.9-1.2 1.7-1.3 0.9-0.2 2 0 2.9 0.1 1 0.2 2.2 0.1 3.1 0.3 0.7 0.2 1.3 0.8 1.9 1.3 2.9 2.2 6.2 4.1 10 3.2 1.9-0.5 3.6-1.3 5.6-1.2 1.6 0 3.3 0.1 4.8-0.3 1.3-0.3 2.3 0 3.4 0.6 1.5 0.9 3.9 1.6 5.6 1 1-0.4 1.7-1.5 2.7-1.9 0.8-0.4 1.9 0 2.7 0.2 0.7 0.2 1.7 0.3 2.4 0.7 0.2 0.1 0.4 0.1 0.6 0.2 0 0.1 0.1 0.2 0.1 0.3 0.5 0.3 1.3 0.7 1.9 0.2 0.5-0.5 0.2-1.4 0.7-2s0.9-0.4 1.5-0.2c2.2 0.6 4.6 0.8 6.9 0.6 0.6-0.1 1.4-0.2 1.9-0.5 0.7-0.5 0.6-1.7 1.5-1.9 0.6 0.5 1.3 1.5 2 1.8 0.2 0.1 2-0.1 1.8-0.1 1.6 0 3 0.6 4.6 0.4 1-0.1 1.9-0.6 2.7-1.1 0.5-0.3 1-0.8 1.4-1 0.9-0.4 2.7-0.1 3.6-0.1h8.1c0.8 0 1.6-0.1 2.3 0 2 0.1 3.4 1.8 5.4 1.9 2.2 0 4.4 0 6.6-0.3 1.9-0.3 3.8-0.5 5.6-1.2 0.9-0.3 1.5-1 2.5-1.1s1.7 0.3 2.6 0.7c1.9 0.8 4.2 0.4 6.3 0.4 2.3 0 5.4 0.6 7.1-1.1 0.7-0.7 0.9-1.7 1.7-2.3 0.6-0.4 1.6-0.7 2.2-0.9 1.2-0.3 2-0.6 3.1-1.1 0.7-0.3 0.9-0.4 1.6-0.4h5.3c1.2 0 2.5-0.2 3.6 0 0.9 0.1 1.8 1.2 2.6 1.6 0.6 0.3 1.3 0.5 1.9 0.6 1.3 0.2 2.6 0.5 3.9 0.4 1.6-0.1 3.1-0.8 4.8-0.8 2.1 0.1 3.9-0.4 5.9-1 0.6 0 1.1-0.3 1.5-0.7 0.2-0.4 0.5-0.5 0.8-0.4 0.4 0.1 0.7 0.8 1 1.1 1 1 2.4 1.6 3.8 1.3 1.3-0.3 2.1-1 3.1-1.8 0.7-0.6 0.7-0.9 1.7-0.5 1.1 0.4 2.2 1.2 3.4 1.6 1.3 0.5 2.7 0.5 4 0.9 0.9 0.3 2 0.8 3 0.7 0.8-0.1 1.7-0.5 2.5-0.8 0.9-0.3 1.7-0.8 2.6-1 1.4-0.4 2.6-0.3 4-0.4 0.9-0.1 1.6-0.6 2.4-0.7 1.8-0.2 3.5 0.1 5.3-0.4 1.6-0.4 3-0.4 4.6-1 1.3-0.5 2.4-1.2 3.8-1.2h9.1c2.5 0 4.5 0.1 6.8-0.9 0.7-0.3 1.4-0.6 2.2-0.9 1-0.4 2.3-1.2 3-1.9 2.9-2.7 6.7-5.3 10.8-5.2 3.7 0.1 7.5 0.3 11.1-0.8 1.2-0.4 2.3-0.9 3.5-1.4 0 0 0.1-0.3 0.3-0.4 0.6-0.2 1.4 0.1 2.1 0 0.3-0.1 0.5-0.2 0.8-0.4 1-0.5 1.8-0.8 2.9-1 0.9-0.2 1.1-0.5 1.9-0.8 0.9-0.4 1.8-0.5 2.8-0.9 0.6-0.3 1.3-0.6 2-0.8 2.1-0.4 3.1 0.6 5 1.3 0.9 0.4 1.3 0.3 2.2 0.4 1.3 0.1 2.2 0.8 3.4 1 0.9 0.2 2 0 2.9 0 1.3 0 2.6 0 3.9-0.1 1-0.1 3.1-0.7 4.1-0.3 0.4 0.1 0.3 0.2 0.6 0.4 0.4 0.3 0.8 0.4 1.2 0.7 0.6 0.3 1 1 1.5 1.3 0.8 0.5 1.7 0.3 2.5 0.2 3.6-0.3 7-1.1 10.6-1.1 1.2 0 2.5 0.2 3.7 0 0.8-0.1 1.5-0.3 2.4-0.3 2.4 0 5.4-0.5 7.6 0.4 0.9 0.3 1.5 0.3 2.5 0.3 1.1 0.1 2 0.4 3.1 0.4 1.9 0 3.1 0.1 4.7-0.8 0.9-0.5 1.6-0.7 2.6-0.6 1.4 0.1 3 0.8 4.1 1.8 0.7 0.6 0.4 0.6 1.2 0.7 0.5 0.1 1.2 0 1.7-0.1 1-0.2 2.4-0.5 3.2-0.9s1.2-1.1 1.9-1.4c1.1-0.5 2.4 1.1 3.5 1.5 0.9 0.3 1.7 0.5 2.5 0.9 1.4 0.6 2.6 1.4 4.1 1.8 0.3 0.1 0.6 0.3 0.9 0.3s0.3-0.3 0.5-0.3c1-0.1 1.8 0 2.7-0.5s1.6-1.4 2.5-2 1.8-0.5 2.9-0.5c0.7 0 1 0 1.7 0.4 0.9 0.6 0.8 1 1.4 1.7 0.5 0.6 1.2 0.6 1.9 0.5 1.5-0.2 2.1-2 3.3-2.7 0.6-0.3 1.2-0.4 1.8-0.5 1.5-0.3 1.8-0.5 2.8-1.7 0.6-0.7 1.3-1.3 2.1-1.9v-8.3l6.9-0.3z"/>
</svg>
